<?xml  version="1.0" encoding="UTF-8"?>
<!DOCTYPE svg PUBLIC "-//W3C//DTD SVG 1.0//EN" "http://www.w3.org/TR/2001/REC-SVG-20010904/DTD/svg10.dtd" >
<svg xmlns="http://www.w3.org/2000/svg" >
<metadata>
<version>1.0</version>
<id><![CDATA[Stempel Schneidler W01 Light]]></id>
<vendor>Monotype Imaging Inc.</vendor>
<credits>
<name>Fonts.com WebFonts</name>
<URL>http://webfonts.fonts.com</URL>
<role>Home of the Web fonts</role>
</credits>
<license>
<URL>http://webfonts.fonts.com/Legal</URL>
</license>
<copyright><![CDATA[Copyright © 1990, 2002 Adobe Systems Incorporated.  All Rights Reserved.]]></copyright>
<trademark><![CDATA[Stempel Schneidler is a registered trademark of Bauer Types, S.A.]]></trademark>
<licensee>
<name></name>
</licensee>
</metadata>
<defs >
<font horiz-adv-x="524" id="0b08b22e-b218-4b7c-91f3-2f3a3bc349b2">
<font-face font-family="" panose-1="0 0 4 0 0 0 0 0 0 0" ascent="924" descent="-278" units-per-em="1000" alphabetic="0">
</font-face>
<missing-glyph horiz-adv-x="0" />

<glyph unicode="&#xA;" />
<glyph unicode="&#xD;" horiz-adv-x="0" />
<glyph unicode=" " horiz-adv-x="260" />
<glyph unicode="!" horiz-adv-x="278" d="M128 153Q117 355 111 476T105 645Q105 687 113 701T139 715Q160 715 166 701T173 651Q173 600 168 484T153 169L128 153ZM94 39Q94 58 107 71T139 84Q158 84 171 71T184 39Q184 20 171 7T139 -6Q120 -6 107 7T94 39Z"  />
<glyph unicode="&quot;" horiz-adv-x="370" d="M223 641Q222 648 221 655T220 668Q220 690 227 702T251 715Q268 715 275 703T282 668Q282 662 281 655T279 641L264 483Q263 461 251 461Q239 461 238 483L223 641ZM91 641Q90 648 89 655T88 668Q88 690 95 702T119 715Q136 715 143 703T150 668Q150 662 149 655T147 641L132 483Q131 461 119 461Q107 461 106 483L91 641Z"  />
<glyph unicode="#" horiz-adv-x="520" d="M346 442H198L174 273H322L346 442ZM169 235L136 0H91L124 235H10V273H129L153 442H39V480H158L191 715H236L203 480H351L384 715H429L396 480H510V442H391L367 273H481V235H362L329 0H284L317 235H169Z"  />
<glyph unicode="$" horiz-adv-x="520" d="M289 24Q343 34 376 70T410 166Q410 198 401 221T375 263T336 294T289 320V24ZM251 681Q227 678 204 669T164 645T137 606T126 552Q126 520 136 496T163 455T202 424T251 399V681ZM251 338Q220 352 190 368T135 408T97 466T82 549Q82 585 96 614T133 664T187 698T251 714V757Q251 769 270 769Q289 769 289 757V715Q326 714 360 710T429 699Q431 670 431 641T432 589Q432 575 429 573T414 570Q410 570 408 571T404 578T400 594T394 624Q389 652 366 667T289 683V381Q321 367 352 351T407 313T445 259T460 184Q460 104 412 54T289 -9V-95Q289 -107 270 -107Q251 -107 251 -95V-12Q248 -13 240 -13Q222 -13 201 -12T157 -8T111 -3T68 3L62 103Q61 120 61 127T60 139Q60 147 63 150T78 153Q86 153 90 147T98 115Q106 65 144 42T240 19Q248 19 251 20V338Z"  />
<glyph unicode="%" horiz-adv-x="944" d="M145 547Q145 522 149 497T166 453T198 421T250 409Q278 409 298 423T330 460T347 509T353 559Q353 581 347 604T328 646T296 677T250 689Q221 689 201 676T169 642T151 596T145 547ZM89 554Q89 587 102 616T137 667T189 702T251 715Q284 715 313 703T363 669T396 619T409 557Q409 524 396 493T361 437T308 398T243 383Q206 383 178 397T130 434T100 488T89 554ZM535 158Q535 191 548 220T583 271T635 306T697 319Q730 319 759 307T809 273T842 223T855 161Q855 128 842 97T807 41T754 2T689 -13Q652 -13 624 1T576 38T546 92T535 158ZM591 151Q591 126 595 101T612 57T644 25T696 13Q724 13 744 27T776 64T793 113T799 163Q799 185 793 208T774 250T742 281T696 293Q667 293 647 280T615 246T597 200T591 151ZM646 741H684L295 -29H256L646 741Z"  />
<glyph unicode="&amp;" horiz-adv-x="833" d="M432 530Q432 496 422 471T394 424T348 385T288 349L535 178Q549 200 567 235T602 310T630 384T642 442Q642 461 628 467T572 481Q552 484 549 487T546 501Q546 510 550 511T567 513Q574 513 585 511T610 507T637 502T662 500Q672 500 687 502T717 506T745 511T766 513Q771 513 773 511T776 500Q776 491 772 488T747 481Q728 478 718 474T701 464T689 446T677 415Q671 400 657 366T625 294T589 220T556 164L765 23L732 -19L536 132Q475 60 412 24T265 -13Q226 -13 189 -3T124 27T78 79T60 155Q60 204 101 252T237 349Q213 364 192 382T154 422T128 469T118 524Q118 563 134 590T175 633T224 657T268 665Q306 665 336 655T388 626T420 583T432 530ZM260 334Q233 316 205 300T155 265T118 219T104 156Q104 125 121 101T163 60T219 34T278 25Q353 25 409 57T511 148L260 334ZM394 520Q394 544 385 562T361 594T324 614T280 621Q255 621 233 614T193 592T166 558T156 511Q156 486 166 465T191 426T226 393T263 364Q307 389 333 409T372 448T390 484T394 520Z"  />
<glyph unicode="&apos;" horiz-adv-x="260" d="M102 641Q101 648 100 655T99 668Q99 690 106 702T130 715Q147 715 154 703T161 668Q161 662 160 655T158 641L143 483Q142 461 130 461Q118 461 117 483L102 641Z"  />
<glyph unicode="(" horiz-adv-x="296" d="M271 -221Q222 -164 186 -110T125 1T90 119T78 253Q78 325 89 386T125 504T185 615T271 727L296 706Q252 655 218 604T162 499T128 386T116 258Q116 186 127 125T161 8T218 -98T296 -200L271 -221Z"  />
<glyph unicode=")" horiz-adv-x="296" d="M0 -200Q44 -149 78 -98T134 7T168 120T180 248Q180 320 169 381T135 498T78 604T0 706L25 727Q74 670 110 616T171 505T206 387T218 253Q218 181 207 120T171 2T111 -109T25 -221L0 -200Z"  />
<glyph unicode="*" horiz-adv-x="370" d="M170 557L66 604Q58 607 52 612T46 627Q46 635 52 641T65 648Q70 648 76 644T90 635L177 569L167 661Q165 676 165 683T164 695Q164 704 170 709T185 715Q193 715 199 710T206 695Q206 691 206 684T203 661L193 569L280 635Q288 640 294 644T305 648Q312 648 318 642T324 627Q324 618 318 613T304 604L200 557L305 511Q326 501 326 488Q326 477 321 472T308 467Q300 467 294 470T279 480L193 547L203 453Q205 438 205 431T206 419Q206 410 200 405T185 399Q177 399 171 404T164 419Q164 423 164 430T167 453L177 547L91 480Q82 473 76 470T62 467Q54 467 49 472T44 488Q44 501 65 511L170 557Z"  />
<glyph unicode="+" horiz-adv-x="600" d="M278 506H322V275H553V231H322V0H278V231H47V275H278V506Z"  />
<glyph unicode="&#x2c;" horiz-adv-x="260" d="M35 -170Q47 -158 62 -139T91 -97T114 -52T124 -13Q124 -4 119 3T101 10Q96 10 91 9T83 6Q89 25 91 42T95 84Q114 81 135 81Q155 81 175 84Q168 18 144 -49T75 -170H35Z"  />
<glyph unicode="-" horiz-adv-x="333" d="M61 263H272V213H61V263Z"  />
<glyph unicode="." horiz-adv-x="260" d="M85 39Q85 58 98 71T130 84Q149 84 162 71T175 39Q175 20 162 7T130 -6Q111 -6 98 7T85 39Z"  />
<glyph unicode="/" horiz-adv-x="333" d="M285 707Q288 715 308 715Q335 715 335 707Q335 697 328 681L48 -5Q45 -13 25 -13Q-2 -13 -2 -5Q-2 5 5 21L285 707Z"  />
<glyph unicode="0" horiz-adv-x="520" d="M260 -13Q219 -13 181 7T114 72T68 185T50 351Q50 437 68 505T115 619T182 690T260 715Q301 715 339 695T406 630T452 517T470 351Q470 265 452 197T405 83T338 12T260 -13ZM256 13Q283 13 311 31T362 89T399 194T414 351Q414 524 373 606T264 689Q237 689 209 671T158 613T121 508T106 351Q106 178 147 96T256 13Z"  />
<glyph unicode="1" horiz-adv-x="520" d="M243 621L142 528Q122 509 117 509Q112 509 106 517T99 528Q99 531 102 535T118 551L292 709L300 702Q295 681 294 650T293 596V85Q293 71 296 62T309 45T337 31T386 19Q399 16 399 8Q399 -6 397 -9T390 -13Q387 -13 373 -11T340 -7T299 -2T262 0Q249 0 231 -2T194 -6T159 -11T135 -13Q129 -13 128 -8T126 1Q126 17 138 19Q176 25 197 31T228 47T241 74T243 115V621Z"  />
<glyph unicode="2" horiz-adv-x="520" d="M25 18Q127 116 195 189T305 319T364 421T382 510Q382 543 372 571T342 621T296 653T236 665Q195 665 164 651T111 612T78 554T66 484Q66 479 63 476T55 473Q50 473 48 480T46 514Q46 557 61 593T102 657T165 699T245 715Q287 715 322 702T383 663T423 604T438 527Q438 481 422 437T366 338T258 213T87 44H294Q316 44 332 47T361 60T386 86T411 129Q420 146 425 155T434 170T442 176T451 177Q455 177 458 173T462 165Q462 159 455 145T436 107T411 54T387 -13Q362 -7 328 -3Q311 -1 290 -1T241 0H177Q163 0 142 0T98 -2T55 -4T25 -6V18Z"  />
<glyph unicode="3" horiz-adv-x="520" d="M118 400Q140 393 167 390T212 387Q240 387 271 394T328 418T372 463T390 533Q390 568 379 594T347 637T299 662T241 671Q214 671 186 664T135 641T97 597T82 528Q82 507 75 507Q62 507 62 549Q62 633 114 674T255 715Q289 715 321 705T379 673T419 619T434 544Q434 483 404 444T319 384V382Q387 364 423 318T460 206Q460 160 442 120T392 51T318 4T230 -13Q189 -13 152 -3T88 27T44 76T27 141Q27 148 28 156T34 171T44 184T60 189Q82 189 88 177T95 146Q95 137 94 129T93 113Q93 97 100 80T123 47T165 23T231 13Q266 13 298 26T355 63T395 118T410 186Q410 231 393 262T347 313T281 340T203 349Q174 349 146 345T90 332L118 400Z"  />
<glyph unicode="4" horiz-adv-x="520" d="M83 233H343V614H341L83 233ZM343 189H51Q39 189 34 194T28 206Q28 217 32 221T39 229L344 673Q352 686 362 700T376 715Q382 715 391 711T400 700Q400 697 399 684T397 653T394 613T393 572V233L454 237Q458 237 463 237T473 238Q480 238 483 234T486 211Q486 187 472 187Q467 187 461 188T449 189H393V60Q393 42 390 26T374 0H317Q330 19 336 42T343 110V189Z"  />
<glyph unicode="5" horiz-adv-x="520" d="M124 702H400Q412 702 420 702T435 704Q441 704 445 704T452 705Q457 705 457 698Q457 696 454 688T447 669T438 651T429 643Q427 643 424 644T413 647T393 650T362 652H149L111 443Q148 463 182 470Q217 477 258 477Q296 477 330 466T391 432T432 374T448 290Q448 234 432 180T384 83T305 14T195 -13Q153 -13 121 -2T67 31T34 81T22 144Q22 164 28 175T55 186Q70 186 77 175T85 148Q85 139 85 129T84 108Q84 84 94 66T120 37T156 19T198 13Q242 13 280 34T345 88T388 165T404 253Q404 347 356 387T228 427Q214 427 194 424T152 415T108 398T69 374H65L124 702Z"  />
<glyph unicode="6" horiz-adv-x="520" d="M272 471Q322 471 359 455T422 411T459 342T472 254Q472 209 458 162T415 75T345 12T251 -13Q194 -13 155 12T91 78T55 168T44 266Q44 340 67 403T127 517T212 608T310 673T409 713T496 727Q503 727 509 726T522 723Q524 721 524 713Q524 709 518 707T492 701Q440 690 384 665T276 601T183 510T118 395L120 393Q149 437 187 454T272 471ZM259 433Q216 433 185 416T134 372T104 308T94 234Q94 193 103 154T133 83T184 32T259 13Q301 13 331 32T382 82T412 150T422 224Q422 261 413 298T385 366T334 414T259 433Z"  />
<glyph unicode="7" horiz-adv-x="520" d="M436 652H130Q107 652 93 650T70 645T57 640T49 637Q44 637 44 641Q44 642 48 652L68 701Q72 709 79 709Q84 709 94 708T121 706Q138 704 158 703T202 702H370Q393 702 413 703T450 706Q467 707 478 708T493 709Q502 709 502 701Q502 696 498 690T491 678L116 0H73L436 652Z"  />
<glyph unicode="8" horiz-adv-x="520" d="M260 715Q299 715 334 702T395 664T437 607T453 535Q453 503 445 475T420 424T380 387T327 368V366Q394 346 430 302T467 179Q467 136 451 101T408 41T342 1T260 -13Q216 -13 178 1T112 40T69 101T53 179Q53 257 89 301T193 366V368Q163 372 140 386T101 423T76 474T67 535Q67 574 82 607T124 664T186 701T260 715ZM260 381Q288 381 316 390T366 416T401 460T415 522Q415 591 372 628T260 665Q192 665 149 628T105 522Q105 487 118 461T154 417T204 390T260 381ZM260 349Q222 349 192 338T140 305T106 255T94 190Q94 155 107 127T144 79T197 48T260 37Q293 37 323 48T376 79T412 127T426 190Q426 226 414 255T381 305T328 337T260 349Z"  />
<glyph unicode="9" horiz-adv-x="520" d="M236 266Q187 266 151 283T91 329T56 393T44 465Q44 508 57 552T98 633T166 692T265 715Q310 715 347 698T412 647T453 565T468 456Q468 397 451 339T405 229T339 133T259 56T174 6T92 -13Q62 -13 62 -5Q62 -1 70 1Q101 10 150 35T250 106T346 217T415 374H413Q399 353 380 334T337 299T289 275T236 266ZM243 310Q282 310 315 324T372 363T410 420T424 488Q424 530 415 565T385 627T335 668T263 683Q221 683 187 667T130 622T95 557T82 477Q82 444 94 414T128 360T179 324T243 310Z"  />
<glyph unicode=":" horiz-adv-x="260" d="M85 363Q85 382 98 395T130 408Q149 408 162 395T175 363Q175 344 162 331T130 318Q111 318 98 331T85 363ZM85 39Q85 58 98 71T130 84Q149 84 162 71T175 39Q175 20 162 7T130 -6Q111 -6 98 7T85 39Z"  />
<glyph unicode=";" horiz-adv-x="260" d="M35 -170Q47 -158 62 -139T91 -97T114 -52T124 -13Q124 -4 119 3T101 10Q96 10 91 9T83 6Q89 25 91 42T95 84Q114 81 135 81Q155 81 175 84Q168 18 144 -49T75 -170H35ZM85 363Q85 382 98 395T130 408Q149 408 162 395T175 363Q175 344 162 331T130 318Q111 318 98 331T85 363Z"  />
<glyph unicode="&lt;" horiz-adv-x="600" d="M47 274L553 508V462L102 253L553 44V-2L47 232V274Z"  />
<glyph unicode="=" horiz-adv-x="600" d="M47 372H553V328H47V372ZM47 178H553V134H47V178Z"  />
<glyph unicode="&gt;" horiz-adv-x="600" d="M553 232L47 -2V44L498 253L47 462V508L553 274V232Z"  />
<glyph unicode="?" horiz-adv-x="463" d="M415 212Q377 181 326 169T229 156Q194 156 162 167T104 200T64 251T48 319Q48 362 64 391T106 441T160 478T214 507T255 538T272 579Q272 603 253 622T209 641Q196 641 184 639T159 637Q153 637 153 642Q153 643 163 654T185 679T208 704T221 715Q222 715 237 705T269 677T301 637T316 589Q316 556 298 535T253 497T195 467T137 433T92 385T74 311Q74 282 88 260T124 221T173 197T226 188Q269 188 311 203T385 246L415 212ZM174 39Q174 58 187 71T219 84Q238 84 251 71T264 39Q264 20 251 7T219 -6Q200 -6 187 7T174 39Z"  />
<glyph unicode="@" horiz-adv-x="800" d="M301 284Q301 235 322 216T372 197Q397 197 420 219T462 275T492 349T504 426Q504 460 491 477T454 495Q434 495 408 481T358 441T318 375T301 284ZM533 526H592L522 251Q519 237 519 225Q519 206 532 197T565 187Q608 187 640 208T692 261T722 331T732 405Q732 451 711 502T650 596T552 667T417 695Q351 695 294 670T195 598T128 481T104 324Q104 268 125 213T188 115T290 46T427 19Q463 19 491 23T545 34T592 50T637 69L651 45Q600 23 546 5T430 -13Q362 -13 306 3T206 45T130 107T77 181T46 259T36 335Q36 420 66 490T149 610T271 687T419 715Q492 715 555 692T664 627T737 529T764 406Q764 366 751 322T712 240T647 179T557 155Q539 155 523 162T495 180T474 204T463 230H461Q435 198 406 177T346 155Q327 155 309 161T277 183T254 224T245 287Q245 304 250 329T267 383T296 439T336 489T388 525T452 539Q475 539 493 524T521 482H523L533 526Z"  />
<glyph unicode="A" horiz-adv-x="685" d="M223 332H447L334 618L223 332ZM143 125Q135 106 132 94T126 74T124 60T124 51Q124 43 131 34T161 19Q175 16 178 14T181 5Q181 -13 173 -13Q162 -13 136 -7T84 0Q58 0 34 -6T-1 -13Q-6 -13 -7 -9T-9 6Q-9 12 -6 14T6 19Q22 23 33 28T55 43T73 67T92 107Q114 163 144 237T205 389T263 537T309 659Q316 678 320 689T328 706T334 713T338 715Q346 715 349 706Q352 695 366 658T403 567T451 449T503 323T552 204T592 110Q603 84 611 68T629 43T651 28T684 19Q687 18 690 15T694 5Q694 -7 692 -10T686 -13Q682 -13 670 -11T642 -7T613 -2T590 0Q567 0 542 -6T505 -13Q500 -13 498 -11T496 3Q496 11 499 14T512 19Q538 23 544 30T551 49Q551 61 547 77T531 120L462 294H208L143 125Z"  />
<glyph unicode="B" horiz-adv-x="593" d="M178 113Q178 62 211 41T320 19Q393 19 440 59T487 171Q487 210 471 243T425 301T349 338T246 352H178V113ZM128 636Q128 647 127 655T119 669T99 678T60 683Q43 684 40 686T37 695Q37 715 49 715Q55 715 66 713T92 709Q107 706 126 704T165 702Q184 702 198 703T227 705Q255 708 289 708Q330 708 362 695T417 661T450 613T462 555Q462 480 428 437T325 373V371Q367 366 405 355T472 323T519 267T537 182Q537 138 520 103T473 41T400 1T305 -13Q273 -13 234 -7T150 0Q133 0 115 -2T81 -6T52 -11T34 -13Q21 -13 18 -10T14 1Q14 12 20 15T46 19Q71 20 87 23T112 34T124 55T128 90V636ZM237 384Q282 384 315 396T369 428T401 475T412 531Q412 606 369 641T244 676H192Q178 676 178 660V384H237Z"  />
<glyph unicode="C" horiz-adv-x="722" d="M657 14Q633 6 604 1T545 -7T484 -11T429 -13Q337 -13 268 18T153 100T84 215T60 348Q60 417 81 483T147 600T258 683T417 715Q453 715 483 713T541 708T598 700T657 691L661 589Q661 580 659 576T645 572Q640 572 638 573T633 580T628 595T622 622Q619 639 598 651T549 670T491 680T438 683Q361 683 301 659T200 593T138 491T116 362Q116 261 150 195T234 89T341 35T447 19Q483 19 515 24T573 39T616 67T641 108Q649 136 653 142T664 149Q673 149 678 146T683 134Q683 122 678 102L657 14Z"  />
<glyph unicode="D" horiz-adv-x="796" d="M188 136Q188 97 201 74T237 39T292 23T360 19Q436 19 496 43T596 110T658 214T680 348Q680 396 667 453T619 559T523 642T368 676H214Q200 676 194 674T188 662V136ZM138 642Q138 660 125 670T67 683Q50 684 47 686T44 695Q44 715 56 715Q63 715 76 713T107 709Q124 706 141 704T173 702Q196 702 215 703T258 705Q281 707 309 707T378 708Q457 708 522 683T635 613T709 505T736 363Q736 279 711 210T637 92T519 15T358 -13Q323 -13 278 -7T180 0Q132 0 92 -6T34 -13Q21 -13 18 -10T14 1Q14 12 20 15T46 19Q75 20 93 23T121 34T134 55T138 90V642Z"  />
<glyph unicode="E" horiz-adv-x="537" d="M128 636Q128 647 127 655T119 669T99 678T60 683Q43 684 40 686T37 695Q37 715 49 715Q55 715 69 713T102 709Q121 706 143 704T185 702Q210 702 238 703T296 705Q325 707 354 707T408 708Q421 708 425 703T430 688Q430 679 431 664T434 634T437 607T439 592Q438 582 417 582Q407 582 405 595T398 625Q393 642 383 656T347 670H178V371H378Q397 371 402 378T410 397Q414 430 417 437T430 444Q441 444 444 441T448 432Q448 422 445 400T442 351Q442 325 445 307T448 281Q448 272 446 268T430 263Q425 263 421 265T416 274Q416 281 415 291T410 309Q408 314 402 323T380 333H178V142Q178 104 184 82T206 49T252 35T329 31Q363 31 388 33T430 43T457 62T474 92Q482 116 485 121T493 126Q507 126 511 122T515 112Q515 108 512 96T503 67T492 29T483 -13Q435 -9 369 -5T208 0Q166 0 137 -2T88 -6T56 -11T36 -13Q30 -13 28 -9T26 -4Q26 12 32 15T64 19Q84 20 96 22T116 31T125 48T128 78V636Z"  />
<glyph unicode="F" horiz-adv-x="500" d="M128 636Q128 647 127 655T119 669T99 678T60 683Q43 684 40 686T37 695Q37 715 49 715Q55 715 69 713T102 709Q121 706 143 704T185 702Q216 702 253 703T325 705Q360 707 389 707T432 708Q432 669 440 637T448 585Q448 580 445 577T428 573Q423 573 421 577T413 595L399 635Q394 649 382 659T335 670H178V371H364Q383 371 388 378T396 397Q400 430 403 437T416 444Q427 444 430 441T434 432Q434 422 431 400T428 351Q428 325 431 307T434 281Q434 272 432 268T416 263Q411 263 407 265T402 274Q402 281 401 291T396 309Q394 314 388 323T366 333H178V74Q178 60 185 51T213 36L275 19Q284 17 286 14T289 7Q289 -6 285 -9T272 -13Q258 -13 227 -7T153 0Q114 0 83 -6T37 -13Q29 -13 25 -10T20 7Q20 11 22 14T34 19L96 36Q116 43 122 51T128 74V636Z"  />
<glyph unicode="G" horiz-adv-x="759" d="M610 196Q610 208 604 213T587 221T565 225T542 228Q534 230 533 234T531 243Q531 247 533 253T538 260Q548 260 576 257T632 254Q662 254 683 257T712 260Q719 260 719 244Q719 235 716 233T696 228Q673 223 667 213T660 172V-7Q653 -5 641 -3Q636 -2 631 -2T620 -1Q603 -1 583 -3T540 -7Q517 -9 491 -11T436 -13Q345 -13 275 14T157 89T85 205T60 351Q60 415 78 479T138 596T249 682T421 715Q484 715 540 709T652 698Q652 675 655 648T660 607Q663 586 663 578Q663 575 659 572T642 569Q632 569 629 576T625 594Q624 605 622 618T609 644Q599 656 579 664T534 676T482 681T431 683Q351 683 292 660T193 594T135 490T116 350Q116 269 140 208T209 104T317 41T459 19Q533 19 571 34T610 87V196Z"  />
<glyph unicode="H" horiz-adv-x="796" d="M128 617Q128 643 119 654T84 673L46 683Q37 685 35 688T33 695Q33 715 41 715Q45 715 55 713T81 709T115 704T153 702Q171 702 189 704T223 708T250 713T265 715Q273 715 273 695Q273 692 272 689T260 683L222 673Q196 666 187 655T178 617V371H618V617Q618 643 609 654T574 673L536 683Q527 685 525 688T523 695Q523 715 531 715Q535 715 545 713T571 709T605 704T643 702Q661 702 679 704T713 708T740 713T755 715Q763 715 763 695Q763 692 762 689T750 683L712 673Q686 666 677 655T668 617V85Q668 59 677 48T712 29L750 19Q760 17 761 14T763 7Q763 -13 755 -13Q751 -13 740 -11T713 -7T679 -2T643 0Q624 0 606 -2T572 -6T546 -11T531 -13Q523 -13 523 7Q523 10 525 13T536 19L574 29Q600 36 609 47T618 85V333H178V85Q178 59 187 48T222 29L260 19Q270 17 271 14T273 7Q273 -13 265 -13Q261 -13 250 -11T223 -7T189 -2T153 0Q134 0 116 -2T82 -6T56 -11T41 -13Q33 -13 33 7Q33 10 35 13T46 19L84 29Q110 36 119 47T128 85V617Z"  />
<glyph unicode="I" horiz-adv-x="296" d="M123 617Q123 643 114 654T79 673L41 683Q32 685 30 688T28 695Q28 715 36 715Q40 715 53 713T82 709T116 704T148 702Q161 702 179 704T213 708T243 713T260 715Q268 715 268 695Q268 692 267 689T255 683L217 673Q191 666 182 655T173 617V85Q173 59 182 48T217 29L255 19Q265 17 266 14T268 7Q268 -13 260 -13Q256 -13 243 -11T214 -7T179 -2T148 0Q134 0 117 -2T83 -6T53 -11T36 -13Q28 -13 28 7Q28 10 30 13T41 19L79 29Q105 36 114 47T123 85V617Z"  />
<glyph unicode="J" horiz-adv-x="296" d="M123 617Q123 643 114 655T79 673L41 683Q32 685 30 688T28 695Q28 715 36 715Q40 715 53 713T82 709T116 704T148 702Q161 702 179 704T213 708T243 713T260 715Q268 715 268 695Q268 692 267 689T255 683L217 673Q191 667 182 655T173 617V69Q173 -49 128 -113T-12 -178V-115Q-5 -116 1 -116T16 -116Q44 -116 64 -112T98 -95T117 -63T123 -10V617Z"  />
<glyph unicode="K" horiz-adv-x="648" d="M439 632Q448 643 451 649T454 660Q454 668 443 672T407 683Q394 686 390 688T386 695Q386 715 394 715Q398 715 408 713T433 709T463 704T494 702Q504 702 518 704T547 708T572 713T588 715Q596 715 596 698Q596 689 593 687T586 683Q567 679 555 676T531 666T509 648T481 618L262 367L518 93Q554 54 584 32T635 -1T668 -15T680 -20Q680 -24 672 -26T640 -29Q622 -29 605 -26T566 -11T519 23T456 83L201 354L439 632ZM128 617Q128 643 119 655T84 673L46 683Q37 685 35 688T33 695Q33 715 41 715Q45 715 58 713T87 709T121 704T153 702Q166 702 184 704T218 708T248 713T265 715Q273 715 273 695Q273 692 272 689T260 683L222 673Q196 667 187 655T178 617V85Q178 59 187 47T222 29L260 19Q270 17 271 14T273 7Q273 -13 265 -13Q261 -13 248 -11T219 -7T184 -2T153 0Q139 0 122 -2T88 -6T58 -11T41 -13Q33 -13 33 7Q33 10 35 13T46 19L84 29Q110 35 119 47T128 85V617Z"  />
<glyph unicode="L" horiz-adv-x="519" d="M128 617Q128 643 119 655T84 673L46 683Q37 685 35 688T33 695Q33 715 41 715Q45 715 58 713T87 709T121 704T153 702Q166 702 184 704T218 708T248 713T265 715Q273 715 273 695Q273 692 272 689T260 683L222 673Q196 667 187 655T178 617V120Q178 95 184 79T208 54T254 41T329 37Q363 37 387 39T429 49T456 70T474 104Q481 125 484 131T493 138Q502 138 508 134T515 124Q515 120 512 108T503 77T492 35T483 -13Q435 -8 372 -4T237 0Q194 0 157 -2T92 -6T46 -11T22 -13Q14 -13 14 -1Q14 19 18 19L74 25Q101 28 114 35T128 74V617Z"  />
<glyph unicode="M" horiz-adv-x="963" d="M134 676Q137 691 138 703T147 715Q152 715 155 708T162 693L474 105L748 673Q762 701 766 708T775 715Q780 715 782 708T788 679L865 95Q867 78 871 66T882 45T903 30T937 19Q948 16 950 13T953 1Q953 -7 951 -10T940 -13Q925 -13 899 -7T838 0Q816 0 787 -6T734 -13Q723 -13 723 0Q723 11 726 14T743 19Q815 31 815 63Q815 73 814 85T810 109L750 593H748L487 42Q481 29 478 23T471 17Q468 17 464 23T455 40L170 578H168L136 174Q134 145 132 127T130 96Q130 77 132 65T144 45T171 32T220 19Q225 18 227 16T229 6Q229 -8 227 -10T217 -13Q209 -13 197 -11T171 -7T143 -2T118 0Q103 0 88 -2T60 -6T36 -11T19 -13Q12 -13 11 -8T10 5Q10 12 13 14T28 19Q47 24 58 29T74 41T82 61T86 94L134 676Z"  />
<glyph unicode="N" horiz-adv-x="778" d="M108 705Q108 712 108 716T114 721Q117 721 122 715T144 689L624 94H626V594Q626 617 625 631T616 655T592 670T546 683Q533 686 530 688T526 699Q526 709 528 712T536 715Q562 715 589 709T648 702Q655 702 668 704T694 708T721 713T744 715Q750 715 751 713T753 699Q753 691 749 689T727 683Q710 679 699 675T682 662T673 642T670 608V-4Q670 -23 662 -23Q656 -23 645 -10T610 31L154 599H152V108Q152 85 153 71T162 47T186 32T232 19Q245 16 248 14T252 3Q252 -7 250 -10T242 -13Q216 -13 189 -7T130 0Q122 0 110 -2T84 -6T57 -11T34 -13Q28 -13 27 -11T25 3Q25 11 29 13T51 19Q68 23 79 27T96 40T105 60T108 94V705Z"  />
<glyph unicode="O" horiz-adv-x="832" d="M60 351Q60 435 90 502T169 616T283 689T416 715Q484 715 548 690T662 617T742 502T772 351Q772 272 746 205T673 90T561 14T416 -13Q337 -13 272 14T159 89T86 205T60 351ZM110 352Q110 282 132 223T194 122T291 55T416 31Q484 31 540 55T637 121T700 223T722 352Q722 433 694 493T622 592T524 651T416 671Q363 671 309 652T210 593T138 493T110 352Z"  />
<glyph unicode="P" horiz-adv-x="519" d="M128 616Q128 635 127 647T119 667T101 678T67 683Q50 684 47 686T44 695Q44 715 56 715Q62 715 73 713T99 709Q114 706 133 704T172 702Q183 702 196 703T227 705Q260 708 300 708Q341 708 375 699T433 668T471 614T485 532Q485 489 469 455T424 397T355 360T265 347Q257 347 246 351T224 360T207 372T200 382Q200 386 207 386Q211 386 228 383T266 379Q347 379 391 416T435 518Q435 561 421 591T382 640T325 667T258 676H230Q215 676 200 675T182 671Q178 668 178 661V111Q178 83 184 67T204 42T240 28T296 19Q307 18 307 5Q307 -6 305 -9T296 -13Q292 -13 276 -11T238 -7T196 -2T162 0Q146 0 129 -2T96 -6T69 -11T53 -13Q49 -13 48 -10T46 5Q46 12 49 14T61 19Q82 24 95 29T115 41T125 58T128 87V616Z"  />
<glyph unicode="Q" horiz-adv-x="832" d="M642 63Q597 27 540 7T416 -13Q337 -13 272 14T159 89T86 205T60 351Q60 435 90 502T169 616T283 689T416 715Q484 715 548 690T662 617T742 502T772 351Q772 275 749 211T681 100L750 30Q764 16 778 3T810 -19Q822 -25 822 -26Q822 -29 812 -30T790 -31Q762 -31 743 -25T699 6L642 63ZM110 352Q110 282 132 223T194 122T291 55T416 31Q484 31 540 55T637 121T700 223T722 352Q722 433 694 493T622 592T524 651T416 671Q363 671 309 652T210 593T138 493T110 352Z"  />
<glyph unicode="R" horiz-adv-x="648" d="M128 616Q128 635 127 647T119 667T101 678T67 683Q50 684 47 686T44 695Q44 715 56 715Q62 715 73 713T99 709Q114 706 133 704T172 702Q192 702 210 703T247 705Q283 708 318 708Q355 708 386 698T440 667T476 616T489 547Q489 479 455 430T365 347L545 110Q558 93 574 75T606 41T636 13T660 -5Q669 -10 671 -13T674 -19Q674 -24 672 -25T661 -26Q621 -26 577 5T498 82L315 326Q298 321 271 319T210 316H178V95Q178 77 179 66T185 47T197 37T217 31Q237 26 249 24T267 19T274 15T276 9Q276 -2 273 -7T259 -13Q250 -13 238 -11T211 -7T181 -2T153 0Q140 0 125 -2T95 -6T69 -11T51 -13Q40 -13 40 9Q40 13 42 15T50 20T69 26T102 35Q119 40 123 51T128 87V616ZM178 351Q192 349 205 349T236 348Q297 348 335 365T395 409T425 468T433 531Q433 604 394 640T263 676H195Q178 676 178 661V351Z"  />
<glyph unicode="S" horiz-adv-x="519" d="M47 103Q46 120 46 127T45 139Q45 147 50 150T63 153Q71 153 75 146T83 115Q91 65 129 42T225 19Q261 19 292 28T347 56T383 103T396 169Q396 218 372 248T311 299T232 339T153 383T92 447T67 547Q67 585 82 616T125 669T191 703T273 715Q303 715 339 710T414 697Q416 668 416 639T417 587Q417 575 414 572T402 568Q397 568 394 569T388 577T384 593T379 622Q368 683 266 683Q237 683 209 675T160 650T125 608T111 546Q111 498 136 469T198 420T278 382T359 340T421 280T446 187Q446 140 429 103T382 40T312 1T225 -13Q207 -13 186 -12T142 -8T96 -3T53 3L47 103Z"  />
<glyph unicode="T" horiz-adv-x="630" d="M290 664H80Q63 664 48 658T21 645T2 632T-7 626Q-13 626 -13 632Q-13 636 -11 643T-6 664L3 705Q5 715 8 715Q10 715 13 713T24 709Q31 706 42 704T72 702H536Q564 702 580 704T608 709Q618 711 622 713T629 715Q636 715 636 709Q636 705 633 698T628 679L623 659Q620 646 618 641T611 635Q606 635 600 639T585 649T561 659T526 664H340V85Q340 59 349 47T384 29L422 19Q432 17 433 14T435 7Q435 -13 427 -13Q423 -13 410 -11T381 -7T346 -2T315 0Q301 0 284 -2T250 -6T220 -11T203 -13Q195 -13 195 7Q195 10 197 13T208 19L246 29Q272 35 281 47T290 85V664Z"  />
<glyph unicode="U" horiz-adv-x="760" d="M381 -13Q306 -13 259 13T184 79T144 166T126 254Q123 281 120 324T114 419T109 526T105 633Q105 645 104 652T97 665T82 674T56 683Q42 687 39 689T36 694Q36 708 38 711T46 715Q62 715 85 709T146 702Q172 702 196 708T244 715Q249 715 251 711T253 696Q253 688 252 686T245 683Q217 678 201 674T175 664T164 650T161 629Q161 572 163 489T172 284Q176 216 193 167T237 84T301 35T381 19Q434 19 472 37T537 88T578 167T596 270Q602 359 603 438T604 599Q604 621 603 635T596 658T579 672T548 683Q534 687 532 690T529 701Q529 712 531 713T539 715Q550 715 574 709T628 702Q654 702 679 708T716 715Q721 715 722 713T724 698Q724 690 722 688T709 683Q691 678 680 674T663 665T656 652T654 633Q654 539 650 444T634 252Q630 220 618 175T578 88T503 17T381 -13Z"  />
<glyph unicode="V" horiz-adv-x="668" d="M549 570Q560 597 567 619T575 654Q575 667 560 672T512 683Q500 685 497 688T493 700Q493 708 495 711T505 715Q511 715 522 713T545 709T568 704T587 702Q614 702 639 708T674 715Q680 715 681 712T683 695Q683 690 677 688T664 683Q652 678 643 671T625 644L354 -2Q352 -7 348 -13T339 -19Q334 -19 327 -4L73 587Q62 613 55 629T39 656T22 672T-4 683Q-15 687 -15 700Q-15 709 -14 712T-9 715Q2 715 25 709T68 702Q78 702 90 704T116 708T140 713T158 715Q163 715 165 712T167 698Q167 690 163 688T147 683Q120 677 115 672T109 652Q109 641 117 619T132 580L347 74L549 570Z"  />
<glyph unicode="W" horiz-adv-x="981" d="M475 591L456 641Q453 650 449 655T437 665T414 673T373 683Q368 684 367 688T365 699Q365 709 367 712T374 715Q391 715 419 709T487 702Q521 702 551 708T599 715Q603 715 606 714T609 703Q609 692 606 689T593 683Q565 677 550 673T526 664T516 656T514 644Q514 637 516 625T521 607L688 97H690L852 577Q859 597 865 619T872 648Q872 660 862 666T817 683Q813 684 812 688T811 698Q811 708 812 711T821 715Q837 715 857 709T903 702Q932 702 948 708T977 715Q980 715 983 712T986 697Q986 684 980 683Q962 677 951 673T934 662T923 647T913 622L698 3Q693 -11 689 -15T683 -19Q679 -19 670 6L493 537H491L314 6Q309 -8 305 -13T299 -19Q296 -19 293 -12T283 12L64 635Q56 658 47 668T17 683Q2 686 -1 688T-5 698Q-5 709 -4 712T2 715Q4 715 14 713T36 709T63 704T87 702Q104 702 128 708T169 715Q174 715 175 713T176 701Q176 690 173 688T157 683Q134 678 126 672T118 658Q118 654 118 649T121 635T128 610T141 571L301 96H303L475 591Z"  />
<glyph unicode="X" horiz-adv-x="685" d="M346 395L502 604Q516 623 522 637T528 659Q528 669 515 673T473 683Q458 686 458 697Q458 710 461 712T471 715Q475 715 486 713T510 709T537 704T561 702Q574 702 589 704T620 708T647 713T667 715Q673 715 675 711T677 693Q677 689 674 687T659 683Q621 674 604 659T584 639L374 361L574 80Q584 66 591 58T605 43T620 33T642 25Q666 17 671 14T677 3Q677 -13 665 -13Q662 -13 651 -11T625 -7T594 -2T565 0Q552 0 538 -2T512 -6T490 -11T475 -13Q461 -13 461 4Q461 12 468 15T499 26Q516 31 520 35T525 47Q525 55 518 68T501 95L340 321L172 95Q161 80 158 71T155 55Q155 41 163 36T197 24Q218 19 223 16T229 3Q229 -7 227 -10T221 -13Q218 -13 208 -11T182 -7T149 -2T111 0Q86 0 63 -6T19 -13Q15 -13 12 -11T8 5Q8 9 11 12T30 20Q49 26 65 36T101 72L315 356L112 637Q102 651 89 662T41 683Q31 685 27 688T22 699Q22 709 25 712T36 715Q50 715 73 709T131 702Q159 702 182 708T230 715Q235 715 236 712T238 698Q238 692 236 689T223 683Q188 675 181 669T174 658Q174 651 178 640T190 617L346 395Z"  />
<glyph unicode="Y" horiz-adv-x="630" d="M290 284L51 654Q43 666 37 670T12 679Q-5 684 -8 687T-12 698Q-12 715 0 715Q3 715 10 713T29 709T53 704T81 702Q94 702 108 704T135 708T156 713T167 715Q173 715 175 712T177 697Q177 689 174 686T159 681Q142 678 133 676T119 671T113 667T112 661Q112 659 115 653T124 639L321 329L498 611Q512 634 516 643T521 659Q521 668 512 672T481 683Q467 687 462 689T457 697Q457 709 460 712T473 715Q478 715 487 713T508 709T530 704T552 702Q562 702 573 704T595 708T615 713T629 715Q642 715 642 706V694Q642 689 638 688T621 683Q603 679 591 670T559 631L340 284V85Q340 59 349 48T384 29L422 19Q431 17 433 14T435 7Q435 -13 427 -13Q423 -13 410 -11T381 -7T346 -2T315 0Q301 0 284 -2T250 -6T220 -11T203 -13Q195 -13 195 7Q195 10 197 13T208 19L246 29Q272 36 281 47T290 85V284Z"  />
<glyph unicode="Z" horiz-adv-x="648" d="M569 702Q577 702 582 702T587 699Q587 696 575 680L109 44H516Q572 44 594 50T622 56Q630 56 630 54Q630 47 629 43L623 4Q620 -13 614 -13Q612 -13 607 -11T592 -6Q583 -4 569 -2T534 0H21L505 658H121Q106 658 94 654T74 645T60 636T53 632Q49 632 49 641Q49 644 50 648T52 659L59 704Q61 715 67 715Q68 715 72 713T86 709T115 704T165 702H569Z"  />
<glyph unicode="[" horiz-adv-x="296" d="M91 715H260V683H129V-177H260V-209H91V715Z"  />
<glyph unicode="\" horiz-adv-x="333" d="M328 21Q335 5 335 -5Q335 -13 308 -13Q288 -13 285 -5L5 681Q-2 697 -2 707Q-2 715 25 715Q45 715 48 707L328 21Z"  />
<glyph unicode="]" horiz-adv-x="296" d="M36 -177H167V683H36V715H205V-209H36V-177Z"  />
<glyph unicode="^" horiz-adv-x="600" d="M283 702H317L501 337H455L300 644L145 337H99L283 702Z"  />
<glyph unicode="_" horiz-adv-x="500" d="M0 -125V-75H500V-125H0Z"  />
<glyph unicode="`" horiz-adv-x="260" d="M36 649Q13 663 0 673T-13 697Q-13 707 -5 714T13 722Q24 722 34 714T59 692L203 561H173L36 649Z"  />
<glyph unicode="a" horiz-adv-x="463" d="M315 220Q315 234 298 234Q279 234 245 227T175 207Q127 191 106 166T85 102Q85 82 93 68T115 44T144 30T176 25Q201 25 225 32T270 51T302 82T315 123V220ZM365 135Q365 108 366 90T374 59T392 37T428 17Q424 2 414 -5T394 -13Q382 -13 370 -6T347 12T329 38T320 67H318Q294 29 255 8T162 -13Q129 -13 105 -3T66 23T43 61T35 105Q35 132 45 156T86 201T171 238T315 266V318Q315 362 289 390T198 419Q182 419 170 415T154 408Q147 402 142 393T133 373T126 353T118 341Q116 339 112 339T104 339Q88 339 88 350Q88 356 90 363T94 379L116 457H184Q275 457 320 431T365 336V135Z"  />
<glyph unicode="b" horiz-adv-x="556" d="M99 669Q99 684 80 684Q72 684 65 683T49 682Q44 682 42 686T40 694Q40 706 49 710L128 744Q139 749 147 752T159 756Q162 756 166 752T171 739Q171 733 164 730Q159 728 157 726T152 719T150 706T149 684V348H151Q181 394 224 425T327 457Q369 457 401 441T455 397T488 333T500 259Q500 204 481 155T430 69T353 9T259 -13Q217 -13 189 -3T140 23Q117 41 108 53T99 79V669ZM149 155Q149 93 176 59T266 25Q300 25 333 39T392 80T434 149T450 243Q450 275 442 305T417 357T372 393T308 407Q276 407 247 395T196 362T162 316T149 264V155Z"  />
<glyph unicode="c" horiz-adv-x="444" d="M408 59Q379 29 338 8T250 -13Q198 -13 162 6T102 56T67 125T56 201Q56 275 78 324T132 403T201 445T268 457Q282 457 303 454T345 445T380 427T395 398Q395 368 371 368Q357 368 346 376T322 393T290 411T245 419Q206 419 180 400T137 350T113 285T106 219Q106 184 116 151T147 91T196 48T265 31Q281 31 299 34T335 44T368 59T395 80L408 59Z"  />
<glyph unicode="d" horiz-adv-x="556" d="M396 669Q396 684 377 684Q369 684 362 683T346 682Q341 682 339 686T337 694Q337 706 346 710L425 744Q436 749 444 752T456 756Q459 756 463 752T468 739Q468 733 461 730Q456 728 454 726T449 719T447 706T446 684V81Q446 64 448 59T456 53Q458 53 463 55T474 61T486 67T495 70Q500 70 503 65T507 54Q507 52 504 49T489 39L424 -4Q410 -13 405 -13Q399 -13 396 -8T393 3Q393 8 394 13T396 26V78H394Q362 40 323 14T230 -13Q145 -13 101 39T56 185Q56 259 76 310T129 394T200 442T275 457Q316 457 347 444T394 401H396V669ZM396 353Q384 384 356 404T279 425Q249 425 219 411T163 368T122 297T106 201Q106 120 141 76T241 31Q265 31 291 41T340 66T378 94T396 117V353Z"  />
<glyph unicode="e" horiz-adv-x="463" d="M425 83Q387 43 342 15T240 -13Q194 -13 160 4T102 52T68 121T56 203Q56 244 68 288T106 370T168 432T253 457Q289 457 317 445T365 413T395 364T405 303Q405 291 394 290L106 243Q106 139 142 85T260 31Q303 31 341 51T409 101L425 83ZM318 312Q339 316 344 321T349 337Q349 371 324 398T249 425Q222 425 198 412T155 378T124 330T110 274L318 312Z"  />
<glyph unicode="f" horiz-adv-x="315" d="M104 379Q104 390 98 390H66Q61 390 60 394T59 403Q59 408 68 414L94 434Q101 439 102 448T104 477V580Q104 629 119 662T158 717T207 747T257 756Q291 756 311 748T332 719Q332 688 305 688Q294 688 284 691T264 699T245 708T225 712Q190 712 172 686T154 599V445Q154 437 157 435T172 432Q176 432 195 432T237 433T280 433T305 434Q316 434 320 429T324 415Q324 404 320 397T307 390H154V90Q154 72 159 59T176 38T212 26T271 19Q279 18 283 16T286 4Q285 -13 268 -13Q260 -13 242 -11T202 -7T161 -2T129 0Q118 0 105 -2T80 -6T59 -11T45 -13Q41 -13 40 -6T38 6Q38 11 39 14T48 19Q67 25 78 29T95 40T102 57T104 85V379Z"  />
<glyph unicode="g" horiz-adv-x="500" d="M468 388Q445 388 423 388T380 384Q391 367 397 342T404 296Q404 261 391 232T356 183T303 151T239 139Q223 139 208 141T178 149Q163 137 155 129T142 114T136 103T134 93Q134 81 148 72T185 57T237 46T298 36Q330 31 360 25T412 8T448 -23T462 -76Q462 -103 444 -136T393 -197T311 -245T203 -265Q168 -265 136 -257T78 -231T38 -189T22 -131Q22 -100 34 -77T65 -36T109 -6T159 15V17Q121 26 103 39T84 74Q84 86 91 97T110 119T133 140T156 158Q112 176 91 210T69 292Q69 331 83 362T120 414T175 446T241 457Q279 457 306 445T351 419Q380 424 409 428T468 432V388ZM360 297Q360 322 351 344T325 383T286 409T236 419Q207 419 185 409T146 382T122 341T113 293Q113 241 144 206T230 171Q257 171 280 180T321 207T349 247T360 297ZM72 -123Q72 -151 85 -171T120 -205T168 -226T219 -233Q256 -233 291 -221T353 -187T396 -138T412 -80Q412 -47 357 -22T198 3Q177 3 155 -6T114 -32T84 -72T72 -123Z"  />
<glyph unicode="h" horiz-adv-x="556" d="M104 669Q104 684 85 684Q77 684 70 683T54 682Q49 682 47 686T45 694Q45 706 54 710L133 744Q144 749 152 752T164 756Q167 756 171 752T176 739Q176 733 169 730Q164 728 162 726T157 719T155 706T154 684V369Q169 385 185 401T221 429T262 449T310 457Q340 457 366 446T411 410T441 344T452 241V90Q452 71 453 60T460 41T479 29T515 19Q527 16 531 14T535 5Q535 -6 533 -9T522 -13Q509 -13 482 -7T427 0Q399 0 372 -6T332 -13Q323 -13 321 -10T319 5Q319 11 323 13T339 19Q362 24 375 28T394 40T401 59T402 90V247Q402 335 373 374T282 413Q262 413 242 404T203 383T172 357T154 335V90Q154 71 155 60T162 41T181 29T217 19Q229 16 233 14T237 5Q237 -6 235 -9T224 -13Q211 -13 184 -7T129 0Q101 0 74 -6T34 -13Q25 -13 23 -10T21 5Q21 11 25 13T41 19Q64 24 77 28T96 40T103 59T104 90V669Z"  />
<glyph unicode="i" horiz-adv-x="258" d="M104 359Q104 384 102 389T92 395Q89 395 82 394T67 392T52 390T44 389Q37 389 37 402Q37 412 48 417L142 460Q149 463 156 463Q160 463 162 459T165 448Q165 442 160 433T154 397V90Q154 71 155 60T162 41T181 29T217 19Q229 16 233 14T237 5Q237 -6 235 -9T224 -13Q211 -13 184 -7T129 0Q101 0 74 -6T34 -13Q25 -13 23 -10T21 5Q21 11 25 13T41 19Q64 24 77 28T96 40T103 59T104 90V359ZM89 613Q89 630 100 641T129 653Q146 653 157 642T169 613Q169 596 158 585T129 573Q112 573 101 584T89 613Z"  />
<glyph unicode="j" horiz-adv-x="241" d="M104 359Q104 384 102 389T92 395Q89 395 82 394T67 392T52 390T44 389Q37 389 37 402Q37 412 48 417L142 460Q149 463 156 463Q160 463 162 459T165 448Q165 442 160 433T154 397V-160Q154 -191 142 -211T111 -242T72 -259T34 -265L28 -236Q71 -226 87 -210T104 -158V359ZM89 613Q89 630 100 641T129 653Q146 653 157 642T169 613Q169 596 158 585T129 573Q112 573 101 584T89 613Z"  />
<glyph unicode="k" horiz-adv-x="500" d="M362 440Q388 466 401 474T425 483Q434 483 444 476T454 458Q454 442 446 435T424 421T391 404T351 373L230 254L440 48Q451 38 464 32T502 25Q509 25 509 18Q509 9 493 -2T460 -13Q448 -13 436 -7T412 7T393 23T379 37L173 246L362 440ZM104 669Q104 684 85 684Q77 684 70 683T54 682Q49 682 47 686T45 694Q45 706 54 710L133 744Q144 749 152 752T164 756Q167 756 171 752T176 739Q176 733 169 730Q164 728 162 726T157 719T155 706T154 684V90Q154 71 155 60T162 41T181 29T217 19Q229 16 233 14T237 5Q237 -6 235 -9T224 -13Q211 -13 184 -7T129 0Q101 0 74 -6T34 -13Q25 -13 23 -10T21 5Q21 11 25 13T41 19Q64 24 77 28T96 40T103 59T104 90V669Z"  />
<glyph unicode="l" horiz-adv-x="258" d="M104 669Q104 684 85 684Q77 684 70 683T54 682Q49 682 47 686T45 694Q45 706 54 710L133 744Q144 749 152 752T164 756Q167 756 171 752T176 739Q176 733 169 730Q164 728 162 726T157 719T155 706T154 684V90Q154 71 155 60T162 41T181 29T217 19Q229 16 233 14T237 5Q237 -6 235 -9T224 -13Q211 -13 184 -7T129 0Q101 0 74 -6T34 -13Q25 -13 23 -10T21 5Q21 11 25 13T41 19Q64 24 77 28T96 40T103 59T104 90V669Z"  />
<glyph unicode="m" horiz-adv-x="852" d="M104 359Q104 384 102 389T92 395Q89 395 82 394T67 392T52 390T44 389Q37 389 37 402Q37 412 48 417L142 460Q144 461 147 462T152 463Q154 463 157 457T161 448Q161 446 160 444T158 437T155 422T154 393V369Q169 385 185 401T221 429T262 449T310 457Q328 457 346 453T381 437T412 407T435 359Q459 382 480 400T521 431T562 450T608 457Q638 457 664 446T709 410T739 344T750 241V90Q750 71 751 60T758 41T777 29T813 19Q825 16 829 14T833 5Q833 -6 831 -9T820 -13Q807 -13 780 -7T725 0Q697 0 670 -6T630 -13Q621 -13 619 -10T617 5Q617 11 621 13T637 19Q660 24 673 28T692 40T699 59T700 90V247Q700 335 671 374T580 413Q560 413 539 404T500 382T468 355T446 331Q451 299 451 264T452 194V90Q452 71 453 60T460 41T479 29T515 19Q527 16 531 14T535 5Q535 -6 533 -9T522 -13Q509 -13 482 -7T427 0Q399 0 372 -6T332 -13Q323 -13 321 -10T319 5Q319 11 323 13T339 19Q362 24 375 28T394 40T401 59T402 90V247Q402 335 373 374T282 413Q262 413 242 404T203 383T172 357T154 335V90Q154 71 155 60T162 41T181 29T217 19Q229 16 233 14T237 5Q237 -6 235 -9T224 -13Q211 -13 184 -7T129 0Q101 0 74 -6T34 -13Q25 -13 23 -10T21 5Q21 11 25 13T41 19Q64 24 77 28T96 40T103 59T104 90V359Z"  />
<glyph unicode="n" horiz-adv-x="556" d="M104 359Q104 384 102 389T92 395Q89 395 82 394T67 392T52 390T44 389Q37 389 37 402Q37 412 48 417L142 460Q144 461 147 462T152 463Q154 463 157 457T161 448Q161 446 160 444T158 437T155 422T154 393V369Q169 385 185 401T221 429T262 449T310 457Q340 457 366 446T411 410T441 344T452 241V90Q452 71 453 60T460 41T479 29T515 19Q527 16 531 14T535 5Q535 -6 533 -9T522 -13Q509 -13 482 -7T427 0Q399 0 372 -6T332 -13Q323 -13 321 -10T319 5Q319 11 323 13T339 19Q362 24 375 28T394 40T401 59T402 90V247Q402 335 373 374T282 413Q262 413 242 404T203 383T172 357T154 335V90Q154 71 155 60T162 41T181 29T217 19Q229 16 233 14T237 5Q237 -6 235 -9T224 -13Q211 -13 184 -7T129 0Q101 0 74 -6T34 -13Q25 -13 23 -10T21 5Q21 11 25 13T41 19Q64 24 77 28T96 40T103 59T104 90V359Z"  />
<glyph unicode="o" horiz-adv-x="556" d="M450 222Q450 262 440 298T409 361T356 403T278 419Q234 419 202 404T148 361T117 298T106 222Q106 189 116 154T148 91T202 44T278 25Q321 25 353 43T407 90T439 154T450 222ZM500 222Q500 167 482 124T432 50T361 3T278 -13Q231 -13 191 3T120 49T73 123T56 222Q56 277 74 320T122 394T192 441T278 457Q325 457 365 441T436 395T483 321T500 222Z"  />
<glyph unicode="p" horiz-adv-x="556" d="M99 359Q99 384 97 389T87 395Q84 395 77 394T62 392T47 390T39 389Q32 389 32 402Q32 412 43 417L134 458Q142 463 147 463Q149 463 152 457T156 448Q156 446 155 444T153 437T150 422T149 393V348H151Q181 394 224 425T327 457Q369 457 401 441T455 397T488 333T500 259Q500 212 485 164T439 76T366 12T268 -13Q233 -13 202 -3T151 34H149V-184Q149 -202 153 -207T168 -213Q176 -213 184 -212T204 -211Q212 -211 212 -223Q212 -229 211 -232T204 -237L106 -273Q103 -275 99 -276T92 -278Q87 -278 85 -272T83 -262Q83 -254 91 -251T99 -237V359ZM450 243Q450 275 442 305T417 357T372 393T308 407Q284 407 259 398T211 373T172 336T149 290V150Q149 93 180 56T272 19Q315 19 348 38T403 88T438 159T450 243Z"  />
<glyph unicode="q" horiz-adv-x="556" d="M396 76H394Q387 66 372 51T334 22T285 -3T229 -13Q187 -13 155 3T101 47T68 111T56 185Q56 252 76 303T129 388T200 439T275 457Q358 457 394 401H396V449Q396 457 398 457Q402 457 407 454T420 447T439 440T467 437H496Q500 437 501 435T503 424Q503 416 501 414T491 411Q465 409 456 406T446 387V-184Q446 -202 450 -207T465 -213Q473 -213 481 -212T501 -211Q509 -211 509 -223Q509 -229 508 -232T501 -237L403 -273Q400 -275 396 -276T389 -278Q384 -278 382 -272T380 -262Q380 -254 388 -251T396 -237V76ZM106 201Q106 169 114 139T140 84T182 46T242 31Q267 31 294 41T343 65T381 95T396 119V338Q396 355 387 371T362 399T326 418T283 425Q245 425 213 407T157 357T120 286T106 201Z"  />
<glyph unicode="r" horiz-adv-x="333" d="M104 359Q104 384 102 389T92 395Q89 395 82 394T67 392T52 390T44 389Q37 389 37 402Q37 412 48 417L134 458Q144 463 147 463Q153 463 153 454V363H155Q178 402 217 429T304 457Q324 457 324 447V407Q324 397 318 397Q316 397 310 399T286 401Q244 401 219 390T179 362T159 331T154 308V90Q154 71 155 60T162 41T181 29T217 19Q229 16 233 14T237 5Q237 -6 235 -9T224 -13Q211 -13 184 -7T129 0Q101 0 74 -6T34 -13Q25 -13 23 -10T21 5Q21 11 25 13T41 19Q64 24 77 28T96 40T103 59T104 90V359Z"  />
<glyph unicode="s" horiz-adv-x="407" d="M327 385Q328 377 328 371T328 358Q328 348 322 345T309 342Q296 342 292 350T284 391Q282 409 266 417T212 425Q193 425 175 421T142 406T118 379T109 338Q109 315 126 299T170 270T226 245T282 216T325 176T343 119Q343 58 299 23T185 -13Q162 -13 132 -11T77 -3Q72 -2 68 0T63 11Q57 49 54 74T51 107Q51 121 59 125T74 130Q80 130 83 127T89 117T94 95T101 60Q103 46 120 33T184 19Q197 19 215 22T251 36T281 64T293 114Q293 139 276 155T232 185T176 210T120 238T77 276T59 333Q59 352 66 374T90 414T138 445T215 457Q245 457 269 455T310 450Q320 448 322 438L327 385Z"  />
<glyph unicode="t" horiz-adv-x="315" d="M154 154Q154 116 159 92T174 55T197 36T227 31Q249 31 266 36T296 48T316 60T327 66Q329 66 334 61T340 51Q340 47 331 37T304 15T264 -4T214 -13Q157 -13 131 26T104 155V374Q104 382 102 386T92 391Q84 391 75 391T57 390Q44 390 44 400Q44 405 49 410T74 427Q92 439 99 457T111 494T120 524T136 537Q147 537 150 534T154 523V434H311Q324 434 324 415Q324 404 320 397T307 390H164Q159 390 156 387Q154 383 154 379V154Z"  />
<glyph unicode="u" horiz-adv-x="556" d="M104 359Q104 384 102 389T92 395Q89 395 82 394T67 392T52 390T44 389Q37 389 37 402Q37 412 48 417L142 460Q149 463 156 463Q160 463 162 459T165 448Q165 442 160 433T154 397V152Q154 96 179 64T258 31Q274 31 293 36T332 52T370 76T402 110V388Q402 399 394 400T377 402Q367 402 359 403T351 413Q351 418 352 422T356 428Q359 430 374 431T410 437Q436 444 450 453T466 463Q471 463 475 459T479 449Q479 444 475 441T466 433T456 421T452 403V81Q452 49 461 49Q463 49 469 52T482 60T494 67T502 71Q505 71 510 64T515 55Q515 52 511 49T499 41L423 -9Q416 -13 410 -13Q406 -13 401 -7T395 1Q395 5 399 16T404 47Q404 54 404 60T402 74Q390 59 372 44T334 16T291 -5T248 -13Q212 -13 185 -2T140 30T113 79T104 140V359Z"  />
<glyph unicode="v" horiz-adv-x="500" d="M257 -8Q253 -15 250 -17T243 -19Q241 -19 239 -18T234 -13T227 -1T217 22L51 401Q46 411 27 418Q8 424 8 432Q8 437 10 443T18 450Q21 450 35 447Q42 446 51 445T73 444Q90 444 103 446T128 451Q139 453 145 455T155 457Q167 457 167 438Q167 433 161 430T135 419Q121 414 118 408T114 393Q114 386 119 368T140 314T182 217T253 65L297 161Q328 228 347 271T377 340T392 377T396 391Q396 399 389 405T362 419Q344 427 339 429T334 436Q334 440 337 448T348 457Q352 457 358 455T374 451Q383 448 395 446T421 444Q431 444 439 445T455 447Q470 450 477 450Q484 450 488 446T492 431Q492 425 487 424T475 420T460 412T445 393Q439 381 423 345T384 262T338 162T293 67L257 -8Z"  />
<glyph unicode="w" horiz-adv-x="815" d="M591 28Q581 8 572 -5T555 -19Q550 -19 545 -12T535 8T524 36T512 68Q501 97 487 134T460 210T434 282T415 339H413Q382 260 349 190T291 67L255 -8Q251 -15 248 -17T241 -19Q236 -19 230 -6T216 22L43 401Q38 411 19 418Q0 424 0 432Q0 437 2 443T10 450Q13 450 27 447Q34 446 43 445T65 444Q82 444 95 446T120 451Q131 453 137 455T147 457Q159 457 159 438Q159 433 153 430T127 419Q113 414 110 408T106 393Q106 386 111 369T133 316T177 219T250 66L294 162Q339 261 364 318T390 390Q392 404 383 410T337 425Q323 429 320 431T317 440Q317 452 320 454T329 457Q337 457 361 451T413 444Q426 444 441 446T471 450T495 455T510 457Q516 457 519 454T522 435Q522 428 498 425Q482 422 466 417T450 396Q450 387 453 372T469 322T504 227T569 66Q622 175 652 239T696 336T714 380T717 395Q717 405 708 411T680 425Q669 430 666 432T663 438Q663 440 667 448T673 457Q684 457 699 451T739 444Q767 444 782 450T803 457Q805 457 810 448T815 436Q815 431 810 429T798 423T783 412T769 388L591 28Z"  />
<glyph unicode="x" horiz-adv-x="500" d="M251 193L150 74Q135 56 130 48T124 36Q124 31 126 27T137 19Q148 14 151 12T154 7Q154 5 151 -4T144 -13Q138 -13 119 -7T80 0Q62 0 51 -2T33 -6T20 -11T11 -13Q5 -13 3 -5T1 6Q1 12 3 14T16 19Q28 23 40 28T65 45T96 73T135 118L221 223L76 397Q66 408 58 412T31 425Q17 431 17 436Q17 438 19 447T26 457Q38 457 56 451T93 444Q117 444 136 450T168 457Q171 457 175 450T179 440Q179 436 172 433T157 427T142 419T135 407Q135 405 138 398T158 370L251 253L344 363Q360 382 363 392T366 408Q366 416 360 419T348 425Q338 428 332 430T325 436Q325 442 328 449T337 457Q343 457 358 451T403 444Q438 444 454 450T475 457Q478 457 481 450T485 435Q485 431 479 428T463 420T441 407T416 384L278 223L377 106Q396 83 410 68T434 44T450 31T462 25Q484 17 491 14T499 9Q499 7 496 -3T488 -13Q482 -13 458 -7T410 0Q400 0 388 -2T364 -6T344 -11T332 -13Q328 -13 325 -3T322 9Q322 12 324 14T337 18Q345 20 356 26T368 37Q368 41 365 47T347 71L251 193Z"  />
<glyph unicode="y" horiz-adv-x="537" d="M268 53Q325 157 358 221T408 322T431 375T436 397Q436 407 430 412T406 425Q389 432 385 434T381 438Q381 440 384 448T390 457Q404 457 421 451T462 444Q472 444 483 446T504 450T523 455T537 457Q540 457 541 452T542 439Q542 436 535 435T515 425Q510 421 504 413Q489 392 465 345T403 229T317 69T202 -127Q182 -160 163 -185T124 -229T81 -256T32 -265Q22 -265 17 -255T11 -220Q11 -212 17 -209T44 -203Q65 -201 82 -196T116 -178T152 -140T195 -73L240 5Q207 77 179 134T127 238T83 323T45 396Q33 418 15 425Q7 428 2 430T-3 437Q-3 445 0 451T6 457Q11 457 27 451T77 444Q87 444 99 446T123 450T142 455T154 457Q159 457 162 450T165 439Q165 437 162 435T140 425Q121 417 115 411T108 396Q108 386 115 370T136 326L268 53Z"  />
<glyph unicode="z" horiz-adv-x="480" d="M360 400H254Q153 400 102 394T47 387Q41 387 41 393Q41 396 44 410T56 450Q70 448 86 448T120 446Q138 445 156 445T192 444H294Q311 444 332 445T371 447Q390 449 404 449T421 450Q423 450 426 441T429 424Q429 419 421 409T402 386L93 44H244Q284 44 318 45T380 47T423 50T444 51Q453 51 453 43Q453 40 452 34T448 20T444 7T441 -2Q440 -5 437 -5T432 -6Q430 -6 418 -5T383 -3Q339 0 254 0H174Q113 0 82 -3Q65 -4 56 -5T45 -6Q35 -6 31 3T27 20Q27 22 33 29T50 49L360 400Z"  />
<glyph unicode="{" horiz-adv-x="296" d="M88 563Q88 612 97 641T124 687T165 709T215 715V701Q166 690 149 658T132 569V393Q132 364 129 342T118 302T93 273T51 254V252Q77 245 93 233T117 204T129 165T132 113V-63Q132 -120 149 -152T215 -195V-209Q188 -209 165 -204T125 -182T98 -136T88 -57V129Q88 155 85 175T74 210T51 235T13 253Q36 260 50 270T73 296T85 331T88 377V563Z"  />
<glyph unicode="|" horiz-adv-x="222" d="M86 756H136V-13H86V756Z"  />
<glyph unicode="}" horiz-adv-x="296" d="M208 -57Q208 -106 199 -135T172 -181T131 -203T81 -209V-195Q130 -184 147 -152T164 -63V113Q164 142 167 164T178 204T203 233T245 252V254Q219 261 203 273T179 302T167 341T164 393V569Q164 626 147 658T81 701V715Q108 715 131 710T171 688T198 642T208 563V377Q208 351 211 331T222 296T245 271T283 253Q260 245 246 235T223 210T211 175T208 129V-57Z"  />
<glyph unicode="~" horiz-adv-x="600" d="M528 283Q517 267 505 252T478 224T445 205T403 197Q375 197 351 206T301 230Q277 244 249 254T186 265Q169 265 157 259T134 242T116 219T102 193L72 223Q80 239 91 254T118 282T152 301T197 309Q223 309 251 300T308 277Q336 265 363 253T410 241Q425 241 437 247T460 264T480 287T498 313L528 283Z"  />
<glyph unicode="&#xA0;" horiz-adv-x="260" />
<glyph unicode="&#xA1;" horiz-adv-x="278" d="M150 297Q161 94 167 -26T173 -195Q173 -237 165 -251T139 -265Q118 -265 112 -251T105 -201Q105 -176 106 -135T109 -34T116 103T125 281L150 297ZM94 412Q94 431 107 444T139 457Q158 457 171 444T184 412Q184 393 171 380T139 367Q120 367 107 380T94 412Z"  />
<glyph unicode="&#xA2;" horiz-adv-x="520" d="M320 411Q301 419 273 419Q234 419 208 400T165 352T141 288T134 223Q134 176 151 134T200 64L320 411ZM227 46Q241 39 257 35T293 31Q309 31 327 34T363 44T396 59T423 79L436 58Q407 29 366 8T278 -13Q241 -13 210 -1L178 -93Q176 -97 174 -101T163 -105Q157 -105 150 -105T142 -99Q142 -96 144 -91T148 -82L181 11Q130 40 107 92T84 201Q84 276 106 325T160 403T229 445T296 457Q304 457 313 456T335 453L358 517Q360 521 362 525T373 529Q379 529 386 529T394 523Q394 520 392 516T388 506L367 446Q389 440 406 429T423 399Q423 364 399 364Q385 364 374 373T349 392L227 46Z"  />
<glyph unicode="&#xA3;" horiz-adv-x="520" d="M55 338Q45 338 45 360Q45 376 59 376H122Q105 414 89 448T73 526Q73 567 86 602T128 662T199 701T302 715Q315 715 333 714T370 710T406 706T434 703L437 633Q438 613 438 603T438 587Q438 581 436 579T423 576Q413 576 411 579T406 593Q400 621 391 638T368 666T335 679T291 683Q213 683 168 643T123 536Q123 517 129 496T143 453T161 411T178 376H361Q369 376 371 371T373 357Q373 346 371 342T360 338H193Q200 316 203 292T207 257Q207 227 199 200T179 146T150 96T116 49Q136 54 162 54T213 55Q231 55 253 54T297 52T336 50T361 49Q388 49 405 68T435 110T457 152T478 171Q483 171 489 168T496 160Q496 157 490 146T478 122L420 -13Q361 -1 302 5Q243 11 183 11H98Q91 3 77 -6Q61 -13 52 -13Q24 -13 24 5Q24 18 40 30T89 46Q103 71 115 91T137 133T151 177T157 232Q157 257 153 283T138 338H55Z"  />
<glyph unicode="&#xA4;" horiz-adv-x="520" d="M73 201Q20 266 20 351Q20 394 33 432T73 501L20 554L57 591L110 538Q141 563 179 577T260 591Q303 591 341 578T410 538L463 591L500 554L447 501Q472 470 486 432T500 351Q500 266 447 201L500 148L463 111L410 165Q345 111 260 111Q217 111 179 125T111 165L57 111L20 148L73 201ZM64 351Q64 310 79 275T121 213T183 171T260 155Q300 155 336 170T398 212T440 274T456 351Q456 391 441 427T399 489T336 531T260 547Q219 547 184 532T122 490T80 427T64 351Z"  />
<glyph unicode="&#xA5;" horiz-adv-x="520" d="M238 315H67Q60 315 60 334Q60 344 61 348T70 353H222L33 664Q31 667 24 672T-3 683Q-16 687 -19 691T-23 701Q-23 715 -15 715Q-11 715 -1 713T20 709T44 704T67 702Q77 702 90 704T114 708T135 713T150 715Q158 715 158 701Q158 693 157 689T145 683Q128 679 118 677T102 672T96 667T94 661Q94 654 119 610L265 364L399 609Q411 631 417 645T423 661Q423 668 415 671T370 683Q362 685 361 689T359 701Q359 715 367 715Q371 715 381 713T402 709T426 704T450 702Q461 702 474 704T499 708T520 713T535 715Q543 715 543 701Q543 695 540 690T520 683Q503 680 494 676T478 660L298 353H450Q457 353 458 349T460 334Q460 315 453 315H282V217H450Q457 217 458 213T460 198Q460 179 453 179H282V117Q282 95 284 79T293 51T317 31T360 19Q374 17 378 13T382 0Q382 -13 365 -13Q354 -13 341 -11T313 -7T284 -2T260 0Q250 0 236 -2T208 -6T179 -11T155 -13Q138 -13 138 0Q138 8 142 12T160 19Q187 23 203 31T226 50T236 78T238 117V179H67Q60 179 60 198Q60 208 61 212T70 217H238V315Z"  />
<glyph unicode="&#xA6;" horiz-adv-x="222" d="M86 756H136V461H86V756ZM86 282H136V-13H86V282Z"  />
<glyph unicode="&#xA7;" horiz-adv-x="520" d="M80 397Q80 465 107 523T177 624T269 691T365 715Q373 715 384 713T406 707T424 696T431 679Q431 666 423 657T400 647Q388 647 377 651T356 662T334 672T312 677Q289 677 272 667T242 641T224 603T217 560Q217 523 233 483T275 402T328 316T382 228T423 138T440 46Q440 19 434 -10T415 -68T387 -123T352 -171Q310 -217 263 -241T152 -265Q142 -265 131 -263T109 -256T93 -242T86 -221Q86 -206 97 -199T120 -191Q133 -191 143 -196T164 -209T186 -221T214 -227Q234 -227 251 -218T280 -195T299 -161T306 -122Q306 -89 290 -49T248 35T193 125T139 218T97 310T80 397ZM118 417Q118 376 134 334T173 249T225 163T276 75T316 -13T332 -103Q332 -120 330 -133T324 -159L326 -161Q341 -144 355 -122T379 -76T396 -28T402 19Q402 67 386 112T346 200T294 286T241 371T201 457T185 544Q185 562 191 583T207 619L205 621Q166 579 142 525T118 417Z"  />
<glyph unicode="&#xA8;" horiz-adv-x="260" d="M185 622Q185 639 196 650T225 662Q242 662 253 651T265 622Q265 605 254 594T225 582Q208 582 197 593T185 622ZM-5 622Q-5 639 6 650T35 662Q52 662 63 651T75 622Q75 605 64 594T35 582Q18 582 7 593T-5 622Z"  />
<glyph unicode="&#xA9;" horiz-adv-x="800" d="M400 -13Q325 -13 259 15T143 93T65 209T36 351Q36 426 64 492T142 608T258 686T400 715Q475 715 541 687T657 609T735 493T764 351Q764 276 736 210T658 94T542 16T400 -13ZM400 19Q467 19 525 44T627 113T695 218T720 351Q720 420 695 480T627 586T526 657T400 683Q333 683 275 658T173 589T105 484T80 351Q80 279 105 219T173 114T274 44T400 19ZM558 447H544Q543 464 537 480T517 510T480 532T423 541Q383 541 354 528T306 490T276 433T266 361Q266 318 275 283T305 222T357 182T432 167Q460 167 481 174T518 194T544 222T561 255H575L558 175Q496 147 422 147Q377 147 337 158T266 194T217 259T198 357Q198 390 212 426T254 492T326 541T428 561Q476 561 511 548T558 520V447Z"  />
<glyph unicode="&#xAA;" horiz-adv-x="301" d="M205 556Q205 564 194 564Q181 564 159 560T114 548Q82 538 69 523T55 485Q55 461 74 450T114 439Q130 439 146 443T176 455T197 473T205 498V556ZM243 492Q243 477 244 467T249 450T261 437T284 425Q282 416 275 412T262 407Q244 407 230 419T211 450H210Q196 431 171 419T105 407Q57 407 37 429T17 481Q17 502 24 519T51 549T108 573T205 590V610Q205 636 188 653T129 670Q110 670 102 663T89 646T81 630T68 622Q57 622 57 630Q57 633 58 637T61 646L75 702H123Q184 702 213 687T243 630V492Z"  />
<glyph unicode="&#xAB;" horiz-adv-x="407" d="M64 238L172 392H212L104 238L212 84H172L64 238ZM195 238L303 392H343L235 238L343 84H303L195 238Z"  />
<glyph unicode="&#xAC;" horiz-adv-x="600" d="M503 328H47V372H553V108H503V328Z"  />
<glyph unicode="&#xAD;" horiz-adv-x="333" d="M61 263H272V213H61V263Z"  />
<glyph unicode="&#xAE;" horiz-adv-x="800" d="M282 483Q282 502 282 512T277 528T262 534T233 538V552H410Q434 552 457 547T498 530T526 500T537 458Q537 415 512 387T448 346L511 255Q529 228 542 212T565 187T582 174T595 169V161H538Q528 161 515 172T489 201L402 337H344V230Q344 211 344 201T350 186T365 180T397 175V161H233V175Q252 178 262 179T276 186T281 201T282 230V483ZM344 357H395Q475 357 475 453Q475 498 450 515T391 532H344V357ZM400 -13Q325 -13 259 15T143 93T65 209T36 351Q36 426 64 492T142 608T258 686T400 715Q475 715 541 687T657 609T735 493T764 351Q764 276 736 210T658 94T542 16T400 -13ZM400 19Q467 19 525 44T627 113T695 218T720 351Q720 420 695 480T627 586T526 657T400 683Q333 683 275 658T173 589T105 484T80 351Q80 279 105 219T173 114T274 44T400 19Z"  />
<glyph unicode="&#xAF;" horiz-adv-x="260" d="M1 638H259V600H1V638Z"  />
<glyph unicode="&#xB0;" horiz-adv-x="400" d="M57 572Q57 602 68 628T98 673T144 704T200 715Q230 715 256 704T301 674T332 628T343 572Q343 542 332 516T302 471T256 440T200 429Q170 429 144 440T99 470T68 516T57 572ZM89 572Q89 549 98 529T122 494T157 470T200 461Q223 461 243 470T278 494T302 529T311 572Q311 595 302 615T278 650T243 674T200 683Q177 683 157 674T122 650T98 615T89 572Z"  />
<glyph unicode="&#xB1;" horiz-adv-x="600" d="M278 506H322V320H553V276H322V90H278V276H47V320H278V506ZM47 44H553V0H47V44Z"  />
<glyph unicode="&#xB2;" horiz-adv-x="338" d="M205 308Q233 308 248 318T281 359Q292 379 296 383T307 388Q314 388 314 381Q314 378 309 369T297 346T281 312T266 270Q257 272 248 273T230 275Q221 276 213 276T195 276H86Q51 276 24 270V287Q90 346 134 389T206 467T244 530T256 586Q256 627 230 652T161 677Q108 677 80 647T52 571Q52 568 49 566T44 564Q39 564 36 568T32 589Q32 617 43 640T73 679T118 705T174 715Q230 715 265 684T300 602Q300 570 290 542T253 480T184 406T74 308H205Z"  />
<glyph unicode="&#xB3;" horiz-adv-x="338" d="M86 527Q100 523 118 521T147 519Q165 519 185 523T223 538T251 564T263 606Q263 644 235 663T166 683Q149 683 131 679T97 665T72 639T62 597Q62 591 61 588T51 584Q42 584 42 613Q42 666 77 690T172 715Q197 715 219 709T258 690T285 658T295 611Q295 575 276 552T222 516V514Q267 503 290 475T314 398Q314 372 302 349T269 308T221 280T162 270Q133 270 108 276T64 295T35 325T24 366Q24 379 28 390T45 401Q64 401 69 394T74 376Q74 370 73 366T72 356Q72 347 76 337T91 317T119 302T162 296Q184 296 204 304T241 325T266 355T276 391Q276 419 265 438T235 470T192 487T141 493Q122 493 104 491T68 482L86 527Z"  />
<glyph unicode="&#xB4;" horiz-adv-x="260" d="M201 692Q215 705 225 713T247 722Q257 722 265 715T273 697Q273 684 260 674T224 649L87 561H57L201 692Z"  />
<glyph unicode="&#xB5;" horiz-adv-x="556" d="M104 359Q104 384 102 389T92 395Q89 395 82 394T67 392T52 390T44 389Q37 389 37 402Q37 412 48 417L142 460Q149 463 156 463Q160 463 162 459T165 448Q165 442 160 433T154 397V152Q154 96 179 64T258 31Q274 31 293 36T332 52T370 76T402 110V388Q402 399 394 400T377 402Q367 402 359 403T351 413Q351 418 352 422T356 428Q359 430 374 431T410 437Q436 444 450 453T466 463Q471 463 475 459T479 449Q479 444 475 441T466 433T456 421T452 403V81Q452 49 461 49Q463 49 469 52T482 60T494 67T502 71Q505 71 510 64T515 55Q515 52 511 49T499 41L423 -9Q416 -13 410 -13Q406 -13 401 -7T395 1Q395 5 399 16T404 47Q404 54 404 60T402 74Q390 59 372 44T334 16T291 -5T248 -13Q212 -13 186 0T142 44H140Q140 -48 144 -109T148 -213Q148 -243 142 -254T119 -265Q103 -265 97 -254T90 -213Q90 -198 92 -169T97 -104T102 -32T104 34V359Z"  />
<glyph unicode="&#xB6;" horiz-adv-x="600" d="M261 683Q187 683 153 644T118 513Q118 463 129 429T159 373T205 342T261 332V683ZM261 300Q207 300 168 315T105 359T68 428T56 516Q56 563 67 600T104 662T169 701T265 715H506V695Q476 693 459 689T434 677T423 659T421 632V-182Q421 -198 423 -209T433 -227T459 -238T506 -245V-265H377V683H305V-265H176V-245Q206 -243 223 -239T248 -227T259 -209T261 -182V300Z"  />
<glyph unicode="&#xB7;" horiz-adv-x="260" d="M80 302Q80 323 94 337T130 352Q151 352 165 338T180 302Q180 281 166 267T130 252Q109 252 95 266T80 302Z"  />
<glyph unicode="&#xB8;" horiz-adv-x="260" d="M144 0H178L149 -66Q162 -63 179 -63Q215 -63 236 -79T258 -133Q258 -171 227 -192T142 -214Q99 -214 62 -199L71 -170Q85 -175 104 -178T130 -182Q140 -182 152 -180T173 -174T189 -161T196 -139Q196 -95 142 -95Q129 -95 112 -102L101 -97L144 0Z"  />
<glyph unicode="&#xB9;" horiz-adv-x="338" d="M163 658L96 603Q84 592 80 592Q77 592 73 598T68 608Q68 610 70 612T81 622L194 715H206Q203 699 202 680T201 647V335Q201 319 211 311T262 296Q266 295 268 293T270 283Q270 270 265 270Q263 270 254 271T232 273T205 275T181 276Q170 276 157 275T132 273T109 271T93 270Q89 270 88 273T87 282Q87 290 89 292T95 296Q119 299 133 303T153 313T161 328T163 353V658Z"  />
<glyph unicode="&#xBA;" horiz-adv-x="360" d="M180 433Q208 433 229 444T264 472T285 511T292 554Q292 606 265 641T180 676Q122 676 95 641T68 554Q68 533 75 512T96 473T131 444T180 433ZM181 407Q149 407 122 417T74 445T42 491T30 554Q30 590 42 617T74 663T121 692T181 702Q212 702 239 692T286 664T318 618T330 554Q330 519 319 492T287 446T239 417T181 407Z"  />
<glyph unicode="&#xBB;" horiz-adv-x="407" d="M303 238L195 392H235L343 238L235 84H195L303 238ZM172 238L64 392H104L212 238L104 84H64L172 238Z"  />
<glyph unicode="&#xBC;" horiz-adv-x="778" d="M655 379H653L486 150H655V379ZM650 414Q655 422 663 430T682 439Q687 439 693 437T699 431Q699 428 696 413T693 375V150L745 153Q750 153 752 150T754 131Q754 117 745 117Q741 117 738 117T730 118H693V36Q693 25 691 15T681 0H638Q646 12 650 25T655 66V118H459Q444 118 444 128Q444 132 446 135T451 142L650 414ZM562 741H600L211 -29H172L562 741ZM163 658L96 603Q84 592 80 592Q77 592 73 598T68 608Q68 610 70 612T81 622L194 715H206Q203 699 202 680T201 647V335Q201 319 211 311T262 296Q266 295 268 293T270 283Q270 270 265 270Q263 270 254 271T232 273T205 275T181 276Q170 276 157 275T132 273T109 271T93 270Q89 270 88 273T87 282Q87 290 89 292T95 296Q119 299 133 303T153 313T161 328T163 353V658Z"  />
<glyph unicode="&#xBD;" horiz-adv-x="778" d="M562 741H600L211 -29H172L562 741ZM645 32Q673 32 688 42T721 83Q732 103 736 107T747 112Q754 112 754 105Q754 102 749 93T737 70T721 36T706 -6Q697 -4 688 -3T670 -1Q661 0 653 0T635 0H526Q491 0 464 -6V11Q530 70 574 113T646 191T684 254T696 310Q696 351 670 376T601 401Q548 401 520 371T492 295Q492 292 489 290T484 288Q479 288 476 292T472 313Q472 341 483 364T513 403T558 429T614 439Q670 439 705 408T740 326Q740 294 730 266T693 204T624 130T514 32H645ZM163 658L96 603Q84 592 80 592Q77 592 73 598T68 608Q68 610 70 612T81 622L194 715H206Q203 699 202 680T201 647V335Q201 319 211 311T262 296Q266 295 268 293T270 283Q270 270 265 270Q263 270 254 271T232 273T205 275T181 276Q170 276 157 275T132 273T109 271T93 270Q89 270 88 273T87 282Q87 290 89 292T95 296Q119 299 133 303T153 313T161 328T163 353V658Z"  />
<glyph unicode="&#xBE;" horiz-adv-x="778" d="M655 379H653L486 150H655V379ZM650 414Q655 422 663 430T682 439Q687 439 693 437T699 431Q699 428 696 413T693 375V150L745 153Q750 153 752 150T754 131Q754 117 745 117Q741 117 738 117T730 118H693V36Q693 25 691 15T681 0H638Q646 12 650 25T655 66V118H459Q444 118 444 128Q444 132 446 135T451 142L650 414ZM592 741H630L241 -29H202L592 741ZM86 527Q100 523 118 521T147 519Q165 519 185 523T223 538T251 564T263 606Q263 644 235 663T166 683Q149 683 131 679T97 665T72 639T62 597Q62 591 61 588T51 584Q42 584 42 613Q42 666 77 690T172 715Q197 715 219 709T258 690T285 658T295 611Q295 575 276 552T222 516V514Q267 503 290 475T314 398Q314 372 302 349T269 308T221 280T162 270Q133 270 108 276T64 295T35 325T24 366Q24 379 28 390T45 401Q64 401 69 394T74 376Q74 370 73 366T72 356Q72 347 76 337T91 317T119 302T162 296Q184 296 204 304T241 325T266 355T276 391Q276 419 265 438T235 470T192 487T141 493Q122 493 104 491T68 482L86 527Z"  />
<glyph unicode="&#xBF;" horiz-adv-x="463" d="M48 238Q67 253 90 264T137 281T186 291T234 294Q268 294 301 283T359 250T399 199T415 131Q415 88 399 59T357 9T303 -28T249 -57T208 -89T191 -129Q191 -153 210 -172T254 -191Q267 -191 279 -189T304 -187Q310 -187 310 -192Q310 -193 300 -204T278 -229T255 -254T242 -265Q241 -265 226 -255T194 -227T162 -187T147 -139Q147 -106 165 -85T210 -47T268 -17T326 17T371 65T389 139Q389 167 375 190T339 229T289 253T237 262Q194 262 152 247T78 204L48 238ZM289 412Q289 393 276 380T244 367Q225 367 212 380T199 412Q199 431 212 444T244 457Q263 457 276 444T289 412Z"  />
<glyph unicode="&#xC0;" horiz-adv-x="685" d="M223 332H447L334 618L223 332ZM143 125Q135 106 132 94T126 74T124 60T124 51Q124 43 131 34T161 19Q175 16 178 14T181 5Q181 -13 173 -13Q162 -13 136 -7T84 0Q58 0 34 -6T-1 -13Q-6 -13 -7 -9T-9 6Q-9 12 -6 14T6 19Q22 23 33 28T55 43T73 67T92 107Q114 163 144 237T205 389T263 537T309 659Q316 678 320 689T328 706T334 713T338 715Q346 715 349 706Q352 695 366 658T403 567T451 449T503 323T552 204T592 110Q603 84 611 68T629 43T651 28T684 19Q687 18 690 15T694 5Q694 -7 692 -10T686 -13Q682 -13 670 -11T642 -7T613 -2T590 0Q567 0 542 -6T505 -13Q500 -13 498 -11T496 3Q496 11 499 14T512 19Q538 23 544 30T551 49Q551 61 547 77T531 120L462 294H208L143 125ZM249 835Q226 849 213 859T200 883Q200 893 208 900T226 908Q237 908 247 900T272 878L416 747H386L249 835Z"  />
<glyph unicode="&#xC1;" horiz-adv-x="685" d="M223 332H447L334 618L223 332ZM143 125Q135 106 132 94T126 74T124 60T124 51Q124 43 131 34T161 19Q175 16 178 14T181 5Q181 -13 173 -13Q162 -13 136 -7T84 0Q58 0 34 -6T-1 -13Q-6 -13 -7 -9T-9 6Q-9 12 -6 14T6 19Q22 23 33 28T55 43T73 67T92 107Q114 163 144 237T205 389T263 537T309 659Q316 678 320 689T328 706T334 713T338 715Q346 715 349 706Q352 695 366 658T403 567T451 449T503 323T552 204T592 110Q603 84 611 68T629 43T651 28T684 19Q687 18 690 15T694 5Q694 -7 692 -10T686 -13Q682 -13 670 -11T642 -7T613 -2T590 0Q567 0 542 -6T505 -13Q500 -13 498 -11T496 3Q496 11 499 14T512 19Q538 23 544 30T551 49Q551 61 547 77T531 120L462 294H208L143 125ZM414 878Q428 891 438 899T460 908Q470 908 478 901T486 883Q486 870 473 860T437 835L300 747H270L414 878Z"  />
<glyph unicode="&#xC2;" horiz-adv-x="685" d="M223 332H447L334 618L223 332ZM143 125Q135 106 132 94T126 74T124 60T124 51Q124 43 131 34T161 19Q175 16 178 14T181 5Q181 -13 173 -13Q162 -13 136 -7T84 0Q58 0 34 -6T-1 -13Q-6 -13 -7 -9T-9 6Q-9 12 -6 14T6 19Q22 23 33 28T55 43T73 67T92 107Q114 163 144 237T205 389T263 537T309 659Q316 678 320 689T328 706T334 713T338 715Q346 715 349 706Q352 695 366 658T403 567T451 449T503 323T552 204T592 110Q603 84 611 68T629 43T651 28T684 19Q687 18 690 15T694 5Q694 -7 692 -10T686 -13Q682 -13 670 -11T642 -7T613 -2T590 0Q567 0 542 -6T505 -13Q500 -13 498 -11T496 3Q496 11 499 14T512 19Q538 23 544 30T551 49Q551 61 547 77T531 120L462 294H208L143 125ZM322 908H364L486 747H464L343 851L222 747H200L322 908Z"  />
<glyph unicode="&#xC3;" horiz-adv-x="685" d="M223 332H447L334 618L223 332ZM143 125Q135 106 132 94T126 74T124 60T124 51Q124 43 131 34T161 19Q175 16 178 14T181 5Q181 -13 173 -13Q162 -13 136 -7T84 0Q58 0 34 -6T-1 -13Q-6 -13 -7 -9T-9 6Q-9 12 -6 14T6 19Q22 23 33 28T55 43T73 67T92 107Q114 163 144 237T205 389T263 537T309 659Q316 678 320 689T328 706T334 713T338 715Q346 715 349 706Q352 695 366 658T403 567T451 449T503 323T552 204T592 110Q603 84 611 68T629 43T651 28T684 19Q687 18 690 15T694 5Q694 -7 692 -10T686 -13Q682 -13 670 -11T642 -7T613 -2T590 0Q567 0 542 -6T505 -13Q500 -13 498 -11T496 3Q496 11 499 14T512 19Q538 23 544 30T551 49Q551 61 547 77T531 120L462 294H208L143 125ZM498 868Q490 831 464 803T398 774Q378 774 361 781T327 797Q312 805 298 811T268 818Q229 818 210 772H188Q201 815 226 838T288 861Q307 861 323 854T356 839Q371 831 385 825T412 818Q439 818 453 834T476 868H498Z"  />
<glyph unicode="&#xC4;" horiz-adv-x="685" d="M223 332H447L334 618L223 332ZM143 125Q135 106 132 94T126 74T124 60T124 51Q124 43 131 34T161 19Q175 16 178 14T181 5Q181 -13 173 -13Q162 -13 136 -7T84 0Q58 0 34 -6T-1 -13Q-6 -13 -7 -9T-9 6Q-9 12 -6 14T6 19Q22 23 33 28T55 43T73 67T92 107Q114 163 144 237T205 389T263 537T309 659Q316 678 320 689T328 706T334 713T338 715Q346 715 349 706Q352 695 366 658T403 567T451 449T503 323T552 204T592 110Q603 84 611 68T629 43T651 28T684 19Q687 18 690 15T694 5Q694 -7 692 -10T686 -13Q682 -13 670 -11T642 -7T613 -2T590 0Q567 0 542 -6T505 -13Q500 -13 498 -11T496 3Q496 11 499 14T512 19Q538 23 544 30T551 49Q551 61 547 77T531 120L462 294H208L143 125ZM398 808Q398 825 409 836T438 848Q455 848 466 837T478 808Q478 791 467 780T438 768Q421 768 410 779T398 808ZM208 808Q208 825 219 836T248 848Q265 848 276 837T288 808Q288 791 277 780T248 768Q231 768 220 779T208 808Z"  />
<glyph unicode="&#xC5;" horiz-adv-x="685" d="M223 332H447L334 618L223 332ZM143 125Q135 106 132 94T126 74T124 60T124 51Q124 43 131 34T161 19Q175 16 178 14T181 5Q181 -13 173 -13Q162 -13 136 -7T84 0Q58 0 34 -6T-1 -13Q-6 -13 -7 -9T-9 6Q-9 12 -6 14T6 19Q22 23 33 28T55 43T73 67T92 107Q114 163 144 237T205 389T263 537T309 659Q316 678 320 689T328 706T334 713T338 715Q346 715 349 706Q352 695 366 658T403 567T451 449T503 323T552 204T592 110Q603 84 611 68T629 43T651 28T684 19Q687 18 690 15T694 5Q694 -7 692 -10T686 -13Q682 -13 670 -11T642 -7T613 -2T590 0Q567 0 542 -6T505 -13Q500 -13 498 -11T496 3Q496 11 499 14T512 19Q538 23 544 30T551 49Q551 61 547 77T531 120L462 294H208L143 125ZM248 829Q248 848 255 865T276 896T306 916T343 924Q362 924 379 917T410 896T430 866T438 829Q438 809 431 792T410 762T380 742T343 734Q323 734 306 741T276 762T256 792T248 829ZM280 829Q280 803 298 785T343 766Q369 766 387 784T406 829Q406 855 388 873T343 892Q317 892 299 874T280 829Z"  />
<glyph unicode="&#xC6;" horiz-adv-x="907" d="M292 610Q299 629 302 639T306 659Q306 670 291 675T253 683Q227 685 219 687T211 698V708Q211 715 221 715Q232 715 252 713T299 709Q325 706 353 704T406 702Q455 702 492 703T558 705Q615 708 643 708Q654 708 658 704T662 689V671Q662 653 665 629T669 590Q669 585 666 583T650 581Q647 581 645 582T641 588T636 602T628 625Q623 641 611 655T570 670H370L482 371H652Q671 371 676 378T684 397Q688 430 691 437T704 444Q715 444 718 441T722 432Q722 422 719 400T716 351Q716 325 719 307T722 281Q722 272 720 268T704 263Q699 263 695 265T690 274Q690 281 689 291T684 309Q682 314 676 323T654 333H496L590 85Q596 70 603 61T623 46T659 39T715 37Q784 37 817 49T862 102Q867 118 870 124T881 130Q895 130 898 128T901 118Q901 114 898 102T889 72T878 32T869 -13Q816 -9 771 -5T669 0Q593 0 554 -6T499 -13Q492 -13 491 -9T489 1Q489 10 493 13T512 19Q530 21 538 30T546 47Q546 56 543 65T536 84L481 233H193L142 98Q132 72 132 52Q132 38 143 32T177 19Q189 16 191 14T194 4Q194 -8 191 -10T183 -13Q178 -13 168 -11T146 -7T118 -2T90 0Q59 0 34 -6T0 -13Q-7 -13 -8 -7T-10 5Q-10 10 -6 13T9 19Q32 24 47 30T73 48T93 80T113 132L292 610ZM207 271H467L338 619L207 271Z"  />
<glyph unicode="&#xC7;" horiz-adv-x="722" d="M394 -12Q311 -6 249 27T144 110T81 222T60 348Q60 417 81 483T147 600T258 683T417 715Q453 715 483 713T541 708T598 700T657 691L661 589Q661 580 659 576T645 572Q640 572 638 573T633 580T628 595T622 622Q619 639 598 651T549 670T491 680T438 683Q361 683 301 659T200 593T138 491T116 362Q116 261 150 195T234 89T341 35T447 19Q483 19 515 24T573 39T616 67T641 108Q649 136 653 142T664 149Q673 149 678 146T683 134Q683 122 678 102L657 14Q633 6 604 1T545 -7T484 -11T429 -13H427L404 -66Q417 -63 434 -63Q470 -63 491 -79T513 -133Q513 -171 482 -192T397 -214Q354 -214 317 -199L326 -170Q340 -175 359 -178T385 -182Q395 -182 407 -180T428 -174T444 -161T451 -139Q451 -95 397 -95Q384 -95 367 -102L356 -97L394 -12Z"  />
<glyph unicode="&#xC8;" horiz-adv-x="537" d="M128 636Q128 647 127 655T119 669T99 678T60 683Q43 684 40 686T37 695Q37 715 49 715Q55 715 69 713T102 709Q121 706 143 704T185 702Q210 702 238 703T296 705Q325 707 354 707T408 708Q421 708 425 703T430 688Q430 679 431 664T434 634T437 607T439 592Q438 582 417 582Q407 582 405 595T398 625Q393 642 383 656T347 670H178V371H378Q397 371 402 378T410 397Q414 430 417 437T430 444Q441 444 444 441T448 432Q448 422 445 400T442 351Q442 325 445 307T448 281Q448 272 446 268T430 263Q425 263 421 265T416 274Q416 281 415 291T410 309Q408 314 402 323T380 333H178V142Q178 104 184 82T206 49T252 35T329 31Q363 31 388 33T430 43T457 62T474 92Q482 116 485 121T493 126Q507 126 511 122T515 112Q515 108 512 96T503 67T492 29T483 -13Q435 -9 369 -5T208 0Q166 0 137 -2T88 -6T56 -11T36 -13Q30 -13 28 -9T26 -4Q26 12 32 15T64 19Q84 20 96 22T116 31T125 48T128 78V636ZM175 835Q152 849 139 859T126 883Q126 893 134 900T152 908Q163 908 173 900T198 878L342 747H312L175 835Z"  />
<glyph unicode="&#xC9;" horiz-adv-x="537" d="M128 636Q128 647 127 655T119 669T99 678T60 683Q43 684 40 686T37 695Q37 715 49 715Q55 715 69 713T102 709Q121 706 143 704T185 702Q210 702 238 703T296 705Q325 707 354 707T408 708Q421 708 425 703T430 688Q430 679 431 664T434 634T437 607T439 592Q438 582 417 582Q407 582 405 595T398 625Q393 642 383 656T347 670H178V371H378Q397 371 402 378T410 397Q414 430 417 437T430 444Q441 444 444 441T448 432Q448 422 445 400T442 351Q442 325 445 307T448 281Q448 272 446 268T430 263Q425 263 421 265T416 274Q416 281 415 291T410 309Q408 314 402 323T380 333H178V142Q178 104 184 82T206 49T252 35T329 31Q363 31 388 33T430 43T457 62T474 92Q482 116 485 121T493 126Q507 126 511 122T515 112Q515 108 512 96T503 67T492 29T483 -13Q435 -9 369 -5T208 0Q166 0 137 -2T88 -6T56 -11T36 -13Q30 -13 28 -9T26 -4Q26 12 32 15T64 19Q84 20 96 22T116 31T125 48T128 78V636ZM340 878Q354 891 364 899T386 908Q396 908 404 901T412 883Q412 870 399 860T363 835L226 747H196L340 878Z"  />
<glyph unicode="&#xCA;" horiz-adv-x="537" d="M128 636Q128 647 127 655T119 669T99 678T60 683Q43 684 40 686T37 695Q37 715 49 715Q55 715 69 713T102 709Q121 706 143 704T185 702Q210 702 238 703T296 705Q325 707 354 707T408 708Q421 708 425 703T430 688Q430 679 431 664T434 634T437 607T439 592Q438 582 417 582Q407 582 405 595T398 625Q393 642 383 656T347 670H178V371H378Q397 371 402 378T410 397Q414 430 417 437T430 444Q441 444 444 441T448 432Q448 422 445 400T442 351Q442 325 445 307T448 281Q448 272 446 268T430 263Q425 263 421 265T416 274Q416 281 415 291T410 309Q408 314 402 323T380 333H178V142Q178 104 184 82T206 49T252 35T329 31Q363 31 388 33T430 43T457 62T474 92Q482 116 485 121T493 126Q507 126 511 122T515 112Q515 108 512 96T503 67T492 29T483 -13Q435 -9 369 -5T208 0Q166 0 137 -2T88 -6T56 -11T36 -13Q30 -13 28 -9T26 -4Q26 12 32 15T64 19Q84 20 96 22T116 31T125 48T128 78V636ZM248 908H290L412 747H390L269 851L148 747H126L248 908Z"  />
<glyph unicode="&#xCB;" horiz-adv-x="537" d="M128 636Q128 647 127 655T119 669T99 678T60 683Q43 684 40 686T37 695Q37 715 49 715Q55 715 69 713T102 709Q121 706 143 704T185 702Q210 702 238 703T296 705Q325 707 354 707T408 708Q421 708 425 703T430 688Q430 679 431 664T434 634T437 607T439 592Q438 582 417 582Q407 582 405 595T398 625Q393 642 383 656T347 670H178V371H378Q397 371 402 378T410 397Q414 430 417 437T430 444Q441 444 444 441T448 432Q448 422 445 400T442 351Q442 325 445 307T448 281Q448 272 446 268T430 263Q425 263 421 265T416 274Q416 281 415 291T410 309Q408 314 402 323T380 333H178V142Q178 104 184 82T206 49T252 35T329 31Q363 31 388 33T430 43T457 62T474 92Q482 116 485 121T493 126Q507 126 511 122T515 112Q515 108 512 96T503 67T492 29T483 -13Q435 -9 369 -5T208 0Q166 0 137 -2T88 -6T56 -11T36 -13Q30 -13 28 -9T26 -4Q26 12 32 15T64 19Q84 20 96 22T116 31T125 48T128 78V636ZM324 808Q324 825 335 836T364 848Q381 848 392 837T404 808Q404 791 393 780T364 768Q347 768 336 779T324 808ZM134 808Q134 825 145 836T174 848Q191 848 202 837T214 808Q214 791 203 780T174 768Q157 768 146 779T134 808Z"  />
<glyph unicode="&#xCC;" horiz-adv-x="296" d="M123 617Q123 643 114 654T79 673L41 683Q32 685 30 688T28 695Q28 715 36 715Q40 715 53 713T82 709T116 704T148 702Q161 702 179 704T213 708T243 713T260 715Q268 715 268 695Q268 692 267 689T255 683L217 673Q191 666 182 655T173 617V85Q173 59 182 48T217 29L255 19Q265 17 266 14T268 7Q268 -13 260 -13Q256 -13 243 -11T214 -7T179 -2T148 0Q134 0 117 -2T83 -6T53 -11T36 -13Q28 -13 28 7Q28 10 30 13T41 19L79 29Q105 36 114 47T123 85V617ZM54 835Q31 849 18 859T5 883Q5 893 13 900T31 908Q42 908 52 900T77 878L221 747H191L54 835Z"  />
<glyph unicode="&#xCD;" horiz-adv-x="296" d="M123 617Q123 643 114 654T79 673L41 683Q32 685 30 688T28 695Q28 715 36 715Q40 715 53 713T82 709T116 704T148 702Q161 702 179 704T213 708T243 713T260 715Q268 715 268 695Q268 692 267 689T255 683L217 673Q191 666 182 655T173 617V85Q173 59 182 48T217 29L255 19Q265 17 266 14T268 7Q268 -13 260 -13Q256 -13 243 -11T214 -7T179 -2T148 0Q134 0 117 -2T83 -6T53 -11T36 -13Q28 -13 28 7Q28 10 30 13T41 19L79 29Q105 36 114 47T123 85V617ZM219 878Q233 891 243 899T265 908Q275 908 283 901T291 883Q291 870 278 860T242 835L105 747H75L219 878Z"  />
<glyph unicode="&#xCE;" horiz-adv-x="296" d="M123 617Q123 643 114 654T79 673L41 683Q32 685 30 688T28 695Q28 715 36 715Q40 715 53 713T82 709T116 704T148 702Q161 702 179 704T213 708T243 713T260 715Q268 715 268 695Q268 692 267 689T255 683L217 673Q191 666 182 655T173 617V85Q173 59 182 48T217 29L255 19Q265 17 266 14T268 7Q268 -13 260 -13Q256 -13 243 -11T214 -7T179 -2T148 0Q134 0 117 -2T83 -6T53 -11T36 -13Q28 -13 28 7Q28 10 30 13T41 19L79 29Q105 36 114 47T123 85V617ZM127 908H169L291 747H269L148 851L27 747H5L127 908Z"  />
<glyph unicode="&#xCF;" horiz-adv-x="296" d="M123 617Q123 643 114 654T79 673L41 683Q32 685 30 688T28 695Q28 715 36 715Q40 715 53 713T82 709T116 704T148 702Q161 702 179 704T213 708T243 713T260 715Q268 715 268 695Q268 692 267 689T255 683L217 673Q191 666 182 655T173 617V85Q173 59 182 48T217 29L255 19Q265 17 266 14T268 7Q268 -13 260 -13Q256 -13 243 -11T214 -7T179 -2T148 0Q134 0 117 -2T83 -6T53 -11T36 -13Q28 -13 28 7Q28 10 30 13T41 19L79 29Q105 36 114 47T123 85V617ZM203 808Q203 825 214 836T243 848Q260 848 271 837T283 808Q283 791 272 780T243 768Q226 768 215 779T203 808ZM13 808Q13 825 24 836T53 848Q70 848 81 837T93 808Q93 791 82 780T53 768Q36 768 25 779T13 808Z"  />
<glyph unicode="&#xD0;" horiz-adv-x="796" d="M188 136Q188 97 201 74T237 39T292 23T360 19Q436 19 496 43T596 110T658 214T680 348Q680 396 667 453T619 559T523 642T368 676H214Q200 676 194 674T188 662V368H374Q379 368 381 367T383 358V346Q383 339 381 338T374 336H188V136ZM138 336H25Q20 336 18 337T16 346V358Q16 365 18 366T25 368H138V642Q138 660 125 670T67 683Q50 684 47 686T44 695Q44 715 56 715Q63 715 76 713T107 709Q124 706 141 704T173 702Q196 702 215 703T258 705Q281 707 309 707T378 708Q457 708 522 683T635 613T709 505T736 363Q736 279 711 210T637 92T519 15T358 -13Q323 -13 278 -7T180 0Q132 0 92 -6T34 -13Q21 -13 18 -10T14 1Q14 12 20 15T46 19Q75 20 93 23T121 34T134 55T138 90V336Z"  />
<glyph unicode="&#xD1;" horiz-adv-x="778" d="M108 705Q108 712 108 716T114 721Q117 721 122 715T144 689L624 94H626V594Q626 617 625 631T616 655T592 670T546 683Q533 686 530 688T526 699Q526 709 528 712T536 715Q562 715 589 709T648 702Q655 702 668 704T694 708T721 713T744 715Q750 715 751 713T753 699Q753 691 749 689T727 683Q710 679 699 675T682 662T673 642T670 608V-4Q670 -23 662 -23Q656 -23 645 -10T610 31L154 599H152V108Q152 85 153 71T162 47T186 32T232 19Q245 16 248 14T252 3Q252 -7 250 -10T242 -13Q216 -13 189 -7T130 0Q122 0 110 -2T84 -6T57 -11T34 -13Q28 -13 27 -11T25 3Q25 11 29 13T51 19Q68 23 79 27T96 40T105 60T108 94V705ZM544 868Q536 831 510 803T444 774Q424 774 407 781T373 797Q358 805 344 811T314 818Q275 818 256 772H234Q247 815 272 838T334 861Q353 861 369 854T402 839Q417 831 431 825T458 818Q485 818 499 834T522 868H544Z"  />
<glyph unicode="&#xD2;" horiz-adv-x="832" d="M60 351Q60 435 90 502T169 616T283 689T416 715Q484 715 548 690T662 617T742 502T772 351Q772 272 746 205T673 90T561 14T416 -13Q337 -13 272 14T159 89T86 205T60 351ZM110 352Q110 282 132 223T194 122T291 55T416 31Q484 31 540 55T637 121T700 223T722 352Q722 433 694 493T622 592T524 651T416 671Q363 671 309 652T210 593T138 493T110 352ZM322 835Q299 849 286 859T273 883Q273 893 281 900T299 908Q310 908 320 900T345 878L489 747H459L322 835Z"  />
<glyph unicode="&#xD3;" horiz-adv-x="832" d="M60 351Q60 435 90 502T169 616T283 689T416 715Q484 715 548 690T662 617T742 502T772 351Q772 272 746 205T673 90T561 14T416 -13Q337 -13 272 14T159 89T86 205T60 351ZM110 352Q110 282 132 223T194 122T291 55T416 31Q484 31 540 55T637 121T700 223T722 352Q722 433 694 493T622 592T524 651T416 671Q363 671 309 652T210 593T138 493T110 352ZM487 878Q501 891 511 899T533 908Q543 908 551 901T559 883Q559 870 546 860T510 835L373 747H343L487 878Z"  />
<glyph unicode="&#xD4;" horiz-adv-x="832" d="M60 351Q60 435 90 502T169 616T283 689T416 715Q484 715 548 690T662 617T742 502T772 351Q772 272 746 205T673 90T561 14T416 -13Q337 -13 272 14T159 89T86 205T60 351ZM110 352Q110 282 132 223T194 122T291 55T416 31Q484 31 540 55T637 121T700 223T722 352Q722 433 694 493T622 592T524 651T416 671Q363 671 309 652T210 593T138 493T110 352ZM395 908H437L559 747H537L416 851L295 747H273L395 908Z"  />
<glyph unicode="&#xD5;" horiz-adv-x="832" d="M60 351Q60 435 90 502T169 616T283 689T416 715Q484 715 548 690T662 617T742 502T772 351Q772 272 746 205T673 90T561 14T416 -13Q337 -13 272 14T159 89T86 205T60 351ZM110 352Q110 282 132 223T194 122T291 55T416 31Q484 31 540 55T637 121T700 223T722 352Q722 433 694 493T622 592T524 651T416 671Q363 671 309 652T210 593T138 493T110 352ZM571 868Q563 831 537 803T471 774Q451 774 434 781T400 797Q385 805 371 811T341 818Q302 818 283 772H261Q274 815 299 838T361 861Q380 861 396 854T429 839Q444 831 458 825T485 818Q512 818 526 834T549 868H571Z"  />
<glyph unicode="&#xD6;" horiz-adv-x="832" d="M60 351Q60 435 90 502T169 616T283 689T416 715Q484 715 548 690T662 617T742 502T772 351Q772 272 746 205T673 90T561 14T416 -13Q337 -13 272 14T159 89T86 205T60 351ZM110 352Q110 282 132 223T194 122T291 55T416 31Q484 31 540 55T637 121T700 223T722 352Q722 433 694 493T622 592T524 651T416 671Q363 671 309 652T210 593T138 493T110 352ZM471 808Q471 825 482 836T511 848Q528 848 539 837T551 808Q551 791 540 780T511 768Q494 768 483 779T471 808ZM281 808Q281 825 292 836T321 848Q338 848 349 837T361 808Q361 791 350 780T321 768Q304 768 293 779T281 808Z"  />
<glyph unicode="&#xD7;" horiz-adv-x="600" d="M76 446L107 477L300 284L493 477L524 446L331 253L524 60L493 29L300 222L107 29L76 60L269 253L76 446Z"  />
<glyph unicode="&#xD8;" horiz-adv-x="832" d="M621 593Q576 633 523 652T416 671Q363 671 309 652T210 593T138 493T110 352Q110 286 130 230T187 131L621 593ZM210 108Q249 71 301 51T416 31Q484 31 540 55T637 121T700 223T722 352Q722 422 701 476T645 570L210 108ZM154 96Q109 144 85 209T60 351Q60 435 90 502T169 616T283 689T416 715Q482 715 543 692T652 626L744 719Q749 724 752 724T757 725Q763 725 768 720T774 711Q774 709 774 705T770 699L676 603Q720 556 746 493T772 351Q772 272 746 205T673 90T561 14T416 -13Q344 -13 283 9T177 73L90 -23Q86 -28 83 -28T77 -29Q69 -29 65 -25T60 -16Q60 -13 60 -10T64 -3L154 96Z"  />
<glyph unicode="&#xD9;" horiz-adv-x="760" d="M381 -13Q306 -13 259 13T184 79T144 166T126 254Q123 281 120 324T114 419T109 526T105 633Q105 645 104 652T97 665T82 674T56 683Q42 687 39 689T36 694Q36 708 38 711T46 715Q62 715 85 709T146 702Q172 702 196 708T244 715Q249 715 251 711T253 696Q253 688 252 686T245 683Q217 678 201 674T175 664T164 650T161 629Q161 572 163 489T172 284Q176 216 193 167T237 84T301 35T381 19Q434 19 472 37T537 88T578 167T596 270Q602 359 603 438T604 599Q604 621 603 635T596 658T579 672T548 683Q534 687 532 690T529 701Q529 712 531 713T539 715Q550 715 574 709T628 702Q654 702 679 708T716 715Q721 715 722 713T724 698Q724 690 722 688T709 683Q691 678 680 674T663 665T656 652T654 633Q654 539 650 444T634 252Q630 220 618 175T578 88T503 17T381 -13ZM286 835Q263 849 250 859T237 883Q237 893 245 900T263 908Q274 908 284 900T309 878L453 747H423L286 835Z"  />
<glyph unicode="&#xDA;" horiz-adv-x="760" d="M381 -13Q306 -13 259 13T184 79T144 166T126 254Q123 281 120 324T114 419T109 526T105 633Q105 645 104 652T97 665T82 674T56 683Q42 687 39 689T36 694Q36 708 38 711T46 715Q62 715 85 709T146 702Q172 702 196 708T244 715Q249 715 251 711T253 696Q253 688 252 686T245 683Q217 678 201 674T175 664T164 650T161 629Q161 572 163 489T172 284Q176 216 193 167T237 84T301 35T381 19Q434 19 472 37T537 88T578 167T596 270Q602 359 603 438T604 599Q604 621 603 635T596 658T579 672T548 683Q534 687 532 690T529 701Q529 712 531 713T539 715Q550 715 574 709T628 702Q654 702 679 708T716 715Q721 715 722 713T724 698Q724 690 722 688T709 683Q691 678 680 674T663 665T656 652T654 633Q654 539 650 444T634 252Q630 220 618 175T578 88T503 17T381 -13ZM451 878Q465 891 475 899T497 908Q507 908 515 901T523 883Q523 870 510 860T474 835L337 747H307L451 878Z"  />
<glyph unicode="&#xDB;" horiz-adv-x="760" d="M381 -13Q306 -13 259 13T184 79T144 166T126 254Q123 281 120 324T114 419T109 526T105 633Q105 645 104 652T97 665T82 674T56 683Q42 687 39 689T36 694Q36 708 38 711T46 715Q62 715 85 709T146 702Q172 702 196 708T244 715Q249 715 251 711T253 696Q253 688 252 686T245 683Q217 678 201 674T175 664T164 650T161 629Q161 572 163 489T172 284Q176 216 193 167T237 84T301 35T381 19Q434 19 472 37T537 88T578 167T596 270Q602 359 603 438T604 599Q604 621 603 635T596 658T579 672T548 683Q534 687 532 690T529 701Q529 712 531 713T539 715Q550 715 574 709T628 702Q654 702 679 708T716 715Q721 715 722 713T724 698Q724 690 722 688T709 683Q691 678 680 674T663 665T656 652T654 633Q654 539 650 444T634 252Q630 220 618 175T578 88T503 17T381 -13ZM359 908H401L523 747H501L380 851L259 747H237L359 908Z"  />
<glyph unicode="&#xDC;" horiz-adv-x="760" d="M381 -13Q306 -13 259 13T184 79T144 166T126 254Q123 281 120 324T114 419T109 526T105 633Q105 645 104 652T97 665T82 674T56 683Q42 687 39 689T36 694Q36 708 38 711T46 715Q62 715 85 709T146 702Q172 702 196 708T244 715Q249 715 251 711T253 696Q253 688 252 686T245 683Q217 678 201 674T175 664T164 650T161 629Q161 572 163 489T172 284Q176 216 193 167T237 84T301 35T381 19Q434 19 472 37T537 88T578 167T596 270Q602 359 603 438T604 599Q604 621 603 635T596 658T579 672T548 683Q534 687 532 690T529 701Q529 712 531 713T539 715Q550 715 574 709T628 702Q654 702 679 708T716 715Q721 715 722 713T724 698Q724 690 722 688T709 683Q691 678 680 674T663 665T656 652T654 633Q654 539 650 444T634 252Q630 220 618 175T578 88T503 17T381 -13ZM435 808Q435 825 446 836T475 848Q492 848 503 837T515 808Q515 791 504 780T475 768Q458 768 447 779T435 808ZM245 808Q245 825 256 836T285 848Q302 848 313 837T325 808Q325 791 314 780T285 768Q268 768 257 779T245 808Z"  />
<glyph unicode="&#xDD;" horiz-adv-x="630" d="M290 284L51 654Q43 666 37 670T12 679Q-5 684 -8 687T-12 698Q-12 715 0 715Q3 715 10 713T29 709T53 704T81 702Q94 702 108 704T135 708T156 713T167 715Q173 715 175 712T177 697Q177 689 174 686T159 681Q142 678 133 676T119 671T113 667T112 661Q112 659 115 653T124 639L321 329L498 611Q512 634 516 643T521 659Q521 668 512 672T481 683Q467 687 462 689T457 697Q457 709 460 712T473 715Q478 715 487 713T508 709T530 704T552 702Q562 702 573 704T595 708T615 713T629 715Q642 715 642 706V694Q642 689 638 688T621 683Q603 679 591 670T559 631L340 284V85Q340 59 349 48T384 29L422 19Q431 17 433 14T435 7Q435 -13 427 -13Q423 -13 410 -11T381 -7T346 -2T315 0Q301 0 284 -2T250 -6T220 -11T203 -13Q195 -13 195 7Q195 10 197 13T208 19L246 29Q272 36 281 47T290 85V284ZM416 878Q430 891 440 899T462 908Q472 908 480 901T488 883Q488 870 475 860T439 835L302 747H272L416 878Z"  />
<glyph unicode="&#xDE;" horiz-adv-x="519" d="M128 617Q128 643 119 654T84 673L46 683Q37 685 35 688T33 695Q33 715 41 715Q45 715 58 713T87 709T121 704T153 702Q166 702 184 704T218 708T248 713T265 715Q273 715 273 695Q273 692 272 689T260 683L222 673Q196 666 187 655T178 617V549Q202 551 228 553T284 555Q329 555 366 543T429 509T470 454T485 380Q485 337 469 303T424 245T355 208T265 195Q257 195 246 199T224 208T207 220T200 230Q200 234 207 234Q211 234 228 231T266 227Q309 227 341 239T394 270T425 315T435 366Q435 409 420 439T380 487T319 514T244 523Q206 523 192 520T178 509V111Q178 83 184 67T204 42T240 28T296 19Q307 18 307 5Q307 -6 305 -9T296 -13Q292 -13 276 -11T238 -7T196 -2T162 0Q146 0 129 -2T96 -6T69 -11T53 -13Q49 -13 48 -10T46 5Q46 12 49 14T61 19Q82 24 95 29T115 41T125 58T128 87V617Z"  />
<glyph unicode="&#xDF;" horiz-adv-x="593" d="M104 379Q104 390 98 390H66Q61 390 60 394T59 403Q59 408 68 414L94 434Q101 439 102 448T104 477V538Q104 646 150 701T274 756Q301 756 325 748T369 725T399 686T410 632Q410 602 400 577T379 528Q368 505 359 483T350 437Q350 419 365 399T404 358T455 314T506 266T545 215T561 159Q561 125 549 94T515 39T464 1T398 -13Q377 -13 358 -9T324 5T300 26T291 56Q291 70 299 77T320 84Q336 84 342 73T355 49T373 24T411 13Q435 13 453 25T485 55T504 96T511 141Q511 170 496 196T458 246T409 292T359 335T321 377T306 419Q306 436 315 457T335 501Q345 524 352 549T360 604Q360 658 336 688T261 718Q214 718 184 686T154 578V64Q154 54 156 48T166 36T188 27T226 19Q237 17 241 15T246 4Q246 -4 244 -8T234 -13Q225 -13 212 -11T185 -7T158 -2T134 0Q125 0 111 -2T83 -6T55 -11T35 -13Q27 -13 27 3Q27 10 31 13T47 19Q83 30 93 37T104 60V379Z"  />
<glyph unicode="&#xE0;" horiz-adv-x="463" d="M315 220Q315 234 298 234Q279 234 245 227T175 207Q127 191 106 166T85 102Q85 82 93 68T115 44T144 30T176 25Q201 25 225 32T270 51T302 82T315 123V220ZM365 135Q365 108 366 90T374 59T392 37T428 17Q424 2 414 -5T394 -13Q382 -13 370 -6T347 12T329 38T320 67H318Q294 29 255 8T162 -13Q129 -13 105 -3T66 23T43 61T35 105Q35 132 45 156T86 201T171 238T315 266V318Q315 362 289 390T198 419Q182 419 170 415T154 408Q147 402 142 393T133 373T126 353T118 341Q116 339 112 339T104 339Q88 339 88 350Q88 356 90 363T94 379L116 457H184Q275 457 320 431T365 336V135ZM138 649Q115 663 102 673T89 697Q89 707 97 714T115 722Q126 722 136 714T161 692L305 561H275L138 649Z"  />
<glyph unicode="&#xE1;" horiz-adv-x="463" d="M315 220Q315 234 298 234Q279 234 245 227T175 207Q127 191 106 166T85 102Q85 82 93 68T115 44T144 30T176 25Q201 25 225 32T270 51T302 82T315 123V220ZM365 135Q365 108 366 90T374 59T392 37T428 17Q424 2 414 -5T394 -13Q382 -13 370 -6T347 12T329 38T320 67H318Q294 29 255 8T162 -13Q129 -13 105 -3T66 23T43 61T35 105Q35 132 45 156T86 201T171 238T315 266V318Q315 362 289 390T198 419Q182 419 170 415T154 408Q147 402 142 393T133 373T126 353T118 341Q116 339 112 339T104 339Q88 339 88 350Q88 356 90 363T94 379L116 457H184Q275 457 320 431T365 336V135ZM303 692Q317 705 327 713T349 722Q359 722 367 715T375 697Q375 684 362 674T326 649L189 561H159L303 692Z"  />
<glyph unicode="&#xE2;" horiz-adv-x="463" d="M315 220Q315 234 298 234Q279 234 245 227T175 207Q127 191 106 166T85 102Q85 82 93 68T115 44T144 30T176 25Q201 25 225 32T270 51T302 82T315 123V220ZM365 135Q365 108 366 90T374 59T392 37T428 17Q424 2 414 -5T394 -13Q382 -13 370 -6T347 12T329 38T320 67H318Q294 29 255 8T162 -13Q129 -13 105 -3T66 23T43 61T35 105Q35 132 45 156T86 201T171 238T315 266V318Q315 362 289 390T198 419Q182 419 170 415T154 408Q147 402 142 393T133 373T126 353T118 341Q116 339 112 339T104 339Q88 339 88 350Q88 356 90 363T94 379L116 457H184Q275 457 320 431T365 336V135ZM211 722H253L375 561H353L232 665L111 561H89L211 722Z"  />
<glyph unicode="&#xE3;" horiz-adv-x="463" d="M315 220Q315 234 298 234Q279 234 245 227T175 207Q127 191 106 166T85 102Q85 82 93 68T115 44T144 30T176 25Q201 25 225 32T270 51T302 82T315 123V220ZM365 135Q365 108 366 90T374 59T392 37T428 17Q424 2 414 -5T394 -13Q382 -13 370 -6T347 12T329 38T320 67H318Q294 29 255 8T162 -13Q129 -13 105 -3T66 23T43 61T35 105Q35 132 45 156T86 201T171 238T315 266V318Q315 362 289 390T198 419Q182 419 170 415T154 408Q147 402 142 393T133 373T126 353T118 341Q116 339 112 339T104 339Q88 339 88 350Q88 356 90 363T94 379L116 457H184Q275 457 320 431T365 336V135ZM387 682Q379 645 353 617T287 588Q267 588 250 595T216 611Q201 619 187 625T157 632Q118 632 99 586H77Q90 629 115 652T177 675Q196 675 212 668T245 653Q260 645 274 639T301 632Q328 632 342 648T365 682H387Z"  />
<glyph unicode="&#xE4;" horiz-adv-x="463" d="M315 220Q315 234 298 234Q279 234 245 227T175 207Q127 191 106 166T85 102Q85 82 93 68T115 44T144 30T176 25Q201 25 225 32T270 51T302 82T315 123V220ZM365 135Q365 108 366 90T374 59T392 37T428 17Q424 2 414 -5T394 -13Q382 -13 370 -6T347 12T329 38T320 67H318Q294 29 255 8T162 -13Q129 -13 105 -3T66 23T43 61T35 105Q35 132 45 156T86 201T171 238T315 266V318Q315 362 289 390T198 419Q182 419 170 415T154 408Q147 402 142 393T133 373T126 353T118 341Q116 339 112 339T104 339Q88 339 88 350Q88 356 90 363T94 379L116 457H184Q275 457 320 431T365 336V135ZM287 613Q287 630 298 641T327 653Q344 653 355 642T367 613Q367 596 356 585T327 573Q310 573 299 584T287 613ZM97 613Q97 630 108 641T137 653Q154 653 165 642T177 613Q177 596 166 585T137 573Q120 573 109 584T97 613Z"  />
<glyph unicode="&#xE5;" horiz-adv-x="463" d="M315 220Q315 234 298 234Q279 234 245 227T175 207Q127 191 106 166T85 102Q85 82 93 68T115 44T144 30T176 25Q201 25 225 32T270 51T302 82T315 123V220ZM365 135Q365 108 366 90T374 59T392 37T428 17Q424 2 414 -5T394 -13Q382 -13 370 -6T347 12T329 38T320 67H318Q294 29 255 8T162 -13Q129 -13 105 -3T66 23T43 61T35 105Q35 132 45 156T86 201T171 238T315 266V318Q315 362 289 390T198 419Q182 419 170 415T154 408Q147 402 142 393T133 373T126 353T118 341Q116 339 112 339T104 339Q88 339 88 350Q88 356 90 363T94 379L116 457H184Q275 457 320 431T365 336V135ZM125 638Q125 657 132 674T153 705T183 725T220 733Q239 733 256 726T287 705T307 675T315 638Q315 618 308 601T287 571T257 551T220 543Q200 543 183 550T153 571T133 601T125 638ZM157 638Q157 612 175 594T220 575Q246 575 264 593T283 638Q283 664 265 682T220 701Q194 701 176 683T157 638Z"  />
<glyph unicode="&#xE6;" horiz-adv-x="722" d="M577 312Q598 316 603 321T608 337Q608 371 583 398T508 425Q481 425 457 412T413 378T381 330T366 274L577 312ZM315 318Q315 362 289 390T198 419Q182 419 170 415T154 408Q147 402 142 393T133 373T126 353T118 341Q116 339 112 339T104 339Q88 339 88 350Q88 356 90 363T94 379L116 457H184Q262 457 307 438T363 370Q389 408 426 432T512 457Q548 457 576 445T624 413T654 364T664 303Q664 291 653 290L362 243Q362 139 400 85T519 31Q562 31 600 51T668 101L684 83Q646 43 601 15T499 -13Q448 -13 404 14T340 88Q311 44 264 16T162 -13Q129 -13 105 -3T66 23T43 61T35 105Q35 132 45 156T86 201T171 238T315 266V318ZM315 220Q315 234 298 234Q279 234 245 227T175 207Q127 191 106 166T85 102Q85 82 93 68T115 44T144 30T176 25Q200 25 225 32T270 51T303 82T315 123V220Z"  />
<glyph unicode="&#xE7;" horiz-adv-x="444" d="M231 -12Q184 -8 151 12T97 63T66 129T56 201Q56 275 78 324T132 403T201 445T268 457Q282 457 303 454T345 445T380 427T395 398Q395 368 371 368Q357 368 346 376T322 393T290 411T245 419Q206 419 180 400T137 350T113 285T106 219Q106 184 116 151T147 91T196 48T265 31Q281 31 299 34T335 44T368 59T395 80L408 59Q381 31 344 12T265 -12L241 -66Q254 -63 271 -63Q307 -63 328 -79T350 -133Q350 -171 319 -192T234 -214Q191 -214 154 -199L163 -170Q177 -175 196 -178T222 -182Q232 -182 244 -180T265 -174T281 -161T288 -139Q288 -95 234 -95Q221 -95 204 -102L193 -97L231 -12Z"  />
<glyph unicode="&#xE8;" horiz-adv-x="463" d="M425 83Q387 43 342 15T240 -13Q194 -13 160 4T102 52T68 121T56 203Q56 244 68 288T106 370T168 432T253 457Q289 457 317 445T365 413T395 364T405 303Q405 291 394 290L106 243Q106 139 142 85T260 31Q303 31 341 51T409 101L425 83ZM318 312Q339 316 344 321T349 337Q349 371 324 398T249 425Q222 425 198 412T155 378T124 330T110 274L318 312ZM138 649Q115 663 102 673T89 697Q89 707 97 714T115 722Q126 722 136 714T161 692L305 561H275L138 649Z"  />
<glyph unicode="&#xE9;" horiz-adv-x="463" d="M425 83Q387 43 342 15T240 -13Q194 -13 160 4T102 52T68 121T56 203Q56 244 68 288T106 370T168 432T253 457Q289 457 317 445T365 413T395 364T405 303Q405 291 394 290L106 243Q106 139 142 85T260 31Q303 31 341 51T409 101L425 83ZM318 312Q339 316 344 321T349 337Q349 371 324 398T249 425Q222 425 198 412T155 378T124 330T110 274L318 312ZM303 692Q317 705 327 713T349 722Q359 722 367 715T375 697Q375 684 362 674T326 649L189 561H159L303 692Z"  />
<glyph unicode="&#xEA;" horiz-adv-x="463" d="M425 83Q387 43 342 15T240 -13Q194 -13 160 4T102 52T68 121T56 203Q56 244 68 288T106 370T168 432T253 457Q289 457 317 445T365 413T395 364T405 303Q405 291 394 290L106 243Q106 139 142 85T260 31Q303 31 341 51T409 101L425 83ZM318 312Q339 316 344 321T349 337Q349 371 324 398T249 425Q222 425 198 412T155 378T124 330T110 274L318 312ZM211 722H253L375 561H353L232 665L111 561H89L211 722Z"  />
<glyph unicode="&#xEB;" horiz-adv-x="463" d="M425 83Q387 43 342 15T240 -13Q194 -13 160 4T102 52T68 121T56 203Q56 244 68 288T106 370T168 432T253 457Q289 457 317 445T365 413T395 364T405 303Q405 291 394 290L106 243Q106 139 142 85T260 31Q303 31 341 51T409 101L425 83ZM318 312Q339 316 344 321T349 337Q349 371 324 398T249 425Q222 425 198 412T155 378T124 330T110 274L318 312ZM287 613Q287 630 298 641T327 653Q344 653 355 642T367 613Q367 596 356 585T327 573Q310 573 299 584T287 613ZM97 613Q97 630 108 641T137 653Q154 653 165 642T177 613Q177 596 166 585T137 573Q120 573 109 584T97 613Z"  />
<glyph unicode="&#xEC;" horiz-adv-x="258" d="M104 359Q104 384 102 389T92 395Q89 395 82 394T67 392T52 390T44 389Q37 389 37 402Q37 412 48 417L142 460Q149 463 156 463Q160 463 162 459T165 448Q165 442 160 433T154 397V90Q154 71 155 60T162 41T181 29T217 19Q229 16 233 14T237 5Q237 -6 235 -9T224 -13Q211 -13 184 -7T129 0Q101 0 74 -6T34 -13Q25 -13 23 -10T21 5Q21 11 25 13T41 19Q64 24 77 28T96 40T103 59T104 90V359ZM36 649Q13 663 0 673T-13 697Q-13 707 -5 714T13 722Q24 722 34 714T59 692L203 561H173L36 649Z"  />
<glyph unicode="&#xED;" horiz-adv-x="258" d="M104 359Q104 384 102 389T92 395Q89 395 82 394T67 392T52 390T44 389Q37 389 37 402Q37 412 48 417L142 460Q149 463 156 463Q160 463 162 459T165 448Q165 442 160 433T154 397V90Q154 71 155 60T162 41T181 29T217 19Q229 16 233 14T237 5Q237 -6 235 -9T224 -13Q211 -13 184 -7T129 0Q101 0 74 -6T34 -13Q25 -13 23 -10T21 5Q21 11 25 13T41 19Q64 24 77 28T96 40T103 59T104 90V359ZM201 692Q215 705 225 713T247 722Q257 722 265 715T273 697Q273 684 260 674T224 649L87 561H57L201 692Z"  />
<glyph unicode="&#xEE;" horiz-adv-x="258" d="M104 359Q104 384 102 389T92 395Q89 395 82 394T67 392T52 390T44 389Q37 389 37 402Q37 412 48 417L142 460Q149 463 156 463Q160 463 162 459T165 448Q165 442 160 433T154 397V90Q154 71 155 60T162 41T181 29T217 19Q229 16 233 14T237 5Q237 -6 235 -9T224 -13Q211 -13 184 -7T129 0Q101 0 74 -6T34 -13Q25 -13 23 -10T21 5Q21 11 25 13T41 19Q64 24 77 28T96 40T103 59T104 90V359ZM109 722H151L273 561H251L130 665L9 561H-13L109 722Z"  />
<glyph unicode="&#xEF;" horiz-adv-x="258" d="M104 359Q104 384 102 389T92 395Q89 395 82 394T67 392T52 390T44 389Q37 389 37 402Q37 412 48 417L142 460Q149 463 156 463Q160 463 162 459T165 448Q165 442 160 433T154 397V90Q154 71 155 60T162 41T181 29T217 19Q229 16 233 14T237 5Q237 -6 235 -9T224 -13Q211 -13 184 -7T129 0Q101 0 74 -6T34 -13Q25 -13 23 -10T21 5Q21 11 25 13T41 19Q64 24 77 28T96 40T103 59T104 90V359ZM185 613Q185 630 196 641T225 653Q242 653 253 642T265 613Q265 596 254 585T225 573Q208 573 197 584T185 613ZM-5 613Q-5 630 6 641T35 653Q52 653 63 642T75 613Q75 596 64 585T35 573Q18 573 7 584T-5 613Z"  />
<glyph unicode="&#xF0;" horiz-adv-x="556" d="M106 222Q106 189 116 154T148 91T202 44T278 25Q321 25 353 43T407 90T439 154T450 222Q450 262 440 298T409 361T356 403T278 419Q234 419 202 404T148 361T117 298T106 222ZM286 635Q221 697 129 734L158 756Q174 749 190 741T225 722T268 695T323 656L438 719Q442 721 444 721Q446 721 449 718L463 701Q465 697 465 696Q465 694 463 692L351 630Q390 590 418 543T464 445T491 343T500 246Q500 182 482 134T434 53T364 4T278 -13Q233 -13 193 3T122 49T74 123T56 222Q56 277 74 320T122 394T192 441T278 457Q324 457 360 441T426 389L428 391Q393 523 313 609L196 545Q192 543 190 543Q188 543 185 546L171 563Q169 565 169 568Q169 570 171 572L286 635Z"  />
<glyph unicode="&#xF1;" horiz-adv-x="556" d="M104 359Q104 384 102 389T92 395Q89 395 82 394T67 392T52 390T44 389Q37 389 37 402Q37 412 48 417L142 460Q144 461 147 462T152 463Q154 463 157 457T161 448Q161 446 160 444T158 437T155 422T154 393V369Q169 385 185 401T221 429T262 449T310 457Q340 457 366 446T411 410T441 344T452 241V90Q452 71 453 60T460 41T479 29T515 19Q527 16 531 14T535 5Q535 -6 533 -9T522 -13Q509 -13 482 -7T427 0Q399 0 372 -6T332 -13Q323 -13 321 -10T319 5Q319 11 323 13T339 19Q362 24 375 28T394 40T401 59T402 90V247Q402 335 373 374T282 413Q262 413 242 404T203 383T172 357T154 335V90Q154 71 155 60T162 41T181 29T217 19Q229 16 233 14T237 5Q237 -6 235 -9T224 -13Q211 -13 184 -7T129 0Q101 0 74 -6T34 -13Q25 -13 23 -10T21 5Q21 11 25 13T41 19Q64 24 77 28T96 40T103 59T104 90V359ZM433 682Q425 645 399 617T333 588Q313 588 296 595T262 611Q247 619 233 625T203 632Q164 632 145 586H123Q136 629 161 652T223 675Q242 675 258 668T291 653Q306 645 320 639T347 632Q374 632 388 648T411 682H433Z"  />
<glyph unicode="&#xF2;" horiz-adv-x="556" d="M450 222Q450 262 440 298T409 361T356 403T278 419Q234 419 202 404T148 361T117 298T106 222Q106 189 116 154T148 91T202 44T278 25Q321 25 353 43T407 90T439 154T450 222ZM500 222Q500 167 482 124T432 50T361 3T278 -13Q231 -13 191 3T120 49T73 123T56 222Q56 277 74 320T122 394T192 441T278 457Q325 457 365 441T436 395T483 321T500 222ZM184 649Q161 663 148 673T135 697Q135 707 143 714T161 722Q172 722 182 714T207 692L351 561H321L184 649Z"  />
<glyph unicode="&#xF3;" horiz-adv-x="556" d="M450 222Q450 262 440 298T409 361T356 403T278 419Q234 419 202 404T148 361T117 298T106 222Q106 189 116 154T148 91T202 44T278 25Q321 25 353 43T407 90T439 154T450 222ZM500 222Q500 167 482 124T432 50T361 3T278 -13Q231 -13 191 3T120 49T73 123T56 222Q56 277 74 320T122 394T192 441T278 457Q325 457 365 441T436 395T483 321T500 222ZM349 692Q363 705 373 713T395 722Q405 722 413 715T421 697Q421 684 408 674T372 649L235 561H205L349 692Z"  />
<glyph unicode="&#xF4;" horiz-adv-x="556" d="M450 222Q450 262 440 298T409 361T356 403T278 419Q234 419 202 404T148 361T117 298T106 222Q106 189 116 154T148 91T202 44T278 25Q321 25 353 43T407 90T439 154T450 222ZM500 222Q500 167 482 124T432 50T361 3T278 -13Q231 -13 191 3T120 49T73 123T56 222Q56 277 74 320T122 394T192 441T278 457Q325 457 365 441T436 395T483 321T500 222ZM257 722H299L421 561H399L278 665L157 561H135L257 722Z"  />
<glyph unicode="&#xF5;" horiz-adv-x="556" d="M450 222Q450 262 440 298T409 361T356 403T278 419Q234 419 202 404T148 361T117 298T106 222Q106 189 116 154T148 91T202 44T278 25Q321 25 353 43T407 90T439 154T450 222ZM500 222Q500 167 482 124T432 50T361 3T278 -13Q231 -13 191 3T120 49T73 123T56 222Q56 277 74 320T122 394T192 441T278 457Q325 457 365 441T436 395T483 321T500 222ZM433 682Q425 645 399 617T333 588Q313 588 296 595T262 611Q247 619 233 625T203 632Q164 632 145 586H123Q136 629 161 652T223 675Q242 675 258 668T291 653Q306 645 320 639T347 632Q374 632 388 648T411 682H433Z"  />
<glyph unicode="&#xF6;" horiz-adv-x="556" d="M450 222Q450 262 440 298T409 361T356 403T278 419Q234 419 202 404T148 361T117 298T106 222Q106 189 116 154T148 91T202 44T278 25Q321 25 353 43T407 90T439 154T450 222ZM500 222Q500 167 482 124T432 50T361 3T278 -13Q231 -13 191 3T120 49T73 123T56 222Q56 277 74 320T122 394T192 441T278 457Q325 457 365 441T436 395T483 321T500 222ZM333 613Q333 630 344 641T373 653Q390 653 401 642T413 613Q413 596 402 585T373 573Q356 573 345 584T333 613ZM143 613Q143 630 154 641T183 653Q200 653 211 642T223 613Q223 596 212 585T183 573Q166 573 155 584T143 613Z"  />
<glyph unicode="&#xF7;" horiz-adv-x="600" d="M47 231V275H553V231H47ZM250 462Q250 483 264 497T300 512Q321 512 335 498T350 462Q350 441 336 427T300 412Q279 412 265 426T250 462ZM250 44Q250 65 264 79T300 94Q321 94 335 80T350 44Q350 23 336 9T300 -6Q279 -6 265 8T250 44Z"  />
<glyph unicode="&#xF8;" horiz-adv-x="556" d="M161 77Q181 54 210 40T278 25Q321 25 353 43T407 90T439 154T450 222Q450 258 442 290T417 348L161 77ZM399 371Q378 394 348 406T278 419Q234 419 202 404T148 361T117 298T106 222Q106 192 115 161T144 101L399 371ZM110 65Q84 94 70 134T56 222Q56 277 74 320T122 394T192 441T278 457Q320 457 358 443T426 400L494 471Q499 477 504 477Q510 477 515 472T521 463Q521 458 517 454L446 379Q471 351 485 311T500 222Q500 167 482 124T434 50T364 3T278 -13Q190 -13 130 44L60 -29Q55 -35 50 -35Q44 -35 39 -30T33 -21Q33 -16 37 -12L110 65Z"  />
<glyph unicode="&#xF9;" horiz-adv-x="556" d="M104 359Q104 384 102 389T92 395Q89 395 82 394T67 392T52 390T44 389Q37 389 37 402Q37 412 48 417L142 460Q149 463 156 463Q160 463 162 459T165 448Q165 442 160 433T154 397V152Q154 96 179 64T258 31Q274 31 293 36T332 52T370 76T402 110V388Q402 399 394 400T377 402Q367 402 359 403T351 413Q351 418 352 422T356 428Q359 430 374 431T410 437Q436 444 450 453T466 463Q471 463 475 459T479 449Q479 444 475 441T466 433T456 421T452 403V81Q452 49 461 49Q463 49 469 52T482 60T494 67T502 71Q505 71 510 64T515 55Q515 52 511 49T499 41L423 -9Q416 -13 410 -13Q406 -13 401 -7T395 1Q395 5 399 16T404 47Q404 54 404 60T402 74Q390 59 372 44T334 16T291 -5T248 -13Q212 -13 185 -2T140 30T113 79T104 140V359ZM184 649Q161 663 148 673T135 697Q135 707 143 714T161 722Q172 722 182 714T207 692L351 561H321L184 649Z"  />
<glyph unicode="&#xFA;" horiz-adv-x="556" d="M104 359Q104 384 102 389T92 395Q89 395 82 394T67 392T52 390T44 389Q37 389 37 402Q37 412 48 417L142 460Q149 463 156 463Q160 463 162 459T165 448Q165 442 160 433T154 397V152Q154 96 179 64T258 31Q274 31 293 36T332 52T370 76T402 110V388Q402 399 394 400T377 402Q367 402 359 403T351 413Q351 418 352 422T356 428Q359 430 374 431T410 437Q436 444 450 453T466 463Q471 463 475 459T479 449Q479 444 475 441T466 433T456 421T452 403V81Q452 49 461 49Q463 49 469 52T482 60T494 67T502 71Q505 71 510 64T515 55Q515 52 511 49T499 41L423 -9Q416 -13 410 -13Q406 -13 401 -7T395 1Q395 5 399 16T404 47Q404 54 404 60T402 74Q390 59 372 44T334 16T291 -5T248 -13Q212 -13 185 -2T140 30T113 79T104 140V359ZM349 692Q363 705 373 713T395 722Q405 722 413 715T421 697Q421 684 408 674T372 649L235 561H205L349 692Z"  />
<glyph unicode="&#xFB;" horiz-adv-x="556" d="M104 359Q104 384 102 389T92 395Q89 395 82 394T67 392T52 390T44 389Q37 389 37 402Q37 412 48 417L142 460Q149 463 156 463Q160 463 162 459T165 448Q165 442 160 433T154 397V152Q154 96 179 64T258 31Q274 31 293 36T332 52T370 76T402 110V388Q402 399 394 400T377 402Q367 402 359 403T351 413Q351 418 352 422T356 428Q359 430 374 431T410 437Q436 444 450 453T466 463Q471 463 475 459T479 449Q479 444 475 441T466 433T456 421T452 403V81Q452 49 461 49Q463 49 469 52T482 60T494 67T502 71Q505 71 510 64T515 55Q515 52 511 49T499 41L423 -9Q416 -13 410 -13Q406 -13 401 -7T395 1Q395 5 399 16T404 47Q404 54 404 60T402 74Q390 59 372 44T334 16T291 -5T248 -13Q212 -13 185 -2T140 30T113 79T104 140V359ZM257 722H299L421 561H399L278 665L157 561H135L257 722Z"  />
<glyph unicode="&#xFC;" horiz-adv-x="556" d="M104 359Q104 384 102 389T92 395Q89 395 82 394T67 392T52 390T44 389Q37 389 37 402Q37 412 48 417L142 460Q149 463 156 463Q160 463 162 459T165 448Q165 442 160 433T154 397V152Q154 96 179 64T258 31Q274 31 293 36T332 52T370 76T402 110V388Q402 399 394 400T377 402Q367 402 359 403T351 413Q351 418 352 422T356 428Q359 430 374 431T410 437Q436 444 450 453T466 463Q471 463 475 459T479 449Q479 444 475 441T466 433T456 421T452 403V81Q452 49 461 49Q463 49 469 52T482 60T494 67T502 71Q505 71 510 64T515 55Q515 52 511 49T499 41L423 -9Q416 -13 410 -13Q406 -13 401 -7T395 1Q395 5 399 16T404 47Q404 54 404 60T402 74Q390 59 372 44T334 16T291 -5T248 -13Q212 -13 185 -2T140 30T113 79T104 140V359ZM333 613Q333 630 344 641T373 653Q390 653 401 642T413 613Q413 596 402 585T373 573Q356 573 345 584T333 613ZM143 613Q143 630 154 641T183 653Q200 653 211 642T223 613Q223 596 212 585T183 573Q166 573 155 584T143 613Z"  />
<glyph unicode="&#xFD;" horiz-adv-x="537" d="M268 53Q325 157 358 221T408 322T431 375T436 397Q436 407 430 412T406 425Q389 432 385 434T381 438Q381 440 384 448T390 457Q404 457 421 451T462 444Q472 444 483 446T504 450T523 455T537 457Q540 457 541 452T542 439Q542 436 535 435T515 425Q510 421 504 413Q489 392 465 345T403 229T317 69T202 -127Q182 -160 163 -185T124 -229T81 -256T32 -265Q22 -265 17 -255T11 -220Q11 -212 17 -209T44 -203Q65 -201 82 -196T116 -178T152 -140T195 -73L240 5Q207 77 179 134T127 238T83 323T45 396Q33 418 15 425Q7 428 2 430T-3 437Q-3 445 0 451T6 457Q11 457 27 451T77 444Q87 444 99 446T123 450T142 455T154 457Q159 457 162 450T165 439Q165 437 162 435T140 425Q121 417 115 411T108 396Q108 386 115 370T136 326L268 53ZM340 692Q354 705 364 713T386 722Q396 722 404 715T412 697Q412 684 399 674T363 649L226 561H196L340 692Z"  />
<glyph unicode="&#xFE;" horiz-adv-x="556" d="M99 669Q99 684 80 684Q72 684 65 683T49 682Q44 682 42 686T40 694Q40 706 49 710L128 744Q139 749 147 752T159 756Q162 756 166 752T171 739Q171 733 164 730Q159 728 157 726T152 719T150 706T149 684V348H151Q181 394 224 425T327 457Q369 457 401 441T455 397T488 333T500 259Q500 212 485 164T439 76T366 12T268 -13Q233 -13 202 -3T151 34H149V-184Q149 -202 153 -207T168 -213Q176 -213 184 -212T204 -211Q212 -211 212 -223Q212 -229 211 -232T204 -237L106 -273Q103 -275 99 -276T92 -278Q87 -278 85 -272T83 -262Q83 -254 91 -251T99 -237V669ZM149 150Q149 93 180 56T272 19Q315 19 348 38T403 88T438 159T450 243Q450 275 442 305T417 357T372 393T308 407Q284 407 259 398T211 373T172 336T149 290V150Z"  />
<glyph unicode="&#xFF;" horiz-adv-x="537" d="M268 53Q325 157 358 221T408 322T431 375T436 397Q436 407 430 412T406 425Q389 432 385 434T381 438Q381 440 384 448T390 457Q404 457 421 451T462 444Q472 444 483 446T504 450T523 455T537 457Q540 457 541 452T542 439Q542 436 535 435T515 425Q510 421 504 413Q489 392 465 345T403 229T317 69T202 -127Q182 -160 163 -185T124 -229T81 -256T32 -265Q22 -265 17 -255T11 -220Q11 -212 17 -209T44 -203Q65 -201 82 -196T116 -178T152 -140T195 -73L240 5Q207 77 179 134T127 238T83 323T45 396Q33 418 15 425Q7 428 2 430T-3 437Q-3 445 0 451T6 457Q11 457 27 451T77 444Q87 444 99 446T123 450T142 455T154 457Q159 457 162 450T165 439Q165 437 162 435T140 425Q121 417 115 411T108 396Q108 386 115 370T136 326L268 53ZM324 613Q324 630 335 641T364 653Q381 653 392 642T404 613Q404 596 393 585T364 573Q347 573 336 584T324 613ZM134 613Q134 630 145 641T174 653Q191 653 202 642T214 613Q214 596 203 585T174 573Q157 573 146 584T134 613Z"  />
<glyph unicode="&#x131;" horiz-adv-x="258" d="M104 359Q104 384 102 389T92 395Q89 395 82 394T67 392T52 390T44 389Q37 389 37 402Q37 412 48 417L142 460Q149 463 156 463Q160 463 162 459T165 448Q165 442 160 433T154 397V90Q154 71 155 60T162 41T181 29T217 19Q229 16 233 14T237 5Q237 -6 235 -9T224 -13Q211 -13 184 -7T129 0Q101 0 74 -6T34 -13Q25 -13 23 -10T21 5Q21 11 25 13T41 19Q64 24 77 28T96 40T103 59T104 90V359Z"  />
<glyph unicode="&#x152;" horiz-adv-x="1131" d="M110 352Q110 282 132 223T194 122T291 55T416 31Q469 31 523 50T622 109T694 209T722 350Q722 420 700 478T638 580T541 647T416 671Q363 671 309 652T210 593T138 493T110 352ZM722 663Q722 672 716 676T686 682Q677 683 674 687T670 697Q670 708 672 711T679 715Q689 715 719 709Q734 706 755 704T812 702Q856 702 889 703T948 705Q997 708 1013 708Q1024 708 1024 689Q1024 680 1025 665T1027 635T1030 606T1032 589Q1032 583 1028 582T1011 580Q1003 580 1001 590T992 624Q987 641 977 655T941 670H772V371H972Q991 371 996 378T1004 397Q1008 430 1011 437T1024 444Q1035 444 1038 441T1042 432Q1042 422 1039 400T1036 351Q1036 325 1039 307T1042 281Q1042 272 1040 268T1024 263Q1019 263 1015 265T1010 274Q1010 281 1009 291T1004 309Q1002 314 996 323T974 333H772V142Q772 107 778 87T800 55T846 41T923 37Q957 37 982 39T1024 49T1051 68T1068 98Q1075 119 1078 125T1087 132Q1101 132 1105 130T1109 118Q1109 114 1106 102T1097 72T1086 32T1077 -13Q1029 -8 975 -4T856 0Q793 0 749 -6T679 -13Q664 -13 664 -7V5Q664 11 669 14T693 19Q711 21 716 30T722 54V162H720Q697 120 664 88T591 33T507 -1T416 -13Q333 -13 267 14T155 89T85 205T60 351Q60 435 90 502T169 616T283 689T416 715Q523 715 600 671T720 551H722V663Z"  />
<glyph unicode="&#x153;" horiz-adv-x="851" d="M706 312Q727 316 732 321T737 337Q737 371 712 398T637 425Q610 425 586 412T543 378T512 330T498 274L706 312ZM56 222Q56 277 74 320T122 394T192 441T278 457Q343 457 395 425T475 334Q498 385 539 421T641 457Q677 457 705 445T753 413T783 364T793 303Q793 291 782 290L494 243Q494 139 530 85T648 31Q691 31 729 51T797 101L813 83Q775 43 730 15T628 -13Q567 -13 527 16T466 94Q452 71 433 52T389 18T336 -4T278 -13Q233 -13 193 3T122 49T74 123T56 222ZM106 222Q106 189 116 154T148 91T202 44T278 25Q321 25 353 43T407 90T439 154T450 222Q450 262 440 298T409 361T356 403T278 419Q234 419 202 404T148 361T117 298T106 222Z"  />
<glyph unicode="&#x160;" horiz-adv-x="519" d="M47 103Q46 120 46 127T45 139Q45 147 50 150T63 153Q71 153 75 146T83 115Q91 65 129 42T225 19Q261 19 292 28T347 56T383 103T396 169Q396 218 372 248T311 299T232 339T153 383T92 447T67 547Q67 585 82 616T125 669T191 703T273 715Q303 715 339 710T414 697Q416 668 416 639T417 587Q417 575 414 572T402 568Q397 568 394 569T388 577T384 593T379 622Q368 683 266 683Q237 683 209 675T160 650T125 608T111 546Q111 498 136 469T198 420T278 382T359 340T421 280T446 187Q446 140 429 103T382 40T312 1T225 -13Q207 -13 186 -12T142 -8T96 -3T53 3L47 103ZM117 908H139L260 804L381 908H403L281 747H239L117 908Z"  />
<glyph unicode="&#x161;" horiz-adv-x="407" d="M327 385Q328 377 328 371T328 358Q328 348 322 345T309 342Q296 342 292 350T284 391Q282 409 266 417T212 425Q193 425 175 421T142 406T118 379T109 338Q109 315 126 299T170 270T226 245T282 216T325 176T343 119Q343 58 299 23T185 -13Q162 -13 132 -11T77 -3Q72 -2 68 0T63 11Q57 49 54 74T51 107Q51 121 59 125T74 130Q80 130 83 127T89 117T94 95T101 60Q103 46 120 33T184 19Q197 19 215 22T251 36T281 64T293 114Q293 139 276 155T232 185T176 210T120 238T77 276T59 333Q59 352 66 374T90 414T138 445T215 457Q245 457 269 455T310 450Q320 448 322 438L327 385ZM61 722H83L204 618L325 722H347L225 561H183L61 722Z"  />
<glyph unicode="&#x178;" horiz-adv-x="630" d="M290 284L51 654Q43 666 37 670T12 679Q-5 684 -8 687T-12 698Q-12 715 0 715Q3 715 10 713T29 709T53 704T81 702Q94 702 108 704T135 708T156 713T167 715Q173 715 175 712T177 697Q177 689 174 686T159 681Q142 678 133 676T119 671T113 667T112 661Q112 659 115 653T124 639L321 329L498 611Q512 634 516 643T521 659Q521 668 512 672T481 683Q467 687 462 689T457 697Q457 709 460 712T473 715Q478 715 487 713T508 709T530 704T552 702Q562 702 573 704T595 708T615 713T629 715Q642 715 642 706V694Q642 689 638 688T621 683Q603 679 591 670T559 631L340 284V85Q340 59 349 48T384 29L422 19Q431 17 433 14T435 7Q435 -13 427 -13Q423 -13 410 -11T381 -7T346 -2T315 0Q301 0 284 -2T250 -6T220 -11T203 -13Q195 -13 195 7Q195 10 197 13T208 19L246 29Q272 36 281 47T290 85V284ZM370 808Q370 825 381 836T410 848Q427 848 438 837T450 808Q450 791 439 780T410 768Q393 768 382 779T370 808ZM180 808Q180 825 191 836T220 848Q237 848 248 837T260 808Q260 791 249 780T220 768Q203 768 192 779T180 808Z"  />
<glyph unicode="&#x17D;" horiz-adv-x="648" d="M569 702Q577 702 582 702T587 699Q587 696 575 680L109 44H516Q572 44 594 50T622 56Q630 56 630 54Q630 47 629 43L623 4Q620 -13 614 -13Q612 -13 607 -11T592 -6Q583 -4 569 -2T534 0H21L505 658H121Q106 658 94 654T74 645T60 636T53 632Q49 632 49 641Q49 644 50 648T52 659L59 704Q61 715 67 715Q68 715 72 713T86 709T115 704T165 702H569ZM181 908H203L324 804L445 908H467L345 747H303L181 908Z"  />
<glyph unicode="&#x17E;" horiz-adv-x="480" d="M360 400H254Q153 400 102 394T47 387Q41 387 41 393Q41 396 44 410T56 450Q70 448 86 448T120 446Q138 445 156 445T192 444H294Q311 444 332 445T371 447Q390 449 404 449T421 450Q423 450 426 441T429 424Q429 419 421 409T402 386L93 44H244Q284 44 318 45T380 47T423 50T444 51Q453 51 453 43Q453 40 452 34T448 20T444 7T441 -2Q440 -5 437 -5T432 -6Q430 -6 418 -5T383 -3Q339 0 254 0H174Q113 0 82 -3Q65 -4 56 -5T45 -6Q35 -6 31 3T27 20Q27 22 33 29T50 49L360 400ZM97 722H119L240 618L361 722H383L261 561H219L97 722Z"  />
<glyph unicode="&#x192;" horiz-adv-x="520" d="M212 300H97Q88 300 88 307Q88 311 89 318T93 330Q95 338 102 338H220L240 438Q249 485 263 534T301 623T358 689T442 715Q451 715 463 713T486 707T504 694T512 674Q512 662 503 654T482 646Q471 646 462 651T445 661T428 672T407 677Q376 677 356 653T324 595T304 525T293 466L268 338H399Q408 338 408 331Q408 327 407 320T403 308Q401 300 394 300H260L199 -10Q188 -66 173 -113T136 -196T81 -251T3 -271Q-6 -271 -16 -268T-35 -260T-50 -247T-56 -228Q-56 -211 -46 -204T-22 -197Q-8 -197 -2 -201T11 -212T27 -222T56 -227Q77 -227 92 -205T118 -155T135 -98T144 -55L212 300Z"  />
<glyph unicode="&#x2C6;" horiz-adv-x="260" d="M109 722H151L273 561H251L130 665L9 561H-13L109 722Z"  />
<glyph unicode="&#x2C7;" horiz-adv-x="260" d="M-13 722H9L130 618L251 722H273L151 561H109L-13 722Z"  />
<glyph unicode="&#x2DA;" horiz-adv-x="260" d="M35 638Q35 657 42 674T63 705T93 725T130 733Q149 733 166 726T197 705T217 675T225 638Q225 618 218 601T197 571T167 551T130 543Q110 543 93 550T63 571T43 601T35 638ZM67 638Q67 612 85 594T130 575Q156 575 174 593T193 638Q193 664 175 682T130 701Q104 701 86 683T67 638Z"  />
<glyph unicode="&#x2DC;" horiz-adv-x="260" d="M285 682Q277 645 251 617T185 588Q165 588 148 595T114 611Q99 619 85 625T55 632Q16 632 -3 586H-25Q-12 629 13 652T75 675Q94 675 110 668T143 653Q158 645 172 639T199 632Q226 632 240 648T263 682H285Z"  />
<glyph unicode="&#x2013;" horiz-adv-x="500" d="M0 260H500V216H0V260Z"  />
<glyph unicode="&#x2014;" horiz-adv-x="1000" d="M0 260H1000V216H0V260Z"  />
<glyph unicode="&#x2018;" horiz-adv-x="260" d="M200 715Q188 703 173 684T144 642T121 597T111 558Q111 549 116 542T134 535Q139 535 144 536T152 539Q146 520 144 503T140 461Q120 464 100 464Q79 464 60 461Q67 527 91 594T160 715H200Z"  />
<glyph unicode="&#x2019;" horiz-adv-x="260" d="M60 461Q72 473 87 492T116 534T139 579T149 618Q149 627 144 634T126 641Q121 641 116 640T108 637Q114 656 116 673T120 715Q139 712 160 712Q180 712 200 715Q193 649 169 582T100 461H60Z"  />
<glyph unicode="&#x201A;" horiz-adv-x="260" d="M60 -170Q72 -158 87 -139T116 -97T139 -52T149 -13Q149 -4 144 3T126 10Q121 10 116 9T108 6Q114 25 116 42T120 84Q139 81 160 81Q180 81 200 84Q193 18 169 -49T100 -170H60Z"  />
<glyph unicode="&#x201C;" horiz-adv-x="370" d="M188 715Q176 703 161 684T132 642T109 597T99 558Q99 549 104 542T122 535Q127 535 132 536T140 539Q134 520 132 503T128 461Q108 464 88 464Q67 464 48 461Q55 527 79 594T148 715H188ZM322 715Q310 703 295 684T266 642T243 597T233 558Q233 549 238 542T256 535Q261 535 266 536T274 539Q268 520 266 503T262 461Q242 464 222 464Q201 464 182 461Q189 527 213 594T282 715H322Z"  />
<glyph unicode="&#x201D;" horiz-adv-x="370" d="M182 461Q194 473 209 492T238 534T261 579T271 618Q271 627 266 634T248 641Q243 641 238 640T230 637Q236 656 238 673T242 715Q261 712 282 712Q302 712 322 715Q315 649 291 582T222 461H182ZM48 461Q60 473 75 492T104 534T127 579T137 618Q137 627 132 634T114 641Q109 641 104 640T96 637Q102 656 104 673T108 715Q127 712 148 712Q168 712 188 715Q181 649 157 582T88 461H48Z"  />
<glyph unicode="&#x201E;" horiz-adv-x="370" d="M182 -170Q194 -158 209 -139T238 -97T261 -52T271 -13Q271 -4 266 3T248 10Q243 10 238 9T230 6Q236 25 238 42T242 84Q261 81 282 81Q302 81 322 84Q315 18 291 -49T222 -170H182ZM48 -170Q60 -158 75 -139T104 -97T127 -52T137 -13Q137 -4 132 3T114 10Q109 10 104 9T96 6Q102 25 104 42T108 84Q127 81 148 81Q168 81 188 84Q181 18 157 -49T88 -170H48Z"  />
<glyph unicode="&#x2020;" horiz-adv-x="520" d="M475 418Q475 402 466 395T443 388Q436 388 429 388T411 390L273 408Q276 340 279 262T286 110T291 -29T294 -135Q294 -151 287 -159T260 -167Q241 -167 234 -159T226 -135Q226 -94 228 -30T234 109T240 262T247 408L109 390Q99 389 92 389T77 388Q63 388 54 395T45 418Q45 435 51 442T66 450Q76 450 84 449T102 446L247 428Q246 453 243 490T236 564T229 634T226 681Q226 715 260 715Q294 715 294 681Q294 666 291 634T285 565T278 490T273 428L418 446Q427 447 435 448T454 450Q463 450 469 443T475 418Z"  />
<glyph unicode="&#x2021;" horiz-adv-x="520" d="M237 274Q237 282 238 302T241 346T244 398T248 446L110 428Q100 426 93 426T78 426Q64 426 55 433T45 456Q45 473 51 480T67 488Q77 488 86 487T103 484L248 466Q247 479 244 506T238 564T232 627T229 681Q229 715 260 715Q291 715 291 681Q291 659 289 628T283 565T276 506T272 466L417 484Q425 485 434 486T453 488Q462 488 468 481T475 456Q475 440 466 433T442 426Q435 426 428 426T410 428L272 446Q273 425 275 398T279 347T282 302T283 274Q283 266 282 246T279 202T275 150T272 102L410 120Q420 122 427 122T442 122Q456 122 465 115T475 92Q475 75 469 68T453 60Q443 60 434 61T417 64L272 82Q273 68 276 42T282 -16T288 -79T291 -133Q291 -167 260 -167Q229 -167 229 -133Q229 -111 231 -80T237 -17T244 41T248 82L103 64Q95 63 86 62T67 60Q58 60 52 67T45 92Q45 108 54 115T78 122Q85 122 92 122T110 120L248 102Q246 123 245 150T241 201T238 246T237 274Z"  />
<glyph unicode="&#x2022;" horiz-adv-x="501" d="M75 351Q75 387 88 419T126 475T182 512T250 526Q286 526 318 513T374 475T412 419T426 351Q426 315 412 283T374 227T318 189T250 175Q214 175 182 189T126 227T89 283T75 351Z"  />
<glyph unicode="&#x2026;" horiz-adv-x="1000" d="M122 39Q122 58 135 71T167 84Q186 84 199 71T212 39Q212 20 199 7T167 -6Q148 -6 135 7T122 39ZM455 39Q455 58 468 71T500 84Q519 84 532 71T545 39Q545 20 532 7T500 -6Q481 -6 468 7T455 39ZM788 39Q788 58 801 71T833 84Q852 84 865 71T878 39Q878 20 865 7T833 -6Q814 -6 801 7T788 39Z"  />
<glyph unicode="&#x2030;" horiz-adv-x="1000" d="M175 393Q137 393 110 406T65 443T39 497T30 563Q30 597 41 625T71 673T117 704T175 715Q206 715 232 704T278 673T309 625T320 563Q320 528 312 497T286 443T241 407T175 393ZM174 413Q203 413 221 425T250 456T265 499T269 548Q269 572 266 598T252 645T224 681T174 695Q143 695 125 681T96 646T83 598T79 548Q79 523 83 499T97 456T126 425T174 413ZM483 -13Q445 -13 418 0T373 37T347 91T338 157Q338 191 349 219T379 267T425 298T483 309Q514 309 540 298T586 267T617 219T628 157Q628 122 620 91T594 37T549 1T483 -13ZM482 7Q511 7 529 19T558 50T573 93T577 142Q577 166 574 192T560 239T532 275T482 289Q451 289 433 275T404 240T391 192T387 142Q387 117 391 93T405 50T434 19T482 7ZM825 -13Q787 -13 760 0T715 37T689 91T680 157Q680 191 691 219T721 267T767 298T825 309Q856 309 882 298T928 267T959 219T970 157Q970 122 962 91T936 37T891 1T825 -13ZM825 7Q854 7 872 19T901 50T916 93T920 142Q920 166 917 192T903 239T875 275T825 289Q794 289 776 275T747 240T734 192T730 142Q730 117 734 93T748 50T777 19T825 7ZM504 741H542L153 -29H114L504 741Z"  />
<glyph unicode="&#x2039;" horiz-adv-x="260" d="M56 238L164 392H204L96 238L204 84H164L56 238Z"  />
<glyph unicode="&#x203A;" horiz-adv-x="260" d="M204 238L96 84H56L164 238L56 392H96L204 238Z"  />
<glyph unicode="&#x20AC;" horiz-adv-x="520" d="M466 579Q460 579 455 582T448 591Q445 616 438 633T416 662T380 677T326 682Q279 682 247 664T192 612T159 529T142 418H427L416 388H140V356V320H389L377 290H142Q150 158 196 89T327 19Q349 19 366 23T398 39T423 69T444 118Q446 125 450 130T461 136Q469 136 474 130T479 116Q479 109 478 99T474 84L454 6Q431 -2 400 -7T318 -12Q209 -12 153 63T87 290H23L35 320H84V357V388H23L35 418H87Q93 490 108 545T150 638T218 695T318 715Q343 715 363 713T402 707T438 701T475 695L481 584Q474 579 466 579Z"  />
<glyph unicode="&#x2122;" horiz-adv-x="990" d="M127 325Q146 328 156 329T171 336T176 351T177 381V695H119Q87 695 73 676T52 627H38V715H372V627H358Q352 656 338 675T291 695H233V381Q233 361 233 351T238 336T253 330T283 325V311H127V325ZM433 325Q465 329 475 342T485 386V644Q485 657 479 668T462 686T440 697T418 701V715H528L689 393L847 715H952V701Q918 699 905 685T891 644V381Q891 361 891 351T896 336T911 330T941 325V311H786V325Q805 328 815 329T830 336T834 351T835 381V628H833L677 311H668L513 625H511V386Q511 355 521 342T564 325V311H433V325Z"  />

</font>
</defs>
</svg>
