<?xml  version="1.0" encoding="UTF-8"?>
<!DOCTYPE svg PUBLIC "-//W3C//DTD SVG 1.0//EN" "http://www.w3.org/TR/2001/REC-SVG-20010904/DTD/svg10.dtd" >
<svg xmlns="http://www.w3.org/2000/svg" >
<metadata>
<version>1.0</version>
<id><![CDATA[Stempel Schneidler W01 Bold]]></id>
<vendor>Monotype Imaging Inc.</vendor>
<credits>
<name>Fonts.com WebFonts</name>
<URL>http://webfonts.fonts.com</URL>
<role>Home of the Web fonts</role>
</credits>
<license>
<URL>http://webfonts.fonts.com/Legal</URL>
</license>
<copyright><![CDATA[Copyright © 1990, 2002 Adobe Systems Incorporated.  All Rights Reserved.]]></copyright>
<trademark><![CDATA[Stempel Schneidler is a registered trademark of Bauer Types, S.A.]]></trademark>
<licensee>
<name></name>
</licensee>
</metadata>
<defs >
<font horiz-adv-x="578" id="11c82a61-2f4d-43d0-abc8-56ffcd5d7e08">
<font-face font-family="" panose-1="0 0 8 0 0 0 0 0 0 0" ascent="954" descent="-278" units-per-em="1000" alphabetic="0">
</font-face>
<missing-glyph horiz-adv-x="0" />

<glyph unicode="&#xA;" />
<glyph unicode="&#xD;" horiz-adv-x="0" />
<glyph unicode=" " horiz-adv-x="296" />
<glyph unicode="!" horiz-adv-x="316" d="M83 62Q83 93 105 115T158 137Q189 137 211 115T233 62Q233 31 211 9T158 -13Q127 -13 105 9T83 62ZM88 503Q84 532 82 552T78 586T77 609T77 628Q77 670 98 692T158 715Q197 715 218 693T239 628Q239 619 239 610T238 586T235 552T228 503L186 208L136 185L88 503Z"  />
<glyph unicode="&quot;" horiz-adv-x="481" d="M177 417Q176 411 170 398T148 385Q133 385 127 398T119 417L106 560Q104 577 102 602T99 644Q99 677 110 696T148 715Q174 715 185 696T197 644Q197 627 195 602T190 560L177 417ZM362 417Q361 411 355 398T333 385Q318 385 312 398T304 417L291 560Q289 577 287 602T284 644Q284 677 295 696T333 715Q359 715 370 696T382 644Q382 627 380 602T375 560L362 417Z"  />
<glyph unicode="#" horiz-adv-x="592" d="M44 290H144L163 425H75V513H175L202 715H296L269 513H366L393 715H487L460 513H548V425H448L429 290H517V202H417L390 0H296L323 202H226L199 0H105L132 202H44V290ZM354 425H257L238 290H335L354 425Z"  />
<glyph unicode="$" horiz-adv-x="592" d="M276 637Q247 626 229 603T211 539Q211 510 229 489T276 451V637ZM328 68Q357 79 375 103T393 166Q393 196 375 218T328 257V68ZM328 423Q363 406 400 389T467 346T517 287T537 205Q537 157 520 120T475 57T408 15T328 -7V-89Q328 -99 318 -99H286Q276 -99 276 -89V-13H272Q219 -13 168 -8T64 4Q63 40 59 76T55 151Q55 165 64 169T91 174Q103 174 110 173T121 168T129 155T135 132Q141 109 150 94T173 71T208 60T256 57H276V285Q241 301 205 318T137 359T87 417T67 500Q67 550 83 587T127 651T194 692T276 712V768Q276 776 286 776H318Q328 776 328 768V715Q351 715 377 714T428 710T472 706T503 704Q503 684 504 662T507 620T509 584T510 561Q510 550 502 543T473 536Q457 536 450 539T439 550T433 571T424 603Q415 630 389 637T330 645H328V423Z"  />
<glyph unicode="%" horiz-adv-x="1000" d="M201 545Q201 488 218 452T271 415Q306 415 323 451T341 545Q341 602 324 638T271 675Q236 675 219 639T201 545ZM95 545Q95 582 108 613T145 667T201 702T271 715Q308 715 340 703T396 668T433 614T447 545Q447 507 434 476T397 423T341 388T271 375Q233 375 201 387T146 422T109 476T95 545ZM553 157Q553 194 566 225T603 279T659 314T729 327Q766 327 798 315T854 280T891 226T905 157Q905 119 892 88T855 35T799 0T729 -13Q691 -13 659 -1T604 34T567 88T553 157ZM659 157Q659 100 676 64T729 27Q764 27 781 63T799 157Q799 214 782 250T729 287Q694 287 677 251T659 157ZM649 732H723L350 -30H276L649 732Z"  />
<glyph unicode="&amp;" horiz-adv-x="852" d="M541 115Q491 55 422 21T274 -13Q234 -13 194 -4T122 25T70 78T50 156Q50 195 64 224T101 276T154 316T215 350Q194 366 176 383T143 418T121 459T113 511Q113 548 128 577T169 626T227 656T293 667Q328 667 360 659T417 634T456 589T471 522Q471 491 460 467T429 423T386 388T337 359L545 222Q558 238 574 263T605 316T630 371T640 419Q640 429 634 435T620 444T601 448T584 450Q567 451 562 455T557 473V501Q557 514 570 514Q581 514 610 508T679 501Q698 501 718 503T755 507T784 512T801 514Q815 514 815 503V470Q815 463 810 460T777 452Q769 450 762 448T746 437T727 413T704 370Q695 352 682 327T655 277T625 229T598 190L815 59L748 -35L541 115ZM287 395Q302 405 317 417T345 444T365 476T373 513Q373 549 351 573T294 597Q258 597 235 571T211 507Q211 469 235 443T287 395ZM260 315Q244 303 229 292T203 266T185 236T178 197Q178 171 191 150T226 112T272 88T320 79Q367 79 410 99T485 153L260 315Z"  />
<glyph unicode="&apos;" horiz-adv-x="296" d="M177 417Q176 411 170 398T148 385Q133 385 127 398T119 417L106 560Q104 577 102 602T99 644Q99 677 110 696T148 715Q174 715 185 696T197 644Q197 627 195 602T190 560L177 417Z"  />
<glyph unicode="(" horiz-adv-x="352" d="M352 681Q264 589 219 485T174 253Q174 125 219 21T352 -175L310 -215Q185 -126 124 -11T62 253Q62 402 123 517T310 721L352 681Z"  />
<glyph unicode=")" horiz-adv-x="352" d="M0 -175Q88 -83 133 21T178 253Q178 381 133 485T0 681L42 721Q167 632 228 517T290 253Q290 104 229 -11T42 -215L0 -175Z"  />
<glyph unicode="*" horiz-adv-x="408" d="M43 606Q43 623 55 634T82 646Q93 646 106 638T133 617T161 589T190 559L192 561Q191 570 187 587T178 622T170 656T166 681Q166 700 176 707T204 715Q221 715 231 708T242 681Q242 673 239 657T231 622T222 587T216 561L218 559Q232 573 246 588T275 616T302 637T326 646Q341 646 353 635T365 606Q365 595 362 589T348 576Q341 571 328 567T297 557T262 547T229 538V536L333 503Q344 499 354 492T365 465Q365 454 357 441T331 428Q313 428 301 439T277 460L218 515L216 513Q217 504 221 487T230 452T238 418T242 393Q242 374 232 367T204 359Q187 359 177 366T166 393Q166 401 169 417T177 452T186 487T192 513L190 515L131 460Q120 450 108 439T77 428Q60 428 52 441T43 465Q43 485 53 492T75 503L179 536V538Q164 542 146 547T111 557T81 566T60 576Q50 582 47 588T43 606Z"  />
<glyph unicode="+" horiz-adv-x="600" d="M244 197H47V309H244V506H356V309H553V197H356V0H244V197Z"  />
<glyph unicode="&#x2c;" horiz-adv-x="296" d="M67 -219Q47 -219 42 -217T37 -210Q37 -207 44 -198T63 -176T87 -147T110 -113Q121 -94 130 -75T139 -41Q139 -24 130 -15T105 -6Q92 -6 84 -7T69 -10Q86 54 91 126Q106 124 125 123T164 121Q181 121 197 122T231 126Q228 95 222 63T210 3T196 -49T181 -88Q170 -111 160 -131T126 -190Q120 -200 116 -206T106 -215T91 -218T67 -219Z"  />
<glyph unicode="-" horiz-adv-x="407" d="M61 294H346V182H61V294Z"  />
<glyph unicode="." horiz-adv-x="296" d="M73 62Q73 93 95 115T148 137Q179 137 201 115T223 62Q223 31 201 9T148 -13Q117 -13 95 9T73 62Z"  />
<glyph unicode="/" horiz-adv-x="389" d="M288 716Q290 721 301 721H391Q402 721 402 714Q402 711 399 704T392 686T384 666T376 647L102 -14Q100 -18 97 -18T88 -19H-2Q-13 -19 -13 -12Q-13 -9 -10 -2T-3 16T5 36T13 55L288 716Z"  />
<glyph unicode="0" horiz-adv-x="592" d="M189 351Q189 283 196 228T216 134T250 73T296 51Q322 51 342 72T375 133T396 228T403 351Q403 418 396 473T376 568T342 629T296 651Q270 651 250 630T217 569T196 474T189 351ZM39 351Q39 432 56 499T106 614T187 688T296 715Q357 715 405 689T486 614T536 499T553 351Q553 270 536 203T486 88T405 14T296 -13Q235 -13 187 13T106 88T56 203T39 351Z"  />
<glyph unicode="1" horiz-adv-x="592" d="M238 562L170 510Q152 496 139 487T119 478Q116 478 111 482T101 493T93 506T89 516Q89 525 95 530Q158 575 221 621T348 715L385 692Q382 666 379 629T376 529V116Q376 95 379 82T389 62T402 51T416 45Q425 42 436 42T456 40T471 35T477 22V3Q477 -13 461 -13Q455 -13 440 -11T403 -7T357 -2T307 0Q282 0 257 -2T211 -6T175 -11T153 -13Q137 -13 137 3V22Q137 31 143 34T158 39T178 41T198 45Q205 47 212 50T225 61T234 82T238 116V562Z"  />
<glyph unicode="2" horiz-adv-x="592" d="M30 47Q96 107 163 169T286 303Q315 341 338 385T361 481Q361 538 327 570T232 603Q191 603 166 587T128 550T110 510T105 485Q104 478 99 474T76 469Q62 469 58 474T53 491Q53 543 72 584T123 655T197 699T287 715Q334 715 375 703T446 666T493 604T511 516Q511 471 495 430T451 352T389 280T317 216T242 158T174 107V105H400Q415 105 426 109T447 123T466 149T487 190Q493 203 500 205T521 207Q525 207 536 205T547 196Q547 192 540 174T524 133T507 88T495 54Q490 37 485 21T475 -13Q454 -12 434 -11T388 -8T328 -7T243 -6Q208 -6 179 -6T125 -8T76 -10T30 -13V47Z"  />
<glyph unicode="3" horiz-adv-x="592" d="M154 407Q175 402 196 399T240 395Q265 395 291 401T339 420T374 454T388 505Q388 531 377 550T347 583T305 602T257 609Q226 609 204 604T167 591T143 572T127 550Q122 541 120 531T114 513T105 498T90 492Q74 492 70 498T65 519Q65 567 83 603T133 664T206 702T292 715Q333 715 371 704T440 671T488 616T506 537Q506 484 474 444T394 385V383Q425 376 451 362T497 327T528 279T539 217Q539 160 515 117T452 45T362 2T259 -13Q222 -13 183 -5T111 21T57 69T36 143Q36 168 50 181T91 195Q119 195 128 181T142 146Q145 130 149 114T164 83T195 60T252 51Q281 51 307 61T352 89T383 131T395 186Q395 220 381 244T345 283T294 306T235 313Q206 313 179 309T124 297L154 407Z"  />
<glyph unicode="4" horiz-adv-x="592" d="M328 162H36Q31 162 26 177T21 213Q21 216 23 220T33 234T54 261T90 306L387 684Q404 705 409 710T422 715Q427 715 435 713T452 706T466 696T472 687Q472 667 469 643T466 586V254H561V162H466V105Q466 68 464 40T455 0H312Q323 22 325 41T328 84V162ZM334 509H332L137 254H334V509Z"  />
<glyph unicode="5" horiz-adv-x="592" d="M156 427Q184 438 218 445T297 452Q340 452 380 441T452 406T501 347T520 262Q520 196 497 145T435 58T344 5T234 -13Q200 -13 165 -6T100 19T52 63T33 132Q33 160 47 177T91 194Q109 194 119 190T134 177T141 157T145 130Q156 51 235 51Q269 51 295 66T339 104T366 156T376 214Q376 284 334 319T222 354Q194 354 170 350T128 341T99 332T83 328Q73 328 73 336Q93 427 109 517T139 702H447Q462 702 468 705T482 712Q487 714 496 714T519 715Q537 715 537 709Q537 707 535 701T528 681L496 591Q493 583 483 583Q472 583 451 586T405 590H190L156 427Z"  />
<glyph unicode="6" horiz-adv-x="592" d="M45 280Q45 355 65 416T120 524T198 607T289 665Q311 676 341 687T402 707T465 721T520 727Q526 727 532 726T542 719Q544 716 544 709T545 696Q545 690 542 687T532 681T514 676T484 667Q433 651 387 623T303 556T237 472T193 375L195 373Q222 412 262 431T351 451Q396 451 432 435T493 392T533 326T547 245Q547 191 529 144T477 62T397 7T296 -13Q231 -13 184 10T106 73T60 166T45 280ZM189 212Q189 187 194 159T211 107T244 67T296 51Q327 51 347 67T380 107T398 159T403 212Q403 239 398 266T380 314T347 349T296 363Q266 363 246 350T213 315T195 266T189 212Z"  />
<glyph unicode="7" horiz-adv-x="592" d="M414 575H185Q170 575 161 575T145 572T133 566T121 553Q114 544 106 542T71 539Q38 539 31 542T23 552Q23 558 28 578T39 623T50 668T56 694Q57 699 59 704T68 709Q74 709 131 706T314 702Q363 702 405 703T478 705T528 708T550 709Q564 709 564 694Q564 691 554 674L179 0H86L414 575Z"  />
<glyph unicode="8" horiz-adv-x="592" d="M65 524Q65 572 84 608T135 667T208 703T296 715Q336 715 377 706T451 677T506 625T527 544Q527 516 517 490T488 442T447 405T398 382V381Q428 371 455 354T502 312T535 259T547 196Q547 141 523 102T463 37T382 -1T296 -13Q180 -13 113 38T45 189Q45 221 57 249T88 299T133 337T185 359V361Q123 390 94 430T65 524ZM203 548Q203 523 214 501T241 463T272 438T296 429Q311 429 330 440T365 469T392 507T403 548Q403 574 395 591T372 619T340 634T300 639Q255 639 229 616T203 548ZM177 170Q177 126 207 95T296 63Q344 63 376 91T409 170Q409 197 397 222T367 267T328 299T289 311Q272 311 253 299T217 268T189 223T177 170Z"  />
<glyph unicode="9" horiz-adv-x="592" d="M43 463Q43 517 64 563T121 643T205 696T308 715Q366 715 410 692T483 630T526 541T541 438Q541 344 507 267T396 119Q362 87 319 63T232 21T147 -4T74 -13Q66 -13 63 -7T60 7Q60 13 61 17T69 25T88 33T122 44Q222 76 287 151T396 339L394 341Q363 306 327 285T242 263Q199 263 163 278T100 320T58 383T43 463ZM181 494Q181 468 187 442T206 396T240 364T291 351Q321 351 342 365T376 402T396 452T403 504Q403 533 398 559T379 606T345 639T293 651Q266 651 245 639T210 606T188 556T181 494Z"  />
<glyph unicode=":" horiz-adv-x="296" d="M73 62Q73 93 95 115T148 137Q179 137 201 115T223 62Q223 31 201 9T148 -13Q117 -13 95 9T73 62ZM73 357Q73 388 95 410T148 432Q179 432 201 410T223 357Q223 326 201 304T148 282Q117 282 95 304T73 357Z"  />
<glyph unicode=";" horiz-adv-x="296" d="M67 -219Q47 -219 42 -217T37 -210Q37 -207 44 -198T63 -176T87 -147T110 -113Q121 -94 130 -75T139 -41Q139 -24 130 -15T105 -6Q92 -6 84 -7T69 -10Q86 54 91 126Q106 124 125 123T164 121Q181 121 197 122T231 126Q228 95 222 63T210 3T196 -49T181 -88Q170 -111 160 -131T126 -190Q120 -200 116 -206T106 -215T91 -218T67 -219ZM73 357Q73 388 95 410T148 432Q179 432 201 410T223 357Q223 326 201 304T148 282Q117 282 95 304T73 357Z"  />
<glyph unicode="&lt;" horiz-adv-x="600" d="M553 406L191 253L553 100V-8L47 208V298L553 514V406Z"  />
<glyph unicode="=" horiz-adv-x="600" d="M47 416H553V304H47V416ZM47 202H553V90H47V202Z"  />
<glyph unicode="&gt;" horiz-adv-x="600" d="M47 100L409 253L47 406V514L553 298V208L47 -8V100Z"  />
<glyph unicode="?" horiz-adv-x="463" d="M436 247Q417 232 392 220T340 201T286 189T234 185Q197 185 162 195T100 224T55 273T38 341Q38 374 50 397T83 437T127 468T177 495Q187 500 197 506T217 519T231 536T237 558Q237 584 216 596T172 609Q162 609 153 607T134 604Q124 604 124 613Q124 615 130 624T146 644L207 713Q214 721 224 721Q228 721 249 711T293 683T336 639T355 581Q355 546 337 521T290 477T229 442T168 411T121 377T102 333Q102 315 114 301T145 276T184 261T222 255Q267 255 306 272T380 315L436 247ZM140 62Q140 93 162 115T215 137Q246 137 268 115T290 62Q290 31 268 9T215 -13Q184 -13 162 9T140 62Z"  />
<glyph unicode="@" horiz-adv-x="800" d="M505 426Q505 451 497 466T464 482Q446 482 425 469T386 430T355 369T342 290Q342 246 352 230T382 213Q404 213 426 232T465 282T494 351T505 426ZM540 529H621L568 307Q560 276 559 264T557 241Q557 228 564 215T587 201Q606 201 625 215T659 256T684 319T694 404Q694 448 676 491T622 569T536 624T421 645Q377 645 330 628T244 573T180 473T154 323Q154 266 177 217T240 133T329 77T432 57Q468 57 497 61T551 72T598 89T644 111L655 47Q605 19 551 0T433 -19Q328 -19 252 16T127 103T54 218T30 334Q30 421 61 492T146 614T271 693T421 721Q496 721 560 697T670 631T743 531T770 405Q770 364 757 319T719 236T656 174T571 149Q544 149 526 159T496 182T479 208T474 227H472Q469 221 459 208T432 182T394 159T349 149Q328 149 309 155T275 177T253 217T244 281Q244 326 260 373T306 459T373 521T457 546Q476 546 487 542T507 530T520 513T530 495L540 529Z"  />
<glyph unicode="A" horiz-adv-x="796" d="M359 699Q366 715 374 718T403 721Q418 721 427 719T441 705L695 124Q705 101 712 88T727 68T743 58T766 51Q775 49 780 47T788 41T792 28T793 5Q793 -6 789 -9T779 -13Q771 -13 737 -7T645 0Q593 0 555 -6T505 -13Q491 -13 491 1V32Q491 40 494 44T514 51Q532 55 540 58T548 72Q548 80 542 96T526 136L484 237H241L197 132Q185 104 181 93T176 73Q176 56 219 51Q234 49 238 42T242 15Q242 -1 239 -7T228 -13Q214 -13 184 -7T123 0Q107 0 90 -2T59 -6T34 -11T20 -13Q13 -13 8 -10T3 4Q3 19 4 28T7 42T14 48T25 51Q39 52 49 55T67 65T84 85T102 121L359 699ZM363 526L271 307H454L363 526Z"  />
<glyph unicode="B" horiz-adv-x="648" d="M617 185Q617 146 602 110T555 47T475 3T360 -13Q306 -13 258 -7T179 0Q161 0 139 -2T95 -6T56 -11T31 -13Q17 -13 17 2Q17 10 17 18T19 34Q20 41 27 43T65 51Q85 54 95 67T106 119V583Q106 602 104 614T98 634T89 644T80 648L50 654Q31 658 28 662T24 675V698Q24 711 29 713T42 715Q50 715 64 713T96 709Q115 706 138 704T188 702Q207 702 227 703T269 705Q311 708 352 708Q394 708 432 699T499 671T546 621T564 550Q564 510 551 479T514 426T459 390T390 371V369Q430 365 470 353T543 320T596 265T617 185ZM256 395Q289 395 318 403T368 427T402 468T414 525Q414 547 407 568T385 606T346 633T285 644Q268 644 262 639T256 622V395ZM256 137Q256 120 258 105T267 77T290 58T330 51Q395 51 428 90T461 190Q461 261 416 296T300 331H256V137Z"  />
<glyph unicode="C" horiz-adv-x="759" d="M50 349Q50 440 80 509T165 626T292 697T451 721Q493 721 528 718T593 710T647 703T693 698Q693 664 697 626T702 562Q702 551 692 543T664 535Q641 535 636 545T626 581Q618 626 582 638T479 651Q414 651 364 630T280 570T229 476T212 352Q212 289 231 235T287 139T374 75T491 51Q543 51 582 65T633 111L645 143Q650 156 657 164T688 172Q727 172 727 157Q727 149 724 133T717 100L696 5Q676 5 649 1T590 -7T525 -15T461 -19Q372 -19 297 2T166 69T81 183T50 349Z"  />
<glyph unicode="D" horiz-adv-x="852" d="M119 583Q119 602 117 614T111 634T102 644T93 648L63 654Q44 658 41 662T37 675V698Q37 711 42 713T55 715Q63 715 77 713T109 709Q128 706 151 704T201 702Q233 702 264 703T328 705Q360 707 389 707T445 708Q515 708 579 686T693 621T772 512T802 362Q802 279 774 210T694 92T573 15T421 -13Q395 -13 362 -11T295 -7T235 -2T192 0Q174 0 152 -2T108 -6T69 -11T44 -13Q30 -13 30 2Q30 10 30 18T32 34Q33 41 40 43T78 51Q98 54 108 67T119 119V583ZM269 146Q269 117 279 99T306 70T346 55T394 51Q460 51 506 76T582 144T626 240T640 354Q640 428 619 482T562 570T482 621T387 638H290Q269 638 269 614V146Z"  />
<glyph unicode="E" horiz-adv-x="611" d="M106 583Q106 602 104 614T98 634T89 644T80 648L50 654Q31 658 28 662T24 675V698Q24 711 29 713T42 715Q50 715 65 713T104 709Q129 706 165 704T252 702H300Q331 702 360 703T415 705Q441 707 460 707T490 708Q498 708 500 700L511 606Q514 582 514 571Q514 560 506 556T475 552Q448 552 444 564T436 596Q432 619 415 628T362 638H256V392H391Q409 392 422 396T444 426Q449 443 455 450T482 457Q505 457 511 452T518 429Q518 411 517 394T515 357Q515 338 516 321T518 285Q518 268 512 263T482 257Q462 257 456 264T444 288Q436 313 423 317T391 322H256V140Q256 116 261 100T282 75T326 61T403 57Q431 57 448 62T476 77T493 100T505 130Q510 144 518 150T550 156Q568 156 576 153T585 139Q585 132 581 112T570 69T559 22T552 -13Q483 -8 415 -4T266 0Q226 0 190 -2T125 -6T73 -11T39 -13Q31 -13 28 -10T24 4V32Q24 40 31 43T67 51Q85 54 95 67T106 119V583Z"  />
<glyph unicode="F" horiz-adv-x="556" d="M256 120Q256 100 259 88T268 69T285 58T309 51Q327 47 335 45T346 35Q348 29 348 17T349 -2Q349 -6 345 -9T333 -13Q323 -13 286 -7T181 0Q144 0 119 -2T76 -6T49 -11T31 -13Q17 -13 17 2Q17 10 17 18T19 34Q20 41 27 43T65 51Q85 54 95 67T106 119V583Q106 602 104 614T98 634T89 644T80 648L50 654Q31 658 28 662T24 675V698Q24 711 29 713T42 715Q50 715 65 713T104 709Q129 706 165 704T252 702H300Q331 702 360 703T415 705Q441 707 460 707T490 708Q498 708 500 700L511 606Q514 582 514 571Q514 560 506 556T475 552Q448 552 444 564T436 596Q432 619 415 628T362 638H256V392H375Q393 392 406 396T428 426Q433 443 439 450T466 457Q489 457 495 452T502 429Q502 411 501 394T499 357Q499 338 500 321T502 285Q502 268 496 263T466 257Q446 257 440 264T428 288Q420 313 407 317T375 322H256V120Z"  />
<glyph unicode="G" horiz-adv-x="796" d="M702 64Q702 40 702 22T704 -14Q698 -12 692 -12T679 -10Q673 -9 667 -9T654 -9Q628 -9 602 -10T550 -14Q524 -16 498 -17T445 -19Q359 -19 287 6T162 79T80 198T50 359Q50 447 79 514T160 628T285 697T444 721Q529 721 588 711T686 698Q686 664 690 626T695 562Q695 551 689 547T675 541L651 539Q634 537 629 545T619 581Q611 626 575 638T472 651Q404 651 355 630T274 570T227 478T212 363Q212 306 224 250T265 150T338 79T450 51Q482 51 503 56T536 73T553 104T558 150Q558 174 556 188T548 210T530 221T499 228Q489 229 483 232T477 244V277Q477 292 491 292Q499 292 515 291T551 287T589 283T623 281Q668 281 704 286T749 292Q762 292 762 278V249Q762 239 759 234T741 228Q715 226 709 213T702 178V176V64Z"  />
<glyph unicode="H" horiz-adv-x="833" d="M106 583Q106 622 96 635T67 651Q38 656 31 659T24 670V698Q24 709 27 712T39 715Q49 715 89 709T181 702Q233 702 273 708T323 715Q331 715 334 712T338 698V670Q338 662 331 659T295 651Q277 648 267 635T256 583V392H577V583Q577 622 567 635T538 651Q509 656 502 659T495 670V698Q495 709 498 712T510 715Q520 715 560 709T652 702Q704 702 744 708T794 715Q802 715 805 712T809 698V670Q809 662 802 659T766 651Q748 648 738 635T727 583V119Q727 80 737 67T766 51Q795 46 802 43T809 32V4Q809 -7 806 -10T794 -13Q784 -13 744 -7T652 0Q600 0 560 -6T510 -13Q502 -13 499 -10T495 4V32Q495 40 502 43T538 51Q556 54 566 67T577 119V322H256V119Q256 80 266 67T295 51Q324 46 331 43T338 32V4Q338 -7 335 -10T323 -13Q313 -13 273 -7T181 0Q129 0 89 -6T39 -13Q31 -13 28 -10T24 4V32Q24 40 31 43T67 51Q85 54 95 67T106 119V583Z"  />
<glyph unicode="I" horiz-adv-x="370" d="M110 583Q110 622 100 635T71 651Q42 656 35 659T28 670V698Q28 709 31 712T43 715Q53 715 93 709T185 702Q237 702 277 708T327 715Q335 715 338 712T342 698V670Q342 662 335 659T299 651Q281 648 271 635T260 583V119Q260 80 270 67T299 51Q328 46 335 43T342 32V4Q342 -7 339 -10T327 -13Q317 -13 277 -7T185 0Q133 0 93 -6T43 -13Q35 -13 32 -10T28 4V32Q28 40 35 43T71 51Q89 54 99 67T110 119V583Z"  />
<glyph unicode="J" horiz-adv-x="352" d="M101 583Q101 622 91 635T62 651Q33 656 23 659T13 670V698Q13 709 19 712T34 715Q44 715 84 709T176 702Q228 702 268 708T318 715Q326 715 329 712T333 698V670Q333 662 326 659T290 651Q272 648 262 635T251 583V200Q251 153 248 115T238 44T218 -19T186 -80Q169 -107 145 -128T91 -166T30 -191T-35 -202V-99Q-26 -101 -16 -102T7 -104Q30 -104 47 -99T77 -81T95 -44T101 17V583Z"  />
<glyph unicode="K" horiz-adv-x="759" d="M394 494Q401 502 420 522T458 564T493 605T508 633Q508 642 497 645T469 651Q457 653 450 656T443 667V695Q443 715 458 715Q480 715 505 709T563 702Q610 702 639 708T693 715Q704 715 707 709T711 679Q711 664 704 659T680 651Q657 647 640 639T601 608L402 391L577 207Q648 132 689 89T748 37Q762 30 772 24T783 6Q783 -7 761 -13T690 -19Q647 -19 613 -7T548 27T490 78T431 143L259 340L394 494ZM106 583Q106 622 96 635T67 651Q38 656 31 659T24 670V698Q24 709 27 712T39 715Q49 715 89 709T181 702Q233 702 273 708T323 715Q331 715 334 712T338 698V670Q338 662 331 659T295 651Q277 648 267 635T256 583V119Q256 80 266 67T295 51Q324 46 331 43T338 32V4Q338 -7 335 -10T323 -13Q313 -13 273 -7T181 0Q129 0 89 -6T39 -13Q31 -13 28 -10T24 4V32Q24 40 31 43T67 51Q85 54 95 67T106 119V583Z"  />
<glyph unicode="L" horiz-adv-x="593" d="M106 583Q106 622 96 635T67 651Q38 656 31 659T24 670V698Q24 709 27 712T39 715Q49 715 89 709T181 702Q207 702 231 704T274 708T307 713T326 715Q334 715 338 712T343 698V670Q343 662 336 659T303 651Q284 648 270 635T256 583V145Q256 106 272 85T333 63H384Q415 63 433 64T464 73T484 97T504 142Q509 154 516 157T542 160Q554 160 568 156T582 142Q582 136 577 116T565 72T553 25T546 -13Q477 -8 395 -4T234 0Q143 0 94 -6T31 -13Q17 -13 17 2Q17 10 17 18T19 34Q20 41 27 43T65 51Q85 54 95 67T106 119V583Z"  />
<glyph unicode="M" horiz-adv-x="1019" d="M141 678Q144 704 153 709T184 715Q196 715 203 715T217 712T227 705T237 691L511 193L758 689Q762 698 765 703T774 711T788 714T812 715Q837 715 846 712T857 694L910 285Q913 265 916 239T922 184T929 131T938 88Q942 72 952 64T988 51Q1002 48 1007 44T1012 26Q1012 0 1009 -6T999 -13Q989 -13 949 -7T851 0Q811 0 776 -6T728 -13Q715 -13 711 -4T707 19Q707 36 712 41T733 51Q743 54 752 56T768 62T779 73T783 91Q783 101 782 115T779 144T775 174T771 200L738 474H736L520 38Q512 23 504 19T478 15Q465 15 458 16T445 19T436 27T428 40L196 465H194L179 277Q177 255 175 230T170 179T167 133T165 98Q165 73 182 64T220 51Q240 48 246 44T252 25Q252 -1 250 -7T239 -13Q222 -13 198 -7T128 0Q87 0 63 -6T25 -13Q17 -13 12 -7T7 22Q7 37 13 43T29 51Q41 53 50 55T66 64T77 81T83 113L141 678Z"  />
<glyph unicode="N" horiz-adv-x="815" d="M94 694Q94 715 125 715Q143 715 162 714T187 707L639 194V541Q639 573 636 593T626 626T607 643T579 651Q554 654 549 657T543 673V703Q543 709 548 712T559 715Q568 715 601 709T676 702Q715 702 745 708T788 715Q805 715 805 699V674Q805 664 800 659T776 651Q760 649 750 646T733 636T724 614T721 577V8Q721 0 715 -6T686 -13Q671 -13 660 -13T640 -10T623 -2T606 15L176 497V161Q176 132 178 112T187 79T203 60T229 51Q243 49 251 48T264 43T270 33T272 15V-1Q272 -7 267 -10T257 -13Q247 -13 214 -7T139 0Q100 0 70 -6T27 -13Q10 -13 10 3V28Q10 38 17 42T48 51Q58 52 66 55T81 67T90 89T94 125V694Z"  />
<glyph unicode="O" horiz-adv-x="888" d="M212 351Q212 288 226 235T270 144T342 85T444 63Q502 63 545 84T618 144T661 235T676 351Q676 402 663 453T622 545T550 613T444 639Q382 639 338 613T266 546T225 453T212 351ZM50 351Q50 436 80 504T164 621T289 695T444 721Q527 721 599 695T724 621T807 505T838 351Q838 266 808 198T724 81T599 7T444 -19Q361 -19 289 7T164 81T81 197T50 351Z"  />
<glyph unicode="P" horiz-adv-x="611" d="M106 583Q106 602 104 614T98 634T89 644T80 648L50 654Q31 658 28 662T24 675V698Q24 711 29 713T42 715Q50 715 64 713T96 709Q115 706 138 704T188 702Q207 702 227 703T269 705Q311 708 352 708Q401 708 443 699T517 668T566 613T584 530Q584 483 567 445T521 381T453 340T367 325Q354 325 338 329T308 339T284 355T274 376Q274 383 305 383Q363 383 398 417T434 516Q434 547 423 570T393 608T350 630T300 638Q271 638 264 629T256 599V119Q256 80 272 67T307 51Q327 48 338 47T355 43T362 39T364 32V4Q364 -7 361 -10T349 -13Q344 -13 329 -11T292 -7T243 -2T184 0Q132 0 92 -6T39 -13Q31 -13 28 -10T24 4V32Q24 40 31 43T67 51Q85 54 95 67T106 119V583Z"  />
<glyph unicode="Q" horiz-adv-x="888" d="M212 351Q212 288 226 235T270 144T342 85T444 63Q502 63 545 84T618 144T661 235T676 351Q676 402 663 453T622 545T550 613T444 639Q382 639 338 613T266 546T225 453T212 351ZM649 30Q557 -19 444 -19Q361 -19 289 7T164 81T81 197T50 351Q50 436 80 504T164 621T289 695T444 721Q527 721 599 695T724 621T807 505T838 351Q838 275 814 213T746 104L857 -3Q866 -12 875 -18T892 -30T905 -41T910 -53Q910 -66 892 -70T817 -75Q789 -75 768 -71T729 -50L649 30Z"  />
<glyph unicode="R" horiz-adv-x="722" d="M106 583Q106 602 104 614T98 634T89 644T80 648L50 654Q31 658 28 662T24 675V698Q24 711 29 713T42 715Q50 715 64 713T96 709Q115 706 138 704T188 702Q207 702 227 703T269 705Q311 708 352 708Q401 708 444 701T519 673T569 617T588 527Q588 498 579 471T553 419T513 376T461 345L673 75Q693 49 708 36T732 15T747 4T752 -6Q752 -22 734 -26T690 -30Q645 -30 609 -17T543 18T487 71T437 135L316 304H256V119Q256 80 266 67T295 51Q324 46 331 43T338 32V4Q338 -7 335 -10T323 -13Q313 -13 273 -7T181 0Q129 0 89 -6T39 -13Q31 -13 28 -10T24 4V32Q24 40 31 43T67 51Q85 54 95 67T106 119V583ZM256 369Q264 368 273 368T295 368Q355 368 393 404T432 507Q432 571 399 604T302 638Q273 638 265 633T256 610V369Z"  />
<glyph unicode="S" horiz-adv-x="574" d="M528 203Q528 147 506 105T446 36T361 -5T263 -19Q210 -19 159 -14T55 -2Q54 36 50 72T46 147Q46 162 55 167T82 172Q94 172 101 171T112 165T120 152T126 128Q132 105 141 90T164 67T199 55T247 51Q274 51 299 57T342 76T372 110T384 162Q384 199 360 223T300 267T221 305T143 349T82 410T58 502Q58 560 78 601T134 669T215 708T314 721Q337 721 364 719T416 715T462 711T494 709Q494 691 495 669T498 627T500 591T501 568Q501 557 494 550T461 543Q450 543 444 544T433 550T426 566T418 596Q413 616 403 627T379 643T351 650T326 651Q302 651 280 645T240 626T213 593T202 543Q202 508 226 484T286 441T365 402T443 357T504 295T528 203Z"  />
<glyph unicode="T" horiz-adv-x="722" d="M286 626H144Q112 626 100 616T82 592Q75 577 65 569T26 561Q6 561 1 564T-4 574Q-4 581 -3 590T1 605L25 703Q29 717 36 720T63 724Q72 724 77 721T88 713T100 706T119 702H593Q619 702 633 703T661 715Q667 720 673 722T696 724Q713 724 719 721T726 712Q726 710 722 689T713 643T702 597T696 572Q692 565 686 563T664 561Q650 561 645 566T634 586Q626 613 612 619T565 626H436V119Q436 80 449 67T481 51Q510 46 517 43T524 32V4Q524 -7 521 -10T509 -13Q504 -13 490 -11T456 -7T412 -2T361 0Q335 0 311 -2T266 -6T232 -11T213 -13Q205 -13 202 -10T198 4V32Q198 40 205 43T241 51Q264 54 275 67T286 119V626Z"  />
<glyph unicode="U" horiz-adv-x="796" d="M244 526Q244 493 244 454T247 375T253 297T263 226Q270 191 282 160T315 104T363 66T430 51Q484 51 526 84T586 168Q597 198 603 236T612 314T615 392T616 459V566Q616 593 614 608T604 633T584 645T551 651Q530 654 530 674V697Q530 715 547 715Q570 715 598 709T661 702Q701 702 726 708T766 715Q771 715 774 714T780 707Q782 704 782 689T782 664Q782 656 776 654T758 651Q729 649 718 636T705 594L698 447Q696 409 694 369T687 288T673 208T649 134Q616 58 551 20T405 -19Q368 -19 333 -14T265 5T205 40T156 95Q140 120 130 152T113 219T103 289T98 354L90 585Q89 605 87 616T80 634T65 644T41 651Q25 655 20 659T14 671Q14 691 17 703T31 715Q46 715 84 709T182 702Q201 702 223 704T265 708T301 713T322 715Q327 715 333 712T339 700V669Q339 654 322 651Q295 647 279 643T256 630T246 610T244 577V526Z"  />
<glyph unicode="V" horiz-adv-x="759" d="M128 472Q120 490 110 512T91 556T75 592T64 613Q50 636 37 642T8 651Q-1 653 -5 657T-10 672Q-10 694 -7 704T9 715Q32 715 62 709T139 702Q182 702 217 708T273 715Q281 715 285 710T290 684Q290 665 287 659T276 651Q250 649 240 643T230 626Q230 616 237 598T259 548L418 174L568 520Q579 544 589 568T599 609Q599 621 593 628T577 640T554 647T527 651Q517 652 517 684Q517 704 522 709T535 715Q559 715 586 709T658 702Q691 702 718 708T756 715Q761 715 765 709T769 675Q769 662 766 657T753 651Q742 650 734 648T718 639T703 622T688 592L425 -1Q421 -9 414 -14T382 -19Q359 -19 351 -15T335 9L128 472Z"  />
<glyph unicode="W" horiz-adv-x="1074" d="M112 504Q92 559 83 587T67 627T52 643T26 651Q10 656 6 660T2 681Q2 704 6 709T22 715Q31 715 45 713T77 709T111 704T146 702Q165 702 184 704T221 708T251 713T271 715Q279 715 282 710T286 679Q286 665 282 660T259 651Q240 648 235 644T229 629Q229 625 231 616T238 595L367 208H369L498 591Q492 610 486 620T473 637T455 645T428 651Q406 654 406 673V702Q406 715 420 715Q426 715 441 713T475 709T519 704T567 702Q586 702 607 704T646 708T680 713T704 715Q718 715 718 698V671Q718 653 699 651Q667 649 656 643T644 621Q644 612 653 583T674 520L777 208H779L891 533Q894 543 899 556T908 582T915 608T918 627Q918 641 905 644T875 651Q861 653 855 656T848 669V694Q848 706 851 710T865 715Q875 715 903 709T965 702Q997 702 1021 708T1061 715Q1067 715 1069 709T1072 677Q1072 663 1068 659T1046 651Q1024 646 1016 634T1001 606L785 9Q779 -8 772 -13T742 -19Q731 -19 724 -19T713 -16T705 -7T698 10L539 479H537L372 5Q367 -9 361 -14T332 -19Q319 -19 312 -18T300 -14T294 -7T289 5L112 504Z"  />
<glyph unicode="X" horiz-adv-x="759" d="M93 624Q82 639 73 644T43 651Q25 652 20 656T15 680Q15 697 18 706T33 715Q53 715 95 709T183 702Q201 702 221 704T260 708T295 713T320 715Q326 715 329 712T333 697V669Q333 658 326 656T305 651Q291 650 283 645T275 629Q275 625 282 615T304 583T345 526T407 439Q473 518 505 563T538 628Q538 635 533 639T521 646T507 650T494 651Q483 652 478 655T472 669V690Q472 703 478 709T492 715Q502 715 516 713T545 709T575 704T603 702Q648 702 677 708T724 715Q732 715 736 709T741 676Q741 662 735 658T711 651Q690 648 671 637T632 601L454 377L672 77Q684 60 697 56T722 51Q738 50 743 45T749 13Q749 -3 746 -8T735 -13Q724 -13 686 -7T589 0Q535 0 496 -6T445 -13Q429 -13 429 2V31Q429 40 433 44T453 51Q468 53 477 56T487 71Q487 78 480 90T456 124T415 180T353 267L241 126Q235 118 224 104T212 80Q212 60 260 51Q273 49 277 45T281 29V3Q281 -6 277 -9T267 -13Q263 -13 251 -11T222 -7T185 -2T147 0Q99 0 66 -6T22 -13Q17 -13 14 -9T10 6V28Q10 40 13 44T30 51Q61 55 79 66T118 102L307 328L93 624Z"  />
<glyph unicode="Y" horiz-adv-x="741" d="M295 276L73 609Q63 624 57 632T47 644T38 649T30 651Q13 653 6 657T-4 675Q-5 680 -5 686T-5 701Q-5 710 0 712T13 715Q17 715 30 713T62 709T100 704T139 702Q190 702 227 708T283 715Q290 715 293 711T297 694V670Q297 660 291 657T266 651Q248 647 243 644T237 635Q237 629 244 618T265 586L410 365L541 574Q545 580 550 587T560 603T568 619T572 631Q572 641 561 645T538 651Q524 653 516 654T504 657T499 663T498 674V693Q498 706 502 710T515 715Q528 715 561 709T632 702Q656 702 683 708T729 715Q738 715 742 709T746 679Q746 665 741 661T713 651Q701 648 693 645T678 637T665 622T648 597L445 276V162Q445 126 447 105T455 72T474 56T508 51Q537 50 537 23V6Q537 -3 533 -8T522 -13Q517 -13 503 -11T468 -7T422 -2T370 0Q343 0 318 -2T273 -6T238 -11T218 -13Q212 -13 208 -8T203 6V23Q203 50 232 51Q253 52 265 56T284 71T293 104T295 162V276Z"  />
<glyph unicode="Z" horiz-adv-x="722" d="M469 626H207Q172 626 160 615T139 587Q131 568 123 564T96 560Q73 560 69 564T64 573Q64 577 66 596T72 636T79 677T83 702Q84 715 92 715Q96 715 107 713T137 709Q156 706 182 704T240 702H662Q670 702 677 701T684 691Q684 686 681 680T668 661L240 76H548Q563 76 574 77T594 84T610 99T625 126Q631 140 639 143T662 146Q665 146 670 146T682 145T692 140T696 132Q696 127 694 107T689 63T683 19T679 -3Q676 -6 670 -6Q668 -6 664 -5T653 -3Q641 0 612 0H43Q33 0 30 4T26 14Q26 18 32 27T45 46T60 67T72 82L469 626Z"  />
<glyph unicode="[" horiz-adv-x="352" d="M337 651H208V-145H337V-209H96V715H337V651Z"  />
<glyph unicode="\" horiz-adv-x="389" d="M376 55Q379 47 383 37T392 16T399 -1T402 -12Q402 -19 391 -19H301Q296 -19 293 -19T287 -14L13 647Q10 655 6 665T-3 686T-10 703T-13 714Q-13 721 -2 721H88Q99 721 101 716L376 55Z"  />
<glyph unicode="]" horiz-adv-x="352" d="M15 -145H144V651H15V715H256V-209H15V-145Z"  />
<glyph unicode="^" horiz-adv-x="600" d="M250 702H350L525 337H415L300 579L185 337H75L250 702Z"  />
<glyph unicode="_" horiz-adv-x="500" d="M0 -75H500V-125H0V-75Z"  />
<glyph unicode="`" horiz-adv-x="278" d="M27 648Q7 661 -6 673T-19 705Q-19 722 -7 735T29 749Q42 749 52 745T72 731T93 708T122 675L219 564H163L27 648Z"  />
<glyph unicode="a" horiz-adv-x="537" d="M453 156Q453 120 461 102T498 73Q505 70 510 67T515 58Q515 53 508 42T489 18T461 -3T427 -13Q413 -13 399 -6T373 13T351 37T335 63Q271 -13 169 -13Q142 -13 117 -5T72 20T40 60T28 112Q28 147 43 172T82 215T138 245T202 264T266 277T321 286Q321 312 319 333T306 368T276 391T222 399Q204 399 188 397T166 383L154 355Q146 336 135 333T117 330Q100 330 90 334T79 347Q79 351 82 368T90 404T99 438T106 457Q108 459 110 459T127 462Q136 463 148 464T175 467T202 468T224 469Q275 469 317 465T390 445T436 398T453 314V156ZM321 218Q321 228 312 228Q311 228 300 227T272 223T237 213T203 195T177 169T166 131Q166 96 183 77T233 57Q249 57 265 63T293 81T313 108T321 142V218Z"  />
<glyph unicode="b" horiz-adv-x="611" d="M298 45Q333 45 357 61T395 104T416 161T423 222Q423 244 419 269T402 315T370 349T319 363Q259 363 233 320T207 208Q207 176 210 147T223 95T250 59T298 45ZM211 352H213Q222 372 238 392T277 430T327 458T384 469Q429 469 463 452T520 408T555 348T567 281Q567 209 545 155T482 63T388 6T269 -13Q242 -13 210 -5T149 15T102 43T80 72Q79 77 79 90T79 118V582Q79 611 75 617T61 625L40 628Q22 630 18 634T14 653Q14 672 16 677T29 686L179 742Q196 748 205 752T219 756Q222 756 225 751T232 738T237 723T239 711Q239 707 235 705T225 698T216 688T211 669V352Z"  />
<glyph unicode="c" horiz-adv-x="481" d="M473 109Q475 106 476 104T478 98Q478 94 464 77T422 39T356 3T266 -13Q214 -13 173 3T104 49T60 120T44 213Q44 265 61 311T111 393T192 448T303 469Q326 469 353 465T404 451T444 425T460 384Q460 361 443 348T405 334Q383 334 370 345T346 369T320 394T284 405Q256 405 237 393T205 358T188 308T182 247Q182 220 190 190T215 136T258 95T323 79Q353 79 376 86T415 103T441 120T454 128Q456 128 460 124L473 109Z"  />
<glyph unicode="d" horiz-adv-x="611" d="M532 131Q532 110 544 110Q552 110 562 116T578 122Q583 122 587 117T594 106T599 92T601 81Q601 73 581 64L433 -6Q419 -13 409 -13Q403 -13 395 -1T386 20Q386 23 388 26T393 33T398 45T400 63V81Q383 63 364 46T323 16T277 -5T225 -13Q179 -13 145 5T89 53T55 123T44 206Q44 255 59 302T104 387T177 446T274 469Q310 469 343 458T398 421H400V582Q400 611 396 617T382 625L361 628Q343 630 339 634T335 653Q335 672 337 677T350 686L500 742Q517 748 526 752T540 756Q543 756 546 751T553 738T558 723T560 711Q560 707 556 705T546 698T537 688T532 669V131ZM400 347Q400 356 392 366T372 385T345 399T314 405Q280 405 256 388T217 346T195 289T188 230Q188 203 194 178T215 132T251 99T303 87Q316 87 333 93T365 107T390 126T400 144V347Z"  />
<glyph unicode="e" horiz-adv-x="537" d="M182 224Q186 195 195 169T223 123T268 91T334 79Q365 79 389 88T431 108T460 129T475 138Q478 138 482 135T491 126T498 117T501 109Q501 105 484 86T438 44T368 5T279 -13Q223 -13 180 4T106 51T60 122T44 213Q44 265 62 312T114 393T193 448T294 469Q332 469 369 457T434 423T480 368T498 293Q498 288 494 287T477 283L182 224ZM325 301Q347 306 356 310T366 327Q366 342 362 357T348 384T323 403T285 411Q257 411 238 397T206 361T188 315T182 271L325 301Z"  />
<glyph unicode="f" horiz-adv-x="352" d="M94 356Q94 367 88 370T62 373Q47 373 43 377T39 389V404Q39 411 45 416T59 426T75 434T87 443Q91 447 92 459T94 489T96 526T101 569Q108 612 126 647T172 706T236 743T313 756Q329 756 348 751T385 736T414 711T426 676Q426 656 413 643T379 629Q357 629 343 638T318 657T297 677T271 686Q245 686 236 664T226 584V457Q226 444 237 444H365Q378 444 378 427Q378 398 374 386T358 374H226V118Q226 100 228 88T237 69T256 57T290 51Q321 48 329 44T338 23V-1Q338 -13 319 -13Q312 -13 297 -11T260 -7T213 -2T160 0Q119 0 85 -6T37 -13Q29 -13 27 -10T25 -1V31Q25 42 35 45T62 51Q82 54 88 63T94 98V356Z"  />
<glyph unicode="g" horiz-adv-x="556" d="M550 375Q542 376 533 376T516 377Q488 377 468 373Q475 361 480 341T485 310Q485 266 466 234T416 182T347 152T269 142Q252 142 235 144T200 149Q190 142 177 129T163 103Q163 78 196 72T282 63L384 59Q411 58 438 53T487 34T523 -1T537 -60Q537 -117 505 -157T424 -222T319 -259T217 -271Q187 -271 150 -267T81 -249T28 -211T6 -148Q6 -124 17 -106T46 -73T85 -48T125 -30Q114 -25 101 -19T77 -3T59 19T51 50Q51 72 65 90T97 123T132 147T155 162Q107 177 77 213T46 301Q46 343 66 374T117 427T187 458T263 469Q300 469 343 462T418 432Q444 443 471 448T524 453Q538 453 550 450V375ZM178 301Q178 258 200 229T267 200Q290 200 306 209T332 233T348 267T353 306Q353 350 333 380T265 411Q243 411 227 402T200 377T184 341T178 301ZM112 -127Q112 -150 124 -166T154 -192T195 -208T237 -213Q259 -213 288 -207T343 -189T387 -156T405 -108Q405 -92 398 -82T380 -67T355 -59T327 -54Q314 -53 292 -51T248 -48T206 -45T181 -43Q172 -43 160 -50T138 -70T120 -97T112 -127Z"  />
<glyph unicode="h" horiz-adv-x="630" d="M89 582Q89 611 85 617T71 625L50 628Q32 630 28 634T24 653Q24 672 26 677T39 686L189 742Q206 748 215 752T229 756Q232 756 235 751T242 738T247 723T249 711Q249 707 245 705T235 698T226 688T221 669V379H223Q255 416 296 442T386 469Q467 469 504 418T541 278V98Q541 72 547 63T573 51Q590 48 600 45T610 31V-1Q610 -7 608 -10T598 -13Q585 -13 551 -7T475 0Q433 0 399 -6T352 -13Q344 -13 342 -10T340 -1V31Q340 42 350 45T377 51Q397 54 403 63T409 98V249Q409 317 385 344T316 371Q296 371 279 365T248 349T228 331T221 317V98Q221 72 227 63T253 51Q270 48 280 45T290 31V-1Q290 -7 288 -10T278 -13Q265 -13 231 -7T155 0Q113 0 79 -6T32 -13Q24 -13 22 -10T20 -1V31Q20 42 30 45T57 51Q77 54 83 63T89 98V582Z"  />
<glyph unicode="i" horiz-adv-x="296" d="M82 324Q82 338 74 342T37 350Q29 351 25 353T20 362V389Q20 396 22 400T32 408L162 459Q180 466 191 470T209 475Q213 475 216 470T222 457T226 444T228 435Q228 430 226 428T221 421T216 408T214 385V98Q214 72 220 63T246 51Q263 48 273 45T283 31V-1Q283 -7 281 -10T271 -13Q258 -13 224 -7T148 0Q106 0 72 -6T25 -13Q17 -13 15 -10T13 -1V31Q13 42 23 45T50 51Q70 54 76 63T82 98V324ZM66 652Q66 670 73 685T91 711T118 729T150 736Q168 736 183 730T209 712T227 685T234 652Q234 617 210 593T150 568Q133 568 118 574T91 592T73 619T66 652Z"  />
<glyph unicode="j" horiz-adv-x="296" d="M82 324Q82 338 74 342T37 350Q29 351 25 353T20 362V389Q20 396 22 400T32 408L162 459Q180 466 191 470T209 475Q213 475 216 470T222 457T226 444T228 435Q228 430 226 428T221 421T216 408T214 385V-119Q214 -161 193 -189T140 -234T72 -258T5 -265Q2 -265 0 -260T-5 -248T-8 -234T-10 -220Q-10 -213 8 -210T48 -195Q68 -184 75 -164T82 -108V324ZM66 652Q66 670 73 685T91 711T118 729T150 736Q168 736 183 730T209 712T227 685T234 652Q234 617 210 593T150 568Q133 568 118 574T91 592T73 619T66 652Z"  />
<glyph unicode="k" horiz-adv-x="593" d="M82 582Q82 611 78 617T64 625L43 628Q25 630 21 634T17 653Q17 672 19 677T32 686L182 742Q199 748 208 752T222 756Q225 756 228 751T235 738T240 723T242 711Q242 707 238 705T228 698T219 688T214 669V98Q214 72 220 63T246 51Q263 48 273 45T283 31V-1Q283 -7 281 -10T271 -13Q258 -13 224 -7T148 0Q106 0 72 -6T25 -13Q17 -13 15 -10T13 -1V31Q13 42 23 45T50 51Q70 54 76 63T82 98V582ZM218 230L394 415Q401 422 411 433T433 456T457 474T480 482Q492 482 503 477T523 464T537 444T543 422Q543 407 534 396T510 375T480 359T451 346Q424 333 398 312T346 271L493 114Q527 77 545 65T576 52Q585 51 591 49T598 38Q598 26 588 15T564 -6T532 -20T499 -26Q464 -26 423 4T333 91L218 230Z"  />
<glyph unicode="l" horiz-adv-x="296" d="M82 582Q82 611 78 617T64 625L43 628Q25 630 21 634T17 653Q17 672 19 677T32 686L182 742Q199 748 208 752T222 756Q225 756 228 751T235 738T240 723T242 711Q242 707 238 705T228 698T219 688T214 669V98Q214 72 220 63T246 51Q263 48 273 45T283 31V-1Q283 -7 281 -10T271 -13Q258 -13 224 -7T148 0Q106 0 72 -6T25 -13Q17 -13 15 -10T13 -1V31Q13 42 23 45T50 51Q70 54 76 63T82 98V582Z"  />
<glyph unicode="m" horiz-adv-x="926" d="M712 249Q712 317 688 344T619 371Q606 371 590 366T561 353T538 334T529 312V98Q529 72 535 63T561 51Q578 48 588 45T598 31V-1Q598 -7 596 -10T586 -13Q573 -13 539 -7T463 0Q421 0 387 -6T340 -13Q332 -13 330 -10T328 -1V31Q328 42 338 45T365 51Q385 54 391 63T397 98V249Q397 317 375 344T309 371Q289 371 272 365T241 349T221 331T214 317V98Q214 72 220 63T246 51Q263 48 273 45T283 31V-1Q283 -7 281 -10T271 -13Q258 -13 224 -7T148 0Q106 0 72 -6T25 -13Q17 -13 15 -10T13 -1V31Q13 42 23 45T50 51Q70 54 76 63T82 98V325Q82 339 74 343T37 351Q29 352 25 354T20 363V390Q20 397 22 401T32 409L162 460Q180 467 191 471T209 475Q213 475 216 470T222 458T226 445T228 436Q228 431 226 429T221 422T216 409T214 386V379H216Q232 396 250 412T289 441T333 461T382 469Q429 469 464 443T516 371Q529 389 548 406T589 438T636 460T685 469Q772 469 808 416T844 259V98Q844 72 850 63T876 51Q893 48 903 45T913 31V-1Q913 -7 911 -10T901 -13Q888 -13 854 -7T778 0Q736 0 702 -6T655 -13Q647 -13 645 -10T643 -1V31Q643 42 653 45T680 51Q700 54 706 63T712 98V249Z"  />
<glyph unicode="n" horiz-adv-x="630" d="M89 324Q89 338 81 342T44 350Q36 351 32 353T27 362V389Q27 396 29 400T39 408L169 459Q187 466 198 470T216 475Q220 475 223 470T229 457T233 444T235 435Q235 430 233 428T228 421T223 408T221 385V379H223Q255 416 296 442T386 469Q467 469 504 418T541 278V98Q541 72 547 63T573 51Q590 48 600 45T610 31V-1Q610 -7 608 -10T598 -13Q585 -13 551 -7T475 0Q433 0 399 -6T352 -13Q344 -13 342 -10T340 -1V31Q340 42 350 45T377 51Q397 54 403 63T409 98V249Q409 317 385 344T316 371Q296 371 279 365T248 349T228 331T221 317V98Q221 72 227 63T253 51Q270 48 280 45T290 31V-1Q290 -7 288 -10T278 -13Q265 -13 231 -7T155 0Q113 0 79 -6T32 -13Q24 -13 22 -10T20 -1V31Q20 42 30 45T57 51Q77 54 83 63T89 98V324Z"  />
<glyph unicode="o" horiz-adv-x="612" d="M306 51Q336 51 358 65T395 103T417 159T424 228Q424 265 417 297T395 354T358 391T306 405Q276 405 254 392T217 354T195 298T188 228Q188 191 195 159T217 103T254 65T306 51ZM306 -13Q242 -13 193 5T111 56T61 133T44 228Q44 280 62 324T113 400T195 450T306 469Q367 469 416 451T498 400T550 324T568 228Q568 177 551 133T501 57T419 6T306 -13Z"  />
<glyph unicode="p" horiz-adv-x="611" d="M79 323Q79 337 71 342T31 350Q23 351 19 353T14 362V389Q14 396 16 401T26 408Q29 409 43 414T76 427T116 443T156 458T188 470T203 475Q206 475 209 470T216 457T221 444T223 435Q223 431 219 424T213 415Q213 414 212 411T211 397V368L213 367Q228 386 246 404T285 437T330 460T382 469Q430 469 465 453T522 407T556 339T567 253Q567 198 549 150T498 65T420 8T319 -13Q305 -13 290 -10T260 -3T233 8T211 23V-149Q211 -163 218 -168T252 -176Q266 -178 271 -180T276 -193V-214Q276 -224 272 -228T259 -234L89 -275Q78 -278 69 -278Q65 -278 62 -273T57 -262T53 -249T51 -240Q51 -231 55 -228T65 -221T74 -212T79 -192V323ZM211 170Q211 110 232 84T291 57Q324 57 349 73T390 113T415 169T423 230Q423 255 417 280T397 325T364 358T318 371Q303 371 285 363T250 342T222 316T211 291V170Z"  />
<glyph unicode="q" horiz-adv-x="611" d="M400 77Q379 59 360 43T320 14T276 -6T222 -13Q177 -13 144 4T88 50T55 116T44 193Q44 243 60 292T106 381T179 444T278 469Q318 469 345 458T398 421H400V453Q400 470 402 472T409 475Q412 475 420 473T441 469L572 439Q588 436 588 425V393Q588 388 582 386T552 381Q540 380 536 376T532 361V-149Q532 -163 539 -168T573 -176Q587 -178 592 -180T597 -193V-214Q597 -224 593 -228T580 -234L410 -275Q399 -278 390 -278Q386 -278 383 -273T378 -262T374 -249T372 -240Q372 -231 376 -228T386 -221T395 -212T400 -192V77ZM400 347Q400 354 393 363T375 380T349 393T322 399Q288 399 263 382T221 338T196 279T188 216Q188 155 217 120T297 85Q313 85 331 91T365 107T390 125T400 139V347Z"  />
<glyph unicode="r" horiz-adv-x="426" d="M94 324Q94 336 86 341T46 350Q37 351 34 354T31 364V384Q31 392 34 397T49 408L170 457Q183 462 195 468T216 475Q226 475 226 459V354H228Q240 377 256 398T291 434T335 459T387 469Q404 469 415 466T427 448V375Q427 364 421 361T399 357H374Q296 357 261 332T226 262V118Q226 82 235 69T276 51Q307 48 315 44T324 23V-1Q324 -13 305 -13Q291 -13 253 -7T160 0Q119 0 85 -6T37 -13Q29 -13 27 -10T25 -1V31Q25 42 35 45T62 51Q82 54 88 63T94 98V324Z"  />
<glyph unicode="s" horiz-adv-x="463" d="M207 -13Q190 -13 164 -12T114 -8T71 -2T53 4Q51 19 50 36T47 71T44 101T43 121Q43 129 46 134T64 139Q93 139 100 136T110 121L116 91Q118 80 128 73T151 60T181 53T211 51Q227 51 242 55T271 66T292 85T300 112Q300 132 289 144T260 165T219 178T172 189Q147 195 123 203T81 227T51 265T39 322Q39 368 60 396T113 441T183 463T257 469Q274 469 294 469T333 467T365 464T382 461Q392 457 392 446Q392 421 395 396T399 346Q399 336 393 332T379 328H352Q339 328 335 341L324 381Q319 395 300 400T245 405Q211 405 187 391T163 351Q163 322 189 310T272 285Q302 279 329 270T378 244T411 204T424 143Q424 102 406 73T356 25T286 -4T207 -13Z"  />
<glyph unicode="t" horiz-adv-x="370" d="M82 359Q82 374 71 374H41Q25 374 25 388V404Q25 412 29 416T48 426Q67 433 82 441T109 464T129 501T144 561Q147 580 152 585T166 590H201Q206 590 210 587T214 575V459Q214 451 217 448T232 444H353Q370 444 370 429V389Q370 374 353 374H227Q214 374 214 360V156Q214 116 231 93T281 69Q295 69 306 73T327 83T342 92T353 97Q355 97 359 94T367 86T374 76T377 66Q377 62 365 50T330 23T279 -2T216 -13Q157 -13 120 18T82 112V359Z"  />
<glyph unicode="u" horiz-adv-x="611" d="M82 324Q82 338 74 342T37 350Q29 351 25 353T20 362V389Q20 396 22 400T32 408L162 459Q180 466 191 470T209 475Q213 475 216 470T222 457T226 444T228 435Q228 430 226 428T221 421T216 408T214 385V185Q214 128 233 107T295 85Q311 85 329 90T362 104T387 122T397 144V330Q397 344 389 348T352 356Q344 357 340 359T335 368V389Q335 396 336 403T342 413L476 455Q505 464 520 469T543 475Q545 475 548 470T555 458T560 444T563 433Q563 427 558 423T546 414T535 399T529 373V125Q529 114 532 111T540 107Q546 107 559 113T578 119Q581 119 584 113T590 100T595 85T597 76Q597 68 587 64L439 -6Q429 -11 420 -15T404 -19Q401 -19 398 -14T391 -3T386 9T384 17Q384 22 390 30T397 62V76H395Q381 61 363 45T323 16T276 -5T224 -13Q184 -13 157 1T114 38T90 93T82 159V324Z"  />
<glyph unicode="v" horiz-adv-x="556" d="M377 273Q383 285 391 301T406 334T418 362T423 379Q423 399 379 414Q362 419 353 423T344 434Q344 439 348 449L356 464Q362 475 369 475Q374 475 384 472T409 466Q423 462 442 459T487 456Q500 456 510 457T529 459Q545 462 551 462Q561 462 561 451V420Q561 414 559 409T542 402Q526 400 519 393T507 376L323 20Q312 -1 300 -7T276 -13Q256 -13 247 -1T228 28L57 352Q50 365 45 373T34 387T21 396T0 404Q-8 407 -8 415Q-8 426 -5 450Q-4 462 2 462Q4 462 22 459Q31 458 45 457T80 456Q109 456 134 459T180 466Q200 469 213 472T228 475Q238 475 240 468L247 450Q249 445 250 440T251 430Q251 425 242 421T225 413Q208 405 203 401T197 387Q197 381 200 373T208 355T218 336T227 321L314 153L377 273Z"  />
<glyph unicode="w" horiz-adv-x="889" d="M51 366Q42 384 36 390T21 399Q13 401 2 403T-9 415V447Q-9 469 4 469Q15 469 40 463T110 456Q166 456 191 462T224 469Q229 469 232 467T238 454Q240 449 243 439T246 424Q246 419 238 415T221 407Q207 401 201 397T195 380Q195 372 203 356L309 148L373 291Q377 300 382 312T392 335T400 355T404 369Q404 383 393 391T349 411Q338 415 335 417T331 425Q331 429 333 439T338 460Q340 465 344 467T350 469Q361 469 389 463T476 456Q517 456 549 462T589 469Q601 469 601 461Q602 457 604 442T606 422Q606 415 598 413T576 405Q561 400 553 396T545 384Q545 377 547 372T551 362L645 148L718 297Q732 326 740 346T748 374Q748 384 736 392T696 411Q687 415 687 423Q687 427 688 434T691 449T697 463T704 469Q712 469 734 463T804 456Q836 456 858 462T886 469Q890 469 892 463T896 449T898 434T898 423Q898 411 888 408T868 401Q852 393 842 377T823 346L653 7Q646 -7 635 -10T609 -13Q591 -13 583 -9T567 13L444 289L334 43Q326 26 322 15T312 -2T299 -10T279 -13Q262 -13 251 -10T233 8L51 366Z"  />
<glyph unicode="x" horiz-adv-x="574" d="M211 221L117 334Q95 360 80 379T42 405Q27 409 16 412T5 420Q5 428 6 441T10 465Q11 466 13 467T21 469Q38 469 67 463T147 456Q161 456 178 458T212 462T240 467T257 469Q263 469 265 466T269 454L272 435Q274 430 274 427T274 422Q274 418 262 416T244 405Q243 403 243 399Q243 394 249 386T265 364L322 289L372 355Q391 379 391 390Q391 399 380 405Q366 413 360 415T353 422Q353 428 355 436L360 457Q362 469 369 469Q380 469 402 463T458 456Q485 456 507 462T547 469Q552 469 554 463T558 449T560 432T560 421Q560 419 553 415T522 405Q511 403 498 391T456 346L365 238L468 112Q484 92 501 74T535 51Q548 47 560 45T572 33Q572 29 572 21T570 6T566 -7T561 -13Q547 -13 512 -7T434 0Q398 0 364 -6T314 -13Q311 -13 309 -7T305 7T302 22T301 33Q301 36 305 38T314 41T323 45T330 51Q333 57 333 60Q333 65 330 69T315 88L253 168L199 97Q185 80 181 74T177 63Q177 58 179 56T185 51Q190 47 202 42T215 31Q215 29 215 22T212 8T207 -6T198 -13Q181 -13 163 -7T113 0Q92 0 78 -2T52 -6T33 -11T17 -13Q13 -13 11 -7T6 8T3 24T2 33Q2 38 4 40T15 44L47 51Q55 53 67 60T100 90L211 221Z"  />
<glyph unicode="y" horiz-adv-x="574" d="M79 313Q68 335 60 349T43 374T23 393T-4 411Q-9 414 -13 416T-17 423Q-17 427 -17 434T-16 449T-11 463T-3 469Q13 469 39 463T117 456Q169 456 196 462T237 469Q240 469 242 463T246 450T249 435T250 423Q250 417 235 411Q221 406 210 403T199 388Q199 382 203 371T221 336L321 144L406 302Q419 326 429 346T440 374Q440 382 434 387T420 397T401 405T383 411Q372 415 370 418T367 425Q367 427 368 434T371 449T375 463T380 469Q396 469 420 463T486 456Q520 456 540 462T574 469Q584 469 585 456L589 440Q591 430 591 423Q591 421 585 417T573 411Q559 406 550 398T532 380T517 356T502 327L286 -79Q264 -121 241 -155T190 -213T125 -251T42 -265Q16 -265 11 -261T4 -248Q2 -231 0 -212T-2 -182Q-2 -170 8 -170Q13 -170 22 -171T40 -173Q73 -173 97 -167T140 -148T173 -118T201 -80L246 -8L79 313Z"  />
<glyph unicode="z" horiz-adv-x="537" d="M317 389L179 387Q147 386 132 382T105 364Q94 348 90 342T80 335H53Q38 335 38 351Q38 357 41 370T48 400T56 432T63 456Q64 462 70 462Q86 462 143 459T317 456Q343 456 370 457T421 459T463 461T488 462Q496 462 500 451T504 425Q504 417 481 392T419 321L203 67L348 68Q373 68 394 77T432 98T462 118T486 128Q489 128 494 127T504 124T513 120T517 114Q517 111 514 96T506 62T497 27T492 6Q490 -2 486 -4T476 -6Q471 -6 462 -5T438 -3T401 -1T346 0Q309 0 261 -1T167 -3T87 -5T43 -6Q37 -6 33 -1T25 11T21 25T20 37Q20 42 45 70T107 142L317 389Z"  />
<glyph unicode="{" horiz-adv-x="352" d="M96 131Q96 183 82 210T21 253Q67 268 81 295T96 375V565Q96 613 106 642T139 688T197 709T281 715V703Q239 690 224 659T208 571V391Q208 362 205 340T194 301T169 273T127 254V252Q153 245 169 234T193 205T205 166T208 115V-65Q208 -121 223 -152T281 -197V-209Q232 -209 197 -204T140 -182T107 -137T96 -59V131Z"  />
<glyph unicode="|" horiz-adv-x="222" d="M55 756H167V-19H55V756Z"  />
<glyph unicode="}" horiz-adv-x="352" d="M256 375Q256 323 270 296T331 253Q285 238 271 211T256 131V-59Q256 -107 246 -136T213 -182T155 -203T71 -209V-197Q113 -184 128 -153T144 -65V115Q144 143 147 165T158 205T183 233T225 252V254Q199 261 183 272T159 301T147 340T144 391V571Q144 627 129 658T71 703V715Q120 715 155 710T212 688T245 643T256 565V375Z"  />
<glyph unicode="~" horiz-adv-x="600" d="M531 253Q520 237 508 222T481 194T448 175T406 167Q378 167 353 176T300 200Q277 211 251 222T189 233Q156 233 137 211T105 163L69 253Q80 269 92 284T119 312T152 331T194 339Q222 339 247 330T300 306Q323 295 349 284T411 273Q444 273 463 295T495 343L531 253Z"  />
<glyph unicode="&#xA0;" horiz-adv-x="296" />
<glyph unicode="&#xA1;" horiz-adv-x="316" d="M233 394Q233 363 211 341T158 319Q127 319 105 341T83 394Q83 425 105 447T158 469Q189 469 211 447T233 394ZM228 -47Q232 -76 234 -96T238 -130T239 -153T239 -172Q239 -214 218 -236T158 -259Q119 -259 98 -237T77 -172Q77 -163 77 -154T78 -130T81 -96T88 -47L130 248L180 271L228 -47Z"  />
<glyph unicode="&#xA2;" horiz-adv-x="592" d="M205 4Q142 27 108 82T74 216Q74 269 91 316T141 398T222 454T333 475Q341 475 349 475T367 473L391 541H447L419 462Q448 454 469 437T490 390Q490 367 473 354T435 340Q417 340 406 347T385 365L290 94Q304 87 319 83T353 79Q383 79 406 86T445 103T471 120T484 128Q486 128 490 124L503 109Q505 106 506 104T508 98Q508 94 494 77T452 39T386 3T296 -13Q273 -13 254 -9L223 -99H169L205 4ZM343 403Q330 411 314 411Q286 411 267 398T235 364T218 313T212 250Q212 220 220 189T249 131L343 403Z"  />
<glyph unicode="&#xA3;" horiz-adv-x="592" d="M410 392Q425 392 425 379Q425 359 420 344T403 328H275Q278 315 280 303T282 274Q282 255 277 233T261 187T236 143T202 105L204 103Q225 106 246 108T291 111Q313 111 341 108T396 104Q414 104 426 110T448 127T466 153T483 187Q491 204 501 208T529 212Q532 212 537 212T549 211T559 207T563 200Q563 191 554 168T533 115T508 51T488 -13Q459 -8 428 -4T362 5Q328 9 294 11T227 13Q204 13 182 13T134 11Q123 4 112 -4T74 -13Q56 -13 43 -1T29 29Q29 45 38 57T62 77T93 90T122 97Q142 127 150 158T158 225Q158 257 152 284T136 328H57Q43 328 39 334T34 360Q34 380 36 386T49 392H110Q103 409 96 424T84 456T76 491T72 532Q72 578 91 612T142 669T215 703T300 715Q351 715 402 711T504 704Q505 669 509 634T513 563Q513 547 500 544T476 541Q456 541 448 550T431 580Q428 588 422 599T404 621T377 638T337 645Q317 645 296 638T257 617T228 581T216 530Q216 496 230 463T260 392H410Z"  />
<glyph unicode="&#xA4;" horiz-adv-x="592" d="M36 154L91 209Q70 239 58 275T46 351Q46 391 58 427T91 494L36 548L95 609L151 554Q183 577 219 589T296 601Q337 601 373 589T441 554L497 609L556 548L501 494Q522 464 534 428T546 351Q546 311 534 275T501 209L556 154L497 93L441 148Q411 126 375 114T296 101Q254 101 218 113T151 148L95 93L36 154ZM152 351Q152 318 163 290T193 242T239 211T296 199Q326 199 352 210T397 242T428 290T440 351Q440 384 429 412T398 460T352 491T296 503Q266 503 240 492T194 460T163 412T152 351Z"  />
<glyph unicode="&#xA5;" horiz-adv-x="592" d="M368 232H535Q540 232 543 229T546 215V185Q546 174 543 171T535 168H368Q368 131 370 109T378 74T396 58T427 51Q447 49 453 44T460 28V7Q460 -7 456 -10T445 -13Q440 -13 427 -11T394 -7T351 -2T302 0Q246 0 205 -6T153 -13Q147 -13 143 -8T138 6V23Q138 50 167 51Q188 52 200 56T219 72T228 107T230 168H63Q58 168 55 171T52 185V215Q52 226 55 229T63 232H230V311H63Q58 311 55 314T52 328V358Q52 369 55 372T63 375H187L69 581Q50 614 36 632T3 651Q-28 651 -28 673V695Q-28 707 -23 711T-10 715Q7 715 36 709T110 702Q148 702 178 708T226 715Q237 715 240 712T244 701V671Q244 666 243 663T238 658T226 655T204 651Q193 649 189 647T185 639Q185 633 196 611T220 565L326 375L404 518Q411 531 421 548T440 583T455 614T461 635Q461 643 451 645T427 651Q409 656 404 659T398 671V699Q398 715 414 715Q420 715 447 709T518 702Q552 702 573 708T606 715Q612 715 616 713T620 701V675Q620 661 613 658T595 651Q582 648 574 646T562 641T555 636T549 628L401 375H535Q540 375 543 372T546 358V328Q546 317 543 314T535 311H368V232Z"  />
<glyph unicode="&#xA6;" horiz-adv-x="222" d="M55 256H167V-19H55V256ZM55 756H167V481H55V756Z"  />
<glyph unicode="&#xA7;" horiz-adv-x="592" d="M165 427Q165 395 173 366T195 309T224 255T258 203Q277 174 298 140T338 69T369 -5T381 -79Q381 -96 378 -115T367 -149L369 -151Q399 -112 413 -68T427 28Q427 60 419 89T397 146T367 200T334 252Q315 281 294 315T254 386T223 460T211 534Q211 551 214 570T225 604L223 606Q193 567 179 523T165 427ZM83 405Q83 466 109 523T180 624T281 694T400 721Q415 721 432 719T465 710T489 691T499 658Q499 631 482 617T440 603Q422 603 408 610T381 627T355 643T327 651Q311 651 301 644T285 626T277 601T275 574Q275 540 292 502T336 422T392 336T448 245T491 152T509 56Q509 -6 483 -64T414 -166T313 -238T192 -265Q177 -265 160 -263T127 -253T102 -234T92 -202Q92 -175 110 -160T154 -145Q172 -145 186 -153T213 -170T239 -187T270 -195Q282 -195 291 -189T305 -173T314 -152T317 -130Q317 -105 308 -78T286 -24T258 27T229 72Q204 109 178 148T131 229T97 314T83 405Z"  />
<glyph unicode="&#xA8;" horiz-adv-x="278" d="M176 638Q176 665 195 684T242 704Q269 704 288 685T308 638Q308 611 289 592T242 572Q215 572 196 591T176 638ZM-30 638Q-30 665 -11 684T36 704Q63 704 82 685T102 638Q102 611 83 592T36 572Q9 572 -10 591T-30 638Z"  />
<glyph unicode="&#xA9;" horiz-adv-x="800" d="M30 350Q30 429 57 496T134 614T251 692T400 721Q481 721 548 693T665 614T742 497T770 350Q770 271 743 204T666 87T549 9T400 -19Q319 -19 252 9T135 86T58 203T30 350ZM118 350Q118 286 139 232T197 137T287 74T400 51Q461 51 513 74T602 137T661 231T682 350Q682 414 661 469T603 564T513 628T400 651Q339 651 287 628T198 565T139 469T118 350ZM563 183Q543 173 522 167T481 158T445 153T419 151Q310 151 249 204T188 363Q188 396 199 432T238 499T312 550T430 570Q475 570 511 559T563 535V453H535Q530 469 522 484T502 513T472 534T432 542Q375 542 348 495T320 368Q320 328 325 294T342 234T376 194T430 179Q472 179 503 204T552 273H580L563 183Z"  />
<glyph unicode="&#xAA;" horiz-adv-x="349" d="M298 508Q298 486 303 476T329 458Q332 457 335 455T338 450Q338 448 334 442T322 427T304 413T282 407Q259 407 243 422T219 452Q177 407 111 407Q94 407 78 412T48 427T28 450T20 482Q20 513 41 532T92 561T154 577T210 586Q210 603 209 616T201 638T181 651T146 656Q134 656 124 655T109 647L101 630Q96 619 89 617T77 615Q66 615 60 617T53 625Q53 628 55 638T60 661T66 683T70 695Q72 697 73 697T84 698Q95 700 115 701T149 702Q182 702 209 700T256 687T287 657T298 603V508ZM210 543Q210 549 204 549Q202 549 187 547T155 539T123 522T108 493Q108 475 119 464T153 453Q174 453 192 467T210 504V543Z"  />
<glyph unicode="&#xAB;" horiz-adv-x="481" d="M46 238L164 407H256L138 238L256 69H164L46 238ZM225 238L343 407H435L317 238L435 69H343L225 238Z"  />
<glyph unicode="&#xAC;" horiz-adv-x="600" d="M47 416H553V109H441V304H47V416Z"  />
<glyph unicode="&#xAD;" horiz-adv-x="407" d="M61 294H346V182H61V294Z"  />
<glyph unicode="&#xAE;" horiz-adv-x="800" d="M30 350Q30 429 57 496T134 614T251 692T400 721Q481 721 548 693T665 614T742 497T770 350Q770 271 743 204T666 87T549 9T400 -19Q319 -19 252 9T135 86T58 203T30 350ZM118 350Q118 286 139 232T197 137T287 74T400 51Q461 51 513 74T602 137T661 231T682 350Q682 414 661 469T603 564T513 628T400 651Q339 651 287 628T198 565T139 469T118 350ZM221 557H440Q493 557 527 532T561 453Q561 407 536 381T478 346L544 234Q556 213 568 199T600 184V162H499Q485 162 476 175T456 209L386 335H365V223Q365 197 373 191T410 184V162H221V184Q237 184 246 185T259 191T265 202T267 223V495Q267 521 260 527T221 534V557ZM365 363H394Q411 363 422 371T439 391T447 419T449 449Q449 494 436 511T398 529H365V363Z"  />
<glyph unicode="&#xAF;" horiz-adv-x="278" d="M-8 672H286V602H-8V672Z"  />
<glyph unicode="&#xB0;" horiz-adv-x="400" d="M57 572Q57 602 68 628T98 673T144 704T200 715Q230 715 256 704T301 674T332 628T343 572Q343 542 332 516T302 471T256 440T200 429Q170 429 144 440T99 470T68 516T57 572ZM115 572Q115 537 140 512T200 487Q235 487 260 512T285 572Q285 607 260 632T200 657Q165 657 140 632T115 572Z"  />
<glyph unicode="&#xB1;" horiz-adv-x="600" d="M244 506H356V382H553V270H356V146H244V270H47V382H244V506ZM47 112H553V0H47V112Z"  />
<glyph unicode="&#xB2;" horiz-adv-x="385" d="M19 312Q41 330 65 350T112 391T154 431T187 466Q206 489 221 515T236 573Q236 606 213 625T152 645Q135 645 121 639T95 624T77 602T69 578Q69 563 50 563Q41 563 38 566T35 577Q35 608 47 633T81 677T129 705T188 715Q256 715 299 685T342 594Q342 558 317 522T258 454T187 396T129 354V352H270Q290 352 300 362T327 403Q331 411 335 412T349 413Q351 413 358 412T366 407Q366 403 362 391T351 364T340 337T332 316Q328 306 325 296T319 276Q305 277 292 278T262 280T220 281T159 282Q113 282 82 280T19 276V312Z"  />
<glyph unicode="&#xB3;" horiz-adv-x="385" d="M104 528Q118 526 132 524T160 521Q175 521 191 524T221 536T243 556T252 587Q252 603 245 615T227 635T201 647T171 651Q130 651 113 640T87 615Q84 609 82 603T78 592T72 583T63 579Q52 579 49 582T46 595Q46 624 58 646T90 684T138 707T194 715Q223 715 249 708T296 688T328 654T340 607Q340 575 319 551T264 515V513Q305 505 331 480T358 415Q358 380 343 354T301 311T242 285T172 276Q148 276 123 280T76 296T41 325T27 370Q27 385 36 393T63 402Q82 402 88 393T97 372Q99 362 102 353T112 337T132 326T168 322Q206 322 233 341T260 396Q260 416 251 430T228 452T195 465T157 469Q138 469 121 467T85 459L104 528Z"  />
<glyph unicode="&#xB4;" horiz-adv-x="278" d="M156 675Q172 694 184 708T206 731T226 744T249 749Q272 749 284 736T297 705Q297 685 284 673T251 648L115 564H59L156 675Z"  />
<glyph unicode="&#xB5;" horiz-adv-x="611" d="M82 324Q82 338 74 342T37 350Q29 351 25 353T20 362V389Q20 396 22 400T32 408L162 459Q180 466 191 470T209 475Q213 475 216 470T222 457T226 444T228 435Q228 430 226 428T221 421T216 408T214 385V185Q214 128 233 107T295 85Q311 85 329 90T362 104T387 122T397 144V330Q397 344 389 348T352 356Q344 357 340 359T335 368V389Q335 396 336 403T342 413L476 455Q505 464 520 469T543 475Q545 475 548 470T555 458T560 444T563 433Q563 427 558 423T546 414T535 399T529 373V125Q529 114 532 111T540 107Q546 107 559 113T578 119Q581 119 584 113T590 100T595 85T597 76Q597 68 587 64L439 -6Q429 -11 420 -15T404 -19Q401 -19 398 -14T391 -3T386 9T384 17Q384 22 390 30T397 62V76H395Q379 58 361 42T323 13T286 -6T253 -13Q238 -13 227 -8T210 5H208Q208 -54 211 -109T214 -224Q214 -251 200 -258T159 -265H131Q105 -265 91 -258T76 -224Q76 -195 77 -152T79 -58T81 47T82 153V159V324Z"  />
<glyph unicode="&#xB6;" horiz-adv-x="620" d="M137 -231Q161 -231 176 -226T199 -207T209 -173T212 -119V251Q174 251 144 268T93 317T61 393T50 491Q50 550 61 592T98 662T164 702T260 715H570V687Q546 687 532 682T509 663T498 629T495 575V-119Q495 -151 497 -172T508 -207T531 -225T570 -231V-259H397V687H310V-259H137V-231Z"  />
<glyph unicode="&#xB7;" horiz-adv-x="296" d="M76 285Q76 315 97 336T148 357Q178 357 199 336T220 285Q220 255 199 234T148 213Q118 213 97 234T76 285Z"  />
<glyph unicode="&#xB8;" horiz-adv-x="278" d="M140 0H182L154 -64Q162 -61 171 -60T188 -59Q225 -59 250 -76T275 -133Q275 -159 261 -175T226 -201T181 -214T137 -218Q115 -218 91 -213T50 -200L65 -163Q77 -171 93 -174T132 -178Q153 -178 168 -166T183 -136Q183 -118 170 -109T139 -99Q121 -99 108 -104L97 -96L140 0Z"  />
<glyph unicode="&#xB9;" horiz-adv-x="385" d="M249 359Q249 333 258 326T275 316Q281 314 288 314T301 313T311 310T315 302V286Q315 276 305 276Q297 276 270 279T196 282Q156 282 130 279T95 276Q85 276 85 286V302Q85 307 89 309T99 312T112 313T125 316Q133 318 142 325T151 359V622L107 591Q95 583 87 578T73 572Q69 572 62 581T54 595Q54 600 58 603Q99 631 140 658T222 715L255 700Q253 684 251 662T249 603V359Z"  />
<glyph unicode="&#xBA;" horiz-adv-x="398" d="M124 554Q124 533 128 514T142 480T165 456T199 447Q219 447 233 456T256 479T269 513T274 554Q274 601 257 631T199 662Q159 662 142 632T124 554ZM26 554Q26 620 71 661T199 702Q282 702 327 661T372 554Q372 491 328 449T199 407Q113 407 70 449T26 554Z"  />
<glyph unicode="&#xBB;" horiz-adv-x="481" d="M435 238L317 69H225L343 238L225 407H317L435 238ZM256 238L138 69H46L164 238L46 407H138L256 238Z"  />
<glyph unicode="&#xBC;" horiz-adv-x="889" d="M693 96H509Q507 98 504 106T500 129Q500 131 501 134T508 142T522 158T545 185L710 380Q725 398 733 408T747 423T754 429T758 431Q759 431 765 430T777 426T789 421T795 414Q795 402 793 388T791 353V154H853V96H791V65Q791 42 790 25T780 0H679Q690 14 691 26T693 52V96ZM693 285H691L579 154H693V285ZM587 732H661L288 -30H214L587 732ZM231 359Q231 333 240 326T257 316Q263 314 270 314T283 313T293 310T297 302V286Q297 276 287 276Q279 276 252 279T178 282Q138 282 112 279T77 276Q67 276 67 286V302Q67 307 71 309T81 312T94 313T107 316Q115 318 124 325T133 359V622L89 591Q77 583 69 578T55 572Q51 572 44 581T36 595Q36 600 40 603Q81 631 122 658T204 715L237 700Q235 684 233 662T231 603V359Z"  />
<glyph unicode="&#xBD;" horiz-adv-x="889" d="M577 732H651L278 -30H204L577 732ZM231 359Q231 333 240 326T257 316Q263 314 270 314T283 313T293 310T297 302V286Q297 276 287 276Q279 276 252 279T178 282Q138 282 112 279T77 276Q67 276 67 286V302Q67 307 71 309T81 312T94 313T107 316Q115 318 124 325T133 359V622L89 591Q77 583 69 578T55 572Q51 572 44 581T36 595Q36 600 40 603Q81 631 122 658T204 715L237 700Q235 684 233 662T231 603V359ZM506 30Q528 48 552 68T599 109T641 149T674 184Q693 207 708 233T723 291Q723 324 700 343T639 363Q622 363 608 357T582 342T564 320T556 296Q556 281 537 281Q528 281 525 284T522 295Q522 326 534 351T568 395T616 423T675 433Q743 433 786 403T829 312Q829 276 804 240T745 172T674 114T616 72V70H757Q777 70 787 80T814 121Q818 129 822 130T836 131Q838 131 845 130T853 125Q853 121 849 109T838 82T827 55T819 34Q815 24 812 14T806 -6Q792 -5 779 -4T749 -2T707 -1T646 0Q600 0 569 -2T506 -6V30Z"  />
<glyph unicode="&#xBE;" horiz-adv-x="889" d="M702 98H518Q516 100 513 108T509 131Q509 133 510 136T517 144T531 160T554 187L719 382Q734 400 742 410T756 425T763 431T767 433Q768 433 774 432T786 428T798 423T804 416Q804 404 802 390T800 355V156H862V98H800V67Q800 44 799 27T789 0H688Q699 16 700 28T702 54V98ZM702 287H700L588 156H702V287ZM615 732H689L316 -30H242L615 732ZM104 528Q118 526 132 524T160 521Q175 521 191 524T221 536T243 556T252 587Q252 603 245 615T227 635T201 647T171 651Q130 651 113 640T87 615Q84 609 82 603T78 592T72 583T63 579Q52 579 49 582T46 595Q46 624 58 646T90 684T138 707T194 715Q223 715 249 708T296 688T328 654T340 607Q340 575 319 551T264 515V513Q305 505 331 480T358 415Q358 380 343 354T301 311T242 285T172 276Q148 276 123 280T76 296T41 325T27 370Q27 385 36 393T63 402Q82 402 88 393T97 372Q99 362 102 353T112 337T132 326T168 322Q206 322 233 341T260 396Q260 416 251 430T228 452T195 465T157 469Q138 469 121 467T85 459L104 528Z"  />
<glyph unicode="&#xBF;" horiz-adv-x="463" d="M27 209Q46 224 71 236T123 255T177 267T229 271Q266 271 301 261T363 232T408 183T425 115Q425 82 413 59T380 19T336 -12T286 -39Q276 -44 266 -50T246 -63T232 -80T226 -102Q226 -128 247 -140T291 -153Q301 -153 310 -151T329 -148Q339 -148 339 -157Q339 -159 333 -168T317 -188L256 -257Q249 -265 239 -265Q235 -265 214 -255T170 -227T127 -183T108 -125Q108 -90 126 -65T173 -21T234 14T295 45T342 79T361 123Q361 141 349 155T318 180T279 195T241 201Q196 201 157 184T83 141L27 209ZM324 394Q324 363 302 341T249 319Q218 319 196 341T174 394Q174 425 196 447T249 469Q280 469 302 447T324 394Z"  />
<glyph unicode="&#xC0;" horiz-adv-x="796" d="M359 699Q366 715 374 718T403 721Q418 721 427 719T441 705L695 124Q705 101 712 88T727 68T743 58T766 51Q775 49 780 47T788 41T792 28T793 5Q793 -6 789 -9T779 -13Q771 -13 737 -7T645 0Q593 0 555 -6T505 -13Q491 -13 491 1V32Q491 40 494 44T514 51Q532 55 540 58T548 72Q548 80 542 96T526 136L484 237H241L197 132Q185 104 181 93T176 73Q176 56 219 51Q234 49 238 42T242 15Q242 -1 239 -7T228 -13Q214 -13 184 -7T123 0Q107 0 90 -2T59 -6T34 -11T20 -13Q13 -13 8 -10T3 4Q3 19 4 28T7 42T14 48T25 51Q39 52 49 55T67 65T84 85T102 121L359 699ZM363 526L271 307H454L363 526ZM286 840Q266 853 253 865T240 897Q240 914 252 927T288 941Q301 941 311 937T331 923T352 900T381 867L478 756H422L286 840Z"  />
<glyph unicode="&#xC1;" horiz-adv-x="796" d="M359 699Q366 715 374 718T403 721Q418 721 427 719T441 705L695 124Q705 101 712 88T727 68T743 58T766 51Q775 49 780 47T788 41T792 28T793 5Q793 -6 789 -9T779 -13Q771 -13 737 -7T645 0Q593 0 555 -6T505 -13Q491 -13 491 1V32Q491 40 494 44T514 51Q532 55 540 58T548 72Q548 80 542 96T526 136L484 237H241L197 132Q185 104 181 93T176 73Q176 56 219 51Q234 49 238 42T242 15Q242 -1 239 -7T228 -13Q214 -13 184 -7T123 0Q107 0 90 -2T59 -6T34 -11T20 -13Q13 -13 8 -10T3 4Q3 19 4 28T7 42T14 48T25 51Q39 52 49 55T67 65T84 85T102 121L359 699ZM363 526L271 307H454L363 526ZM415 867Q431 886 443 900T465 923T485 936T508 941Q531 941 543 928T556 897Q556 877 543 865T510 840L374 756H318L415 867Z"  />
<glyph unicode="&#xC2;" horiz-adv-x="796" d="M359 699Q366 715 374 718T403 721Q418 721 427 719T441 705L695 124Q705 101 712 88T727 68T743 58T766 51Q775 49 780 47T788 41T792 28T793 5Q793 -6 789 -9T779 -13Q771 -13 737 -7T645 0Q593 0 555 -6T505 -13Q491 -13 491 1V32Q491 40 494 44T514 51Q532 55 540 58T548 72Q548 80 542 96T526 136L484 237H241L197 132Q185 104 181 93T176 73Q176 56 219 51Q234 49 238 42T242 15Q242 -1 239 -7T228 -13Q214 -13 184 -7T123 0Q107 0 90 -2T59 -6T34 -11T20 -13Q13 -13 8 -10T3 4Q3 19 4 28T7 42T14 48T25 51Q39 52 49 55T67 65T84 85T102 121L359 699ZM363 526L271 307H454L363 526ZM352 932H444L567 756H510L398 854L286 756H229L352 932Z"  />
<glyph unicode="&#xC3;" horiz-adv-x="796" d="M359 699Q366 715 374 718T403 721Q418 721 427 719T441 705L695 124Q705 101 712 88T727 68T743 58T766 51Q775 49 780 47T788 41T792 28T793 5Q793 -6 789 -9T779 -13Q771 -13 737 -7T645 0Q593 0 555 -6T505 -13Q491 -13 491 1V32Q491 40 494 44T514 51Q532 55 540 58T548 72Q548 80 542 96T526 136L484 237H241L197 132Q185 104 181 93T176 73Q176 56 219 51Q234 49 238 42T242 15Q242 -1 239 -7T228 -13Q214 -13 184 -7T123 0Q107 0 90 -2T59 -6T34 -11T20 -13Q13 -13 8 -10T3 4Q3 19 4 28T7 42T14 48T25 51Q39 52 49 55T67 65T84 85T102 121L359 699ZM363 526L271 307H454L363 526ZM215 776Q221 800 230 822T253 862T288 891T336 902Q358 902 379 895T420 878T458 861T492 853Q510 853 523 868T538 901H581Q575 877 566 855T543 815T508 786T460 775Q438 775 417 782T376 799T338 816T304 824Q286 824 273 809T258 776H215Z"  />
<glyph unicode="&#xC4;" horiz-adv-x="796" d="M359 699Q366 715 374 718T403 721Q418 721 427 719T441 705L695 124Q705 101 712 88T727 68T743 58T766 51Q775 49 780 47T788 41T792 28T793 5Q793 -6 789 -9T779 -13Q771 -13 737 -7T645 0Q593 0 555 -6T505 -13Q491 -13 491 1V32Q491 40 494 44T514 51Q532 55 540 58T548 72Q548 80 542 96T526 136L484 237H241L197 132Q185 104 181 93T176 73Q176 56 219 51Q234 49 238 42T242 15Q242 -1 239 -7T228 -13Q214 -13 184 -7T123 0Q107 0 90 -2T59 -6T34 -11T20 -13Q13 -13 8 -10T3 4Q3 19 4 28T7 42T14 48T25 51Q39 52 49 55T67 65T84 85T102 121L359 699ZM363 526L271 307H454L363 526ZM435 830Q435 857 454 876T501 896Q528 896 547 877T567 830Q567 803 548 784T501 764Q474 764 455 783T435 830ZM229 830Q229 857 248 876T295 896Q322 896 341 877T361 830Q361 803 342 784T295 764Q268 764 249 783T229 830Z"  />
<glyph unicode="&#xC5;" horiz-adv-x="796" d="M359 699Q366 715 374 718T403 721Q418 721 427 719T441 705L695 124Q705 101 712 88T727 68T743 58T766 51Q775 49 780 47T788 41T792 28T793 5Q793 -6 789 -9T779 -13Q771 -13 737 -7T645 0Q593 0 555 -6T505 -13Q491 -13 491 1V32Q491 40 494 44T514 51Q532 55 540 58T548 72Q548 80 542 96T526 136L484 237H241L197 132Q185 104 181 93T176 73Q176 56 219 51Q234 49 238 42T242 15Q242 -1 239 -7T228 -13Q214 -13 184 -7T123 0Q107 0 90 -2T59 -6T34 -11T20 -13Q13 -13 8 -10T3 4Q3 19 4 28T7 42T14 48T25 51Q39 52 49 55T67 65T84 85T102 121L359 699ZM363 526L271 307H454L363 526ZM290 846Q290 868 298 887T322 922T356 945T398 954Q420 954 439 946T474 922T497 888T506 846Q506 824 498 805T474 770T440 747T398 738Q376 738 357 746T322 770T299 804T290 846ZM336 846Q336 820 354 802T398 784Q424 784 442 802T460 846Q460 872 442 890T398 908Q372 908 354 890T336 846Z"  />
<glyph unicode="&#xC6;" horiz-adv-x="981" d="M276 516Q293 554 305 581T317 623Q317 636 312 642T298 651Q272 656 258 659T236 664T226 668T224 675V701Q224 715 239 715Q250 715 275 713T337 709Q375 706 421 704T521 702Q558 702 595 703T664 705Q696 707 721 707T759 708Q767 708 769 700L780 606Q783 582 783 571Q783 560 775 556T744 552Q717 552 713 564T705 596Q701 619 684 628T631 638H481L564 392H684Q702 392 715 396T737 426Q742 443 748 450T775 457Q798 457 804 452T811 429Q811 411 810 394T808 357Q808 338 809 321T811 285Q811 268 805 263T775 257Q755 257 749 264T737 288Q729 313 716 317T684 322H588L661 104Q665 91 671 82T692 68T730 60T796 57Q824 57 841 62T869 77T886 100T898 130Q903 144 911 150T943 156Q961 156 969 153T978 139Q978 132 974 112T963 69T952 22T945 -13Q882 -8 808 -4T659 0Q618 0 588 -2T535 -6T497 -11T470 -13Q461 -13 459 -9T457 1V26Q457 33 463 35T478 40T496 44T510 51Q514 55 514 63Q514 68 512 77T500 118L470 214H230L184 105Q178 91 176 81T173 65Q173 55 182 51Q196 45 207 43T225 39T236 35T240 27V1Q240 -13 229 -13Q218 -13 191 -7T121 0Q81 0 54 -6T15 -13Q10 -13 7 -11T3 3V28Q3 33 7 35T19 39T37 43T58 51Q68 55 75 63T94 100L276 516ZM365 540H363L260 284H446L365 540Z"  />
<glyph unicode="&#xC7;" horiz-adv-x="759" d="M375 -14Q303 -5 243 21T141 93T74 201T50 349Q50 440 80 509T165 626T292 697T451 721Q493 721 528 718T593 710T647 703T693 698Q693 664 697 626T702 562Q702 551 692 543T664 535Q641 535 636 545T626 581Q618 626 582 638T479 651Q414 651 364 630T280 570T229 476T212 352Q212 289 231 235T287 139T374 75T491 51Q543 51 582 65T633 111L645 143Q650 156 657 164T688 172Q727 172 727 157Q727 149 724 133T717 100L696 5Q676 5 649 1T590 -7T525 -15T461 -19Q449 -19 438 -19T415 -18L395 -64Q403 -61 412 -60T429 -59Q466 -59 491 -76T516 -133Q516 -159 502 -175T467 -201T422 -214T378 -218Q356 -218 332 -213T291 -200L306 -163Q318 -171 334 -174T373 -178Q394 -178 409 -166T424 -136Q424 -118 411 -109T380 -99Q362 -99 349 -104L338 -96L375 -14Z"  />
<glyph unicode="&#xC8;" horiz-adv-x="611" d="M106 583Q106 602 104 614T98 634T89 644T80 648L50 654Q31 658 28 662T24 675V698Q24 711 29 713T42 715Q50 715 65 713T104 709Q129 706 165 704T252 702H300Q331 702 360 703T415 705Q441 707 460 707T490 708Q498 708 500 700L511 606Q514 582 514 571Q514 560 506 556T475 552Q448 552 444 564T436 596Q432 619 415 628T362 638H256V392H391Q409 392 422 396T444 426Q449 443 455 450T482 457Q505 457 511 452T518 429Q518 411 517 394T515 357Q515 338 516 321T518 285Q518 268 512 263T482 257Q462 257 456 264T444 288Q436 313 423 317T391 322H256V140Q256 116 261 100T282 75T326 61T403 57Q431 57 448 62T476 77T493 100T505 130Q510 144 518 150T550 156Q568 156 576 153T585 139Q585 132 581 112T570 69T559 22T552 -13Q483 -8 415 -4T266 0Q226 0 190 -2T125 -6T73 -11T39 -13Q31 -13 28 -10T24 4V32Q24 40 31 43T67 51Q85 54 95 67T106 119V583ZM194 840Q174 853 161 865T148 897Q148 914 160 927T196 941Q209 941 219 937T239 923T260 900T289 867L386 756H330L194 840Z"  />
<glyph unicode="&#xC9;" horiz-adv-x="611" d="M106 583Q106 602 104 614T98 634T89 644T80 648L50 654Q31 658 28 662T24 675V698Q24 711 29 713T42 715Q50 715 65 713T104 709Q129 706 165 704T252 702H300Q331 702 360 703T415 705Q441 707 460 707T490 708Q498 708 500 700L511 606Q514 582 514 571Q514 560 506 556T475 552Q448 552 444 564T436 596Q432 619 415 628T362 638H256V392H391Q409 392 422 396T444 426Q449 443 455 450T482 457Q505 457 511 452T518 429Q518 411 517 394T515 357Q515 338 516 321T518 285Q518 268 512 263T482 257Q462 257 456 264T444 288Q436 313 423 317T391 322H256V140Q256 116 261 100T282 75T326 61T403 57Q431 57 448 62T476 77T493 100T505 130Q510 144 518 150T550 156Q568 156 576 153T585 139Q585 132 581 112T570 69T559 22T552 -13Q483 -8 415 -4T266 0Q226 0 190 -2T125 -6T73 -11T39 -13Q31 -13 28 -10T24 4V32Q24 40 31 43T67 51Q85 54 95 67T106 119V583ZM323 867Q339 886 351 900T373 923T393 936T416 941Q439 941 451 928T464 897Q464 877 451 865T418 840L282 756H226L323 867Z"  />
<glyph unicode="&#xCA;" horiz-adv-x="611" d="M106 583Q106 602 104 614T98 634T89 644T80 648L50 654Q31 658 28 662T24 675V698Q24 711 29 713T42 715Q50 715 65 713T104 709Q129 706 165 704T252 702H300Q331 702 360 703T415 705Q441 707 460 707T490 708Q498 708 500 700L511 606Q514 582 514 571Q514 560 506 556T475 552Q448 552 444 564T436 596Q432 619 415 628T362 638H256V392H391Q409 392 422 396T444 426Q449 443 455 450T482 457Q505 457 511 452T518 429Q518 411 517 394T515 357Q515 338 516 321T518 285Q518 268 512 263T482 257Q462 257 456 264T444 288Q436 313 423 317T391 322H256V140Q256 116 261 100T282 75T326 61T403 57Q431 57 448 62T476 77T493 100T505 130Q510 144 518 150T550 156Q568 156 576 153T585 139Q585 132 581 112T570 69T559 22T552 -13Q483 -8 415 -4T266 0Q226 0 190 -2T125 -6T73 -11T39 -13Q31 -13 28 -10T24 4V32Q24 40 31 43T67 51Q85 54 95 67T106 119V583ZM260 932H352L475 756H418L306 854L194 756H137L260 932Z"  />
<glyph unicode="&#xCB;" horiz-adv-x="611" d="M106 583Q106 602 104 614T98 634T89 644T80 648L50 654Q31 658 28 662T24 675V698Q24 711 29 713T42 715Q50 715 65 713T104 709Q129 706 165 704T252 702H300Q331 702 360 703T415 705Q441 707 460 707T490 708Q498 708 500 700L511 606Q514 582 514 571Q514 560 506 556T475 552Q448 552 444 564T436 596Q432 619 415 628T362 638H256V392H391Q409 392 422 396T444 426Q449 443 455 450T482 457Q505 457 511 452T518 429Q518 411 517 394T515 357Q515 338 516 321T518 285Q518 268 512 263T482 257Q462 257 456 264T444 288Q436 313 423 317T391 322H256V140Q256 116 261 100T282 75T326 61T403 57Q431 57 448 62T476 77T493 100T505 130Q510 144 518 150T550 156Q568 156 576 153T585 139Q585 132 581 112T570 69T559 22T552 -13Q483 -8 415 -4T266 0Q226 0 190 -2T125 -6T73 -11T39 -13Q31 -13 28 -10T24 4V32Q24 40 31 43T67 51Q85 54 95 67T106 119V583ZM343 830Q343 857 362 876T409 896Q436 896 455 877T475 830Q475 803 456 784T409 764Q382 764 363 783T343 830ZM137 830Q137 857 156 876T203 896Q230 896 249 877T269 830Q269 803 250 784T203 764Q176 764 157 783T137 830Z"  />
<glyph unicode="&#xCC;" horiz-adv-x="370" d="M110 583Q110 622 100 635T71 651Q42 656 35 659T28 670V698Q28 709 31 712T43 715Q53 715 93 709T185 702Q237 702 277 708T327 715Q335 715 338 712T342 698V670Q342 662 335 659T299 651Q281 648 271 635T260 583V119Q260 80 270 67T299 51Q328 46 335 43T342 32V4Q342 -7 339 -10T327 -13Q317 -13 277 -7T185 0Q133 0 93 -6T43 -13Q35 -13 32 -10T28 4V32Q28 40 35 43T71 51Q89 54 99 67T110 119V583ZM73 840Q53 853 40 865T27 897Q27 914 39 927T75 941Q88 941 98 937T118 923T139 900T168 867L265 756H209L73 840Z"  />
<glyph unicode="&#xCD;" horiz-adv-x="370" d="M110 583Q110 622 100 635T71 651Q42 656 35 659T28 670V698Q28 709 31 712T43 715Q53 715 93 709T185 702Q237 702 277 708T327 715Q335 715 338 712T342 698V670Q342 662 335 659T299 651Q281 648 271 635T260 583V119Q260 80 270 67T299 51Q328 46 335 43T342 32V4Q342 -7 339 -10T327 -13Q317 -13 277 -7T185 0Q133 0 93 -6T43 -13Q35 -13 32 -10T28 4V32Q28 40 35 43T71 51Q89 54 99 67T110 119V583ZM202 867Q218 886 230 900T252 923T272 936T295 941Q318 941 330 928T343 897Q343 877 330 865T297 840L161 756H105L202 867Z"  />
<glyph unicode="&#xCE;" horiz-adv-x="370" d="M110 583Q110 622 100 635T71 651Q42 656 35 659T28 670V698Q28 709 31 712T43 715Q53 715 93 709T185 702Q237 702 277 708T327 715Q335 715 338 712T342 698V670Q342 662 335 659T299 651Q281 648 271 635T260 583V119Q260 80 270 67T299 51Q328 46 335 43T342 32V4Q342 -7 339 -10T327 -13Q317 -13 277 -7T185 0Q133 0 93 -6T43 -13Q35 -13 32 -10T28 4V32Q28 40 35 43T71 51Q89 54 99 67T110 119V583ZM139 932H231L354 756H297L185 854L73 756H16L139 932Z"  />
<glyph unicode="&#xCF;" horiz-adv-x="370" d="M110 583Q110 622 100 635T71 651Q42 656 35 659T28 670V698Q28 709 31 712T43 715Q53 715 93 709T185 702Q237 702 277 708T327 715Q335 715 338 712T342 698V670Q342 662 335 659T299 651Q281 648 271 635T260 583V119Q260 80 270 67T299 51Q328 46 335 43T342 32V4Q342 -7 339 -10T327 -13Q317 -13 277 -7T185 0Q133 0 93 -6T43 -13Q35 -13 32 -10T28 4V32Q28 40 35 43T71 51Q89 54 99 67T110 119V583ZM222 830Q222 857 241 876T288 896Q315 896 334 877T354 830Q354 803 335 784T288 764Q261 764 242 783T222 830ZM16 830Q16 857 35 876T82 896Q109 896 128 877T148 830Q148 803 129 784T82 764Q55 764 36 783T16 830Z"  />
<glyph unicode="&#xD0;" horiz-adv-x="852" d="M119 322H37Q27 322 27 332V382Q27 392 37 392H119V583Q119 602 117 614T111 634T102 644T93 648L63 654Q44 658 41 662T37 675V698Q37 711 42 713T55 715Q63 715 77 713T109 709Q128 706 151 704T201 702Q233 702 264 703T328 705Q360 707 389 707T445 708Q515 708 579 686T693 621T772 512T802 362Q802 279 774 210T694 92T573 15T421 -13Q395 -13 362 -11T295 -7T235 -2T192 0Q174 0 152 -2T108 -6T69 -11T44 -13Q30 -13 30 2Q30 10 30 18T32 34Q33 41 40 43T78 51Q98 54 108 67T119 119V322ZM269 146Q269 117 279 99T306 70T346 55T394 51Q460 51 506 76T582 144T626 240T640 354Q640 428 619 482T562 570T482 621T387 638H290Q269 638 269 614V392H443Q453 392 453 382V332Q453 322 443 322H269V146Z"  />
<glyph unicode="&#xD1;" horiz-adv-x="815" d="M94 694Q94 715 125 715Q143 715 162 714T187 707L639 194V541Q639 573 636 593T626 626T607 643T579 651Q554 654 549 657T543 673V703Q543 709 548 712T559 715Q568 715 601 709T676 702Q715 702 745 708T788 715Q805 715 805 699V674Q805 664 800 659T776 651Q760 649 750 646T733 636T724 614T721 577V8Q721 0 715 -6T686 -13Q671 -13 660 -13T640 -10T623 -2T606 15L176 497V161Q176 132 178 112T187 79T203 60T229 51Q243 49 251 48T264 43T270 33T272 15V-1Q272 -7 267 -10T257 -13Q247 -13 214 -7T139 0Q100 0 70 -6T27 -13Q10 -13 10 3V28Q10 38 17 42T48 51Q58 52 66 55T81 67T90 89T94 125V694ZM225 776Q231 800 240 822T263 862T298 891T346 902Q368 902 389 895T430 878T468 861T502 853Q520 853 533 868T548 901H591Q585 877 576 855T553 815T518 786T470 775Q448 775 427 782T386 799T348 816T314 824Q296 824 283 809T268 776H225Z"  />
<glyph unicode="&#xD2;" horiz-adv-x="888" d="M212 351Q212 288 226 235T270 144T342 85T444 63Q502 63 545 84T618 144T661 235T676 351Q676 402 663 453T622 545T550 613T444 639Q382 639 338 613T266 546T225 453T212 351ZM50 351Q50 436 80 504T164 621T289 695T444 721Q527 721 599 695T724 621T807 505T838 351Q838 266 808 198T724 81T599 7T444 -19Q361 -19 289 7T164 81T81 197T50 351ZM332 840Q312 853 299 865T286 897Q286 914 298 927T334 941Q347 941 357 937T377 923T398 900T427 867L524 756H468L332 840Z"  />
<glyph unicode="&#xD3;" horiz-adv-x="888" d="M212 351Q212 288 226 235T270 144T342 85T444 63Q502 63 545 84T618 144T661 235T676 351Q676 402 663 453T622 545T550 613T444 639Q382 639 338 613T266 546T225 453T212 351ZM50 351Q50 436 80 504T164 621T289 695T444 721Q527 721 599 695T724 621T807 505T838 351Q838 266 808 198T724 81T599 7T444 -19Q361 -19 289 7T164 81T81 197T50 351ZM461 867Q477 886 489 900T511 923T531 936T554 941Q577 941 589 928T602 897Q602 877 589 865T556 840L420 756H364L461 867Z"  />
<glyph unicode="&#xD4;" horiz-adv-x="888" d="M212 351Q212 288 226 235T270 144T342 85T444 63Q502 63 545 84T618 144T661 235T676 351Q676 402 663 453T622 545T550 613T444 639Q382 639 338 613T266 546T225 453T212 351ZM50 351Q50 436 80 504T164 621T289 695T444 721Q527 721 599 695T724 621T807 505T838 351Q838 266 808 198T724 81T599 7T444 -19Q361 -19 289 7T164 81T81 197T50 351ZM398 932H490L613 756H556L444 854L332 756H275L398 932Z"  />
<glyph unicode="&#xD5;" horiz-adv-x="888" d="M212 351Q212 288 226 235T270 144T342 85T444 63Q502 63 545 84T618 144T661 235T676 351Q676 402 663 453T622 545T550 613T444 639Q382 639 338 613T266 546T225 453T212 351ZM50 351Q50 436 80 504T164 621T289 695T444 721Q527 721 599 695T724 621T807 505T838 351Q838 266 808 198T724 81T599 7T444 -19Q361 -19 289 7T164 81T81 197T50 351ZM261 776Q267 800 276 822T299 862T334 891T382 902Q404 902 425 895T466 878T504 861T538 853Q556 853 569 868T584 901H627Q621 877 612 855T589 815T554 786T506 775Q484 775 463 782T422 799T384 816T350 824Q332 824 319 809T304 776H261Z"  />
<glyph unicode="&#xD6;" horiz-adv-x="888" d="M212 351Q212 288 226 235T270 144T342 85T444 63Q502 63 545 84T618 144T661 235T676 351Q676 402 663 453T622 545T550 613T444 639Q382 639 338 613T266 546T225 453T212 351ZM50 351Q50 436 80 504T164 621T289 695T444 721Q527 721 599 695T724 621T807 505T838 351Q838 266 808 198T724 81T599 7T444 -19Q361 -19 289 7T164 81T81 197T50 351ZM481 830Q481 857 500 876T547 896Q574 896 593 877T613 830Q613 803 594 784T547 764Q520 764 501 783T481 830ZM275 830Q275 857 294 876T341 896Q368 896 387 877T407 830Q407 803 388 784T341 764Q314 764 295 783T275 830Z"  />
<glyph unicode="&#xD7;" horiz-adv-x="600" d="M65 411L142 488L300 330L458 488L535 411L376 253L535 95L458 18L300 177L142 18L65 95L223 253L65 411Z"  />
<glyph unicode="&#xD8;" horiz-adv-x="888" d="M608 565Q580 599 540 619T444 639Q382 639 338 613T266 546T225 453T212 351Q212 250 247 182L608 565ZM158 88Q107 136 79 202T50 351Q50 436 80 504T164 621T289 695T444 721Q513 721 574 703T687 649L775 742L820 702L734 611Q783 563 810 498T838 351Q838 266 808 198T724 81T599 7T444 -19Q375 -19 315 -2T205 50L113 -48L68 -8L158 88ZM281 131Q310 99 350 81T444 63Q502 63 545 84T618 144T661 235T676 351Q676 392 668 433T641 512L281 131Z"  />
<glyph unicode="&#xD9;" horiz-adv-x="796" d="M244 526Q244 493 244 454T247 375T253 297T263 226Q270 191 282 160T315 104T363 66T430 51Q484 51 526 84T586 168Q597 198 603 236T612 314T615 392T616 459V566Q616 593 614 608T604 633T584 645T551 651Q530 654 530 674V697Q530 715 547 715Q570 715 598 709T661 702Q701 702 726 708T766 715Q771 715 774 714T780 707Q782 704 782 689T782 664Q782 656 776 654T758 651Q729 649 718 636T705 594L698 447Q696 409 694 369T687 288T673 208T649 134Q616 58 551 20T405 -19Q368 -19 333 -14T265 5T205 40T156 95Q140 120 130 152T113 219T103 289T98 354L90 585Q89 605 87 616T80 634T65 644T41 651Q25 655 20 659T14 671Q14 691 17 703T31 715Q46 715 84 709T182 702Q201 702 223 704T265 708T301 713T322 715Q327 715 333 712T339 700V669Q339 654 322 651Q295 647 279 643T256 630T246 610T244 577V526ZM286 840Q266 853 253 865T240 897Q240 914 252 927T288 941Q301 941 311 937T331 923T352 900T381 867L478 756H422L286 840Z"  />
<glyph unicode="&#xDA;" horiz-adv-x="796" d="M244 526Q244 493 244 454T247 375T253 297T263 226Q270 191 282 160T315 104T363 66T430 51Q484 51 526 84T586 168Q597 198 603 236T612 314T615 392T616 459V566Q616 593 614 608T604 633T584 645T551 651Q530 654 530 674V697Q530 715 547 715Q570 715 598 709T661 702Q701 702 726 708T766 715Q771 715 774 714T780 707Q782 704 782 689T782 664Q782 656 776 654T758 651Q729 649 718 636T705 594L698 447Q696 409 694 369T687 288T673 208T649 134Q616 58 551 20T405 -19Q368 -19 333 -14T265 5T205 40T156 95Q140 120 130 152T113 219T103 289T98 354L90 585Q89 605 87 616T80 634T65 644T41 651Q25 655 20 659T14 671Q14 691 17 703T31 715Q46 715 84 709T182 702Q201 702 223 704T265 708T301 713T322 715Q327 715 333 712T339 700V669Q339 654 322 651Q295 647 279 643T256 630T246 610T244 577V526ZM415 867Q431 886 443 900T465 923T485 936T508 941Q531 941 543 928T556 897Q556 877 543 865T510 840L374 756H318L415 867Z"  />
<glyph unicode="&#xDB;" horiz-adv-x="796" d="M244 526Q244 493 244 454T247 375T253 297T263 226Q270 191 282 160T315 104T363 66T430 51Q484 51 526 84T586 168Q597 198 603 236T612 314T615 392T616 459V566Q616 593 614 608T604 633T584 645T551 651Q530 654 530 674V697Q530 715 547 715Q570 715 598 709T661 702Q701 702 726 708T766 715Q771 715 774 714T780 707Q782 704 782 689T782 664Q782 656 776 654T758 651Q729 649 718 636T705 594L698 447Q696 409 694 369T687 288T673 208T649 134Q616 58 551 20T405 -19Q368 -19 333 -14T265 5T205 40T156 95Q140 120 130 152T113 219T103 289T98 354L90 585Q89 605 87 616T80 634T65 644T41 651Q25 655 20 659T14 671Q14 691 17 703T31 715Q46 715 84 709T182 702Q201 702 223 704T265 708T301 713T322 715Q327 715 333 712T339 700V669Q339 654 322 651Q295 647 279 643T256 630T246 610T244 577V526ZM352 932H444L567 756H510L398 854L286 756H229L352 932Z"  />
<glyph unicode="&#xDC;" horiz-adv-x="796" d="M244 526Q244 493 244 454T247 375T253 297T263 226Q270 191 282 160T315 104T363 66T430 51Q484 51 526 84T586 168Q597 198 603 236T612 314T615 392T616 459V566Q616 593 614 608T604 633T584 645T551 651Q530 654 530 674V697Q530 715 547 715Q570 715 598 709T661 702Q701 702 726 708T766 715Q771 715 774 714T780 707Q782 704 782 689T782 664Q782 656 776 654T758 651Q729 649 718 636T705 594L698 447Q696 409 694 369T687 288T673 208T649 134Q616 58 551 20T405 -19Q368 -19 333 -14T265 5T205 40T156 95Q140 120 130 152T113 219T103 289T98 354L90 585Q89 605 87 616T80 634T65 644T41 651Q25 655 20 659T14 671Q14 691 17 703T31 715Q46 715 84 709T182 702Q201 702 223 704T265 708T301 713T322 715Q327 715 333 712T339 700V669Q339 654 322 651Q295 647 279 643T256 630T246 610T244 577V526ZM447 830Q447 857 466 876T513 896Q540 896 559 877T579 830Q579 803 560 784T513 764Q486 764 467 783T447 830ZM241 830Q241 857 260 876T307 896Q334 896 353 877T373 830Q373 803 354 784T307 764Q280 764 261 783T241 830Z"  />
<glyph unicode="&#xDD;" horiz-adv-x="741" d="M295 276L73 609Q63 624 57 632T47 644T38 649T30 651Q13 653 6 657T-4 675Q-5 680 -5 686T-5 701Q-5 710 0 712T13 715Q17 715 30 713T62 709T100 704T139 702Q190 702 227 708T283 715Q290 715 293 711T297 694V670Q297 660 291 657T266 651Q248 647 243 644T237 635Q237 629 244 618T265 586L410 365L541 574Q545 580 550 587T560 603T568 619T572 631Q572 641 561 645T538 651Q524 653 516 654T504 657T499 663T498 674V693Q498 706 502 710T515 715Q528 715 561 709T632 702Q656 702 683 708T729 715Q738 715 742 709T746 679Q746 665 741 661T713 651Q701 648 693 645T678 637T665 622T648 597L445 276V162Q445 126 447 105T455 72T474 56T508 51Q537 50 537 23V6Q537 -3 533 -8T522 -13Q517 -13 503 -11T468 -7T422 -2T370 0Q343 0 318 -2T273 -6T238 -11T218 -13Q212 -13 208 -8T203 6V23Q203 50 232 51Q253 52 265 56T284 71T293 104T295 162V276ZM400 867Q416 886 428 900T450 923T470 936T493 941Q516 941 528 928T541 897Q541 877 528 865T495 840L359 756H303L400 867Z"  />
<glyph unicode="&#xDE;" horiz-adv-x="611" d="M106 583Q106 622 96 634T67 650Q38 656 31 659T24 670V698Q24 709 27 712T39 715Q43 715 56 713T89 709T133 704T184 702Q209 702 232 704T273 708T305 713T323 715Q331 715 334 712T338 698V670Q338 662 331 659T295 651Q277 648 267 635T256 583V547Q278 549 304 551T352 554Q401 554 443 545T517 514T566 458T584 375Q584 328 567 290T521 226T453 185T367 170Q354 170 338 174T308 184T284 200T274 221Q274 228 305 228Q363 228 398 262T434 361Q434 393 423 416T393 454T350 476T300 484Q271 484 264 475T256 445V119Q256 80 272 67T307 51Q327 48 338 47T355 43T362 39T364 32V4Q364 -7 361 -10T349 -13Q344 -13 329 -11T292 -7T243 -2T184 0Q132 0 92 -6T39 -13Q31 -13 28 -10T24 4V32Q24 40 31 43T67 51Q85 54 95 67T106 119V583Z"  />
<glyph unicode="&#xDF;" horiz-adv-x="667" d="M94 368Q94 379 88 382T62 385Q47 385 43 389T39 401V416Q39 423 45 428T59 438T75 446T87 455Q91 460 92 468T94 486V543Q94 593 110 632T154 699T223 741T311 756Q355 756 389 743T445 710T479 665T491 616Q491 590 481 570T458 530T436 489T425 439Q425 426 440 413T477 382T526 345T575 300T613 242T628 171Q628 132 613 99T573 40T513 1T440 -13Q421 -13 400 -9T362 5T334 30T322 67Q322 87 335 99T368 111Q388 111 400 103T424 82Q435 71 446 61T474 51Q498 51 513 68T528 108Q528 134 513 158T474 205T424 250T373 292T335 332T319 370Q319 407 330 433T354 483T379 530T391 587Q391 636 369 664T308 692Q291 692 276 686T250 664T233 621T226 554V98Q226 72 232 63T258 51Q275 48 285 45T295 31V-1Q295 -7 293 -10T283 -13Q270 -13 236 -7T160 0Q118 0 84 -6T37 -13Q29 -13 27 -10T25 -1V31Q25 42 35 45T62 51Q82 54 88 63T94 98V368Z"  />
<glyph unicode="&#xE0;" horiz-adv-x="537" d="M453 156Q453 120 461 102T498 73Q505 70 510 67T515 58Q515 53 508 42T489 18T461 -3T427 -13Q413 -13 399 -6T373 13T351 37T335 63Q271 -13 169 -13Q142 -13 117 -5T72 20T40 60T28 112Q28 147 43 172T82 215T138 245T202 264T266 277T321 286Q321 312 319 333T306 368T276 391T222 399Q204 399 188 397T166 383L154 355Q146 336 135 333T117 330Q100 330 90 334T79 347Q79 351 82 368T90 404T99 438T106 457Q108 459 110 459T127 462Q136 463 148 464T175 467T202 468T224 469Q275 469 317 465T390 445T436 398T453 314V156ZM321 218Q321 228 312 228Q311 228 300 227T272 223T237 213T203 195T177 169T166 131Q166 96 183 77T233 57Q249 57 265 63T293 81T313 108T321 142V218ZM157 648Q137 661 124 673T111 705Q111 722 123 735T159 749Q172 749 182 745T202 731T223 708T252 675L349 564H293L157 648Z"  />
<glyph unicode="&#xE1;" horiz-adv-x="537" d="M453 156Q453 120 461 102T498 73Q505 70 510 67T515 58Q515 53 508 42T489 18T461 -3T427 -13Q413 -13 399 -6T373 13T351 37T335 63Q271 -13 169 -13Q142 -13 117 -5T72 20T40 60T28 112Q28 147 43 172T82 215T138 245T202 264T266 277T321 286Q321 312 319 333T306 368T276 391T222 399Q204 399 188 397T166 383L154 355Q146 336 135 333T117 330Q100 330 90 334T79 347Q79 351 82 368T90 404T99 438T106 457Q108 459 110 459T127 462Q136 463 148 464T175 467T202 468T224 469Q275 469 317 465T390 445T436 398T453 314V156ZM321 218Q321 228 312 228Q311 228 300 227T272 223T237 213T203 195T177 169T166 131Q166 96 183 77T233 57Q249 57 265 63T293 81T313 108T321 142V218ZM286 675Q302 694 314 708T336 731T356 744T379 749Q402 749 414 736T427 705Q427 685 414 673T381 648L245 564H189L286 675Z"  />
<glyph unicode="&#xE2;" horiz-adv-x="537" d="M453 156Q453 120 461 102T498 73Q505 70 510 67T515 58Q515 53 508 42T489 18T461 -3T427 -13Q413 -13 399 -6T373 13T351 37T335 63Q271 -13 169 -13Q142 -13 117 -5T72 20T40 60T28 112Q28 147 43 172T82 215T138 245T202 264T266 277T321 286Q321 312 319 333T306 368T276 391T222 399Q204 399 188 397T166 383L154 355Q146 336 135 333T117 330Q100 330 90 334T79 347Q79 351 82 368T90 404T99 438T106 457Q108 459 110 459T127 462Q136 463 148 464T175 467T202 468T224 469Q275 469 317 465T390 445T436 398T453 314V156ZM321 218Q321 228 312 228Q311 228 300 227T272 223T237 213T203 195T177 169T166 131Q166 96 183 77T233 57Q249 57 265 63T293 81T313 108T321 142V218ZM223 740H315L438 564H381L269 662L157 564H100L223 740Z"  />
<glyph unicode="&#xE3;" horiz-adv-x="537" d="M453 156Q453 120 461 102T498 73Q505 70 510 67T515 58Q515 53 508 42T489 18T461 -3T427 -13Q413 -13 399 -6T373 13T351 37T335 63Q271 -13 169 -13Q142 -13 117 -5T72 20T40 60T28 112Q28 147 43 172T82 215T138 245T202 264T266 277T321 286Q321 312 319 333T306 368T276 391T222 399Q204 399 188 397T166 383L154 355Q146 336 135 333T117 330Q100 330 90 334T79 347Q79 351 82 368T90 404T99 438T106 457Q108 459 110 459T127 462Q136 463 148 464T175 467T202 468T224 469Q275 469 317 465T390 445T436 398T453 314V156ZM321 218Q321 228 312 228Q311 228 300 227T272 223T237 213T203 195T177 169T166 131Q166 96 183 77T233 57Q249 57 265 63T293 81T313 108T321 142V218ZM86 584Q92 608 101 630T124 670T159 699T207 710Q229 710 250 703T291 686T329 669T363 661Q381 661 394 676T409 709H452Q446 685 437 663T414 623T379 594T331 583Q309 583 288 590T247 607T209 624T175 632Q157 632 144 617T129 584H86Z"  />
<glyph unicode="&#xE4;" horiz-adv-x="537" d="M453 156Q453 120 461 102T498 73Q505 70 510 67T515 58Q515 53 508 42T489 18T461 -3T427 -13Q413 -13 399 -6T373 13T351 37T335 63Q271 -13 169 -13Q142 -13 117 -5T72 20T40 60T28 112Q28 147 43 172T82 215T138 245T202 264T266 277T321 286Q321 312 319 333T306 368T276 391T222 399Q204 399 188 397T166 383L154 355Q146 336 135 333T117 330Q100 330 90 334T79 347Q79 351 82 368T90 404T99 438T106 457Q108 459 110 459T127 462Q136 463 148 464T175 467T202 468T224 469Q275 469 317 465T390 445T436 398T453 314V156ZM321 218Q321 228 312 228Q311 228 300 227T272 223T237 213T203 195T177 169T166 131Q166 96 183 77T233 57Q249 57 265 63T293 81T313 108T321 142V218ZM306 638Q306 665 325 684T372 704Q399 704 418 685T438 638Q438 611 419 592T372 572Q345 572 326 591T306 638ZM100 638Q100 665 119 684T166 704Q193 704 212 685T232 638Q232 611 213 592T166 572Q139 572 120 591T100 638Z"  />
<glyph unicode="&#xE5;" horiz-adv-x="537" d="M453 156Q453 120 461 102T498 73Q505 70 510 67T515 58Q515 53 508 42T489 18T461 -3T427 -13Q413 -13 399 -6T373 13T351 37T335 63Q271 -13 169 -13Q142 -13 117 -5T72 20T40 60T28 112Q28 147 43 172T82 215T138 245T202 264T266 277T321 286Q321 312 319 333T306 368T276 391T222 399Q204 399 188 397T166 383L154 355Q146 336 135 333T117 330Q100 330 90 334T79 347Q79 351 82 368T90 404T99 438T106 457Q108 459 110 459T127 462Q136 463 148 464T175 467T202 468T224 469Q275 469 317 465T390 445T436 398T453 314V156ZM321 218Q321 228 312 228Q311 228 300 227T272 223T237 213T203 195T177 169T166 131Q166 96 183 77T233 57Q249 57 265 63T293 81T313 108T321 142V218ZM161 654Q161 676 169 695T193 730T227 753T269 762Q291 762 310 754T345 730T368 696T377 654Q377 632 369 613T345 578T311 555T269 546Q247 546 228 554T193 578T170 612T161 654ZM207 654Q207 628 225 610T269 592Q295 592 313 610T331 654Q331 680 313 698T269 716Q243 716 225 698T207 654Z"  />
<glyph unicode="&#xE6;" horiz-adv-x="796" d="M449 235Q453 202 462 174T490 124T535 91T601 79Q632 79 656 88T698 108T727 129T742 138Q745 138 749 135T758 126T765 117T768 109Q768 105 753 86T707 44T634 5T534 -13Q479 -13 431 9T358 76Q321 32 278 10T169 -13Q142 -13 117 -5T72 20T40 60T28 112Q28 147 43 172T82 215T138 245T202 264T266 277T321 286Q321 312 319 333T306 368T276 391T222 399Q204 399 188 397T166 383L154 355Q146 336 135 333T117 330Q100 330 90 334T79 347Q79 351 82 368T90 404T99 438T106 457Q108 459 110 459T127 462Q136 463 148 464T175 467T202 468T224 469Q271 469 303 466T358 455T394 434T418 401Q438 429 475 449T572 469Q616 469 652 454T713 414T751 358T765 296Q765 291 761 290T744 286L449 235ZM321 218Q321 228 312 228Q311 228 300 227T272 223T237 213T203 195T177 169T166 131Q166 96 183 77T233 57Q249 57 265 63T293 81T313 108T321 142V218ZM620 317Q628 319 630 322T633 333Q633 345 629 359T615 384T590 403T552 411Q524 411 505 397T473 363T455 322T449 286L620 317Z"  />
<glyph unicode="&#xE7;" horiz-adv-x="481" d="M237 -12Q146 -3 95 57T44 213Q44 265 61 311T111 393T192 448T303 469Q326 469 353 465T404 451T444 425T460 384Q460 361 443 348T405 334Q383 334 370 345T346 369T320 394T284 405Q256 405 237 393T205 358T188 308T182 247Q182 220 190 190T215 136T258 95T323 79Q353 79 376 86T415 103T441 120T454 128Q456 128 460 124L473 109Q475 106 476 104T478 98Q478 94 465 77T425 41T362 6T278 -13L256 -64Q264 -61 273 -60T290 -59Q327 -59 352 -76T377 -133Q377 -159 363 -175T328 -201T283 -214T239 -218Q217 -218 193 -213T152 -200L167 -163Q179 -171 195 -174T234 -178Q255 -178 270 -166T285 -136Q285 -118 272 -109T241 -99Q223 -99 210 -104L199 -96L237 -12Z"  />
<glyph unicode="&#xE8;" horiz-adv-x="537" d="M182 224Q186 195 195 169T223 123T268 91T334 79Q365 79 389 88T431 108T460 129T475 138Q478 138 482 135T491 126T498 117T501 109Q501 105 484 86T438 44T368 5T279 -13Q223 -13 180 4T106 51T60 122T44 213Q44 265 62 312T114 393T193 448T294 469Q332 469 369 457T434 423T480 368T498 293Q498 288 494 287T477 283L182 224ZM325 301Q347 306 356 310T366 327Q366 342 362 357T348 384T323 403T285 411Q257 411 238 397T206 361T188 315T182 271L325 301ZM157 648Q137 661 124 673T111 705Q111 722 123 735T159 749Q172 749 182 745T202 731T223 708T252 675L349 564H293L157 648Z"  />
<glyph unicode="&#xE9;" horiz-adv-x="537" d="M182 224Q186 195 195 169T223 123T268 91T334 79Q365 79 389 88T431 108T460 129T475 138Q478 138 482 135T491 126T498 117T501 109Q501 105 484 86T438 44T368 5T279 -13Q223 -13 180 4T106 51T60 122T44 213Q44 265 62 312T114 393T193 448T294 469Q332 469 369 457T434 423T480 368T498 293Q498 288 494 287T477 283L182 224ZM325 301Q347 306 356 310T366 327Q366 342 362 357T348 384T323 403T285 411Q257 411 238 397T206 361T188 315T182 271L325 301ZM286 675Q302 694 314 708T336 731T356 744T379 749Q402 749 414 736T427 705Q427 685 414 673T381 648L245 564H189L286 675Z"  />
<glyph unicode="&#xEA;" horiz-adv-x="537" d="M182 224Q186 195 195 169T223 123T268 91T334 79Q365 79 389 88T431 108T460 129T475 138Q478 138 482 135T491 126T498 117T501 109Q501 105 484 86T438 44T368 5T279 -13Q223 -13 180 4T106 51T60 122T44 213Q44 265 62 312T114 393T193 448T294 469Q332 469 369 457T434 423T480 368T498 293Q498 288 494 287T477 283L182 224ZM325 301Q347 306 356 310T366 327Q366 342 362 357T348 384T323 403T285 411Q257 411 238 397T206 361T188 315T182 271L325 301ZM223 740H315L438 564H381L269 662L157 564H100L223 740Z"  />
<glyph unicode="&#xEB;" horiz-adv-x="537" d="M182 224Q186 195 195 169T223 123T268 91T334 79Q365 79 389 88T431 108T460 129T475 138Q478 138 482 135T491 126T498 117T501 109Q501 105 484 86T438 44T368 5T279 -13Q223 -13 180 4T106 51T60 122T44 213Q44 265 62 312T114 393T193 448T294 469Q332 469 369 457T434 423T480 368T498 293Q498 288 494 287T477 283L182 224ZM325 301Q347 306 356 310T366 327Q366 342 362 357T348 384T323 403T285 411Q257 411 238 397T206 361T188 315T182 271L325 301ZM306 638Q306 665 325 684T372 704Q399 704 418 685T438 638Q438 611 419 592T372 572Q345 572 326 591T306 638ZM100 638Q100 665 119 684T166 704Q193 704 212 685T232 638Q232 611 213 592T166 572Q139 572 120 591T100 638Z"  />
<glyph unicode="&#xEC;" horiz-adv-x="296" d="M82 324Q82 338 74 342T37 350Q29 351 25 353T20 362V389Q20 396 22 400T32 408L162 459Q180 466 191 470T209 475Q213 475 216 470T222 457T226 444T228 435Q228 430 226 428T221 421T216 408T214 385V98Q214 72 220 63T246 51Q263 48 273 45T283 31V-1Q283 -7 281 -10T271 -13Q258 -13 224 -7T148 0Q106 0 72 -6T25 -13Q17 -13 15 -10T13 -1V31Q13 42 23 45T50 51Q70 54 76 63T82 98V324ZM36 648Q16 661 3 673T-10 705Q-10 722 2 735T38 749Q51 749 61 745T81 731T102 708T131 675L228 564H172L36 648Z"  />
<glyph unicode="&#xED;" horiz-adv-x="296" d="M82 324Q82 338 74 342T37 350Q29 351 25 353T20 362V389Q20 396 22 400T32 408L162 459Q180 466 191 470T209 475Q213 475 216 470T222 457T226 444T228 435Q228 430 226 428T221 421T216 408T214 385V98Q214 72 220 63T246 51Q263 48 273 45T283 31V-1Q283 -7 281 -10T271 -13Q258 -13 224 -7T148 0Q106 0 72 -6T25 -13Q17 -13 15 -10T13 -1V31Q13 42 23 45T50 51Q70 54 76 63T82 98V324ZM165 675Q181 694 193 708T215 731T235 744T258 749Q281 749 293 736T306 705Q306 685 293 673T260 648L124 564H68L165 675Z"  />
<glyph unicode="&#xEE;" horiz-adv-x="296" d="M82 324Q82 338 74 342T37 350Q29 351 25 353T20 362V389Q20 396 22 400T32 408L162 459Q180 466 191 470T209 475Q213 475 216 470T222 457T226 444T228 435Q228 430 226 428T221 421T216 408T214 385V98Q214 72 220 63T246 51Q263 48 273 45T283 31V-1Q283 -7 281 -10T271 -13Q258 -13 224 -7T148 0Q106 0 72 -6T25 -13Q17 -13 15 -10T13 -1V31Q13 42 23 45T50 51Q70 54 76 63T82 98V324ZM102 740H194L317 564H260L148 662L36 564H-21L102 740Z"  />
<glyph unicode="&#xEF;" horiz-adv-x="296" d="M82 324Q82 338 74 342T37 350Q29 351 25 353T20 362V389Q20 396 22 400T32 408L162 459Q180 466 191 470T209 475Q213 475 216 470T222 457T226 444T228 435Q228 430 226 428T221 421T216 408T214 385V98Q214 72 220 63T246 51Q263 48 273 45T283 31V-1Q283 -7 281 -10T271 -13Q258 -13 224 -7T148 0Q106 0 72 -6T25 -13Q17 -13 15 -10T13 -1V31Q13 42 23 45T50 51Q70 54 76 63T82 98V324ZM185 638Q185 665 204 684T251 704Q278 704 297 685T317 638Q317 611 298 592T251 572Q224 572 205 591T185 638ZM-21 638Q-21 665 -2 684T45 704Q72 704 91 685T111 638Q111 611 92 592T45 572Q18 572 -1 591T-21 638Z"  />
<glyph unicode="&#xF0;" horiz-adv-x="612" d="M44 231Q44 283 63 327T116 402T195 451T290 469Q330 469 353 460T394 439L396 441Q388 473 366 515T309 596L174 531Q164 527 163 527Q159 527 155 533L130 564Q128 566 127 567T125 571Q125 574 137 579L264 641Q246 660 224 672T184 693T152 706T139 715Q139 718 141 721T145 730L156 751Q158 755 161 755T167 756Q173 756 194 751T243 737T299 714T350 682L475 742Q485 746 486 746Q489 746 494 740L519 709Q521 707 522 706T524 702Q524 699 512 694L405 643Q484 574 526 479T568 282Q568 223 552 170T504 76T422 11T306 -13Q242 -13 193 5T111 57T61 134T44 231ZM306 51Q336 51 358 65T395 103T417 159T424 228Q424 265 417 297T395 354T358 391T306 405Q276 405 254 392T217 354T195 298T188 228Q188 191 195 159T217 103T254 65T306 51Z"  />
<glyph unicode="&#xF1;" horiz-adv-x="630" d="M89 324Q89 338 81 342T44 350Q36 351 32 353T27 362V389Q27 396 29 400T39 408L169 459Q187 466 198 470T216 475Q220 475 223 470T229 457T233 444T235 435Q235 430 233 428T228 421T223 408T221 385V379H223Q255 416 296 442T386 469Q467 469 504 418T541 278V98Q541 72 547 63T573 51Q590 48 600 45T610 31V-1Q610 -7 608 -10T598 -13Q585 -13 551 -7T475 0Q433 0 399 -6T352 -13Q344 -13 342 -10T340 -1V31Q340 42 350 45T377 51Q397 54 403 63T409 98V249Q409 317 385 344T316 371Q296 371 279 365T248 349T228 331T221 317V98Q221 72 227 63T253 51Q270 48 280 45T290 31V-1Q290 -7 288 -10T278 -13Q265 -13 231 -7T155 0Q113 0 79 -6T32 -13Q24 -13 22 -10T20 -1V31Q20 42 30 45T57 51Q77 54 83 63T89 98V324ZM132 584Q138 608 147 630T170 670T205 699T253 710Q275 710 296 703T337 686T375 669T409 661Q427 661 440 676T455 709H498Q492 685 483 663T460 623T425 594T377 583Q355 583 334 590T293 607T255 624T221 632Q203 632 190 617T175 584H132Z"  />
<glyph unicode="&#xF2;" horiz-adv-x="612" d="M306 51Q336 51 358 65T395 103T417 159T424 228Q424 265 417 297T395 354T358 391T306 405Q276 405 254 392T217 354T195 298T188 228Q188 191 195 159T217 103T254 65T306 51ZM306 -13Q242 -13 193 5T111 56T61 133T44 228Q44 280 62 324T113 400T195 450T306 469Q367 469 416 451T498 400T550 324T568 228Q568 177 551 133T501 57T419 6T306 -13ZM194 648Q174 661 161 673T148 705Q148 722 160 735T196 749Q209 749 219 745T239 731T260 708T289 675L386 564H330L194 648Z"  />
<glyph unicode="&#xF3;" horiz-adv-x="612" d="M306 51Q336 51 358 65T395 103T417 159T424 228Q424 265 417 297T395 354T358 391T306 405Q276 405 254 392T217 354T195 298T188 228Q188 191 195 159T217 103T254 65T306 51ZM306 -13Q242 -13 193 5T111 56T61 133T44 228Q44 280 62 324T113 400T195 450T306 469Q367 469 416 451T498 400T550 324T568 228Q568 177 551 133T501 57T419 6T306 -13ZM323 675Q339 694 351 708T373 731T393 744T416 749Q439 749 451 736T464 705Q464 685 451 673T418 648L282 564H226L323 675Z"  />
<glyph unicode="&#xF4;" horiz-adv-x="612" d="M306 51Q336 51 358 65T395 103T417 159T424 228Q424 265 417 297T395 354T358 391T306 405Q276 405 254 392T217 354T195 298T188 228Q188 191 195 159T217 103T254 65T306 51ZM306 -13Q242 -13 193 5T111 56T61 133T44 228Q44 280 62 324T113 400T195 450T306 469Q367 469 416 451T498 400T550 324T568 228Q568 177 551 133T501 57T419 6T306 -13ZM260 740H352L475 564H418L306 662L194 564H137L260 740Z"  />
<glyph unicode="&#xF5;" horiz-adv-x="612" d="M306 51Q336 51 358 65T395 103T417 159T424 228Q424 265 417 297T395 354T358 391T306 405Q276 405 254 392T217 354T195 298T188 228Q188 191 195 159T217 103T254 65T306 51ZM306 -13Q242 -13 193 5T111 56T61 133T44 228Q44 280 62 324T113 400T195 450T306 469Q367 469 416 451T498 400T550 324T568 228Q568 177 551 133T501 57T419 6T306 -13ZM123 584Q129 608 138 630T161 670T196 699T244 710Q266 710 287 703T328 686T366 669T400 661Q418 661 431 676T446 709H489Q483 685 474 663T451 623T416 594T368 583Q346 583 325 590T284 607T246 624T212 632Q194 632 181 617T166 584H123Z"  />
<glyph unicode="&#xF6;" horiz-adv-x="612" d="M306 51Q336 51 358 65T395 103T417 159T424 228Q424 265 417 297T395 354T358 391T306 405Q276 405 254 392T217 354T195 298T188 228Q188 191 195 159T217 103T254 65T306 51ZM306 -13Q242 -13 193 5T111 56T61 133T44 228Q44 280 62 324T113 400T195 450T306 469Q367 469 416 451T498 400T550 324T568 228Q568 177 551 133T501 57T419 6T306 -13ZM343 638Q343 665 362 684T409 704Q436 704 455 685T475 638Q475 611 456 592T409 572Q382 572 363 591T343 638ZM137 638Q137 665 156 684T203 704Q230 704 249 685T269 638Q269 611 250 592T203 572Q176 572 157 591T137 638Z"  />
<glyph unicode="&#xF7;" horiz-adv-x="600" d="M47 309H553V197H47V309ZM300 131Q330 131 351 110T372 59Q372 29 351 8T300 -13Q270 -13 249 8T228 59Q228 89 249 110T300 131ZM300 519Q330 519 351 498T372 447Q372 417 351 396T300 375Q270 375 249 396T228 447Q228 477 249 498T300 519Z"  />
<glyph unicode="&#xF8;" horiz-adv-x="612" d="M219 100Q233 77 255 64T306 51Q336 51 358 65T395 103T417 159T424 228Q424 269 415 304L219 100ZM393 357Q379 380 357 392T306 405Q276 405 254 392T217 354T195 298T188 228Q188 187 197 153L393 357ZM108 60Q76 92 60 135T44 228Q44 280 62 324T113 400T195 450T306 469Q354 469 393 459T462 428L537 506L577 472L503 395Q568 330 568 228Q568 177 551 133T501 57T419 6T306 -13Q258 -13 219 -3T149 28L74 -50L35 -15L108 60Z"  />
<glyph unicode="&#xF9;" horiz-adv-x="611" d="M82 324Q82 338 74 342T37 350Q29 351 25 353T20 362V389Q20 396 22 400T32 408L162 459Q180 466 191 470T209 475Q213 475 216 470T222 457T226 444T228 435Q228 430 226 428T221 421T216 408T214 385V185Q214 128 233 107T295 85Q311 85 329 90T362 104T387 122T397 144V330Q397 344 389 348T352 356Q344 357 340 359T335 368V389Q335 396 336 403T342 413L476 455Q505 464 520 469T543 475Q545 475 548 470T555 458T560 444T563 433Q563 427 558 423T546 414T535 399T529 373V125Q529 114 532 111T540 107Q546 107 559 113T578 119Q581 119 584 113T590 100T595 85T597 76Q597 68 587 64L439 -6Q429 -11 420 -15T404 -19Q401 -19 398 -14T391 -3T386 9T384 17Q384 22 390 30T397 62V76H395Q381 61 363 45T323 16T276 -5T224 -13Q184 -13 157 1T114 38T90 93T82 159V324ZM194 648Q174 661 161 673T148 705Q148 722 160 735T196 749Q209 749 219 745T239 731T260 708T289 675L386 564H330L194 648Z"  />
<glyph unicode="&#xFA;" horiz-adv-x="611" d="M82 324Q82 338 74 342T37 350Q29 351 25 353T20 362V389Q20 396 22 400T32 408L162 459Q180 466 191 470T209 475Q213 475 216 470T222 457T226 444T228 435Q228 430 226 428T221 421T216 408T214 385V185Q214 128 233 107T295 85Q311 85 329 90T362 104T387 122T397 144V330Q397 344 389 348T352 356Q344 357 340 359T335 368V389Q335 396 336 403T342 413L476 455Q505 464 520 469T543 475Q545 475 548 470T555 458T560 444T563 433Q563 427 558 423T546 414T535 399T529 373V125Q529 114 532 111T540 107Q546 107 559 113T578 119Q581 119 584 113T590 100T595 85T597 76Q597 68 587 64L439 -6Q429 -11 420 -15T404 -19Q401 -19 398 -14T391 -3T386 9T384 17Q384 22 390 30T397 62V76H395Q381 61 363 45T323 16T276 -5T224 -13Q184 -13 157 1T114 38T90 93T82 159V324ZM323 675Q339 694 351 708T373 731T393 744T416 749Q439 749 451 736T464 705Q464 685 451 673T418 648L282 564H226L323 675Z"  />
<glyph unicode="&#xFB;" horiz-adv-x="611" d="M82 324Q82 338 74 342T37 350Q29 351 25 353T20 362V389Q20 396 22 400T32 408L162 459Q180 466 191 470T209 475Q213 475 216 470T222 457T226 444T228 435Q228 430 226 428T221 421T216 408T214 385V185Q214 128 233 107T295 85Q311 85 329 90T362 104T387 122T397 144V330Q397 344 389 348T352 356Q344 357 340 359T335 368V389Q335 396 336 403T342 413L476 455Q505 464 520 469T543 475Q545 475 548 470T555 458T560 444T563 433Q563 427 558 423T546 414T535 399T529 373V125Q529 114 532 111T540 107Q546 107 559 113T578 119Q581 119 584 113T590 100T595 85T597 76Q597 68 587 64L439 -6Q429 -11 420 -15T404 -19Q401 -19 398 -14T391 -3T386 9T384 17Q384 22 390 30T397 62V76H395Q381 61 363 45T323 16T276 -5T224 -13Q184 -13 157 1T114 38T90 93T82 159V324ZM260 740H352L475 564H418L306 662L194 564H137L260 740Z"  />
<glyph unicode="&#xFC;" horiz-adv-x="611" d="M82 324Q82 338 74 342T37 350Q29 351 25 353T20 362V389Q20 396 22 400T32 408L162 459Q180 466 191 470T209 475Q213 475 216 470T222 457T226 444T228 435Q228 430 226 428T221 421T216 408T214 385V185Q214 128 233 107T295 85Q311 85 329 90T362 104T387 122T397 144V330Q397 344 389 348T352 356Q344 357 340 359T335 368V389Q335 396 336 403T342 413L476 455Q505 464 520 469T543 475Q545 475 548 470T555 458T560 444T563 433Q563 427 558 423T546 414T535 399T529 373V125Q529 114 532 111T540 107Q546 107 559 113T578 119Q581 119 584 113T590 100T595 85T597 76Q597 68 587 64L439 -6Q429 -11 420 -15T404 -19Q401 -19 398 -14T391 -3T386 9T384 17Q384 22 390 30T397 62V76H395Q381 61 363 45T323 16T276 -5T224 -13Q184 -13 157 1T114 38T90 93T82 159V324ZM343 638Q343 665 362 684T409 704Q436 704 455 685T475 638Q475 611 456 592T409 572Q382 572 363 591T343 638ZM137 638Q137 665 156 684T203 704Q230 704 249 685T269 638Q269 611 250 592T203 572Q176 572 157 591T137 638Z"  />
<glyph unicode="&#xFD;" horiz-adv-x="574" d="M79 313Q68 335 60 349T43 374T23 393T-4 411Q-9 414 -13 416T-17 423Q-17 427 -17 434T-16 449T-11 463T-3 469Q13 469 39 463T117 456Q169 456 196 462T237 469Q240 469 242 463T246 450T249 435T250 423Q250 417 235 411Q221 406 210 403T199 388Q199 382 203 371T221 336L321 144L406 302Q419 326 429 346T440 374Q440 382 434 387T420 397T401 405T383 411Q372 415 370 418T367 425Q367 427 368 434T371 449T375 463T380 469Q396 469 420 463T486 456Q520 456 540 462T574 469Q584 469 585 456L589 440Q591 430 591 423Q591 421 585 417T573 411Q559 406 550 398T532 380T517 356T502 327L286 -79Q264 -121 241 -155T190 -213T125 -251T42 -265Q16 -265 11 -261T4 -248Q2 -231 0 -212T-2 -182Q-2 -170 8 -170Q13 -170 22 -171T40 -173Q73 -173 97 -167T140 -148T173 -118T201 -80L246 -8L79 313ZM304 675Q320 694 332 708T354 731T374 744T397 749Q420 749 432 736T445 705Q445 685 432 673T399 648L263 564H207L304 675Z"  />
<glyph unicode="&#xFE;" horiz-adv-x="611" d="M79 582Q79 611 75 617T61 625L40 628Q22 630 18 634T14 653Q14 672 16 677T29 686L179 742Q196 748 205 752T219 756Q222 756 225 751T232 738T237 723T239 711Q239 707 235 705T225 698T216 688T211 669V367H213Q228 386 246 404T285 437T330 460T382 469Q430 469 465 453T522 407T556 339T567 253Q567 198 549 150T498 65T420 8T319 -13Q305 -13 290 -10T260 -3T233 8T211 23V-149Q211 -163 218 -168T252 -176Q266 -178 271 -180T276 -193V-214Q276 -224 272 -228T259 -234L89 -275Q78 -278 69 -278Q65 -278 62 -273T57 -262T53 -249T51 -240Q51 -231 55 -228T65 -221T74 -212T79 -192V582ZM211 170Q211 110 232 84T291 57Q324 57 349 73T390 113T415 169T423 230Q423 255 417 280T397 325T364 358T318 371Q303 371 285 363T250 342T222 316T211 291V170Z"  />
<glyph unicode="&#xFF;" horiz-adv-x="574" d="M79 313Q68 335 60 349T43 374T23 393T-4 411Q-9 414 -13 416T-17 423Q-17 427 -17 434T-16 449T-11 463T-3 469Q13 469 39 463T117 456Q169 456 196 462T237 469Q240 469 242 463T246 450T249 435T250 423Q250 417 235 411Q221 406 210 403T199 388Q199 382 203 371T221 336L321 144L406 302Q419 326 429 346T440 374Q440 382 434 387T420 397T401 405T383 411Q372 415 370 418T367 425Q367 427 368 434T371 449T375 463T380 469Q396 469 420 463T486 456Q520 456 540 462T574 469Q584 469 585 456L589 440Q591 430 591 423Q591 421 585 417T573 411Q559 406 550 398T532 380T517 356T502 327L286 -79Q264 -121 241 -155T190 -213T125 -251T42 -265Q16 -265 11 -261T4 -248Q2 -231 0 -212T-2 -182Q-2 -170 8 -170Q13 -170 22 -171T40 -173Q73 -173 97 -167T140 -148T173 -118T201 -80L246 -8L79 313ZM324 638Q324 665 343 684T390 704Q417 704 436 685T456 638Q456 611 437 592T390 572Q363 572 344 591T324 638ZM118 638Q118 665 137 684T184 704Q211 704 230 685T250 638Q250 611 231 592T184 572Q157 572 138 591T118 638Z"  />
<glyph unicode="&#x131;" horiz-adv-x="296" d="M82 324Q82 338 74 342T37 350Q29 351 25 353T20 362V389Q20 396 22 400T32 408L162 459Q180 466 191 470T209 475Q213 475 216 470T222 457T226 444T228 435Q228 430 226 428T221 421T216 408T214 385V98Q214 72 220 63T246 51Q263 48 273 45T283 31V-1Q283 -7 281 -10T271 -13Q258 -13 224 -7T148 0Q106 0 72 -6T25 -13Q17 -13 15 -10T13 -1V31Q13 42 23 45T50 51Q70 54 76 63T82 98V324Z"  />
<glyph unicode="&#x152;" horiz-adv-x="1167" d="M809 140Q809 116 814 100T835 75T880 61T959 57Q987 57 1004 62T1032 77T1049 100T1061 130Q1066 144 1074 150T1106 156Q1124 156 1132 153T1141 139Q1141 132 1137 112T1126 69T1115 22T1108 -13Q1039 -8 970 -4T834 0Q805 0 777 -2T724 -6T682 -11T657 -13Q652 -13 649 -10T645 -1Q645 7 645 14T647 29Q647 34 652 36T663 39T675 42T683 51Q685 59 686 81T689 142H687Q646 58 576 23T415 -13Q337 -13 270 13T155 87T78 202T50 351Q50 429 78 495T155 611T273 687T423 715Q524 715 587 675T686 563H688V619Q688 640 685 647T674 657Q664 660 659 662T651 667T648 678T647 697Q647 705 650 710T661 715Q676 715 714 709Q732 706 755 704T805 702H853Q884 702 913 703T968 705Q994 707 1013 707T1043 708Q1051 708 1053 700L1064 606Q1067 582 1067 571Q1067 560 1059 556T1028 552Q1001 552 997 564T989 596Q985 619 968 628T915 638H809V392H947Q965 392 978 396T1000 426Q1005 443 1011 450T1038 457Q1061 457 1067 452T1074 429Q1074 411 1073 394T1071 357Q1071 338 1072 321T1074 285Q1074 268 1068 263T1038 257Q1018 257 1012 264T1000 288Q992 313 979 317T947 322H809V140ZM212 351Q212 291 227 238T271 145T341 81T433 57Q491 57 533 82T604 148T645 242T659 351Q659 409 646 461T606 553T538 616T439 639Q381 639 339 616T268 553T226 461T212 351Z"  />
<glyph unicode="&#x153;" horiz-adv-x="907" d="M38 228Q38 280 56 324T107 400T189 450T300 469Q324 469 350 466T402 454T449 431T488 394Q513 432 561 450T662 469Q700 469 737 457T802 423T848 368T866 293Q866 288 862 287T845 283L550 224Q554 195 563 169T591 123T636 91T702 79Q733 79 757 88T799 108T828 129T843 138Q846 138 850 135T859 126T866 117T869 109Q869 105 852 86T806 44T736 5T647 -13Q585 -13 540 9T471 61Q435 22 388 5T300 -13Q236 -13 187 5T105 56T55 133T38 228ZM300 51Q330 51 352 65T389 103T411 159T418 228Q418 265 411 297T389 354T352 391T300 405Q270 405 248 392T211 354T189 298T182 228Q182 191 189 159T211 103T248 65T300 51ZM693 301Q715 306 724 310T734 327Q734 342 730 357T716 384T691 403T653 411Q625 411 606 397T574 361T556 315T550 271L693 301Z"  />
<glyph unicode="&#x160;" horiz-adv-x="574" d="M528 203Q528 147 506 105T446 36T361 -5T263 -19Q210 -19 159 -14T55 -2Q54 36 50 72T46 147Q46 162 55 167T82 172Q94 172 101 171T112 165T120 152T126 128Q132 105 141 90T164 67T199 55T247 51Q274 51 299 57T342 76T372 110T384 162Q384 199 360 223T300 267T221 305T143 349T82 410T58 502Q58 560 78 601T134 669T215 708T314 721Q337 721 364 719T416 715T462 711T494 709Q494 691 495 669T498 627T500 591T501 568Q501 557 494 550T461 543Q450 543 444 544T433 550T426 566T418 596Q413 616 403 627T379 643T351 650T326 651Q302 651 280 645T240 626T213 593T202 543Q202 508 226 484T286 441T365 402T443 357T504 295T528 203ZM333 756H241L118 932H175L287 834L399 932H456L333 756Z"  />
<glyph unicode="&#x161;" horiz-adv-x="463" d="M207 -13Q190 -13 164 -12T114 -8T71 -2T53 4Q51 19 50 36T47 71T44 101T43 121Q43 129 46 134T64 139Q93 139 100 136T110 121L116 91Q118 80 128 73T151 60T181 53T211 51Q227 51 242 55T271 66T292 85T300 112Q300 132 289 144T260 165T219 178T172 189Q147 195 123 203T81 227T51 265T39 322Q39 368 60 396T113 441T183 463T257 469Q274 469 294 469T333 467T365 464T382 461Q392 457 392 446Q392 421 395 396T399 346Q399 336 393 332T379 328H352Q339 328 335 341L324 381Q319 395 300 400T245 405Q211 405 187 391T163 351Q163 322 189 310T272 285Q302 279 329 270T378 244T411 204T424 143Q424 102 406 73T356 25T286 -4T207 -13ZM278 564H186L63 740H120L232 642L344 740H401L278 564Z"  />
<glyph unicode="&#x178;" horiz-adv-x="741" d="M295 276L73 609Q63 624 57 632T47 644T38 649T30 651Q13 653 6 657T-4 675Q-5 680 -5 686T-5 701Q-5 710 0 712T13 715Q17 715 30 713T62 709T100 704T139 702Q190 702 227 708T283 715Q290 715 293 711T297 694V670Q297 660 291 657T266 651Q248 647 243 644T237 635Q237 629 244 618T265 586L410 365L541 574Q545 580 550 587T560 603T568 619T572 631Q572 641 561 645T538 651Q524 653 516 654T504 657T499 663T498 674V693Q498 706 502 710T515 715Q528 715 561 709T632 702Q656 702 683 708T729 715Q738 715 742 709T746 679Q746 665 741 661T713 651Q701 648 693 645T678 637T665 622T648 597L445 276V162Q445 126 447 105T455 72T474 56T508 51Q537 50 537 23V6Q537 -3 533 -8T522 -13Q517 -13 503 -11T468 -7T422 -2T370 0Q343 0 318 -2T273 -6T238 -11T218 -13Q212 -13 208 -8T203 6V23Q203 50 232 51Q253 52 265 56T284 71T293 104T295 162V276ZM408 830Q408 857 427 876T474 896Q501 896 520 877T540 830Q540 803 521 784T474 764Q447 764 428 783T408 830ZM202 830Q202 857 221 876T268 896Q295 896 314 877T334 830Q334 803 315 784T268 764Q241 764 222 783T202 830Z"  />
<glyph unicode="&#x17D;" horiz-adv-x="722" d="M469 626H207Q172 626 160 615T139 587Q131 568 123 564T96 560Q73 560 69 564T64 573Q64 577 66 596T72 636T79 677T83 702Q84 715 92 715Q96 715 107 713T137 709Q156 706 182 704T240 702H662Q670 702 677 701T684 691Q684 686 681 680T668 661L240 76H548Q563 76 574 77T594 84T610 99T625 126Q631 140 639 143T662 146Q665 146 670 146T682 145T692 140T696 132Q696 127 694 107T689 63T683 19T679 -3Q676 -6 670 -6Q668 -6 664 -5T653 -3Q641 0 612 0H43Q33 0 30 4T26 14Q26 18 32 27T45 46T60 67T72 82L469 626ZM407 756H315L192 932H249L361 834L473 932H530L407 756Z"  />
<glyph unicode="&#x17E;" horiz-adv-x="537" d="M317 389L179 387Q147 386 132 382T105 364Q94 348 90 342T80 335H53Q38 335 38 351Q38 357 41 370T48 400T56 432T63 456Q64 462 70 462Q86 462 143 459T317 456Q343 456 370 457T421 459T463 461T488 462Q496 462 500 451T504 425Q504 417 481 392T419 321L203 67L348 68Q373 68 394 77T432 98T462 118T486 128Q489 128 494 127T504 124T513 120T517 114Q517 111 514 96T506 62T497 27T492 6Q490 -2 486 -4T476 -6Q471 -6 462 -5T438 -3T401 -1T346 0Q309 0 261 -1T167 -3T87 -5T43 -6Q37 -6 33 -1T25 11T21 25T20 37Q20 42 45 70T107 142L317 389ZM315 564H223L100 740H157L269 642L381 740H438L315 564Z"  />
<glyph unicode="&#x192;" horiz-adv-x="592" d="M230 473Q240 520 257 564T303 641T371 695T468 715Q522 715 554 701T586 650Q586 627 573 612T536 597Q516 597 503 605T480 624T460 642T436 651Q428 651 421 649T406 636T392 606T378 551L341 362H490Q497 362 497 355Q497 351 495 336T490 309Q488 301 483 300T464 298H328Q309 197 291 105T249 -79Q237 -124 218 -160T171 -223T105 -264T17 -278Q-3 -278 -22 -274T-56 -262T-80 -242T-89 -211Q-89 -188 -76 -173T-36 -157Q-18 -157 -7 -166T12 -185T30 -205T54 -214Q70 -214 81 -203T100 -167T117 -103T136 -7L193 298H71Q64 298 64 305Q64 309 66 324T71 351Q73 359 78 360T97 362H206L230 473Z"  />
<glyph unicode="&#x2C6;" horiz-adv-x="278" d="M93 740H185L308 564H251L139 662L27 564H-30L93 740Z"  />
<glyph unicode="&#x2C7;" horiz-adv-x="278" d="M185 564H93L-30 740H27L139 642L251 740H308L185 564Z"  />
<glyph unicode="&#x2DA;" horiz-adv-x="278" d="M31 654Q31 676 39 695T63 730T97 753T139 762Q161 762 180 754T215 730T238 696T247 654Q247 632 239 613T215 578T181 555T139 546Q117 546 98 554T63 578T40 612T31 654ZM77 654Q77 628 95 610T139 592Q165 592 183 610T201 654Q201 680 183 698T139 716Q113 716 95 698T77 654Z"  />
<glyph unicode="&#x2DC;" horiz-adv-x="278" d="M-44 584Q-38 608 -29 630T-6 670T29 699T77 710Q99 710 120 703T161 686T199 669T233 661Q251 661 264 676T279 709H322Q316 685 307 663T284 623T249 594T201 583Q179 583 158 590T117 607T79 624T45 632Q27 632 14 617T-1 584H-44Z"  />
<glyph unicode="&#x2013;" horiz-adv-x="500" d="M0 291H500V185H0V291Z"  />
<glyph unicode="&#x2014;" horiz-adv-x="1000" d="M0 291H1000V185H0V291Z"  />
<glyph unicode="&#x2018;" horiz-adv-x="296" d="M210 715Q224 715 227 713T231 707Q231 702 213 681T167 615Q160 603 152 585T144 552Q144 535 153 526T178 517Q191 517 199 518T214 521Q197 457 192 385Q177 387 158 388T119 390Q102 390 85 389T51 385Q53 417 58 449T71 509T86 561T100 599Q115 633 128 658T152 702Q159 712 167 713T191 715H210Z"  />
<glyph unicode="&#x2019;" horiz-adv-x="296" d="M72 385Q58 385 55 387T51 393Q51 398 69 419T115 485Q122 497 130 515T138 548Q138 565 129 574T104 583Q91 583 83 582T68 579Q85 643 90 715Q105 713 124 712T163 710Q180 710 197 711T231 715Q229 683 224 651T211 591T196 539T182 501Q167 467 154 442T130 398Q123 388 115 387T91 385H72Z"  />
<glyph unicode="&#x201A;" horiz-adv-x="296" d="M72 -204Q58 -204 55 -202T51 -196Q51 -191 69 -170T115 -104Q122 -92 130 -74T138 -41Q138 -24 129 -15T104 -6Q91 -6 83 -7T68 -10Q85 54 90 126Q105 124 124 123T163 121Q180 121 197 122T231 126Q229 94 224 62T211 2T196 -50T182 -88Q167 -122 154 -147T130 -191Q123 -201 115 -202T91 -204H72Z"  />
<glyph unicode="&#x201C;" horiz-adv-x="481" d="M203 715Q217 715 220 713T224 707Q224 702 206 681T160 615Q153 603 145 585T137 552Q137 535 146 526T171 517Q184 517 192 518T207 521Q190 457 185 385Q170 387 151 388T112 390Q95 390 78 389T44 385Q46 417 51 449T64 509T79 561T93 599Q108 633 121 658T145 702Q152 712 160 713T184 715H203ZM402 715Q416 715 419 713T423 707Q423 702 405 681T359 615Q352 603 344 585T336 552Q336 535 345 526T370 517Q383 517 391 518T406 521Q389 457 384 385Q369 387 350 388T311 390Q294 390 277 389T243 385Q245 417 250 449T263 509T278 561T292 599Q307 633 320 658T344 702Q351 712 359 713T383 715H402Z"  />
<glyph unicode="&#x201D;" horiz-adv-x="481" d="M264 385Q250 385 247 387T243 393Q243 398 261 419T307 485Q314 497 322 515T330 548Q330 565 321 574T296 583Q283 583 275 582T260 579Q277 643 282 715Q297 713 316 712T355 710Q372 710 389 711T423 715Q421 683 416 651T403 591T388 539T374 501Q359 467 346 442T322 398Q315 388 307 387T283 385H264ZM65 385Q51 385 48 387T44 393Q44 398 62 419T108 485Q115 497 123 515T131 548Q131 565 122 574T97 583Q84 583 76 582T61 579Q78 643 83 715Q98 713 117 712T156 710Q173 710 190 711T224 715Q222 683 217 651T204 591T189 539T175 501Q160 467 147 442T123 398Q116 388 108 387T84 385H65Z"  />
<glyph unicode="&#x201E;" horiz-adv-x="481" d="M264 -204Q250 -204 247 -202T243 -196Q243 -191 261 -170T307 -104Q314 -92 322 -74T330 -41Q330 -24 321 -15T296 -6Q283 -6 275 -7T260 -10Q277 54 282 126Q297 124 316 123T355 121Q372 121 389 122T423 126Q421 94 416 62T403 2T388 -50T374 -88Q359 -122 346 -147T322 -191Q315 -201 307 -202T283 -204H264ZM65 -204Q51 -204 48 -202T44 -196Q44 -191 62 -170T108 -104Q115 -92 123 -74T131 -41Q131 -24 122 -15T97 -6Q84 -6 76 -7T61 -10Q78 54 83 126Q98 124 117 123T156 121Q173 121 190 122T224 126Q222 94 217 62T204 2T189 -50T175 -88Q160 -122 147 -147T123 -191Q116 -201 108 -202T84 -204H65Z"  />
<glyph unicode="&#x2020;" horiz-adv-x="592" d="M270 382L191 357Q168 350 147 344T114 338Q84 338 63 354T42 407Q42 443 63 459T114 476Q126 476 147 470T191 457L270 432L246 543Q244 553 241 569T233 604T227 638T224 662Q224 693 245 707T296 721Q325 721 346 707T368 662Q368 654 366 638T359 604T352 570T346 543L322 432L401 457Q424 464 445 470T478 476Q508 476 529 460T550 407Q550 371 529 355T478 338Q466 338 445 344T401 357L322 382L354 68Q358 32 363 -9T368 -81Q368 -114 353 -138T296 -163Q255 -163 240 -139T224 -81Q224 -51 229 -10T238 68L270 382Z"  />
<glyph unicode="&#x2021;" horiz-adv-x="592" d="M270 422L191 397Q168 390 147 384T114 378Q84 378 63 394T42 447Q42 483 63 499T114 516Q126 516 147 510T191 497L270 472L246 569Q239 597 233 621T227 658Q227 689 247 705T296 721Q325 721 345 705T365 658Q365 646 359 622T346 569L322 472L401 497Q424 504 445 510T478 516Q508 516 529 500T550 447Q550 411 529 395T478 378Q466 378 445 384T401 397L322 422L342 279L322 136L401 161Q424 168 445 174T478 180Q508 180 529 164T550 111Q550 75 529 59T478 42Q466 42 445 48T401 61L322 86L346 -11Q353 -39 359 -63T365 -100Q365 -131 345 -147T296 -163Q267 -163 247 -147T227 -100Q227 -88 233 -64T246 -11L270 86L191 61Q168 54 147 48T114 42Q84 42 63 58T42 111Q42 147 63 163T114 180Q126 180 147 174T191 161L270 136L250 279L270 422Z"  />
<glyph unicode="&#x2022;" horiz-adv-x="500" d="M74 351Q74 387 88 419T126 475T182 513T250 527Q286 527 318 513T374 475T412 419T426 351Q426 315 412 283T374 227T318 189T250 175Q214 175 182 189T126 227T88 283T74 351Z"  />
<glyph unicode="&#x2026;" horiz-adv-x="1000" d="M92 62Q92 93 114 115T167 137Q198 137 220 115T242 62Q242 31 220 9T167 -13Q136 -13 114 9T92 62ZM425 62Q425 93 447 115T500 137Q531 137 553 115T575 62Q575 31 553 9T500 -13Q469 -13 447 9T425 62ZM758 62Q758 93 780 115T833 137Q864 137 886 115T908 62Q908 31 886 9T833 -13Q802 -13 780 9T758 62Z"  />
<glyph unicode="&#x2030;" horiz-adv-x="1000" d="M678 152Q678 188 689 218T721 270T770 304T833 317Q867 317 895 305T944 271T976 219T988 152Q988 116 977 86T945 34T896 0T833 -13Q799 -13 771 -1T722 33T690 85T678 152ZM778 152Q778 126 780 103T789 63T806 37T833 27Q864 27 876 63T888 152Q888 178 886 201T877 241T860 267T833 277Q817 277 807 268T790 241T781 201T778 152ZM332 152Q332 188 343 218T375 270T424 304T487 317Q521 317 549 305T598 271T630 219T642 152Q642 116 631 86T599 34T550 0T487 -13Q453 -13 425 -1T376 33T344 85T332 152ZM432 152Q432 126 434 103T443 63T460 37T487 27Q518 27 530 63T542 152Q542 178 540 201T531 241T514 267T487 277Q471 277 461 268T444 241T435 201T432 152ZM12 550Q12 586 23 616T55 668T104 702T167 715Q201 715 229 703T278 669T310 617T322 550Q322 514 311 484T279 432T230 398T167 385Q133 385 105 397T56 431T24 483T12 550ZM112 550Q112 524 114 501T123 461T140 435T167 425Q198 425 210 461T222 550Q222 576 220 599T211 639T194 665T167 675Q151 675 141 666T124 639T115 599T112 550ZM484 732H558L185 -30H111L484 732Z"  />
<glyph unicode="&#x2039;" horiz-adv-x="296" d="M43 238L161 407H253L135 238L253 69H161L43 238Z"  />
<glyph unicode="&#x203A;" horiz-adv-x="296" d="M253 238L135 69H43L161 238L43 407H135L253 238Z"  />
<glyph unicode="&#x20AC;" horiz-adv-x="592" d="M42 425H89Q97 493 115 547T163 638T238 695T342 715Q387 715 415 712T464 704T501 697T538 692Q538 658 542 623T546 562Q546 551 536 543T508 535Q485 535 480 545T470 581Q467 600 462 612T447 632T420 642T374 645Q310 645 278 591T237 425H471L452 379H235Q234 371 234 363T234 347V314H424L404 268H236Q243 156 276 107T366 58Q409 58 427 70T457 112L469 144Q474 157 481 165T512 173Q551 173 551 158Q551 150 548 134T541 101L522 12Q507 12 494 10T465 4T431 -2T386 -9Q376 -10 366 -10T333 -12Q221 -12 164 59T92 268H22L42 314H85Q84 322 84 332T84 349Q84 355 84 363T85 379H22L42 425Z"  />
<glyph unicode="&#x2122;" horiz-adv-x="1000" d="M256 373Q256 361 257 353T264 341T280 335T308 333V311H91V333Q127 333 135 341T144 373V687H93Q64 687 50 670T32 627H10V715H389V627H367Q363 652 349 669T306 687H256V373ZM530 591H528V396Q528 375 529 363T536 344T551 335T580 333V311H448V333Q466 333 476 335T492 344T499 363T500 396V636Q475 693 427 693V715H584L715 443L856 715H990V693Q971 693 961 691T945 685T938 672T937 653V373Q937 349 945 341T989 333V311H773V333Q808 333 816 341T825 373V591H823L680 312H664L530 591Z"  />

</font>
</defs>
</svg>
