<?xml  version="1.0" encoding="UTF-8"?>
<!DOCTYPE svg PUBLIC "-//W3C//DTD SVG 1.0//EN" "http://www.w3.org/TR/2001/REC-SVG-20010904/DTD/svg10.dtd" >
<svg xmlns="http://www.w3.org/2000/svg" >
<metadata>
<version>1.0</version>
<id><![CDATA[Stempel Schneidler W01 Roman]]></id>
<vendor>Monotype Imaging Inc.</vendor>
<credits>
<name>Fonts.com WebFonts</name>
<URL>http://webfonts.fonts.com</URL>
<role>Home of the Web fonts</role>
</credits>
<license>
<URL>http://webfonts.fonts.com/Legal</URL>
</license>
<copyright><![CDATA[Copyright © 1990, 2002 Adobe Systems Incorporated.  All Rights Reserved.]]></copyright>
<trademark><![CDATA[Stempel Schneidler is a registered trademark of Bauer Types, S.A.]]></trademark>
<licensee>
<name></name>
</licensee>
</metadata>
<defs >
<font horiz-adv-x="533" id="6798036a-e5cc-4df5-8683-800791ff6fb8">
<font-face font-family="" panose-1="0 0 5 0 0 0 0 0 0 0" ascent="933" descent="-278" units-per-em="1000" alphabetic="0">
</font-face>
<missing-glyph horiz-adv-x="0" />

<glyph unicode="&#xA;" />
<glyph unicode="&#xD;" horiz-adv-x="0" />
<glyph unicode=" " horiz-adv-x="260" />
<glyph unicode="!" horiz-adv-x="296" d="M131 146Q128 208 124 281T116 424T108 554T105 651Q105 657 106 667T111 688T125 707T150 715Q177 715 184 696T191 654Q191 621 189 563T183 437T174 296T165 163L131 146ZM96 39Q96 61 111 76T148 91Q170 91 185 76T200 39Q200 17 185 2T148 -13Q126 -13 111 2T96 39Z"  />
<glyph unicode="&quot;" horiz-adv-x="408" d="M238 646Q238 655 238 667T242 689T252 707T271 715Q284 715 291 708T301 690T305 667T306 646L289 444Q289 438 287 426T271 413Q260 413 258 425T255 444L238 646ZM102 646Q102 655 102 667T106 689T116 707T135 715Q148 715 155 708T165 690T169 667T170 646L153 444Q153 438 151 426T135 413Q124 413 122 425T119 444L102 646Z"  />
<glyph unicode="#" horiz-adv-x="520" d="M178 280H320L342 435H199L178 280ZM170 230L138 0H87L119 230H4V280H127L148 435H33V485H156L188 715H239L207 485H349L381 715H432L400 485H515V435H392L371 280H486V230H363L331 0H280L312 230H170Z"  />
<glyph unicode="$" horiz-adv-x="520" d="M294 39Q321 46 340 59T371 91T388 129T394 170Q394 190 391 207T376 241T346 273T294 308V39ZM250 673Q199 663 173 628T147 537Q147 513 155 494T177 460T209 433T250 408V673ZM438 602Q438 582 435 575T423 568Q413 568 409 575T394 610Q389 621 384 633T369 654T341 670T294 677V385L302 381Q335 364 364 347T414 307T449 254T462 182Q462 155 452 125T422 69T369 22T294 -6V-87Q294 -92 288 -95T272 -99Q263 -99 257 -96T250 -87V-12Q248 -13 241 -13Q200 -13 154 -7T67 8L62 76Q61 87 60 102T58 127Q58 156 79 156Q87 156 91 153T98 137Q109 81 140 56T238 31Q246 31 250 32V331L246 333Q199 356 167 376T116 417T88 465T79 528Q79 555 86 585T113 640T166 685T250 711V785Q250 790 256 793T272 797Q281 797 287 794T294 785V715H298Q333 715 368 711T438 702V602Z"  />
<glyph unicode="%" horiz-adv-x="1000" d="M568 153Q568 199 585 231T628 282T682 310T733 319Q811 319 853 277T895 153Q895 123 885 94T853 40T799 2T725 -13Q708 -13 682 -7T630 18T586 68T568 153ZM636 153Q636 114 645 88T668 45T699 21T734 13Q747 13 763 20T793 43T817 87T827 153Q827 175 822 200T807 245T779 279T737 293Q708 293 689 280T658 245T641 200T636 153ZM105 549Q105 595 122 627T165 678T219 706T270 715Q348 715 390 673T432 549Q432 519 422 490T390 436T336 398T262 383Q245 383 219 389T167 414T123 464T105 549ZM173 549Q173 510 182 484T205 441T236 417T271 409Q284 409 300 416T330 439T354 483T364 549Q364 571 359 596T344 641T316 675T274 689Q245 689 226 676T195 641T178 596T173 549ZM708 728H749L294 -26H253L708 728Z"  />
<glyph unicode="&amp;" horiz-adv-x="834" d="M534 129Q513 96 483 70T418 26T345 -3T267 -13Q217 -13 179 0T114 36T74 89T60 153Q60 189 77 219T119 274T176 318T236 350Q212 366 192 383T155 422T130 468T121 524Q121 548 130 573T157 618T205 652T277 665Q309 665 337 656T385 628T418 584T430 523Q430 492 418 466T387 419T343 380T293 350L534 188Q547 206 563 236T594 301T618 366T628 417Q628 434 626 444T614 462T589 472T545 480Q539 481 539 498Q539 509 540 512T548 516Q557 516 584 510T649 504Q696 504 725 510T762 516Q766 516 770 514T774 505Q774 488 772 484T755 478Q734 475 722 471T702 462T690 449T681 429Q664 387 650 352T623 285T595 225T562 170L771 30L732 -19L534 129ZM171 505Q171 485 180 466T203 429T234 396T266 370Q285 378 305 391T341 423T369 463T380 509Q380 535 370 554T343 585T309 603T275 609Q255 609 237 603T204 583T180 550T171 505ZM261 332Q237 320 212 305T167 270T135 225T122 168Q122 145 134 122T168 80T219 49T283 37Q351 37 409 67T508 150L261 332Z"  />
<glyph unicode="&apos;" horiz-adv-x="260" d="M96 646Q96 655 96 667T100 689T110 707T129 715Q142 715 149 708T159 690T163 667T164 646L147 444Q147 438 145 426T129 413Q118 413 116 425T113 444L96 646Z"  />
<glyph unicode="(" horiz-adv-x="296" d="M60 253Q60 387 110 509T255 730L291 698Q247 647 214 596T157 491T122 378T110 253Q110 187 122 128T157 15T213 -90T291 -192L255 -224Q161 -125 111 -3T60 253Z"  />
<glyph unicode=")" horiz-adv-x="296" d="M41 730Q135 631 185 509T236 253Q236 119 186 -3T41 -224L5 -192Q49 -141 82 -90T139 15T174 128T186 253Q186 319 174 378T139 491T83 596T5 698L41 730Z"  />
<glyph unicode="*" horiz-adv-x="389" d="M185 543L120 489Q108 479 98 473T77 466Q66 466 60 473T54 488Q54 501 63 508T102 527L181 557L102 589Q72 601 63 608T54 628Q54 636 60 643T77 650Q88 650 98 644T120 627L185 573L174 652Q172 663 171 672T169 692Q169 699 176 707T194 715Q204 715 211 710T219 693Q219 682 218 673T215 649L204 573L269 627Q281 637 291 643T312 650Q323 650 329 643T335 628Q335 617 326 609T287 589L208 557L287 527Q318 515 326 508T335 488Q335 480 329 473T312 466Q301 466 291 472T269 489L204 543L215 467Q217 453 218 444T219 423Q219 412 212 407T194 401Q184 401 177 409T169 424Q169 434 170 443T174 464L185 543Z"  />
<glyph unicode="+" horiz-adv-x="600" d="M275 228H47V278H275V506H325V278H553V228H325V0H275V228Z"  />
<glyph unicode="&#x2c;" horiz-adv-x="260" d="M44 -210Q33 -210 33 -207Q33 -206 47 -185T80 -135T112 -76T127 -28Q127 -20 124 -10T100 0Q89 0 83 -2T72 -6Q79 16 83 42T89 92Q101 90 113 89T139 88Q164 88 187 92Q185 45 176 5T152 -72T118 -143T75 -210H44Z"  />
<glyph unicode="-" horiz-adv-x="333" d="M52 269H281V207H52V269Z"  />
<glyph unicode="." horiz-adv-x="260" d="M78 39Q78 61 93 76T130 91Q152 91 167 76T182 39Q182 17 167 2T130 -13Q108 -13 93 2T78 39Z"  />
<glyph unicode="/" horiz-adv-x="352" d="M294 702Q298 711 302 713T321 715Q346 715 342 702L61 0Q58 -8 54 -10T35 -13Q18 -13 14 -10T11 -1L294 702Z"  />
<glyph unicode="0" horiz-adv-x="520" d="M268 715Q328 715 368 680T432 592T466 474T476 352Q476 272 458 205T410 90T340 14T257 -13Q198 -13 158 17T92 97T56 213T44 352Q44 440 62 508T111 622T182 691T268 715ZM260 683Q239 683 214 666T168 608T133 498T118 323Q118 237 128 179T158 85T203 34T260 19Q284 19 309 36T355 93T389 196T402 352Q402 452 391 516T360 618T314 669T260 683Z"  />
<glyph unicode="1" horiz-adv-x="520" d="M235 620L135 530Q121 517 110 517Q106 517 100 524T94 537Q94 543 99 548T113 561L290 715L311 702Q306 673 305 643T303 582V131Q303 102 305 84T315 55T335 39T368 32Q399 28 405 24T412 15Q412 0 409 -6T394 -13Q373 -13 346 -7T269 0Q222 0 193 -6T143 -13Q119 -13 119 10Q119 21 127 24T164 32Q187 36 201 40T222 56T232 87T235 141V620Z"  />
<glyph unicode="2" horiz-adv-x="520" d="M32 30Q110 112 171 178T276 299T343 404T366 504Q366 531 360 558T339 606T298 640T231 653Q206 653 180 645T133 619T99 575T86 511Q86 506 82 499T71 491Q60 491 57 500T54 518Q54 612 106 663T244 715Q299 715 336 698T397 653T430 591T440 524Q440 483 423 441T379 356T316 274T243 196T170 125T105 62H300Q316 62 328 64T352 73T374 94T400 134Q410 151 416 161T428 176T437 182T445 184Q451 184 456 179T461 168Q461 162 452 145T431 104T406 51T384 -6Q375 -5 362 -4T327 -2T276 -1T204 0Q117 0 32 -6V30Z"  />
<glyph unicode="3" horiz-adv-x="520" d="M116 403Q142 398 168 394T221 389Q251 389 280 397T332 421T369 463T383 521Q383 554 372 579T342 620T296 645T238 653Q196 653 168 640T123 607T98 567T91 531Q91 520 89 511T77 502Q66 502 63 516T59 548Q59 585 73 616T111 669T170 703T243 715Q281 715 314 703T373 669T412 615T427 543Q427 489 400 447T322 381Q392 358 424 313T457 201Q457 153 439 114T389 46T317 3T230 -13Q171 -13 132 1T71 39T39 91T30 146Q30 161 36 175T66 189Q93 189 98 175T104 139Q104 80 137 50T225 19Q253 19 283 28T338 58T379 111T395 188Q395 228 381 256T341 303T281 330T207 339Q178 339 149 334T91 320L116 403Z"  />
<glyph unicode="4" horiz-adv-x="520" d="M352 685Q365 704 369 709T380 715Q403 715 403 695Q403 680 402 653T400 589V242H486V186H400V96Q400 69 397 47T380 0H308Q325 23 328 45T332 95V186H51Q41 186 35 190T28 207Q28 217 31 221T39 234L110 334L352 685ZM98 242H332V590H330L98 242Z"  />
<glyph unicode="5" horiz-adv-x="520" d="M123 456Q134 463 148 467T178 476Q194 480 208 481T235 483Q259 483 294 478T363 454T420 395T444 287Q444 239 428 186T380 89T300 16T187 -13Q131 -13 98 4T46 45T23 94T17 134Q17 157 31 170T59 184Q78 184 87 175T97 133Q97 98 106 77T130 45T163 29T198 25Q225 25 258 36T320 75T368 146T388 255Q388 342 343 378T222 415Q194 415 168 408T120 393T86 377T71 370Q67 370 67 376Q67 381 73 407T87 477T106 578T124 702H403Q416 702 425 703T441 706Q448 707 452 708T459 709Q463 709 463 701Q463 699 458 687T445 659T431 632T422 620Q418 620 416 622T407 627T390 632T356 634H155L123 456Z"  />
<glyph unicode="6" horiz-adv-x="520" d="M279 467Q327 467 363 450T423 404T459 336T471 253Q471 205 457 157T416 72T347 11T251 -13Q195 -13 156 12T91 76T53 163T41 258Q41 333 63 396T121 509T204 598T302 663T404 702T499 715Q516 715 520 713T525 702Q525 694 517 691T485 682Q422 667 361 633T249 555T163 461T115 364L117 362Q140 406 183 436T279 467ZM258 411Q220 411 193 396T146 356T118 300T109 236Q109 201 117 164T144 96T192 45T262 25Q280 25 304 34T350 64T387 123T403 216Q403 274 388 311T351 371T304 402T258 411Z"  />
<glyph unicode="7" horiz-adv-x="520" d="M394 634H143Q94 634 66 627T33 619Q28 619 28 623Q28 625 28 628T31 637T36 655T45 686Q50 700 51 704T54 709Q57 709 67 708T98 706Q118 704 147 703T214 702H336Q370 702 395 703T438 706Q455 707 465 708T478 709Q480 709 482 705T484 697Q484 696 483 693T476 681T463 657T440 617L95 0H38L394 634Z"  />
<glyph unicode="8" horiz-adv-x="520" d="M260 715Q321 715 359 695T418 648T448 590T456 541Q456 474 422 429T326 367V365Q395 351 430 304T466 187Q466 133 447 95T398 33T332 -2T260 -13Q225 -13 189 -2T122 33T73 95T54 187Q54 256 89 303T194 365V367Q132 384 98 429T64 541Q64 560 72 590T101 647T161 695T260 715ZM260 388Q289 388 315 397T362 425T394 468T406 527Q406 541 401 563T379 607T335 643T260 659Q214 659 186 644T141 607T120 564T114 527Q114 494 126 469T158 425T204 398T260 388ZM260 344Q214 344 185 330T139 293T116 244T110 195Q110 158 122 131T156 85T204 58T260 49Q289 49 316 58T364 85T397 130T410 195Q410 218 404 244T382 292T336 329T260 344Z"  />
<glyph unicode="9" horiz-adv-x="520" d="M211 261Q185 261 156 272T101 307T60 369T43 462Q43 502 56 546T96 628T166 690T265 715Q313 715 351 695T415 641T454 562T468 467Q468 402 451 341T405 227T338 129T258 54T173 5T90 -13Q84 -13 74 -12T64 -3Q64 6 69 7Q87 12 114 26T173 62T238 116T303 185T359 270T400 371H398Q366 320 321 291T211 261ZM239 323Q268 323 297 333T351 366T390 423T406 507Q406 543 396 573T366 624T318 658T255 671Q225 671 196 659T144 622T107 563T93 483Q93 451 103 423T133 372T179 336T239 323Z"  />
<glyph unicode=":" horiz-adv-x="260" d="M78 355Q78 377 93 392T130 407Q152 407 167 392T182 355Q182 333 167 318T130 303Q108 303 93 318T78 355ZM78 39Q78 61 93 76T130 91Q152 91 167 76T182 39Q182 17 167 2T130 -13Q108 -13 93 2T78 39Z"  />
<glyph unicode=";" horiz-adv-x="260" d="M44 -210Q33 -210 33 -207Q33 -206 47 -185T80 -135T112 -76T127 -28Q127 -20 124 -10T100 0Q89 0 83 -2T72 -6Q76 6 78 19T83 43Q88 69 89 92Q101 90 113 89T139 88Q164 88 187 92Q185 45 176 5T152 -72T118 -143T75 -210H44ZM78 355Q78 377 93 392T130 407Q152 407 167 392T182 355Q182 333 167 318T130 303Q108 303 93 318T78 355Z"  />
<glyph unicode="&lt;" horiz-adv-x="600" d="M47 280L553 514V459L109 253L553 47V-8L47 226V280Z"  />
<glyph unicode="=" horiz-adv-x="600" d="M47 375H553V325H47V375ZM47 181H553V131H47V181Z"  />
<glyph unicode="&gt;" horiz-adv-x="600" d="M553 226L47 -8V47L491 253L47 459V514L553 280V226Z"  />
<glyph unicode="?" horiz-adv-x="464" d="M420 211Q405 197 383 186T337 168T289 157T245 153Q195 153 158 167T95 206T57 261T44 327Q44 366 59 393T98 439T147 474T197 502T235 531T251 567Q251 599 231 615T176 631Q168 631 162 631T150 629L141 637L225 715Q244 701 261 687T291 658T311 625T319 585Q319 553 301 531T256 493T198 461T139 428T94 385T76 323Q76 306 83 285T109 244T158 211T236 197Q272 197 314 212T383 257L420 211ZM168 39Q168 61 183 76T220 91Q242 91 257 76T272 39Q272 17 257 2T220 -13Q198 -13 183 2T168 39Z"  />
<glyph unicode="@" horiz-adv-x="800" d="M527 425Q527 455 513 473T470 492Q449 492 422 478T370 436T329 369T312 278Q312 240 330 218T380 196Q402 196 428 212T476 259T512 331T527 425ZM546 248Q544 241 544 235T543 218Q543 204 555 195T584 186Q620 186 647 207T694 260T722 331T732 405Q732 448 712 498T653 590T555 661T421 689Q354 689 297 665T199 595T134 481T110 326Q110 269 132 215T195 119T296 51T433 25Q493 25 543 38T638 75L652 45Q601 19 543 3T430 -13Q327 -13 253 21T130 108T59 221T36 335Q36 420 67 490T150 610T272 687T419 715Q491 715 554 692T663 627T737 528T764 404Q764 364 752 320T714 239T653 178T570 154Q535 154 509 173T475 227H473Q449 187 416 171T349 154Q322 154 303 163T270 189T251 225T244 266Q244 321 264 370T315 456T384 514T457 536Q486 536 504 522T534 481H536L546 525H616L546 248Z"  />
<glyph unicode="A" horiz-adv-x="722" d="M243 280Q240 273 233 255T216 215T196 167T177 119T163 80T157 57Q157 46 172 38T202 25Q215 21 218 17T221 6Q221 -13 206 -13Q202 -13 190 -11T162 -7T133 -2T110 0Q97 0 87 -2T67 -6T46 -11T18 -13Q11 -13 7 -8T2 4Q2 24 22 25Q54 26 76 48T120 122Q165 228 204 322T275 490T326 618T355 697Q357 705 361 710T371 715Q381 715 384 704Q387 693 402 651T440 549T490 419T543 281T593 158T632 69Q641 49 659 39T694 25Q708 22 714 20T720 6Q720 -3 716 -8T705 -13Q681 -13 654 -7T608 0Q596 0 582 -2T555 -6T532 -11T517 -13Q501 -13 501 1Q501 14 504 18T521 25Q536 27 547 35T558 56Q558 57 549 82T526 142T497 215T472 280H243ZM262 324H455L362 575L262 324Z"  />
<glyph unicode="B" horiz-adv-x="592" d="M191 106Q191 67 215 46T297 25Q322 25 351 33T405 59T446 107T463 182Q463 225 446 256T399 307T333 336T255 345H191V106ZM537 184Q537 147 522 112T477 49T404 4T305 -13Q263 -13 227 -7T158 0Q111 0 77 -6T27 -13Q13 -13 10 -9T7 9Q7 13 8 16T17 22T41 26T87 31Q99 32 106 34T117 42T122 58T123 85V645Q123 661 107 667T61 677Q36 680 31 682T26 696Q26 710 30 712T43 715Q48 715 62 713T94 709Q111 706 129 704T159 702Q173 702 185 703T212 705Q228 707 248 707T300 708Q346 708 378 692T432 652T463 599T473 544Q473 513 463 486T433 436T389 398T335 375V373Q375 368 412 355T476 319T520 263T537 184ZM191 383H215Q275 383 311 398T367 435T393 485T399 538Q399 557 392 580T370 623T329 656T266 670H204Q191 670 191 659V383Z"  />
<glyph unicode="C" horiz-adv-x="741" d="M663 15Q613 6 561 -3T462 -13Q360 -13 285 13T159 89T85 210T60 370Q60 431 81 492T146 603T257 684T414 715Q480 715 541 707T663 690Q664 664 665 637T667 581Q667 568 664 564T647 559Q635 559 631 567T623 608Q618 639 571 658T427 677Q341 677 285 645T195 564T148 458T134 348Q134 273 159 214T227 115T325 53T443 31Q498 31 534 37T592 54T624 81T639 115Q645 141 650 148T666 156Q676 156 682 152T689 141Q689 136 687 122T679 85L663 15Z"  />
<glyph unicode="D" horiz-adv-x="796" d="M201 145Q201 112 207 90T232 55T284 37T371 31Q437 31 490 54T582 119T641 220T662 350Q662 428 637 488T570 588T473 649T358 670H222Q208 670 205 666T201 644V145ZM133 645Q133 661 117 667T71 677Q46 680 41 682T36 696Q36 710 40 712T53 715Q68 715 78 713T101 709Q113 706 129 704T172 702Q194 702 222 703T279 705Q308 707 334 707T378 708Q452 708 517 686T631 619T708 507T736 352Q736 272 707 206T629 90T514 14T375 -13Q342 -13 315 -11T265 -7T220 -2T179 0Q140 0 102 -6T37 -13Q23 -13 20 -9T17 9Q17 18 20 20T39 25Q73 28 92 31T120 41T131 58T133 85V645Z"  />
<glyph unicode="E" horiz-adv-x="556" d="M191 130Q191 106 193 89T209 60T248 43T323 37H348Q382 37 403 40T436 51T454 69T466 97Q475 123 480 128T494 134Q504 134 509 128T514 115Q514 111 510 96T501 62T491 23T483 -13Q453 -13 409 -11T320 -6T239 -2T186 0Q172 0 151 -2T107 -6T65 -11T37 -13Q23 -13 23 1Q23 8 23 12T28 18T40 22T63 25Q94 27 108 37T123 73V637Q123 663 111 668T62 677Q40 679 36 682T32 697Q32 709 35 712T52 715Q58 715 74 713T116 709Q142 706 174 704T246 702Q273 702 300 703T350 705Q373 707 391 707T417 708Q429 708 429 688Q429 659 432 644T436 615Q436 602 432 596T415 589Q405 589 401 595T391 630Q387 653 379 658T353 664H191V378H364Q389 378 399 383T411 414Q413 439 434 439Q439 439 444 436T449 422Q449 410 446 390T443 353Q443 336 446 316T449 284Q449 273 444 270T434 267Q413 267 411 292Q409 317 399 322T364 328H191V130Z"  />
<glyph unicode="F" horiz-adv-x="481" d="M123 637Q123 663 111 668T62 677Q40 679 36 682T32 697Q32 709 35 712T52 715Q58 715 74 713T116 709Q142 706 174 704T246 702Q273 702 299 703T348 705Q371 707 388 707T417 708Q426 669 436 638T447 587Q447 583 441 577T430 571Q422 571 418 572T410 577T405 590T399 613Q394 635 387 649T356 664H191V378H369Q377 378 383 389T395 436Q397 446 402 448T416 451Q421 451 427 448T433 435Q433 431 432 426T430 412T428 389T427 353Q427 337 428 327T430 310T432 299T433 290Q433 265 416 265Q409 265 403 268T395 289Q391 312 381 320T344 328H191V107Q191 88 193 75T203 51T226 35T269 25Q286 23 289 19T293 4Q293 -7 290 -10T277 -13Q242 -13 213 -7T157 0Q131 0 102 -6T37 -13Q28 -13 25 -10T21 4Q21 15 24 18T45 25Q72 29 87 36T111 52T121 73T123 102V637Z"  />
<glyph unicode="G" horiz-adv-x="778" d="M665 118Q665 87 665 56T668 -7L645 -3Q639 -2 634 -2T622 -1Q599 -1 577 -3T535 -7Q514 -9 496 -11T462 -13Q360 -13 285 13T159 89T85 210T60 370Q60 431 81 492T146 603T257 684T414 715Q483 715 539 709T650 698Q650 683 651 666T655 634T660 605T662 583Q662 573 657 570T640 567Q629 567 625 578T614 616Q612 623 607 633T584 653T529 670T427 677Q341 677 285 645T195 564T148 458T134 348Q134 273 159 214T227 115T325 53T443 31Q498 32 530 39T578 58T599 87T603 128V168Q603 202 597 209T582 218Q561 220 549 221T531 225T524 231T522 240Q522 255 524 258T535 262Q555 262 580 256T633 249Q646 249 657 251T677 255T694 260T713 262Q720 262 721 258T722 240Q722 232 717 228T683 218Q672 216 669 208T665 170V118Z"  />
<glyph unicode="H" horiz-adv-x="778" d="M116 597Q116 619 112 633T100 655T77 668T42 677Q31 679 29 682T26 699Q26 711 30 713T42 715Q57 715 88 709T150 702Q180 702 211 708T258 715Q265 715 269 713T274 699Q274 686 272 683T258 677Q237 673 223 668T201 655T188 633T184 597V378H594V597Q594 619 590 633T578 655T555 668T520 677Q509 679 507 682T504 699Q504 711 508 713T520 715Q535 715 566 709T628 702Q658 702 689 708T736 715Q743 715 747 713T752 699Q752 686 750 683T736 677Q715 673 701 668T679 655T666 633T662 597V105Q662 83 666 69T678 47T701 34T736 25Q747 23 749 20T752 3Q752 -9 748 -11T736 -13Q721 -13 690 -7T628 0Q598 0 567 -6T520 -13Q513 -13 509 -11T504 3Q504 16 506 19T520 25Q541 29 555 34T577 47T590 69T594 105V328H184V105Q184 83 188 69T200 47T223 34T258 25Q269 23 271 20T274 3Q274 -9 270 -11T258 -13Q243 -13 212 -7T150 0Q120 0 89 -6T42 -13Q35 -13 31 -11T26 3Q26 16 28 19T42 25Q63 29 77 34T99 47T112 69T116 105V597Z"  />
<glyph unicode="I" horiz-adv-x="314" d="M123 597Q123 619 119 633T107 655T84 668T49 677Q38 679 36 682T33 699Q33 711 37 713T49 715Q64 715 95 709T157 702Q187 702 218 708T265 715Q272 715 276 713T281 699Q281 686 279 683T265 677Q244 673 230 668T208 655T195 633T191 597V105Q191 83 195 69T207 47T230 34T265 25Q276 23 278 20T281 3Q281 -9 277 -11T265 -13Q250 -13 219 -7T157 0Q127 0 96 -6T49 -13Q42 -13 38 -11T33 3Q33 16 35 19T49 25Q70 29 84 34T106 47T119 69T123 105V597Z"  />
<glyph unicode="J" horiz-adv-x="296" d="M116 597Q116 619 112 633T100 655T77 668T42 677Q31 679 29 682T26 699Q26 711 30 713T42 715Q57 715 88 709T150 702Q180 702 211 708T258 715Q265 715 269 713T274 699Q274 686 272 683T258 677Q237 673 223 668T201 655T188 633T184 597V85Q184 37 175 -9T143 -91T82 -150T-12 -178V-104H17Q39 -104 57 -100T89 -83T109 -47T116 12V597Z"  />
<glyph unicode="K" horiz-adv-x="667" d="M448 636Q456 645 456 656Q456 663 447 666T403 677Q395 679 392 683T388 699Q388 715 400 715Q420 715 447 709T501 702Q530 702 554 708T598 715Q606 715 607 712T609 699Q609 688 605 684T590 677Q554 667 539 660T513 639L279 369L554 73Q586 39 609 23T648 -1T670 -9T677 -15Q677 -25 667 -27T627 -29Q605 -29 586 -24T547 -7T502 28T448 84L205 353L448 636ZM123 597Q123 619 119 633T107 655T84 668T49 677Q38 679 36 682T33 699Q33 711 37 713T49 715Q64 715 95 709T157 702Q187 702 218 708T265 715Q272 715 276 713T281 699Q281 686 279 683T265 677Q244 673 230 668T208 655T195 633T191 597V105Q191 83 195 69T207 47T230 34T265 25Q276 23 278 20T281 3Q281 -9 277 -11T265 -13Q250 -13 219 -7T157 0Q127 0 96 -6T49 -13Q42 -13 38 -11T33 3Q33 16 35 19T49 25Q70 29 84 34T106 47T119 69T123 105V597Z"  />
<glyph unicode="L" horiz-adv-x="537" d="M116 597Q116 619 112 633T100 655T77 668T42 677Q31 679 29 682T26 699Q26 711 30 713T42 715Q57 715 88 709T150 702Q180 702 211 708T258 715Q265 715 269 713T274 699Q274 686 272 683T258 677Q237 673 223 668T201 655T188 633T184 597V150Q184 109 188 87T208 53T251 40T327 37Q367 37 390 39T427 48T448 69T463 106Q468 123 472 127T490 132Q498 132 502 126T506 112Q506 106 503 94T495 65T485 28T476 -13Q404 -8 334 -4T192 0Q145 0 114 -2T62 -6T31 -11T15 -13Q7 -13 4 -10T0 5Q0 17 4 20T29 25Q59 27 76 32T103 44T114 60T116 81V597Z"  />
<glyph unicode="M" horiz-adv-x="963" d="M149 709Q151 714 154 714T162 715Q166 715 170 712T180 697L483 126L749 682Q755 695 759 705T772 715Q783 715 786 707T792 681L865 114Q870 72 885 52T936 25Q950 23 954 20T958 6Q958 -5 955 -9T940 -13Q914 -13 886 -7T837 0Q805 0 780 -6T731 -13Q718 -13 715 -10T712 9Q712 17 715 19T736 25Q776 32 786 45T797 81Q797 89 797 96T795 110L745 557H743L497 42Q489 26 486 21T475 15Q469 15 467 18T459 30L184 557H182L154 178Q152 156 151 139T150 106Q150 89 153 76T164 53T189 36T231 25Q245 23 248 20T252 6Q252 -1 247 -7T231 -13Q223 -13 211 -11T186 -7T158 -2T134 0Q123 0 109 -2T81 -6T55 -11T36 -13Q26 -13 23 -8T20 9Q20 17 22 19T34 25Q52 30 63 35T81 50T93 81T100 137L149 709Z"  />
<glyph unicode="N" horiz-adv-x="778" d="M107 699Q107 707 110 711T116 715Q123 715 129 708L619 126H621V571Q621 601 616 620T601 652T574 669T536 677Q526 679 523 681T519 694Q519 703 521 709T534 715Q559 715 584 709T640 702Q666 702 691 708T744 715Q750 715 753 711T757 696Q757 688 754 684T739 677Q716 674 703 668T682 653T673 631T671 600V-2Q671 -10 668 -14T662 -18Q655 -18 649 -11L159 574H157V131Q157 101 162 82T177 50T204 33T242 25Q252 23 255 21T259 8Q259 -1 257 -7T244 -13Q219 -13 194 -7T138 0Q112 0 87 -6T34 -13Q28 -13 25 -9T21 6Q21 14 24 18T39 25Q62 28 75 33T96 48T105 70T107 102V699Z"  />
<glyph unicode="O" horiz-adv-x="834" d="M128 351Q128 283 148 227T205 129T295 66T417 43Q484 43 538 65T629 129T686 226T706 351Q706 419 686 475T629 573T538 636T417 659Q349 659 296 637T205 573T148 476T128 351ZM60 351Q60 415 81 480T146 597T257 682T417 715Q509 715 576 683T688 598T753 480T774 351Q774 286 753 222T688 105T577 20T417 -13Q325 -13 258 19T146 104T81 221T60 351Z"  />
<glyph unicode="P" horiz-adv-x="520" d="M116 625Q116 638 113 646T102 659T79 668T42 677Q31 679 29 682T26 699Q26 711 30 713T42 715Q50 715 60 713T85 709Q100 706 121 704T174 702Q189 702 203 703T233 705Q263 708 291 708Q352 708 389 690T446 647T473 593T480 542Q480 521 474 488T445 424T381 369T267 346Q233 346 216 359T199 382Q199 385 203 385Q214 385 223 385T243 384Q277 384 308 392T364 418T403 463T418 527Q418 547 413 571T392 615T345 650T265 664H225Q197 664 191 659T184 639V147Q184 111 187 90T203 57T239 39T303 25Q311 23 313 20T316 3Q316 -4 313 -8T295 -13Q263 -13 227 -7T160 0Q147 0 131 -2T98 -6T66 -11T42 -13Q35 -13 31 -11T26 3Q26 16 28 19T42 25Q63 29 77 34T99 47T112 69T116 105V625Z"  />
<glyph unicode="Q" horiz-adv-x="834" d="M128 351Q128 283 148 227T205 129T295 66T417 43Q484 43 538 65T629 129T686 226T706 351Q706 419 686 475T629 573T538 636T417 659Q349 659 296 637T205 573T148 476T128 351ZM640 59Q598 25 543 6T417 -13Q325 -13 258 19T146 104T81 221T60 351Q60 415 81 480T146 597T257 682T417 715Q509 715 576 683T688 598T753 480T774 351Q774 285 753 219T686 102L776 12Q795 -7 809 -11T823 -23Q823 -27 810 -29L743 -31Q737 -31 734 -30T730 -29L640 59Z"  />
<glyph unicode="R" horiz-adv-x="648" d="M486 540Q486 510 477 484T452 434T415 389T370 347L531 132Q586 58 621 27T665 -9Q669 -11 674 -13T680 -21Q680 -29 659 -29Q635 -29 612 -23T564 -1T510 46T445 127L303 321Q289 319 274 318T242 316Q227 316 213 316T184 318V105Q184 83 188 69T200 47T223 34T258 25Q269 23 271 20T274 3Q274 -9 270 -11T258 -13Q243 -13 212 -7T150 0Q120 0 89 -6T42 -13Q35 -13 31 -11T26 3Q26 16 28 19T42 25Q63 29 77 34T99 47T112 69T116 105V630Q116 640 113 647T102 659T80 668T42 677Q31 679 29 682T26 699Q26 711 30 713T42 715Q48 715 57 713T78 709Q90 706 103 704T131 702Q152 702 173 703T217 705Q260 708 303 708Q388 708 437 667T486 540ZM412 519Q412 564 397 592T358 637T308 658T258 664H243Q219 664 202 661T184 650V358Q199 354 259 354Q301 354 330 369T378 408T404 461T412 519Z"  />
<glyph unicode="S" horiz-adv-x="520" d="M79 528Q79 558 88 591T122 651T189 697T298 715Q333 715 368 711T438 702V602Q438 582 435 575T423 568Q413 568 409 575T394 610Q389 622 384 633T369 655T340 671T291 677Q219 677 183 640T147 537Q147 505 160 483T194 444T244 412T302 381Q335 364 364 347T414 307T449 254T462 182Q462 151 449 117T409 54T340 6T241 -13Q200 -13 154 -7T67 8L62 76Q61 87 60 102T58 127Q58 156 79 156Q87 156 91 153T98 140Q109 82 140 57T238 31Q281 31 310 43T358 75T385 119T394 170Q394 194 389 213T368 252T323 290T246 333Q199 356 167 376T116 417T88 465T79 528Z"  />
<glyph unicode="T" horiz-adv-x="668" d="M300 658H132Q90 658 72 651T38 636Q27 630 18 624T5 618Q0 618 0 624Q0 625 3 639T9 670T16 701T22 715Q27 715 31 713T44 709Q53 706 67 704T107 702H536Q556 702 569 702T592 704T610 709T630 718Q641 724 650 730T663 736Q668 736 668 731Q668 730 665 716T659 684T652 653T647 637Q644 634 642 634Q639 634 635 637T623 645T600 654T561 658H368V105Q368 83 372 69T384 47T407 34T442 25Q453 23 455 20T458 3Q458 -9 454 -11T442 -13Q427 -13 396 -7T334 0Q304 0 273 -6T226 -13Q219 -13 215 -11T210 3Q210 16 212 19T226 25Q247 29 261 34T283 47T296 69T300 105V658Z"  />
<glyph unicode="U" horiz-adv-x="759" d="M107 485L100 630Q98 656 87 664T53 677Q41 679 39 683T36 701Q36 709 38 712T52 715Q77 715 98 709T154 702Q167 702 181 704T208 708T234 713T255 715Q263 715 266 713T269 700Q269 688 266 685T246 677Q223 671 210 666T189 654T181 637T179 611Q179 555 180 511T182 427T186 351T191 272Q198 144 251 88T392 31Q434 31 471 45T536 98T580 209T596 396V585Q596 615 594 631T586 656T568 668T538 677Q527 679 524 682T521 694Q521 708 523 711T534 715Q549 715 560 713T580 709T600 704T624 702Q653 702 674 708T718 715Q727 715 727 700Q727 689 724 685T709 677Q694 673 684 670T669 660T661 644T658 617L646 321Q643 250 630 198T596 109T550 48T497 11T442 -8T392 -13Q337 -13 289 1T204 51T144 152T115 318L107 485Z"  />
<glyph unicode="V" horiz-adv-x="684" d="M507 473Q529 527 541 557T559 604T566 628T567 644Q567 661 549 667T511 677Q497 679 495 683T492 701Q492 712 495 713T503 715Q525 715 550 709T604 702Q610 702 621 704T645 708T669 713T685 715Q691 715 693 709T695 697Q695 687 693 682T681 677Q670 677 662 674T647 661T631 634T610 587L418 126L365 -4Q361 -13 357 -16T347 -19Q340 -19 333 -4Q325 14 310 50T273 135T227 243T175 366T120 496T63 627Q57 640 53 648T43 661T28 669T4 677Q-7 680 -9 684T-11 698Q-11 710 -8 712T4 715Q9 715 18 713T40 709T64 704T85 702Q103 702 127 708T173 715Q181 715 183 714T186 702Q186 686 184 683T170 677Q155 673 144 669T132 654Q132 648 144 617T175 538T218 433T268 316T316 201T356 103L507 473Z"  />
<glyph unicode="W" horiz-adv-x="1000" d="M314 114H316L472 585L454 639Q451 646 449 651T439 659T418 667T381 677Q371 679 370 684T368 704Q368 711 371 713T380 715Q397 715 429 709T497 702Q505 702 519 704T550 708T582 713T606 715Q615 715 617 713T620 700Q620 686 618 683T604 677Q580 671 565 667T542 660T531 653T528 643Q528 640 531 631T538 608T546 582T554 558L699 114H701L855 581Q863 604 870 625T877 656Q877 662 868 667T831 677Q822 679 820 684T817 700Q817 708 820 711T832 715Q846 715 869 709T916 702Q936 702 955 708T988 715Q997 715 999 711T1001 696Q1001 686 999 683T987 677Q970 673 960 669T944 658T932 639T920 608L711 9Q705 -8 701 -13T691 -19Q686 -19 682 -14T671 9L501 516H499L326 9Q320 -8 316 -13T306 -19Q301 -19 297 -14T286 9L75 619Q68 639 57 655T17 677Q3 680 1 683T-1 700Q-1 711 1 713T15 715Q21 715 30 713T52 709T77 704T102 702Q122 702 145 708T186 715Q192 715 196 714T200 704Q200 687 198 683T182 677Q137 673 137 657Q137 649 141 637T153 602L314 114Z"  />
<glyph unicode="X" horiz-adv-x="704" d="M318 353L111 647Q102 660 87 666T43 677Q31 679 29 682T26 698Q26 710 28 712T38 715Q61 715 87 709T148 702Q161 702 175 704T202 708T225 713T242 715Q253 715 255 713T258 699Q258 688 255 684T236 677Q217 672 206 668T195 657Q195 649 200 638T220 607L358 408L514 617Q528 634 530 639T533 650Q533 661 526 666T486 677Q473 679 470 681T466 695Q466 710 469 712T481 715Q495 715 524 709T589 702Q601 702 614 704T641 708T664 713T679 715Q689 715 691 714T694 701Q694 688 691 685T671 677Q640 670 619 654T575 607L390 364L598 65Q603 57 608 52T622 42T644 33T677 25Q688 23 691 19T694 2Q694 -13 674 -13Q650 -13 626 -7T578 0Q545 0 521 -6T480 -13Q466 -13 463 -11T460 4Q460 16 463 19T479 25Q505 30 513 35T522 46Q522 59 488 107L348 305L245 171Q217 134 201 113T178 81T168 65T166 57Q166 34 219 25Q233 23 236 20T240 7Q240 -7 237 -10T222 -13Q202 -13 180 -7T126 0Q100 0 76 -6T25 -13Q15 -13 13 -9T10 6Q10 17 13 20T28 25Q45 28 56 32T77 43T98 63T125 97L318 353Z"  />
<glyph unicode="Y" horiz-adv-x="667" d="M301 280L75 629Q68 640 63 647T50 659T34 668T11 677Q1 680 -1 683T-4 699Q-4 707 -1 711T14 715Q34 715 52 709T100 702Q110 702 123 704T148 708T171 713T189 715Q199 715 201 712T203 693Q203 683 200 681T186 677Q160 672 151 668T142 655Q142 650 147 641T171 603L345 333L518 617Q529 636 533 642T537 654Q537 662 523 666T483 677Q472 680 472 694Q472 708 475 711T485 715Q501 715 524 709T573 702Q582 702 595 704T620 708T643 713T658 715Q664 715 667 713T671 694Q671 683 666 681T654 677Q634 674 618 666T592 643L369 280V105Q369 83 373 69T385 47T408 34T443 25Q454 23 456 20T459 3Q459 -9 455 -11T443 -13Q428 -13 397 -7T335 0Q305 0 274 -6T227 -13Q220 -13 216 -11T211 3Q211 16 213 19T227 25Q248 29 262 34T284 47T297 69T301 105V280Z"  />
<glyph unicode="Z" horiz-adv-x="668" d="M489 652H110Q88 652 74 649T50 642T36 634T29 627Q23 618 18 618Q14 618 14 625Q14 627 16 637L26 705Q28 715 32 715Q37 715 41 713T57 709Q69 706 92 704T160 702H579Q584 702 588 702T592 699Q592 698 584 687L119 50H553Q585 50 600 55T627 69Q635 74 638 77T644 80Q647 80 647 76Q647 73 647 70T645 62L632 -6Q631 -13 628 -13Q626 -13 622 -11T609 -6Q601 -4 586 -2T545 0H27Q17 0 17 4Q17 6 18 9T24 19L489 652Z"  />
<glyph unicode="[" horiz-adv-x="296" d="M104 715H284V671H154V-165H284V-209H104V715Z"  />
<glyph unicode="\" horiz-adv-x="352" d="M10 702Q6 715 31 715Q46 715 50 713T58 702L341 -1Q343 -6 339 -9T317 -13Q303 -13 299 -11T291 0L10 702Z"  />
<glyph unicode="]" horiz-adv-x="296" d="M142 671H12V715H192V-209H12V-165H142V671Z"  />
<glyph unicode="^" horiz-adv-x="600" d="M277 702H323L507 337H452L300 638L148 337H93L277 702Z"  />
<glyph unicode="_" horiz-adv-x="500" d="M0 -125V-75H500V-125H0Z"  />
<glyph unicode="`" horiz-adv-x="278" d="M36 638Q9 655 1 663T-7 683Q-7 701 3 710T28 720Q43 720 66 697L212 551H177L36 638Z"  />
<glyph unicode="a" horiz-adv-x="481" d="M316 274V304Q316 333 312 353T295 385T260 402T204 407Q178 407 168 405T154 394Q139 357 132 348T116 338Q105 338 99 341T92 357Q92 364 95 377T102 404T111 431T118 450Q120 457 175 457H222Q260 457 289 450T338 426T368 379T378 304V93Q378 75 391 61T418 38Q426 34 435 32T444 26Q444 17 433 6Q421 -7 415 -10T400 -13Q386 -13 373 -6T350 12T331 35T319 59Q290 24 253 6T169 -13Q141 -13 117 -6T75 17T47 54T37 106Q37 153 76 193T192 248L316 274ZM316 204Q316 219 312 224T303 230Q301 230 286 228T249 222T202 209T155 188T119 158T105 118Q105 107 108 93T121 67T147 46T191 37Q215 37 240 47T281 71Q291 80 298 88T309 108T314 134T316 171V204Z"  />
<glyph unicode="b" horiz-adv-x="556" d="M94 650Q94 662 92 666T82 670Q57 671 51 671T40 674Q34 676 34 687Q34 694 36 698T46 706L152 752Q160 756 165 756Q171 756 175 748T179 735Q179 729 176 725T168 717T160 705T156 685V345L158 343Q168 370 186 391T227 426T277 449T334 457Q358 457 388 448T444 416T488 355T506 257Q506 202 487 153T435 67T357 9T257 -13Q215 -13 185 -2T134 25T104 57T94 81V650ZM152 189Q152 165 155 137T171 83T206 42T271 25Q295 25 324 35T378 70T421 135T438 233Q438 282 426 313T394 363T351 388T305 395Q286 395 260 388T210 358T169 296T152 189Z"  />
<glyph unicode="c" horiz-adv-x="444" d="M50 197Q50 272 72 322T127 402T201 444T278 457Q315 457 340 450T379 433T400 411T406 391Q406 359 370 359Q356 359 345 367T322 386T293 404T252 413Q218 413 192 399T148 360T121 304T112 237Q112 194 123 159T155 98T205 58T271 43Q299 43 322 51T363 70T391 88T405 97Q410 97 416 91T422 78Q422 76 410 62T375 31T319 1T244 -13Q199 -13 164 4T103 50T64 117T50 197Z"  />
<glyph unicode="d" horiz-adv-x="556" d="M396 650Q396 662 394 666T384 670Q359 671 353 671T342 674Q336 676 336 687Q336 694 338 698T348 706L454 752Q462 756 467 756Q473 756 477 748T481 735Q481 729 478 725T470 717T462 705T458 685V89Q458 76 461 72T471 67Q474 67 479 69T491 75T502 80T509 83Q512 83 517 78T522 61Q522 54 515 50L424 -6Q416 -11 412 -12T403 -13Q400 -13 395 -6T389 5Q389 11 392 23T396 51V67H394Q359 31 322 9T226 -13Q201 -13 171 -4T113 28T68 92T50 194Q50 258 69 307T121 389T194 440T277 457Q351 457 394 410H396V650ZM118 205Q118 172 127 143T153 92T197 56T259 43Q286 44 310 54T354 77T384 101T396 117V328Q396 343 388 358T365 385T331 405T288 413Q258 413 228 400T174 361T134 295T118 205Z"  />
<glyph unicode="e" horiz-adv-x="481" d="M118 234V216Q118 183 126 152T153 96T199 58T265 43Q310 43 344 62T405 109Q410 114 412 114Q416 114 422 105Q428 96 429 93T431 88Q431 86 430 84T422 74Q391 36 346 12T237 -13Q187 -13 152 4T94 50T61 118T50 198Q50 244 62 290T101 374T167 434T261 457Q293 457 322 445T373 410T408 359T421 296Q421 291 419 289T409 284L118 234ZM315 307Q328 309 337 315T347 331Q347 345 341 360T322 389T292 410T254 419Q225 419 202 406T162 371T135 324T121 270L315 307Z"  />
<glyph unicode="f" horiz-adv-x="333" d="M110 368Q110 376 107 379T87 383Q75 383 72 387T68 399Q68 406 70 409T79 418Q101 433 105 439T110 457V540Q110 583 118 622T145 691T196 738T276 756Q289 756 303 754T330 745T349 730T357 707Q357 692 348 682T322 671Q312 671 302 676T281 688T260 700T239 706Q227 706 215 701T194 681T178 643T172 579V448Q172 436 182 436H319Q334 436 338 431T342 408Q342 391 338 386T319 380H172V94Q172 78 176 67T192 47T227 33T288 25Q295 24 298 21T302 7Q302 -13 276 -13Q264 -13 248 -11T215 -7T180 -2T147 0Q118 0 97 -6T60 -13Q43 -13 43 9Q43 18 46 20T55 25Q73 29 84 34T101 47T108 69T110 104V368Z"  />
<glyph unicode="g" horiz-adv-x="500" d="M474 385Q442 387 417 384T385 375Q396 361 401 338T407 290Q407 264 397 236T365 185T312 147T237 131Q218 131 206 133T178 141Q166 137 153 124T139 93Q139 70 162 60T238 44L340 32Q365 29 388 23T430 4T459 -26T470 -72Q470 -111 447 -148T384 -214T296 -260T196 -278Q151 -278 118 -267T62 -238T28 -196T17 -148Q17 -90 51 -55T137 2Q124 8 113 12T94 23T82 39T77 63Q77 81 84 95T103 119T128 137T154 150Q109 169 87 211T65 298Q65 328 77 357T111 408T164 443T236 457Q269 457 299 449T352 421Q377 431 409 433T474 435V385ZM121 293Q121 269 129 248T153 210T190 185T236 175Q255 175 275 182T312 204T340 243T351 300Q351 351 319 382T232 413Q212 413 193 405T157 382T131 344T121 293ZM79 -129Q79 -147 86 -165T110 -199T151 -224T214 -234Q247 -234 281 -223T344 -192T390 -150T408 -103Q408 -64 385 -47T314 -23Q301 -21 283 -19T248 -16T216 -13T194 -12Q169 -12 148 -21T112 -47T88 -84T79 -129Z"  />
<glyph unicode="h" horiz-adv-x="574" d="M98 650Q98 662 96 666T86 670Q61 671 55 671T44 674Q38 676 38 687Q38 694 40 698T50 706L156 752Q164 756 169 756Q175 756 179 748T183 735Q183 729 180 725T172 717T164 705T160 685V374Q175 389 192 404T228 431T269 450T313 457Q341 457 370 449T422 418T461 353T476 244V95Q476 74 478 63T487 44T507 33T543 25Q552 23 555 20T558 10Q558 -4 554 -8T543 -13Q537 -13 526 -11T502 -7T473 -2T445 0Q431 0 417 -2T389 -6T364 -11T347 -13Q340 -13 336 -9T332 10Q332 16 335 19T347 25Q369 29 382 33T403 44T412 62T414 95V236Q414 288 403 320T375 370T337 394T296 401Q275 401 251 392T207 370T174 344T160 322V95Q160 74 162 63T171 44T191 33T227 25Q236 23 239 20T242 10Q242 -4 238 -8T227 -13Q221 -13 210 -11T186 -7T157 -2T129 0Q115 0 101 -2T73 -6T48 -11T31 -13Q24 -13 20 -9T16 10Q16 16 19 19T31 25Q53 29 66 33T87 44T96 62T98 95V650Z"  />
<glyph unicode="i" horiz-adv-x="278" d="M108 356Q108 373 102 377T70 383Q51 385 47 388T43 402Q43 409 46 411T59 419L146 457Q153 460 156 461T165 463Q172 463 176 457T180 444Q180 439 175 430T170 395V95Q170 74 172 63T181 44T201 33T237 25Q246 23 249 20T252 10Q252 -4 248 -8T237 -13Q231 -13 220 -11T196 -7T167 -2T139 0Q125 0 111 -2T83 -6T58 -11T41 -13Q34 -13 30 -9T26 10Q26 16 29 19T41 25Q63 29 76 33T97 44T106 62T108 95V356ZM98 631Q98 650 111 663T144 677Q163 677 176 664T190 631Q190 612 177 599T144 585Q125 585 112 598T98 631Z"  />
<glyph unicode="j" horiz-adv-x="242" d="M90 356Q90 373 84 377T52 383Q33 385 29 388T25 402Q25 409 28 411T41 419L128 457Q135 460 138 461T147 463Q154 463 158 457T162 444Q162 439 157 430T152 395V-143Q152 -178 144 -201T101 -243Q94 -248 83 -252T61 -259T40 -263T23 -265Q15 -265 13 -254T10 -238Q10 -232 15 -230T34 -224Q59 -219 74 -206T90 -148V356ZM80 631Q80 650 93 663T126 677Q145 677 158 664T172 631Q172 612 159 599T126 585Q107 585 94 598T80 631Z"  />
<glyph unicode="k" horiz-adv-x="537" d="M178 256L375 449Q392 466 404 474T435 482Q451 482 463 472T476 445Q476 425 464 416T432 399T387 380T338 346L251 264L447 76Q469 54 484 46T526 37H534Q533 17 516 2T473 -13Q454 -13 440 -3T401 31L178 256ZM110 650Q110 662 108 666T98 670Q73 671 67 671T56 674Q50 676 50 687Q50 694 52 698T62 706L168 752Q176 756 181 756Q187 756 191 748T195 735Q195 729 192 725T184 717T176 705T172 685V95Q172 74 174 63T183 44T203 33T239 25Q248 23 251 20T254 10Q254 -4 250 -8T239 -13Q233 -13 222 -11T198 -7T169 -2T141 0Q127 0 113 -2T85 -6T60 -11T43 -13Q36 -13 32 -9T28 10Q28 16 31 19T43 25Q65 29 78 33T99 44T108 62T110 95V650Z"  />
<glyph unicode="l" horiz-adv-x="258" d="M98 650Q98 662 96 666T86 670Q61 671 55 671T44 674Q38 676 38 687Q38 694 40 698T50 706L156 752Q164 756 169 756Q175 756 179 748T183 735Q183 729 180 725T172 717T164 705T160 685V95Q160 74 162 63T171 44T191 33T227 25Q236 23 239 20T242 10Q242 -4 238 -8T227 -13Q221 -13 210 -11T186 -7T157 -2T129 0Q115 0 101 -2T73 -6T48 -11T31 -13Q24 -13 20 -9T16 10Q16 16 19 19T31 25Q53 29 66 33T87 44T96 62T98 95V650Z"  />
<glyph unicode="m" horiz-adv-x="870" d="M98 356Q98 373 92 377T60 383Q41 385 37 388T33 402Q33 409 36 411T49 419L136 457Q143 460 146 461T155 463Q162 463 166 457T170 444Q170 439 165 430T160 395V371Q175 385 192 400T230 428T271 449T316 457Q335 457 354 453T392 437T424 409T449 364Q465 380 484 396T525 426T571 448T623 457Q648 457 674 448T723 417T758 358T772 262V95Q772 74 774 63T783 44T803 33T839 25Q848 23 851 20T854 10Q854 -4 850 -8T839 -13Q833 -13 822 -11T798 -7T769 -2T741 0Q727 0 713 -2T685 -6T660 -11T643 -13Q636 -13 632 -9T628 10Q628 16 631 19T643 25Q665 29 678 33T699 44T708 62T710 95V226Q710 319 686 360T608 401Q582 401 556 392T509 371T475 348T459 330Q466 303 466 262V95Q466 74 468 63T477 44T497 33T533 25Q542 23 545 20T548 10Q548 -4 544 -8T533 -13Q527 -13 516 -11T492 -7T463 -2T435 0Q421 0 407 -2T379 -6T354 -11T337 -13Q330 -13 326 -9T322 10Q322 16 325 19T337 25Q359 29 372 33T393 44T402 62T404 95V226Q404 319 380 360T301 401Q277 401 252 391T207 368T173 342T160 322V95Q160 74 162 63T171 44T191 33T227 25Q236 23 239 20T242 10Q242 -4 238 -8T227 -13Q221 -13 210 -11T186 -7T157 -2T129 0Q115 0 101 -2T73 -6T48 -11T31 -13Q24 -13 20 -9T16 10Q16 16 19 19T31 25Q53 29 66 33T87 44T96 62T98 95V356Z"  />
<glyph unicode="n" horiz-adv-x="556" d="M98 356Q98 373 92 377T60 383Q41 385 37 388T33 402Q33 409 36 411T49 419L136 457Q143 460 146 461T155 463Q162 463 166 457T170 444Q170 439 165 430T160 395V371Q173 385 190 400T226 428T268 449T313 457Q341 457 370 449T422 418T461 353T476 244V95Q476 74 478 63T487 44T507 33T543 25Q552 23 555 20T558 10Q558 -4 554 -8T543 -13Q537 -13 526 -11T502 -7T473 -2T445 0Q431 0 417 -2T389 -6T364 -11T347 -13Q340 -13 336 -9T332 10Q332 16 335 19T347 25Q369 29 382 33T403 44T412 62T414 95V236Q414 288 403 320T375 370T337 394T296 401Q275 401 251 392T207 370T174 344T160 322V95Q160 74 162 63T171 44T191 33T227 25Q236 23 239 20T242 10Q242 -4 238 -8T227 -13Q221 -13 210 -11T186 -7T157 -2T129 0Q115 0 101 -2T73 -6T48 -11T31 -13Q24 -13 20 -9T16 10Q16 16 19 19T31 25Q53 29 66 33T87 44T96 62T98 95V356Z"  />
<glyph unicode="o" horiz-adv-x="556" d="M118 222Q118 127 163 79T278 31Q348 31 393 79T438 222Q438 317 393 365T278 413Q208 413 163 365T118 222ZM50 222Q50 280 68 324T118 397T190 442T278 457Q324 457 365 442T438 398T487 324T506 222Q506 164 488 120T438 47T366 2T278 -13Q232 -13 191 2T118 46T69 120T50 222Z"  />
<glyph unicode="p" horiz-adv-x="556" d="M94 356Q94 373 88 377T56 383Q37 385 33 388T29 402Q29 409 32 411T45 419L132 457Q139 460 142 461T151 463Q158 463 162 457T166 444Q166 439 161 430T156 395V356L158 353Q173 374 192 393T235 426T285 448T339 457Q385 457 416 441T468 397T497 335T506 264Q506 213 491 163T448 74T377 11T280 -13Q251 -13 219 -5T156 26V-181Q156 -201 161 -206T187 -214Q207 -216 211 -218T215 -235Q215 -242 213 -245T196 -252L105 -273Q94 -276 89 -277T79 -278Q74 -278 70 -272T66 -260Q66 -255 68 -251T82 -239Q89 -234 91 -225T94 -194V356ZM438 245Q438 317 405 359T313 401Q285 401 257 388T207 356T170 315T156 276V155Q156 118 168 93T199 53T239 32T277 25Q304 25 332 38T384 78T423 146T438 245Z"  />
<glyph unicode="q" horiz-adv-x="556" d="M396 70Q361 39 319 13T223 -13Q179 -13 147 2T93 43T61 104T50 180Q50 250 73 302T131 388T207 440T287 457Q319 457 348 445T396 413V453Q396 463 401 463Q402 463 406 461T419 455T442 449T477 445Q504 444 509 441T514 422Q514 403 507 399T470 395Q463 395 461 390T458 369V-181Q458 -201 463 -206T489 -214Q509 -216 513 -218T517 -235Q517 -242 515 -245T498 -252L407 -273Q396 -276 391 -277T381 -278Q376 -278 372 -272T368 -260Q368 -255 370 -251T384 -239Q391 -234 393 -225T396 -194V70ZM396 365Q396 366 390 374T372 393T340 411T293 419Q272 419 242 410T185 376T138 308T118 194Q118 161 126 134T152 86T194 55T252 43Q276 43 301 52T348 74T382 99T396 120V365Z"  />
<glyph unicode="r" horiz-adv-x="352" d="M110 370Q110 379 103 381T65 386Q48 387 45 390T42 403Q42 413 56 418L93 434Q100 437 111 441T133 451T153 459T166 463Q172 463 172 454V359H174Q197 401 237 429T329 457Q346 457 350 453T353 433V408Q353 394 352 391T343 388Q338 388 331 388T313 389Q283 389 257 380T212 356T183 322T172 284V94Q172 77 174 67T186 49T211 37T256 25Q265 23 269 20T273 9Q273 -3 269 -8T251 -13Q240 -13 211 -7T146 0Q114 0 90 -6T55 -13Q42 -13 38 -8T34 4Q34 13 37 18T52 25Q73 29 84 34T101 48T108 66T110 89V370Z"  />
<glyph unicode="s" horiz-adv-x="407" d="M49 87Q48 93 48 97T47 107Q47 124 56 130T72 136Q89 136 95 123T103 74Q104 50 131 38T196 25Q209 25 225 28T256 41T281 67T291 109Q291 139 274 156T230 185T173 206T116 230T73 266T55 327Q55 358 67 382T100 423T150 448T213 457Q234 457 255 456T292 453T318 449T328 443Q329 424 330 401T331 367Q331 344 327 335T311 325Q304 325 299 327T291 336T286 357T281 396Q280 405 260 412T217 419Q186 419 166 411T133 390T116 364T111 340Q111 315 129 301T174 275T232 254T290 229T335 190T353 128Q353 99 345 74T317 29T264 -1T182 -13Q168 -13 151 -12T117 -9T87 -6T70 -3Q61 -2 60 9L49 87Z"  />
<glyph unicode="t" horiz-adv-x="333" d="M90 360Q90 373 86 377T62 384Q42 386 37 390T32 405Q32 416 38 420T65 432Q74 435 79 438T89 449T96 469T103 503Q106 521 108 531T114 546T123 553T137 555Q144 555 147 554T153 546T155 528T156 494Q156 459 159 448T176 436Q188 436 205 436T240 438T274 439T300 440Q315 440 320 434T326 410Q326 394 318 387T296 380H171Q160 380 156 373T152 344V150Q152 115 157 94T172 62T196 47T227 43Q246 43 262 48T291 61T310 73T319 79Q326 79 331 74T337 59Q337 54 327 42T299 18T258 -3T207 -13Q185 -13 164 -7T127 16T100 59T90 128V360Z"  />
<glyph unicode="u" horiz-adv-x="556" d="M98 360Q98 366 97 370T90 376T74 380T44 383Q39 383 37 387T35 402Q35 409 38 411T51 419L132 453Q149 461 154 462T162 463Q166 463 169 455T173 441Q173 436 167 420T160 377V165Q160 123 170 99T195 63T226 47T253 43Q277 43 302 52T349 73T383 99T396 121V370Q396 378 394 381T382 385Q356 387 349 390T341 401Q341 413 342 417T346 423Q348 425 365 427T410 438Q417 440 427 444T446 453T463 460T471 463Q476 463 481 457T487 446Q487 440 483 435T473 423T463 408T458 387V97Q458 80 462 77T471 73Q479 73 491 80T507 87Q511 87 516 79T521 64Q521 56 500 43L433 2Q410 -13 406 -13Q399 -13 393 -4T386 11Q386 15 391 24T396 52V68Q380 53 362 39T324 13T282 -6T236 -13Q197 -13 171 3T129 42T105 93T98 144V360Z"  />
<glyph unicode="v" horiz-adv-x="519" d="M292 24Q282 4 273 -4T257 -13Q249 -13 244 -7T234 8L70 356Q58 382 50 391T30 402Q22 404 19 407T15 422Q15 429 19 436T29 444Q38 444 53 441T81 438Q112 438 133 447T174 457Q180 457 184 453T189 435Q189 429 181 425T162 417T144 405T135 384Q135 377 141 357T158 309T183 250T211 189L266 76L372 309Q380 328 390 349T400 385Q400 394 390 400T368 413T345 424T335 436Q335 442 339 449T351 457Q362 457 385 448T447 438Q462 438 473 441T492 444Q500 444 504 440T509 422Q509 414 501 411T482 403Q476 401 467 389T438 334L292 24Z"  />
<glyph unicode="w" horiz-adv-x="852" d="M92 311Q69 358 55 376T38 397Q34 400 29 401T18 405T10 410T6 421Q6 430 10 437T22 444Q31 444 46 441T74 438Q107 438 130 447T170 457Q176 457 180 449T184 435Q184 427 176 423T157 415T139 404T130 382Q130 363 141 340L265 75L374 298Q385 321 391 339T398 379Q398 395 384 402T340 419Q329 422 326 424T322 431Q322 439 324 448T332 457Q350 457 374 451T425 444Q456 444 476 450T520 457Q532 457 532 437Q532 424 516 419Q492 411 479 406T466 386Q466 382 467 376T472 357T485 322T509 264L584 80L678 266Q696 300 706 321T721 355T728 373T730 383Q730 394 722 401T687 419Q682 421 677 423T672 431Q672 437 675 447T686 457Q691 457 712 451T766 444Q788 444 803 450T832 457Q840 457 843 450T846 436Q846 428 841 426T830 419Q818 411 809 400T792 375Q777 347 754 300T704 202T651 101T604 21Q593 5 587 -4T575 -13Q567 -13 561 -8T552 6L431 313L290 22Q282 6 272 -3T256 -13Q250 -13 244 -7T228 20L92 311Z"  />
<glyph unicode="x" horiz-adv-x="519" d="M98 377Q84 393 70 402T34 419Q17 425 17 433Q17 444 21 450T31 457Q38 457 45 455T59 451T77 446T101 444Q130 444 148 450T174 457Q182 457 186 450T190 434Q190 426 176 419Q159 410 159 402Q159 399 160 395T167 383T180 365T204 336L263 264L319 337Q333 357 343 373T354 396Q354 412 339 419Q327 424 325 427T323 437Q323 444 327 450T339 457Q351 457 368 451T406 444Q435 444 452 450T480 457Q494 457 494 442Q494 432 490 427T475 419Q453 413 438 401T402 363L295 229L389 115Q409 90 424 75T450 49T471 34T491 25Q497 23 502 20T508 12Q508 5 505 -4T490 -13Q474 -13 459 -7T415 0Q389 0 374 -6T353 -13Q350 -13 343 -7T336 7Q336 14 338 17T351 25Q360 29 362 33T364 41Q364 54 340 85L259 187L212 130Q194 108 183 93T166 69T157 54T155 45Q155 37 157 33T167 25Q182 19 182 9Q182 3 178 -5T167 -13Q156 -13 141 -7T96 0Q73 0 58 -6T25 -13Q17 -13 14 -7T10 8Q10 14 13 18T33 25Q50 29 67 39T105 75L226 225L98 377Z"  />
<glyph unicode="y" horiz-adv-x="556" d="M181 139Q142 215 117 265T75 347T45 394T17 419Q6 426 4 428T1 436Q1 442 4 449T17 457Q28 457 45 451T96 444Q128 444 146 450T175 457Q180 457 184 452T188 436Q188 431 183 428T164 419Q146 411 138 406T130 391Q130 386 132 378T141 356T158 320T186 264L284 64L396 278Q412 308 421 327T435 358T441 375T442 384Q442 395 434 401T397 419Q383 424 383 437Q383 442 387 449T400 457Q403 457 412 455T432 451T455 446T475 444Q498 444 514 450T547 457Q557 457 557 436Q557 431 553 428T538 419Q533 416 524 407T502 375Q493 359 471 318T420 223T357 106T291 -14Q244 -100 208 -149T144 -225T93 -258T49 -265Q34 -265 27 -255T20 -206Q20 -199 25 -195T52 -191Q77 -191 94 -187T126 -172T156 -140T195 -85Q209 -65 222 -43T249 5L181 139Z"  />
<glyph unicode="z" horiz-adv-x="520" d="M368 388H191Q154 388 129 384T87 376T62 368T53 364Q45 364 45 371Q45 372 46 380T50 400T54 422T59 443Q61 450 68 450Q85 450 118 447Q134 446 153 445T194 444H333Q348 444 365 445T400 447Q417 449 430 449T449 450Q457 450 460 443T463 427Q463 418 436 388L133 56H342Q385 56 413 59T459 66T484 73T493 76Q500 76 500 70Q500 65 498 53T493 28T486 4T476 -6Q473 -6 469 -5T454 -3Q443 -2 426 -1T376 0H164Q133 0 115 0T85 -3Q74 -4 69 -5T59 -6Q54 -6 47 -2T40 17Q40 24 43 29T54 42L368 388Z"  />
<glyph unicode="{" horiz-adv-x="296" d="M120 129Q120 155 117 174T106 209T82 234T44 253Q67 261 82 271T105 297T117 331T120 377V564Q120 612 130 642T157 688T199 709T252 715V701Q204 691 187 660T170 572V393Q170 364 167 342T156 303T131 273T89 254V252Q115 244 131 233T155 204T167 164T170 113V-66Q170 -123 187 -154T252 -195V-209Q223 -209 199 -204T158 -182T130 -136T120 -58V129Z"  />
<glyph unicode="|" horiz-adv-x="222" d="M86 756H136V-13H86V756Z"  />
<glyph unicode="}" horiz-adv-x="296" d="M126 113Q126 141 129 163T140 203T165 232T207 252V254Q181 261 165 273T141 302T129 342T126 393V572Q126 629 109 660T44 701V715Q73 715 97 710T138 688T166 642T176 564V377Q176 351 179 332T190 297T214 272T252 254V252Q229 244 214 234T191 209T179 175T176 129V-58Q176 -106 166 -136T139 -182T97 -203T44 -209V-195Q92 -185 109 -154T126 -66V113Z"  />
<glyph unicode="~" horiz-adv-x="600" d="M69 226Q77 242 88 257T115 285T149 304T194 312Q222 312 252 302T312 278Q341 265 364 255T407 244Q430 244 454 266T495 316L531 280Q520 264 508 249T481 221T448 202T406 194Q374 194 348 204T296 228Q270 241 245 251T189 262Q161 262 139 240T105 190L69 226Z"  />
<glyph unicode="&#xA0;" horiz-adv-x="260" />
<glyph unicode="&#xA1;" horiz-adv-x="296" d="M165 304Q168 242 172 169T180 26T188 -104T191 -201Q191 -207 190 -218T185 -239T171 -257T146 -265Q119 -265 112 -246T105 -204Q105 -171 107 -113T113 13T121 154T131 287L165 304ZM200 405Q200 383 185 368T148 353Q126 353 111 368T96 405Q96 427 111 442T148 457Q170 457 185 442T200 405Z"  />
<glyph unicode="&#xA2;" horiz-adv-x="520" d="M229 58Q259 43 295 43Q323 43 346 51T387 70T415 88T429 97Q434 97 440 91T446 78Q446 76 434 62T399 31T343 1T268 -13Q251 -13 237 -11T208 -1L179 -85Q177 -91 174 -94T163 -97Q157 -97 150 -95T143 -88Q143 -80 147 -72L176 11Q127 37 101 87T74 197Q74 272 96 322T151 402T225 444T302 457Q310 457 317 457T330 455L353 523Q355 528 358 531T371 535Q380 535 384 531T389 523Q389 519 385 510L364 450Q402 439 416 422T430 391Q430 359 394 359Q379 359 368 368T344 389L229 58ZM313 406Q305 409 296 411T276 413Q242 413 216 399T172 360T145 304T136 237Q136 186 152 145T199 78L313 406Z"  />
<glyph unicode="&#xA3;" horiz-adv-x="520" d="M123 376Q114 397 106 416T90 455T79 494T75 538Q75 568 86 599T125 656T195 698T303 715Q336 715 369 710T434 703Q435 678 437 652T439 591Q439 583 436 573T421 563Q414 563 408 571T392 609Q384 630 374 642T351 661T322 669T287 671Q256 671 230 663T184 638T154 597T143 541Q143 512 148 490T160 450T177 414T196 376H353Q367 376 370 373T374 353Q374 343 369 338T343 332H210Q215 312 217 293T219 255Q219 199 197 151T139 64V62Q155 64 174 66T220 69Q239 69 254 68T284 66T314 63T348 62Q361 62 373 65T398 79T427 110T460 165Q464 173 468 176T482 179Q488 179 493 174T498 162Q498 155 490 139T469 99T445 46T423 -13Q401 -6 366 -1T287 7Q244 10 197 11T102 13Q100 11 96 7T85 -3Q79 -7 71 -10T53 -13Q22 -13 22 9Q22 27 45 39T98 58Q112 81 123 102T141 145T153 190T157 241Q157 261 153 286T141 332H64Q53 332 49 336T45 351Q45 367 49 371T65 376H123Z"  />
<glyph unicode="&#xA4;" horiz-adv-x="520" d="M66 198Q12 265 12 351Q12 392 24 432T68 504L12 561L50 599L106 544Q139 572 180 585T263 599Q303 599 342 586T414 544L470 599L508 561L454 507Q483 474 495 434T508 351Q508 310 496 271T455 197L508 141L470 103L417 161Q383 131 344 117T262 103Q218 103 178 116T103 161L50 103L12 141L66 198ZM68 351Q68 310 83 274T124 211T186 169T262 153Q302 153 337 169T397 212T437 275T452 351Q452 391 438 427T398 490T338 533T263 549Q222 549 186 534T124 491T83 428T68 351Z"  />
<glyph unicode="&#xA5;" horiz-adv-x="520" d="M230 184H68Q61 184 61 191V220Q61 228 68 228H230V296L221 314H68Q61 314 61 321V350Q61 358 68 358H200L57 629Q42 657 28 664T-12 677Q-20 679 -22 683T-24 699Q-24 710 -21 712T-9 715Q18 715 38 709T81 702Q99 702 120 708T157 715Q174 715 174 698Q174 681 165 677Q146 673 135 671T119 666T113 663T111 660Q111 649 139 594L264 346L383 577Q395 600 401 614T411 636T416 647T417 653Q417 660 407 664T365 677Q359 679 357 682T355 697Q355 708 357 711T364 715Q391 715 413 709T456 702Q460 702 470 704T491 708T513 713T530 715Q540 715 542 710T544 697Q544 687 540 683T533 677Q515 673 504 671T485 664T473 652T461 632L320 358H455Q462 358 462 350V321Q462 314 455 314H300L292 296V228H455Q462 228 462 220V191Q462 184 455 184H292V105Q292 83 296 69T308 47T331 34T366 25Q377 23 379 20T382 3Q382 -9 378 -11T366 -13Q358 -13 346 -11T320 -7T291 -2T261 0Q247 0 232 -2T202 -6T176 -11T156 -13Q149 -13 145 -11T140 3Q140 16 142 19T156 25Q177 29 191 34T213 47T226 69T230 105V184Z"  />
<glyph unicode="&#xA6;" horiz-adv-x="222" d="M86 270H136V-13H86V270ZM86 756H136V473H86V756Z"  />
<glyph unicode="&#xA7;" horiz-adv-x="519" d="M370 715Q381 715 392 713T413 706T429 692T435 669Q435 648 423 640T391 632Q381 632 371 636T349 645T323 655T292 659Q274 659 260 651T235 629T220 599T215 568Q215 530 232 490T274 406T329 319T384 229T427 139T444 49Q444 -4 426 -61T371 -167T283 -246T163 -278Q152 -278 140 -276T118 -269T101 -255T94 -233Q94 -217 106 -208T133 -198Q144 -198 157 -202T183 -213T210 -223T236 -228Q268 -228 287 -205T306 -153Q306 -111 290 -68T249 18T196 107T143 196T102 286T85 376Q85 456 112 519T182 625T275 692T370 715ZM183 529Q183 546 185 562T194 593L192 595Q162 555 149 514T135 417Q135 373 150 329T189 240T239 152T290 67T328 -16T344 -95Q344 -115 340 -135T329 -172L331 -174Q363 -134 378 -90T394 18Q394 66 379 109T340 193T289 273T238 353T199 437T183 529Z"  />
<glyph unicode="&#xA8;" horiz-adv-x="278" d="M191 628Q191 646 205 660T237 674Q255 674 269 660T283 628Q283 610 269 596T237 582Q219 582 205 596T191 628ZM-5 628Q-5 646 8 660T41 674Q59 674 73 660T87 628Q87 610 73 596T41 582Q22 582 9 596T-5 628Z"  />
<glyph unicode="&#xA9;" horiz-adv-x="800" d="M559 181Q558 177 554 175T533 167Q514 161 487 156T422 150Q377 150 336 161T265 197T216 262T197 359Q197 392 211 428T254 493T326 542T428 562Q459 562 482 558T535 544Q549 539 554 534T560 521V448H546Q545 465 539 481T518 509T480 528T422 536Q383 536 354 523T305 486T275 431T265 363Q265 323 275 289T305 229T357 190T431 176Q460 176 481 182T519 200T545 226T562 258H577L559 181ZM36 351Q36 426 64 492T142 608T258 686T400 715Q475 715 541 687T657 609T735 493T764 351Q764 276 736 210T658 94T542 16T400 -13Q325 -13 259 15T143 93T65 209T36 351ZM86 351Q86 282 110 222T176 119T275 50T400 25Q467 25 524 50T624 118T690 222T714 351Q714 420 690 480T624 583T525 652T400 677Q333 677 276 652T176 584T110 480T86 351Z"  />
<glyph unicode="&#xAA;" horiz-adv-x="313" d="M245 477Q245 466 253 457T271 444Q276 442 282 440T289 431Q289 426 282 419Q274 411 270 409T260 407Q242 407 227 422T207 450Q188 430 164 419T110 407Q73 407 49 425T24 479Q24 513 49 537T124 572L195 587V610Q195 625 194 635T186 652T168 661T135 664Q118 664 112 663T103 656Q98 646 91 639T78 631Q59 631 59 642Q59 646 61 654T66 670T71 686T76 698Q78 702 113 702H144Q193 702 219 682T245 604V477ZM195 537Q195 545 193 547T186 549Q179 549 162 547T126 538T94 519T80 486Q80 472 88 459T120 445Q152 445 173 462T195 503V537Z"  />
<glyph unicode="&#xAB;" horiz-adv-x="426" d="M57 235L166 392H215L109 235L215 84H166L57 235ZM205 235L314 392H363L257 235L363 84H314L205 235Z"  />
<glyph unicode="&#xAC;" horiz-adv-x="600" d="M497 325H47V375H553V108H497V325Z"  />
<glyph unicode="&#xAD;" horiz-adv-x="333" d="M52 269H281V207H52V269Z"  />
<glyph unicode="&#xAE;" horiz-adv-x="800" d="M344 212Q344 202 345 196T351 187T366 181T397 178V164H229V178Q262 179 269 185T276 215V500Q276 512 275 518T269 529T255 534T229 537V551H410Q433 551 455 546T495 529T523 499T534 457Q534 414 509 386T448 345L521 234Q539 206 555 194T595 178V164H538Q518 164 506 172T487 190L391 336H344V212ZM344 356H392Q472 356 472 452Q472 497 447 514T388 531H344V356ZM36 351Q36 426 64 492T142 608T258 686T400 715Q475 715 541 687T657 609T735 493T764 351Q764 276 736 210T658 94T542 16T400 -13Q325 -13 259 15T143 93T65 209T36 351ZM86 351Q86 282 110 222T176 119T275 50T400 25Q467 25 524 50T624 118T690 222T714 351Q714 420 690 480T624 583T525 652T400 677Q333 677 276 652T176 584T110 480T86 351Z"  />
<glyph unicode="&#xAF;" horiz-adv-x="278" d="M6 653H272V603H6V653Z"  />
<glyph unicode="&#xB0;" horiz-adv-x="400" d="M57 572Q57 602 68 628T98 673T144 704T200 715Q230 715 256 704T301 674T332 628T343 572Q343 542 332 516T302 471T256 440T200 429Q170 429 144 440T99 470T68 516T57 572ZM95 572Q95 550 103 531T125 498T159 475T200 467Q222 467 241 475T274 497T296 531T305 572Q305 594 297 613T274 646T241 668T200 677Q178 677 159 669T126 646T103 613T95 572Z"  />
<glyph unicode="&#xB1;" horiz-adv-x="600" d="M275 512H325V329H553V279H325V96H275V279H47V329H275V512ZM47 50H553V0H47V50Z"  />
<glyph unicode="&#xB2;" horiz-adv-x="337" d="M18 294Q67 344 106 385T173 461T216 526T231 586Q231 597 228 611T215 637T191 657T153 665Q136 665 121 660T92 646T72 622T64 590Q64 588 59 584T48 579Q37 579 35 584T32 595Q32 652 66 683T158 715Q194 715 218 705T258 677T280 640T287 599Q287 557 265 518T209 442T139 373T74 314H194Q204 314 211 315T226 320T240 333T257 357Q270 379 276 383T290 388Q294 388 297 386T301 379Q301 375 296 365T282 339T265 306T250 270Q246 272 238 274Q230 276 228 276H18V294Z"  />
<glyph unicode="&#xB3;" horiz-adv-x="337" d="M71 529Q89 525 107 523T143 520Q163 520 181 525T214 539T237 562T246 593Q246 628 222 646T159 665Q133 665 115 658T86 641T70 619T65 598Q65 597 63 591T50 585Q39 585 36 594T33 613Q33 636 42 654T69 686T108 707T158 715Q183 715 206 708T246 687T274 654T284 610Q284 577 265 552T211 512V510Q259 497 281 472T304 401Q304 371 292 347T258 306T209 280T150 270Q109 270 83 279T42 302T20 333T14 368Q14 377 18 385T40 393Q62 393 66 385T70 364Q70 332 92 314T147 296Q165 296 184 302T218 320T244 350T254 393Q254 440 221 461T134 482Q96 482 54 471L71 529Z"  />
<glyph unicode="&#xB4;" horiz-adv-x="278" d="M212 697Q235 720 250 720Q264 720 274 711T285 683Q285 672 277 664T242 638L101 551H66L212 697Z"  />
<glyph unicode="&#xB5;" horiz-adv-x="556" d="M458 97Q458 80 462 77T471 73Q479 73 491 80T507 87Q511 87 516 79T521 64Q521 56 500 43L433 2Q410 -13 406 -13Q399 -13 393 -4T386 11Q386 15 391 24T396 52V68Q380 53 362 39T324 13T282 -6T236 -13Q210 -13 190 -6T156 14Q156 -21 157 -58T158 -130T160 -195T161 -245Q161 -265 126 -265Q106 -265 99 -262T91 -242Q91 -221 92 -179T94 -83T97 27T98 136V360Q98 366 97 370T90 376T74 380T44 383Q39 383 37 387T35 402Q35 409 38 411T51 419L132 453Q149 461 154 462T162 463Q166 463 169 455T173 441Q173 436 167 420T160 377V165Q160 123 170 99T195 63T226 47T253 43Q277 43 302 52T349 73T383 99T396 121V370Q396 378 394 381T382 385Q356 387 349 390T341 401Q341 423 346 423Q348 423 355 424T372 428T392 432T410 438Q417 440 427 444T446 453T463 460T471 463Q476 463 481 457T487 446Q487 440 483 435T473 423T463 408T458 387V97Z"  />
<glyph unicode="&#xB6;" horiz-adv-x="600" d="M255 683Q221 683 196 676T153 650T127 599T118 515Q118 465 129 431T159 376T203 346T255 336V683ZM255 304Q201 304 162 319T99 363T62 430T50 517Q50 569 61 606T98 668T163 703T259 715H499V697L464 693Q448 691 439 689T424 681T416 665T414 639V-198Q414 -215 417 -225T429 -242T455 -251T499 -258V-278H364V683H305V-278H170V-258Q197 -255 214 -252T240 -242T252 -226T255 -198V304Z"  />
<glyph unicode="&#xB7;" horiz-adv-x="260" d="M78 301Q78 323 93 338T130 353Q152 353 167 338T182 301Q182 279 167 264T130 249Q108 249 93 264T78 301Z"  />
<glyph unicode="&#xB8;" horiz-adv-x="278" d="M162 0H197L167 -66Q175 -64 184 -62T201 -60Q232 -60 255 -78T279 -129Q279 -168 248 -190T158 -213Q138 -213 117 -210T76 -198L90 -168Q105 -173 121 -177T155 -181Q175 -181 193 -171T211 -138Q211 -118 198 -108T167 -98Q145 -98 135 -104L118 -99L162 0Z"  />
<glyph unicode="&#xB9;" horiz-adv-x="337" d="M145 653L99 622Q77 607 68 601T53 595Q49 595 45 599T41 607Q41 611 45 613T55 621L190 715L208 710Q203 691 202 672T201 634V359Q201 323 209 311T250 296Q273 294 277 293T282 287Q282 270 269 270Q259 270 236 273T175 276Q137 276 115 273T77 270Q59 270 59 284Q59 291 63 292T90 296Q108 297 118 300T135 310T143 331T145 365V653Z"  />
<glyph unicode="&#xBA;" horiz-adv-x="361" d="M181 664Q139 664 111 636T82 554Q82 501 110 473T181 445Q222 445 250 473T279 554Q279 608 251 636T181 664ZM181 702Q211 702 238 693T285 666T317 619T329 554Q329 517 317 490T285 444T238 416T181 407Q151 407 124 416T76 443T44 489T32 554Q32 591 44 619T76 665T123 693T181 702Z"  />
<glyph unicode="&#xBB;" horiz-adv-x="426" d="M169 235L63 392H112L221 235L112 84H63L169 235ZM317 235L211 392H260L369 235L260 84H211L317 235Z"  />
<glyph unicode="&#xBC;" horiz-adv-x="778" d="M639 421Q648 433 652 436T667 439Q682 439 682 427Q682 418 681 402T680 363V156H737V112H680V59Q680 42 678 28T667 0H609Q619 14 621 27T624 58V112H456Q434 112 429 117T424 130Q424 135 431 145L479 207L639 421ZM624 156V353H622L480 156H624ZM145 653L99 622Q77 607 68 601T53 595Q49 595 45 599T41 607Q41 611 45 613T55 621L190 715L208 710Q203 691 202 672T201 634V359Q201 323 209 311T250 296Q273 294 277 293T282 287Q282 270 269 270Q259 270 236 273T175 276Q137 276 115 273T77 270Q59 270 59 284Q59 291 63 292T90 296Q108 297 118 300T135 310T143 331T145 365V653ZM616 728H657L202 -26H161L616 728Z"  />
<glyph unicode="&#xBD;" horiz-adv-x="778" d="M145 653L99 622Q77 607 68 601T53 595Q49 595 45 599T41 607Q41 611 45 613T55 621L190 715L208 710Q203 691 202 672T201 634V359Q201 323 209 311T250 296Q273 294 277 293T282 287Q282 270 269 270Q259 270 236 273T175 276Q137 276 115 273T77 270Q59 270 59 284Q59 291 63 292T90 296Q108 297 118 300T135 310T143 331T145 365V653ZM596 728H637L182 -26H141L596 728ZM454 18Q503 68 542 109T609 185T652 250T667 310Q667 321 664 335T651 361T627 381T589 389Q572 389 557 384T528 370T508 346T500 314Q500 312 495 308T484 303Q473 303 471 308T468 319Q468 376 502 407T594 439Q630 439 654 429T694 401T716 364T723 323Q723 281 701 242T645 166T575 97T510 38H630Q640 38 647 39T662 44T676 57T693 81Q706 103 712 107T726 112Q730 112 733 110T737 103Q737 99 732 89T718 63T701 30T686 -6Q682 -4 674 -2Q666 0 664 0H454V18Z"  />
<glyph unicode="&#xBE;" horiz-adv-x="778" d="M639 421Q648 433 652 436T667 439Q682 439 682 427Q682 418 681 402T680 363V156H737V112H680V59Q680 42 678 28T667 0H609Q619 14 621 27T624 58V112H456Q434 112 429 117T424 130Q424 135 431 145L479 207L639 421ZM624 156V353H622L480 156H624ZM616 728H657L202 -26H161L616 728ZM71 529Q89 525 107 523T143 520Q163 520 181 525T214 539T237 562T246 593Q246 628 222 646T159 665Q133 665 115 658T86 641T70 619T65 598Q65 597 63 591T50 585Q39 585 36 594T33 613Q33 636 42 654T69 686T108 707T158 715Q183 715 206 708T246 687T274 654T284 610Q284 577 265 552T211 512V510Q259 497 281 472T304 401Q304 371 292 347T258 306T209 280T150 270Q109 270 83 279T42 302T20 333T14 368Q14 377 18 385T40 393Q62 393 66 385T70 364Q70 332 92 314T147 296Q165 296 184 302T218 320T244 350T254 393Q254 440 221 461T134 482Q96 482 54 471L71 529Z"  />
<glyph unicode="&#xBF;" horiz-adv-x="464" d="M44 233Q59 247 81 258T127 276T175 287T219 291Q268 291 306 277T369 238T407 183T420 117Q420 78 405 51T366 5T317 -30T267 -58T229 -87T213 -123Q213 -155 233 -171T288 -187Q296 -187 302 -187T314 -185L323 -193L239 -271Q220 -257 203 -243T173 -214T153 -181T145 -141Q145 -109 163 -87T208 -49T266 -17T325 16T370 59T388 121Q388 138 381 159T355 200T306 233T228 247Q192 247 150 232T81 187L44 233ZM296 405Q296 383 281 368T244 353Q222 353 207 368T192 405Q192 427 207 442T244 457Q266 457 281 442T296 405Z"  />
<glyph unicode="&#xC0;" horiz-adv-x="722" d="M243 280Q240 273 233 255T216 215T196 167T177 119T163 80T157 57Q157 46 172 38T202 25Q215 21 218 17T221 6Q221 -13 206 -13Q202 -13 190 -11T162 -7T133 -2T110 0Q97 0 87 -2T67 -6T46 -11T18 -13Q11 -13 7 -8T2 4Q2 24 22 25Q54 26 76 48T120 122Q165 228 204 322T275 490T326 618T355 697Q357 705 361 710T371 715Q381 715 384 704Q387 693 402 651T440 549T490 419T543 281T593 158T632 69Q641 49 659 39T694 25Q708 22 714 20T720 6Q720 -3 716 -8T705 -13Q681 -13 654 -7T608 0Q596 0 582 -2T555 -6T532 -11T517 -13Q501 -13 501 1Q501 14 504 18T521 25Q536 27 547 35T558 56Q558 57 549 82T526 142T497 215T472 280H243ZM262 324H455L362 575L262 324ZM258 836Q231 853 223 861T215 881Q215 899 225 908T250 918Q265 918 288 895L434 749H399L258 836Z"  />
<glyph unicode="&#xC1;" horiz-adv-x="722" d="M243 280Q240 273 233 255T216 215T196 167T177 119T163 80T157 57Q157 46 172 38T202 25Q215 21 218 17T221 6Q221 -13 206 -13Q202 -13 190 -11T162 -7T133 -2T110 0Q97 0 87 -2T67 -6T46 -11T18 -13Q11 -13 7 -8T2 4Q2 24 22 25Q54 26 76 48T120 122Q165 228 204 322T275 490T326 618T355 697Q357 705 361 710T371 715Q381 715 384 704Q387 693 402 651T440 549T490 419T543 281T593 158T632 69Q641 49 659 39T694 25Q708 22 714 20T720 6Q720 -3 716 -8T705 -13Q681 -13 654 -7T608 0Q596 0 582 -2T555 -6T532 -11T517 -13Q501 -13 501 1Q501 14 504 18T521 25Q536 27 547 35T558 56Q558 57 549 82T526 142T497 215T472 280H243ZM262 324H455L362 575L262 324ZM434 895Q457 918 472 918Q486 918 496 909T507 881Q507 870 499 862T464 836L323 749H288L434 895Z"  />
<glyph unicode="&#xC2;" horiz-adv-x="722" d="M243 280Q240 273 233 255T216 215T196 167T177 119T163 80T157 57Q157 46 172 38T202 25Q215 21 218 17T221 6Q221 -13 206 -13Q202 -13 190 -11T162 -7T133 -2T110 0Q97 0 87 -2T67 -6T46 -11T18 -13Q11 -13 7 -8T2 4Q2 24 22 25Q54 26 76 48T120 122Q165 228 204 322T275 490T326 618T355 697Q357 705 361 710T371 715Q381 715 384 704Q387 693 402 651T440 549T490 419T543 281T593 158T632 69Q641 49 659 39T694 25Q708 22 714 20T720 6Q720 -3 716 -8T705 -13Q681 -13 654 -7T608 0Q596 0 582 -2T555 -6T532 -11T517 -13Q501 -13 501 1Q501 14 504 18T521 25Q536 27 547 35T558 56Q558 57 549 82T526 142T497 215T472 280H243ZM262 324H455L362 575L262 324ZM511 751L509 749H478L361 854L244 749H213L211 751L333 918H389L511 751Z"  />
<glyph unicode="&#xC3;" horiz-adv-x="722" d="M243 280Q240 273 233 255T216 215T196 167T177 119T163 80T157 57Q157 46 172 38T202 25Q215 21 218 17T221 6Q221 -13 206 -13Q202 -13 190 -11T162 -7T133 -2T110 0Q97 0 87 -2T67 -6T46 -11T18 -13Q11 -13 7 -8T2 4Q2 24 22 25Q54 26 76 48T120 122Q165 228 204 322T275 490T326 618T355 697Q357 705 361 710T371 715Q381 715 384 704Q387 693 402 651T440 549T490 419T543 281T593 158T632 69Q641 49 659 39T694 25Q708 22 714 20T720 6Q720 -3 716 -8T705 -13Q681 -13 654 -7T608 0Q596 0 582 -2T555 -6T532 -11T517 -13Q501 -13 501 1Q501 14 504 18T521 25Q536 27 547 35T558 56Q558 57 549 82T526 142T497 215T472 280H243ZM262 324H455L362 575L262 324ZM199 775Q206 816 233 845T305 874Q323 874 341 866T377 847Q393 839 408 832T439 825Q459 825 473 840T495 877H523Q518 858 510 840T488 807T457 784T417 775Q397 775 379 782T344 799Q327 807 311 814T280 822Q259 822 245 809T225 775H199Z"  />
<glyph unicode="&#xC4;" horiz-adv-x="722" d="M243 280Q240 273 233 255T216 215T196 167T177 119T163 80T157 57Q157 46 172 38T202 25Q215 21 218 17T221 6Q221 -13 206 -13Q202 -13 190 -11T162 -7T133 -2T110 0Q97 0 87 -2T67 -6T46 -11T18 -13Q11 -13 7 -8T2 4Q2 24 22 25Q54 26 76 48T120 122Q165 228 204 322T275 490T326 618T355 697Q357 705 361 710T371 715Q381 715 384 704Q387 693 402 651T440 549T490 419T543 281T593 158T632 69Q641 49 659 39T694 25Q708 22 714 20T720 6Q720 -3 716 -8T705 -13Q681 -13 654 -7T608 0Q596 0 582 -2T555 -6T532 -11T517 -13Q501 -13 501 1Q501 14 504 18T521 25Q536 27 547 35T558 56Q558 57 549 82T526 142T497 215T472 280H243ZM262 324H455L362 575L262 324ZM413 826Q413 844 427 858T459 872Q477 872 491 858T505 826Q505 808 491 794T459 780Q441 780 427 794T413 826ZM217 826Q217 844 230 858T263 872Q281 872 295 858T309 826Q309 808 295 794T263 780Q244 780 231 794T217 826Z"  />
<glyph unicode="&#xC5;" horiz-adv-x="722" d="M243 280Q240 273 233 255T216 215T196 167T177 119T163 80T157 57Q157 46 172 38T202 25Q215 21 218 17T221 6Q221 -13 206 -13Q202 -13 190 -11T162 -7T133 -2T110 0Q97 0 87 -2T67 -6T46 -11T18 -13Q11 -13 7 -8T2 4Q2 24 22 25Q54 26 76 48T120 122Q165 228 204 322T275 490T326 618T355 697Q357 705 361 710T371 715Q381 715 384 704Q387 693 402 651T440 549T490 419T543 281T593 158T632 69Q641 49 659 39T694 25Q708 22 714 20T720 6Q720 -3 716 -8T705 -13Q681 -13 654 -7T608 0Q596 0 582 -2T555 -6T532 -11T517 -13Q501 -13 501 1Q501 14 504 18T521 25Q536 27 547 35T558 56Q558 57 549 82T526 142T497 215T472 280H243ZM262 324H455L362 575L262 324ZM274 836Q274 877 302 905T371 933Q412 933 440 905T468 836Q468 795 440 767T371 739Q330 739 302 767T274 836ZM300 836Q300 807 321 786T371 765Q400 765 421 786T442 836Q442 865 421 886T371 907Q342 907 321 886T300 836Z"  />
<glyph unicode="&#xC6;" horiz-adv-x="926" d="M641 378Q673 378 682 388T691 430Q691 438 696 444T712 450Q723 450 726 445T729 428Q729 414 725 394T721 353Q721 333 725 313T729 278Q729 266 726 261T712 256Q701 256 696 262T691 276Q691 308 682 318T641 328H511L591 110Q601 84 608 69T630 47T669 39T737 37Q775 37 798 38T836 45T856 60T868 86Q876 114 882 122T900 131Q905 131 912 128T919 118Q919 109 915 94T906 61T896 24T889 -13Q874 -10 849 -8T791 -4T724 -1T656 0Q621 0 595 -2T550 -6T518 -11T494 -13Q478 -13 478 3Q478 14 484 18T513 25Q526 27 530 34T535 53Q535 61 533 71T527 89L479 212H214Q208 199 198 177T179 131T163 86T156 54Q156 41 166 36T203 25Q220 22 220 10Q220 -13 205 -13Q187 -13 163 -7T109 0Q95 0 84 -2T63 -6T41 -11T15 -13Q2 -13 2 8Q2 16 6 19T29 25Q47 27 60 35T84 55T101 82T116 116L304 595Q309 607 312 619T315 648Q315 654 313 658T303 666T280 672T239 677Q223 678 223 697Q223 703 225 709T235 715Q259 715 276 713T311 709Q328 706 347 704T392 702Q425 702 461 703T532 705Q604 708 668 708Q668 702 669 688T672 658T675 628T677 607Q677 596 674 590T658 583Q648 583 644 592T633 624Q626 650 618 657T590 664H385L495 378H641ZM229 262H463L348 581L229 262Z"  />
<glyph unicode="&#xC7;" horiz-adv-x="741" d="M390 -9Q223 9 142 108T60 370Q60 431 81 492T146 603T257 684T414 715Q480 715 541 707T663 690Q664 664 665 637T667 581Q667 568 664 564T647 559Q635 559 631 567T623 608Q618 639 571 658T427 677Q341 677 285 645T195 564T148 458T134 348Q134 273 159 214T227 115T325 53T443 31Q498 31 534 37T592 54T624 81T639 115Q645 141 650 148T666 156Q676 156 682 152T689 141Q689 136 687 122T679 85L663 15Q613 6 561 -3T462 -13Q452 -13 443 -13T424 -12L399 -66Q407 -64 416 -62T433 -60Q464 -60 487 -78T511 -129Q511 -168 480 -190T390 -213Q370 -213 349 -210T308 -198L322 -168Q337 -173 353 -177T387 -181Q407 -181 425 -171T443 -138Q443 -118 430 -108T399 -98Q377 -98 367 -104L350 -99L390 -9Z"  />
<glyph unicode="&#xC8;" horiz-adv-x="556" d="M191 130Q191 106 193 89T209 60T248 43T323 37H348Q382 37 403 40T436 51T454 69T466 97Q475 123 480 128T494 134Q504 134 509 128T514 115Q514 111 510 96T501 62T491 23T483 -13Q453 -13 409 -11T320 -6T239 -2T186 0Q172 0 151 -2T107 -6T65 -11T37 -13Q23 -13 23 1Q23 8 23 12T28 18T40 22T63 25Q94 27 108 37T123 73V637Q123 663 111 668T62 677Q40 679 36 682T32 697Q32 709 35 712T52 715Q58 715 74 713T116 709Q142 706 174 704T246 702Q273 702 300 703T350 705Q373 707 391 707T417 708Q429 708 429 688Q429 659 432 644T436 615Q436 602 432 596T415 589Q405 589 401 595T391 630Q387 653 379 658T353 664H191V378H364Q389 378 399 383T411 414Q413 439 434 439Q439 439 444 436T449 422Q449 410 446 390T443 353Q443 336 446 316T449 284Q449 273 444 270T434 267Q413 267 411 292Q409 317 399 322T364 328H191V130ZM175 836Q148 853 140 861T132 881Q132 899 142 908T167 918Q182 918 205 895L351 749H316L175 836Z"  />
<glyph unicode="&#xC9;" horiz-adv-x="556" d="M191 130Q191 106 193 89T209 60T248 43T323 37H348Q382 37 403 40T436 51T454 69T466 97Q475 123 480 128T494 134Q504 134 509 128T514 115Q514 111 510 96T501 62T491 23T483 -13Q453 -13 409 -11T320 -6T239 -2T186 0Q172 0 151 -2T107 -6T65 -11T37 -13Q23 -13 23 1Q23 8 23 12T28 18T40 22T63 25Q94 27 108 37T123 73V637Q123 663 111 668T62 677Q40 679 36 682T32 697Q32 709 35 712T52 715Q58 715 74 713T116 709Q142 706 174 704T246 702Q273 702 300 703T350 705Q373 707 391 707T417 708Q429 708 429 688Q429 659 432 644T436 615Q436 602 432 596T415 589Q405 589 401 595T391 630Q387 653 379 658T353 664H191V378H364Q389 378 399 383T411 414Q413 439 434 439Q439 439 444 436T449 422Q449 410 446 390T443 353Q443 336 446 316T449 284Q449 273 444 270T434 267Q413 267 411 292Q409 317 399 322T364 328H191V130ZM351 895Q374 918 389 918Q403 918 413 909T424 881Q424 870 416 862T381 836L240 749H205L351 895Z"  />
<glyph unicode="&#xCA;" horiz-adv-x="556" d="M191 130Q191 106 193 89T209 60T248 43T323 37H348Q382 37 403 40T436 51T454 69T466 97Q475 123 480 128T494 134Q504 134 509 128T514 115Q514 111 510 96T501 62T491 23T483 -13Q453 -13 409 -11T320 -6T239 -2T186 0Q172 0 151 -2T107 -6T65 -11T37 -13Q23 -13 23 1Q23 8 23 12T28 18T40 22T63 25Q94 27 108 37T123 73V637Q123 663 111 668T62 677Q40 679 36 682T32 697Q32 709 35 712T52 715Q58 715 74 713T116 709Q142 706 174 704T246 702Q273 702 300 703T350 705Q373 707 391 707T417 708Q429 708 429 688Q429 659 432 644T436 615Q436 602 432 596T415 589Q405 589 401 595T391 630Q387 653 379 658T353 664H191V378H364Q389 378 399 383T411 414Q413 439 434 439Q439 439 444 436T449 422Q449 410 446 390T443 353Q443 336 446 316T449 284Q449 273 444 270T434 267Q413 267 411 292Q409 317 399 322T364 328H191V130ZM428 751L426 749H395L278 854L161 749H130L128 751L250 918H306L428 751Z"  />
<glyph unicode="&#xCB;" horiz-adv-x="556" d="M191 130Q191 106 193 89T209 60T248 43T323 37H348Q382 37 403 40T436 51T454 69T466 97Q475 123 480 128T494 134Q504 134 509 128T514 115Q514 111 510 96T501 62T491 23T483 -13Q453 -13 409 -11T320 -6T239 -2T186 0Q172 0 151 -2T107 -6T65 -11T37 -13Q23 -13 23 1Q23 8 23 12T28 18T40 22T63 25Q94 27 108 37T123 73V637Q123 663 111 668T62 677Q40 679 36 682T32 697Q32 709 35 712T52 715Q58 715 74 713T116 709Q142 706 174 704T246 702Q273 702 300 703T350 705Q373 707 391 707T417 708Q429 708 429 688Q429 659 432 644T436 615Q436 602 432 596T415 589Q405 589 401 595T391 630Q387 653 379 658T353 664H191V378H364Q389 378 399 383T411 414Q413 439 434 439Q439 439 444 436T449 422Q449 410 446 390T443 353Q443 336 446 316T449 284Q449 273 444 270T434 267Q413 267 411 292Q409 317 399 322T364 328H191V130ZM330 826Q330 844 344 858T376 872Q394 872 408 858T422 826Q422 808 408 794T376 780Q358 780 344 794T330 826ZM134 826Q134 844 147 858T180 872Q198 872 212 858T226 826Q226 808 212 794T180 780Q161 780 148 794T134 826Z"  />
<glyph unicode="&#xCC;" horiz-adv-x="314" d="M123 597Q123 619 119 633T107 655T84 668T49 677Q38 679 36 682T33 699Q33 711 37 713T49 715Q64 715 95 709T157 702Q187 702 218 708T265 715Q272 715 276 713T281 699Q281 686 279 683T265 677Q244 673 230 668T208 655T195 633T191 597V105Q191 83 195 69T207 47T230 34T265 25Q276 23 278 20T281 3Q281 -9 277 -11T265 -13Q250 -13 219 -7T157 0Q127 0 96 -6T49 -13Q42 -13 38 -11T33 3Q33 16 35 19T49 25Q70 29 84 34T106 47T119 69T123 105V597ZM54 836Q27 853 19 861T11 881Q11 899 21 908T46 918Q61 918 84 895L230 749H195L54 836Z"  />
<glyph unicode="&#xCD;" horiz-adv-x="314" d="M123 597Q123 619 119 633T107 655T84 668T49 677Q38 679 36 682T33 699Q33 711 37 713T49 715Q64 715 95 709T157 702Q187 702 218 708T265 715Q272 715 276 713T281 699Q281 686 279 683T265 677Q244 673 230 668T208 655T195 633T191 597V105Q191 83 195 69T207 47T230 34T265 25Q276 23 278 20T281 3Q281 -9 277 -11T265 -13Q250 -13 219 -7T157 0Q127 0 96 -6T49 -13Q42 -13 38 -11T33 3Q33 16 35 19T49 25Q70 29 84 34T106 47T119 69T123 105V597ZM230 895Q253 918 268 918Q282 918 292 909T303 881Q303 870 295 862T260 836L119 749H84L230 895Z"  />
<glyph unicode="&#xCE;" horiz-adv-x="314" d="M123 597Q123 619 119 633T107 655T84 668T49 677Q38 679 36 682T33 699Q33 711 37 713T49 715Q64 715 95 709T157 702Q187 702 218 708T265 715Q272 715 276 713T281 699Q281 686 279 683T265 677Q244 673 230 668T208 655T195 633T191 597V105Q191 83 195 69T207 47T230 34T265 25Q276 23 278 20T281 3Q281 -9 277 -11T265 -13Q250 -13 219 -7T157 0Q127 0 96 -6T49 -13Q42 -13 38 -11T33 3Q33 16 35 19T49 25Q70 29 84 34T106 47T119 69T123 105V597ZM307 751L305 749H274L157 854L40 749H9L7 751L129 918H185L307 751Z"  />
<glyph unicode="&#xCF;" horiz-adv-x="314" d="M123 597Q123 619 119 633T107 655T84 668T49 677Q38 679 36 682T33 699Q33 711 37 713T49 715Q64 715 95 709T157 702Q187 702 218 708T265 715Q272 715 276 713T281 699Q281 686 279 683T265 677Q244 673 230 668T208 655T195 633T191 597V105Q191 83 195 69T207 47T230 34T265 25Q276 23 278 20T281 3Q281 -9 277 -11T265 -13Q250 -13 219 -7T157 0Q127 0 96 -6T49 -13Q42 -13 38 -11T33 3Q33 16 35 19T49 25Q70 29 84 34T106 47T119 69T123 105V597ZM209 826Q209 844 223 858T255 872Q273 872 287 858T301 826Q301 808 287 794T255 780Q237 780 223 794T209 826ZM13 826Q13 844 26 858T59 872Q77 872 91 858T105 826Q105 808 91 794T59 780Q40 780 27 794T13 826Z"  />
<glyph unicode="&#xD0;" horiz-adv-x="796" d="M201 145Q201 112 207 90T232 55T284 37T371 31Q437 31 490 54T582 119T641 220T662 350Q662 428 637 488T570 588T473 649T358 670H222Q208 670 205 666T201 644V378H422Q429 378 429 370V335Q429 328 422 328H201V145ZM133 328H16Q9 328 9 335V370Q9 378 16 378H133V645Q133 661 117 667T71 677Q46 680 41 682T36 696Q36 710 40 712T53 715Q68 715 78 713T101 709Q113 706 129 704T172 702Q194 702 222 703T279 705Q308 707 334 707T378 708Q452 708 517 686T631 619T708 507T736 352Q736 272 707 206T629 90T514 14T375 -13Q342 -13 315 -11T265 -7T220 -2T179 0Q140 0 102 -6T37 -13Q23 -13 20 -9T17 9Q17 18 20 20T39 25Q73 28 92 31T120 41T131 58T133 85V328Z"  />
<glyph unicode="&#xD1;" horiz-adv-x="778" d="M107 699Q107 707 110 711T116 715Q123 715 129 708L619 126H621V571Q621 601 616 620T601 652T574 669T536 677Q526 679 523 681T519 694Q519 703 521 709T534 715Q559 715 584 709T640 702Q666 702 691 708T744 715Q750 715 753 711T757 696Q757 688 754 684T739 677Q716 674 703 668T682 653T673 631T671 600V-2Q671 -10 668 -14T662 -18Q655 -18 649 -11L159 574H157V131Q157 101 162 82T177 50T204 33T242 25Q252 23 255 21T259 8Q259 -1 257 -7T244 -13Q219 -13 194 -7T138 0Q112 0 87 -6T34 -13Q28 -13 25 -9T21 6Q21 14 24 18T39 25Q62 28 75 33T96 48T105 70T107 102V699ZM227 775Q234 816 261 845T333 874Q351 874 369 866T405 847Q421 839 436 832T467 825Q487 825 501 840T523 877H551Q546 858 538 840T516 807T485 784T445 775Q425 775 407 782T372 799Q355 807 339 814T308 822Q287 822 273 809T253 775H227Z"  />
<glyph unicode="&#xD2;" horiz-adv-x="834" d="M128 351Q128 283 148 227T205 129T295 66T417 43Q484 43 538 65T629 129T686 226T706 351Q706 419 686 475T629 573T538 636T417 659Q349 659 296 637T205 573T148 476T128 351ZM60 351Q60 415 81 480T146 597T257 682T417 715Q509 715 576 683T688 598T753 480T774 351Q774 286 753 222T688 105T577 20T417 -13Q325 -13 258 19T146 104T81 221T60 351ZM314 836Q287 853 279 861T271 881Q271 899 281 908T306 918Q321 918 344 895L490 749H455L314 836Z"  />
<glyph unicode="&#xD3;" horiz-adv-x="834" d="M128 351Q128 283 148 227T205 129T295 66T417 43Q484 43 538 65T629 129T686 226T706 351Q706 419 686 475T629 573T538 636T417 659Q349 659 296 637T205 573T148 476T128 351ZM60 351Q60 415 81 480T146 597T257 682T417 715Q509 715 576 683T688 598T753 480T774 351Q774 286 753 222T688 105T577 20T417 -13Q325 -13 258 19T146 104T81 221T60 351ZM490 895Q513 918 528 918Q542 918 552 909T563 881Q563 870 555 862T520 836L379 749H344L490 895Z"  />
<glyph unicode="&#xD4;" horiz-adv-x="834" d="M128 351Q128 283 148 227T205 129T295 66T417 43Q484 43 538 65T629 129T686 226T706 351Q706 419 686 475T629 573T538 636T417 659Q349 659 296 637T205 573T148 476T128 351ZM60 351Q60 415 81 480T146 597T257 682T417 715Q509 715 576 683T688 598T753 480T774 351Q774 286 753 222T688 105T577 20T417 -13Q325 -13 258 19T146 104T81 221T60 351ZM567 751L565 749H534L417 854L300 749H269L267 751L389 918H445L567 751Z"  />
<glyph unicode="&#xD5;" horiz-adv-x="834" d="M128 351Q128 283 148 227T205 129T295 66T417 43Q484 43 538 65T629 129T686 226T706 351Q706 419 686 475T629 573T538 636T417 659Q349 659 296 637T205 573T148 476T128 351ZM60 351Q60 415 81 480T146 597T257 682T417 715Q509 715 576 683T688 598T753 480T774 351Q774 286 753 222T688 105T577 20T417 -13Q325 -13 258 19T146 104T81 221T60 351ZM255 775Q262 816 289 845T361 874Q379 874 397 866T433 847Q449 839 464 832T495 825Q515 825 529 840T551 877H579Q574 858 566 840T544 807T513 784T473 775Q453 775 435 782T400 799Q383 807 367 814T336 822Q315 822 301 809T281 775H255Z"  />
<glyph unicode="&#xD6;" horiz-adv-x="834" d="M128 351Q128 283 148 227T205 129T295 66T417 43Q484 43 538 65T629 129T686 226T706 351Q706 419 686 475T629 573T538 636T417 659Q349 659 296 637T205 573T148 476T128 351ZM60 351Q60 415 81 480T146 597T257 682T417 715Q509 715 576 683T688 598T753 480T774 351Q774 286 753 222T688 105T577 20T417 -13Q325 -13 258 19T146 104T81 221T60 351ZM469 826Q469 844 483 858T515 872Q533 872 547 858T561 826Q561 808 547 794T515 780Q497 780 483 794T469 826ZM273 826Q273 844 286 858T319 872Q337 872 351 858T365 826Q365 808 351 794T319 780Q300 780 287 794T273 826Z"  />
<glyph unicode="&#xD7;" horiz-adv-x="600" d="M74 443L110 479L299 288L490 479L526 443L334 253L526 63L490 27L299 218L110 27L74 63L264 253L74 443Z"  />
<glyph unicode="&#xD8;" horiz-adv-x="834" d="M612 589Q575 623 526 641T417 659Q349 659 296 637T205 573T148 476T128 351Q128 224 193 144L612 589ZM151 100Q104 152 82 218T60 351Q60 415 81 480T146 597T257 682T417 715Q493 715 551 693T653 632L742 726L773 697L683 602Q730 550 752 484T774 351Q774 286 753 222T688 105T577 20T417 -13Q341 -13 283 9T180 71L91 -24L61 5L151 100ZM221 114Q258 79 307 61T417 43Q484 43 538 65T629 129T686 226T706 351Q706 413 690 465T641 558L221 114Z"  />
<glyph unicode="&#xD9;" horiz-adv-x="759" d="M107 485L100 630Q98 656 87 664T53 677Q41 679 39 683T36 701Q36 709 38 712T52 715Q77 715 98 709T154 702Q167 702 181 704T208 708T234 713T255 715Q263 715 266 713T269 700Q269 688 266 685T246 677Q223 671 210 666T189 654T181 637T179 611Q179 555 180 511T182 427T186 351T191 272Q198 144 251 88T392 31Q434 31 471 45T536 98T580 209T596 396V585Q596 615 594 631T586 656T568 668T538 677Q527 679 524 682T521 694Q521 708 523 711T534 715Q549 715 560 713T580 709T600 704T624 702Q653 702 674 708T718 715Q727 715 727 700Q727 689 724 685T709 677Q694 673 684 670T669 660T661 644T658 617L646 321Q643 250 630 198T596 109T550 48T497 11T442 -8T392 -13Q337 -13 289 1T204 51T144 152T115 318L107 485ZM277 836Q250 853 242 861T234 881Q234 899 244 908T269 918Q284 918 307 895L453 749H418L277 836Z"  />
<glyph unicode="&#xDA;" horiz-adv-x="759" d="M107 485L100 630Q98 656 87 664T53 677Q41 679 39 683T36 701Q36 709 38 712T52 715Q77 715 98 709T154 702Q167 702 181 704T208 708T234 713T255 715Q263 715 266 713T269 700Q269 688 266 685T246 677Q223 671 210 666T189 654T181 637T179 611Q179 555 180 511T182 427T186 351T191 272Q198 144 251 88T392 31Q434 31 471 45T536 98T580 209T596 396V585Q596 615 594 631T586 656T568 668T538 677Q527 679 524 682T521 694Q521 708 523 711T534 715Q549 715 560 713T580 709T600 704T624 702Q653 702 674 708T718 715Q727 715 727 700Q727 689 724 685T709 677Q694 673 684 670T669 660T661 644T658 617L646 321Q643 250 630 198T596 109T550 48T497 11T442 -8T392 -13Q337 -13 289 1T204 51T144 152T115 318L107 485ZM453 895Q476 918 491 918Q505 918 515 909T526 881Q526 870 518 862T483 836L342 749H307L453 895Z"  />
<glyph unicode="&#xDB;" horiz-adv-x="759" d="M107 485L100 630Q98 656 87 664T53 677Q41 679 39 683T36 701Q36 709 38 712T52 715Q77 715 98 709T154 702Q167 702 181 704T208 708T234 713T255 715Q263 715 266 713T269 700Q269 688 266 685T246 677Q223 671 210 666T189 654T181 637T179 611Q179 555 180 511T182 427T186 351T191 272Q198 144 251 88T392 31Q434 31 471 45T536 98T580 209T596 396V585Q596 615 594 631T586 656T568 668T538 677Q527 679 524 682T521 694Q521 708 523 711T534 715Q549 715 560 713T580 709T600 704T624 702Q653 702 674 708T718 715Q727 715 727 700Q727 689 724 685T709 677Q694 673 684 670T669 660T661 644T658 617L646 321Q643 250 630 198T596 109T550 48T497 11T442 -8T392 -13Q337 -13 289 1T204 51T144 152T115 318L107 485ZM530 751L528 749H497L380 854L263 749H232L230 751L352 918H408L530 751Z"  />
<glyph unicode="&#xDC;" horiz-adv-x="759" d="M107 485L100 630Q98 656 87 664T53 677Q41 679 39 683T36 701Q36 709 38 712T52 715Q77 715 98 709T154 702Q167 702 181 704T208 708T234 713T255 715Q263 715 266 713T269 700Q269 688 266 685T246 677Q223 671 210 666T189 654T181 637T179 611Q179 555 180 511T182 427T186 351T191 272Q198 144 251 88T392 31Q434 31 471 45T536 98T580 209T596 396V585Q596 615 594 631T586 656T568 668T538 677Q527 679 524 682T521 694Q521 708 523 711T534 715Q549 715 560 713T580 709T600 704T624 702Q653 702 674 708T718 715Q727 715 727 700Q727 689 724 685T709 677Q694 673 684 670T669 660T661 644T658 617L646 321Q643 250 630 198T596 109T550 48T497 11T442 -8T392 -13Q337 -13 289 1T204 51T144 152T115 318L107 485ZM432 826Q432 844 446 858T478 872Q496 872 510 858T524 826Q524 808 510 794T478 780Q460 780 446 794T432 826ZM236 826Q236 844 249 858T282 872Q300 872 314 858T328 826Q328 808 314 794T282 780Q263 780 250 794T236 826Z"  />
<glyph unicode="&#xDD;" horiz-adv-x="667" d="M301 280L75 629Q68 640 63 647T50 659T34 668T11 677Q1 680 -1 683T-4 699Q-4 707 -1 711T14 715Q34 715 52 709T100 702Q110 702 123 704T148 708T171 713T189 715Q199 715 201 712T203 693Q203 683 200 681T186 677Q160 672 151 668T142 655Q142 650 147 641T171 603L345 333L518 617Q529 636 533 642T537 654Q537 662 523 666T483 677Q472 680 472 694Q472 708 475 711T485 715Q501 715 524 709T573 702Q582 702 595 704T620 708T643 713T658 715Q664 715 667 713T671 694Q671 683 666 681T654 677Q634 674 618 666T592 643L369 280V105Q369 83 373 69T385 47T408 34T443 25Q454 23 456 20T459 3Q459 -9 455 -11T443 -13Q428 -13 397 -7T335 0Q305 0 274 -6T227 -13Q220 -13 216 -11T211 3Q211 16 213 19T227 25Q248 29 262 34T284 47T297 69T301 105V280ZM407 895Q430 918 445 918Q459 918 469 909T480 881Q480 870 472 862T437 836L296 749H261L407 895Z"  />
<glyph unicode="&#xDE;" horiz-adv-x="520" d="M116 597Q116 619 112 633T100 655T77 668T42 677Q31 679 29 682T26 699Q26 711 30 713T42 715Q57 715 88 709T150 702Q180 702 211 708T258 715Q265 715 269 713T274 699Q274 686 272 683T258 677Q237 673 223 668T201 655T188 633T184 597V552Q207 553 233 555T291 558Q352 558 389 540T446 496T473 442T480 391Q480 370 474 337T445 273T381 218T267 195Q233 195 216 208T199 231Q199 234 203 234Q214 234 223 234T243 233Q277 233 308 241T364 267T403 312T418 376Q418 396 412 420T389 465T348 500T283 514H225Q197 514 191 509T184 489V147Q184 111 186 90T200 56T232 37T293 25Q309 23 312 20T316 3Q316 -4 313 -8T298 -13Q257 -13 224 -7T160 0Q134 0 103 -6T42 -13Q35 -13 31 -11T26 3Q26 16 28 19T42 25Q63 29 77 34T99 47T112 69T116 105V597Z"  />
<glyph unicode="&#xDF;" horiz-adv-x="611" d="M110 375Q110 382 105 383T85 387Q77 388 75 392T72 401Q72 409 74 412T84 422L104 437Q110 441 110 448V530Q110 602 128 646T174 714T231 747T284 756Q315 756 340 747T384 720T411 680T421 630Q421 606 413 582T393 533Q382 510 374 489T365 450Q365 432 380 414T419 378T470 338T521 291T560 233T576 162Q576 123 563 91T526 36T474 0T411 -13Q384 -13 364 -6T330 13T311 36T304 58Q304 73 313 82T335 91Q350 91 359 81T377 58T398 36T433 25Q452 25 468 34T495 59T513 93T520 131Q520 165 505 193T467 247T418 296T368 340T330 381T315 424Q315 446 323 468T340 513Q349 536 357 559T365 608Q365 640 356 659T332 688T303 702T275 706Q257 706 239 700T205 680T181 640T172 577V94Q172 77 174 67T186 49T211 37T256 25Q265 23 269 20T273 9Q273 -3 269 -8T251 -13Q240 -13 211 -7T146 0Q114 0 90 -6T55 -13Q42 -13 38 -8T34 4Q34 13 37 18T52 25Q73 29 84 34T101 48T108 66T110 89V375Z"  />
<glyph unicode="&#xE0;" horiz-adv-x="481" d="M316 274V304Q316 333 312 353T295 385T260 402T204 407Q178 407 168 405T154 394Q139 357 132 348T116 338Q105 338 99 341T92 357Q92 364 95 377T102 404T111 431T118 450Q120 457 175 457H222Q260 457 289 450T338 426T368 379T378 304V93Q378 75 391 61T418 38Q426 34 435 32T444 26Q444 17 433 6Q421 -7 415 -10T400 -13Q386 -13 373 -6T350 12T331 35T319 59Q290 24 253 6T169 -13Q141 -13 117 -6T75 17T47 54T37 106Q37 153 76 193T192 248L316 274ZM316 204Q316 219 312 224T303 230Q301 230 286 228T249 222T202 209T155 188T119 158T105 118Q105 107 108 93T121 67T147 46T191 37Q215 37 240 47T281 71Q291 80 298 88T309 108T314 134T316 171V204ZM138 629Q111 646 103 654T95 674Q95 692 105 701T130 711Q145 711 168 688L314 542H279L138 629Z"  />
<glyph unicode="&#xE1;" horiz-adv-x="481" d="M316 274V304Q316 333 312 353T295 385T260 402T204 407Q178 407 168 405T154 394Q139 357 132 348T116 338Q105 338 99 341T92 357Q92 364 95 377T102 404T111 431T118 450Q120 457 175 457H222Q260 457 289 450T338 426T368 379T378 304V93Q378 75 391 61T418 38Q426 34 435 32T444 26Q444 17 433 6Q421 -7 415 -10T400 -13Q386 -13 373 -6T350 12T331 35T319 59Q290 24 253 6T169 -13Q141 -13 117 -6T75 17T47 54T37 106Q37 153 76 193T192 248L316 274ZM316 204Q316 219 312 224T303 230Q301 230 286 228T249 222T202 209T155 188T119 158T105 118Q105 107 108 93T121 67T147 46T191 37Q215 37 240 47T281 71Q291 80 298 88T309 108T314 134T316 171V204ZM314 688Q337 711 352 711Q366 711 376 702T387 674Q387 663 379 655T344 629L203 542H168L314 688Z"  />
<glyph unicode="&#xE2;" horiz-adv-x="481" d="M316 274V304Q316 333 312 353T295 385T260 402T204 407Q178 407 168 405T154 394Q139 357 132 348T116 338Q105 338 99 341T92 357Q92 364 95 377T102 404T111 431T118 450Q120 457 175 457H222Q260 457 289 450T338 426T368 379T378 304V93Q378 75 391 61T418 38Q426 34 435 32T444 26Q444 17 433 6Q421 -7 415 -10T400 -13Q386 -13 373 -6T350 12T331 35T319 59Q290 24 253 6T169 -13Q141 -13 117 -6T75 17T47 54T37 106Q37 153 76 193T192 248L316 274ZM316 204Q316 219 312 224T303 230Q301 230 286 228T249 222T202 209T155 188T119 158T105 118Q105 107 108 93T121 67T147 46T191 37Q215 37 240 47T281 71Q291 80 298 88T309 108T314 134T316 171V204ZM391 544L389 542H358L241 647L124 542H93L91 544L213 711H269L391 544Z"  />
<glyph unicode="&#xE3;" horiz-adv-x="481" d="M316 274V304Q316 333 312 353T295 385T260 402T204 407Q178 407 168 405T154 394Q139 357 132 348T116 338Q105 338 99 341T92 357Q92 364 95 377T102 404T111 431T118 450Q120 457 175 457H222Q260 457 289 450T338 426T368 379T378 304V93Q378 75 391 61T418 38Q426 34 435 32T444 26Q444 17 433 6Q421 -7 415 -10T400 -13Q386 -13 373 -6T350 12T331 35T319 59Q290 24 253 6T169 -13Q141 -13 117 -6T75 17T47 54T37 106Q37 153 76 193T192 248L316 274ZM316 204Q316 219 312 224T303 230Q301 230 286 228T249 222T202 209T155 188T119 158T105 118Q105 107 108 93T121 67T147 46T191 37Q215 37 240 47T281 71Q291 80 298 88T309 108T314 134T316 171V204ZM79 568Q86 609 113 638T185 667Q203 667 221 659T257 640Q273 632 288 625T319 618Q339 618 353 633T375 670H403Q398 651 390 633T368 600T337 577T297 568Q277 568 259 575T224 592Q207 600 191 607T160 615Q139 615 125 602T105 568H79Z"  />
<glyph unicode="&#xE4;" horiz-adv-x="481" d="M316 274V304Q316 333 312 353T295 385T260 402T204 407Q178 407 168 405T154 394Q139 357 132 348T116 338Q105 338 99 341T92 357Q92 364 95 377T102 404T111 431T118 450Q120 457 175 457H222Q260 457 289 450T338 426T368 379T378 304V93Q378 75 391 61T418 38Q426 34 435 32T444 26Q444 17 433 6Q421 -7 415 -10T400 -13Q386 -13 373 -6T350 12T331 35T319 59Q290 24 253 6T169 -13Q141 -13 117 -6T75 17T47 54T37 106Q37 153 76 193T192 248L316 274ZM316 204Q316 219 312 224T303 230Q301 230 286 228T249 222T202 209T155 188T119 158T105 118Q105 107 108 93T121 67T147 46T191 37Q215 37 240 47T281 71Q291 80 298 88T309 108T314 134T316 171V204ZM293 619Q293 637 307 651T339 665Q357 665 371 651T385 619Q385 601 371 587T339 573Q321 573 307 587T293 619ZM97 619Q97 637 110 651T143 665Q161 665 175 651T189 619Q189 601 175 587T143 573Q124 573 111 587T97 619Z"  />
<glyph unicode="&#xE5;" horiz-adv-x="481" d="M316 274V304Q316 333 312 353T295 385T260 402T204 407Q178 407 168 405T154 394Q139 357 132 348T116 338Q105 338 99 341T92 357Q92 364 95 377T102 404T111 431T118 450Q120 457 175 457H222Q260 457 289 450T338 426T368 379T378 304V93Q378 75 391 61T418 38Q426 34 435 32T444 26Q444 17 433 6Q421 -7 415 -10T400 -13Q386 -13 373 -6T350 12T331 35T319 59Q290 24 253 6T169 -13Q141 -13 117 -6T75 17T47 54T37 106Q37 153 76 193T192 248L316 274ZM316 204Q316 219 312 224T303 230Q301 230 286 228T249 222T202 209T155 188T119 158T105 118Q105 107 108 93T121 67T147 46T191 37Q215 37 240 47T281 71Q291 80 298 88T309 108T314 134T316 171V204ZM132 629Q132 670 160 698T229 726Q270 726 298 698T326 629Q326 588 298 560T229 532Q188 532 160 560T132 629ZM158 629Q158 600 179 579T229 558Q258 558 279 579T300 629Q300 658 279 679T229 700Q200 700 179 679T158 629Z"  />
<glyph unicode="&#xE6;" horiz-adv-x="741" d="M372 234V216Q372 183 381 152T408 96T454 58T520 43Q565 43 599 62T660 109Q665 114 667 114Q671 114 677 105Q683 96 684 93T686 88Q686 86 685 84T677 74Q646 36 601 12T492 -13Q442 -13 403 10T340 76Q326 53 307 37T265 9T218 -7T169 -13Q141 -13 117 -6T75 16T47 51T37 98Q37 121 45 143T74 184T127 218T209 243L316 263V304Q316 333 312 353T295 385T260 402T204 407Q178 407 168 405T154 394Q139 357 132 348T116 338Q105 338 99 341T92 357Q92 364 95 377T102 404T111 431T118 450Q120 457 175 457H222Q280 457 316 441T365 383Q388 416 427 436T517 457Q549 457 578 445T629 410T664 359T677 296Q677 291 675 289T665 284L372 234ZM316 198Q316 213 312 218T303 224Q301 224 286 222T249 216T202 203T155 182T119 152T105 112Q105 103 108 91T121 66T147 46T191 37Q215 37 240 47T281 71Q291 80 298 88T309 108T314 134T316 171V198ZM571 307Q584 309 593 315T603 331Q603 345 597 360T578 389T548 410T510 419Q481 419 458 406T418 371T391 324T377 270L571 307Z"  />
<glyph unicode="&#xE7;" horiz-adv-x="444" d="M239 -13Q195 -12 161 5T101 52T63 118T50 197Q50 272 72 322T127 402T201 444T278 457Q315 457 340 450T379 433T400 411T406 391Q406 359 370 359Q356 359 345 367T322 386T293 404T252 413Q218 413 192 399T148 360T121 304T112 237Q112 194 123 159T155 98T205 58T271 43Q299 43 322 51T363 70T391 88T405 97Q410 97 416 91T422 78Q422 76 412 64T383 37T337 8T275 -11L250 -66Q258 -64 267 -62T284 -60Q315 -60 338 -78T362 -129Q362 -168 331 -190T241 -213Q221 -213 200 -210T159 -198L173 -168Q188 -173 204 -177T238 -181Q258 -181 276 -171T294 -138Q294 -118 281 -108T250 -98Q228 -98 218 -104L201 -99L239 -13Z"  />
<glyph unicode="&#xE8;" horiz-adv-x="481" d="M118 234V216Q118 183 126 152T153 96T199 58T265 43Q310 43 344 62T405 109Q410 114 412 114Q416 114 422 105Q428 96 429 93T431 88Q431 86 430 84T422 74Q391 36 346 12T237 -13Q187 -13 152 4T94 50T61 118T50 198Q50 244 62 290T101 374T167 434T261 457Q293 457 322 445T373 410T408 359T421 296Q421 291 419 289T409 284L118 234ZM315 307Q328 309 337 315T347 331Q347 345 341 360T322 389T292 410T254 419Q225 419 202 406T162 371T135 324T121 270L315 307ZM138 629Q111 646 103 654T95 674Q95 692 105 701T130 711Q145 711 168 688L314 542H279L138 629Z"  />
<glyph unicode="&#xE9;" horiz-adv-x="481" d="M118 234V216Q118 183 126 152T153 96T199 58T265 43Q310 43 344 62T405 109Q410 114 412 114Q416 114 422 105Q428 96 429 93T431 88Q431 86 430 84T422 74Q391 36 346 12T237 -13Q187 -13 152 4T94 50T61 118T50 198Q50 244 62 290T101 374T167 434T261 457Q293 457 322 445T373 410T408 359T421 296Q421 291 419 289T409 284L118 234ZM315 307Q328 309 337 315T347 331Q347 345 341 360T322 389T292 410T254 419Q225 419 202 406T162 371T135 324T121 270L315 307ZM314 688Q337 711 352 711Q366 711 376 702T387 674Q387 663 379 655T344 629L203 542H168L314 688Z"  />
<glyph unicode="&#xEA;" horiz-adv-x="481" d="M118 234V216Q118 183 126 152T153 96T199 58T265 43Q310 43 344 62T405 109Q410 114 412 114Q416 114 422 105Q428 96 429 93T431 88Q431 86 430 84T422 74Q391 36 346 12T237 -13Q187 -13 152 4T94 50T61 118T50 198Q50 244 62 290T101 374T167 434T261 457Q293 457 322 445T373 410T408 359T421 296Q421 291 419 289T409 284L118 234ZM315 307Q328 309 337 315T347 331Q347 345 341 360T322 389T292 410T254 419Q225 419 202 406T162 371T135 324T121 270L315 307ZM391 544L389 542H358L241 647L124 542H93L91 544L213 711H269L391 544Z"  />
<glyph unicode="&#xEB;" horiz-adv-x="481" d="M118 234V216Q118 183 126 152T153 96T199 58T265 43Q310 43 344 62T405 109Q410 114 412 114Q416 114 422 105Q428 96 429 93T431 88Q431 86 430 84T422 74Q391 36 346 12T237 -13Q187 -13 152 4T94 50T61 118T50 198Q50 244 62 290T101 374T167 434T261 457Q293 457 322 445T373 410T408 359T421 296Q421 291 419 289T409 284L118 234ZM315 307Q328 309 337 315T347 331Q347 345 341 360T322 389T292 410T254 419Q225 419 202 406T162 371T135 324T121 270L315 307ZM293 619Q293 637 307 651T339 665Q357 665 371 651T385 619Q385 601 371 587T339 573Q321 573 307 587T293 619ZM97 619Q97 637 110 651T143 665Q161 665 175 651T189 619Q189 601 175 587T143 573Q124 573 111 587T97 619Z"  />
<glyph unicode="&#xEC;" horiz-adv-x="278" d="M108 356Q108 373 102 377T70 383Q51 385 47 388T43 402Q43 409 46 411T59 419L146 457Q153 460 156 461T165 463Q172 463 176 457T180 444Q180 439 175 430T170 395V95Q170 74 172 63T181 44T201 33T237 25Q246 23 249 20T252 10Q252 -4 248 -8T237 -13Q231 -13 220 -11T196 -7T167 -2T139 0Q125 0 111 -2T83 -6T58 -11T41 -13Q34 -13 30 -9T26 10Q26 16 29 19T41 25Q63 29 76 33T97 44T106 62T108 95V356ZM36 629Q9 646 1 654T-7 674Q-7 692 3 701T28 711Q43 711 66 688L212 542H177L36 629Z"  />
<glyph unicode="&#xED;" horiz-adv-x="278" d="M108 356Q108 373 102 377T70 383Q51 385 47 388T43 402Q43 409 46 411T59 419L146 457Q153 460 156 461T165 463Q172 463 176 457T180 444Q180 439 175 430T170 395V95Q170 74 172 63T181 44T201 33T237 25Q246 23 249 20T252 10Q252 -4 248 -8T237 -13Q231 -13 220 -11T196 -7T167 -2T139 0Q125 0 111 -2T83 -6T58 -11T41 -13Q34 -13 30 -9T26 10Q26 16 29 19T41 25Q63 29 76 33T97 44T106 62T108 95V356ZM212 688Q235 711 250 711Q264 711 274 702T285 674Q285 663 277 655T242 629L101 542H66L212 688Z"  />
<glyph unicode="&#xEE;" horiz-adv-x="278" d="M108 356Q108 373 102 377T70 383Q51 385 47 388T43 402Q43 409 46 411T59 419L146 457Q153 460 156 461T165 463Q172 463 176 457T180 444Q180 439 175 430T170 395V95Q170 74 172 63T181 44T201 33T237 25Q246 23 249 20T252 10Q252 -4 248 -8T237 -13Q231 -13 220 -11T196 -7T167 -2T139 0Q125 0 111 -2T83 -6T58 -11T41 -13Q34 -13 30 -9T26 10Q26 16 29 19T41 25Q63 29 76 33T97 44T106 62T108 95V356ZM289 544L287 542H256L139 647L22 542H-9L-11 544L111 711H167L289 544Z"  />
<glyph unicode="&#xEF;" horiz-adv-x="278" d="M108 356Q108 373 102 377T70 383Q51 385 47 388T43 402Q43 409 46 411T59 419L146 457Q153 460 156 461T165 463Q172 463 176 457T180 444Q180 439 175 430T170 395V95Q170 74 172 63T181 44T201 33T237 25Q246 23 249 20T252 10Q252 -4 248 -8T237 -13Q231 -13 220 -11T196 -7T167 -2T139 0Q125 0 111 -2T83 -6T58 -11T41 -13Q34 -13 30 -9T26 10Q26 16 29 19T41 25Q63 29 76 33T97 44T106 62T108 95V356ZM191 619Q191 637 205 651T237 665Q255 665 269 651T283 619Q283 601 269 587T237 573Q219 573 205 587T191 619ZM-5 619Q-5 637 8 651T41 665Q59 665 73 651T87 619Q87 601 73 587T41 573Q22 573 9 587T-5 619Z"  />
<glyph unicode="&#xF0;" horiz-adv-x="556" d="M118 222Q118 127 163 79T278 31Q348 31 393 79T438 222Q438 317 393 365T278 413Q208 413 163 365T118 222ZM275 636Q262 647 243 659T204 683T164 705T128 723L152 756Q190 744 229 723T321 661L430 721Q438 725 439 725Q441 725 445 721L460 702Q462 698 462 697Q462 695 458 692L353 633Q423 565 464 472T506 271Q506 217 493 166T452 75T382 11T281 -13Q234 -13 192 2T119 46T69 120T50 222Q50 280 68 324T118 397T192 442T281 457Q316 457 355 441T421 389L423 391Q391 526 307 607L192 543Q184 539 183 539Q181 539 177 543L161 564Q159 568 159 569Q159 571 163 574L275 636Z"  />
<glyph unicode="&#xF1;" horiz-adv-x="556" d="M98 356Q98 373 92 377T60 383Q41 385 37 388T33 402Q33 409 36 411T49 419L136 457Q143 460 146 461T155 463Q162 463 166 457T170 444Q170 439 165 430T160 395V371Q173 385 190 400T226 428T268 449T313 457Q341 457 370 449T422 418T461 353T476 244V95Q476 74 478 63T487 44T507 33T543 25Q552 23 555 20T558 10Q558 -4 554 -8T543 -13Q537 -13 526 -11T502 -7T473 -2T445 0Q431 0 417 -2T389 -6T364 -11T347 -13Q340 -13 336 -9T332 10Q332 16 335 19T347 25Q369 29 382 33T403 44T412 62T414 95V236Q414 288 403 320T375 370T337 394T296 401Q275 401 251 392T207 370T174 344T160 322V95Q160 74 162 63T171 44T191 33T227 25Q236 23 239 20T242 10Q242 -4 238 -8T227 -13Q221 -13 210 -11T186 -7T157 -2T129 0Q115 0 101 -2T73 -6T48 -11T31 -13Q24 -13 20 -9T16 10Q16 16 19 19T31 25Q53 29 66 33T87 44T96 62T98 95V356ZM116 568Q123 609 150 638T222 667Q240 667 258 659T294 640Q310 632 325 625T356 618Q376 618 390 633T412 670H440Q435 651 427 633T405 600T374 577T334 568Q314 568 296 575T261 592Q244 600 228 607T197 615Q176 615 162 602T142 568H116Z"  />
<glyph unicode="&#xF2;" horiz-adv-x="556" d="M118 222Q118 127 163 79T278 31Q348 31 393 79T438 222Q438 317 393 365T278 413Q208 413 163 365T118 222ZM50 222Q50 280 68 324T118 397T190 442T278 457Q324 457 365 442T438 398T487 324T506 222Q506 164 488 120T438 47T366 2T278 -13Q232 -13 191 2T118 46T69 120T50 222ZM175 629Q148 646 140 654T132 674Q132 692 142 701T167 711Q182 711 205 688L351 542H316L175 629Z"  />
<glyph unicode="&#xF3;" horiz-adv-x="556" d="M118 222Q118 127 163 79T278 31Q348 31 393 79T438 222Q438 317 393 365T278 413Q208 413 163 365T118 222ZM50 222Q50 280 68 324T118 397T190 442T278 457Q324 457 365 442T438 398T487 324T506 222Q506 164 488 120T438 47T366 2T278 -13Q232 -13 191 2T118 46T69 120T50 222ZM351 688Q374 711 389 711Q403 711 413 702T424 674Q424 663 416 655T381 629L240 542H205L351 688Z"  />
<glyph unicode="&#xF4;" horiz-adv-x="556" d="M118 222Q118 127 163 79T278 31Q348 31 393 79T438 222Q438 317 393 365T278 413Q208 413 163 365T118 222ZM50 222Q50 280 68 324T118 397T190 442T278 457Q324 457 365 442T438 398T487 324T506 222Q506 164 488 120T438 47T366 2T278 -13Q232 -13 191 2T118 46T69 120T50 222ZM428 544L426 542H395L278 647L161 542H130L128 544L250 711H306L428 544Z"  />
<glyph unicode="&#xF5;" horiz-adv-x="556" d="M118 222Q118 127 163 79T278 31Q348 31 393 79T438 222Q438 317 393 365T278 413Q208 413 163 365T118 222ZM50 222Q50 280 68 324T118 397T190 442T278 457Q324 457 365 442T438 398T487 324T506 222Q506 164 488 120T438 47T366 2T278 -13Q232 -13 191 2T118 46T69 120T50 222ZM116 568Q123 609 150 638T222 667Q240 667 258 659T294 640Q310 632 325 625T356 618Q376 618 390 633T412 670H440Q435 651 427 633T405 600T374 577T334 568Q314 568 296 575T261 592Q244 600 228 607T197 615Q176 615 162 602T142 568H116Z"  />
<glyph unicode="&#xF6;" horiz-adv-x="556" d="M118 222Q118 127 163 79T278 31Q348 31 393 79T438 222Q438 317 393 365T278 413Q208 413 163 365T118 222ZM50 222Q50 280 68 324T118 397T190 442T278 457Q324 457 365 442T438 398T487 324T506 222Q506 164 488 120T438 47T366 2T278 -13Q232 -13 191 2T118 46T69 120T50 222ZM330 619Q330 637 344 651T376 665Q394 665 408 651T422 619Q422 601 408 587T376 573Q358 573 344 587T330 619ZM134 619Q134 637 147 651T180 665Q198 665 212 651T226 619Q226 601 212 587T180 573Q161 573 148 587T134 619Z"  />
<glyph unicode="&#xF7;" horiz-adv-x="600" d="M47 278H553V228H47V278ZM243 462Q243 485 260 502T300 519Q323 519 340 502T357 462Q357 439 340 422T300 405Q277 405 260 422T243 462ZM243 44Q243 67 260 84T300 101Q323 101 340 84T357 44Q357 21 340 4T300 -13Q277 -13 260 4T243 44Z"  />
<glyph unicode="&#xF8;" horiz-adv-x="556" d="M390 368Q346 413 278 413Q208 413 163 365T118 222Q118 153 144 107L390 368ZM103 63Q77 92 64 131T50 222Q50 280 68 324T118 397T190 442T278 457Q320 457 358 445T427 407L488 472Q494 478 497 478Q500 478 505 473L516 462Q520 458 520 455Q520 452 514 445L454 381Q478 352 492 313T506 222Q506 164 488 120T438 47T366 2T278 -13Q236 -13 198 -1T130 37L68 -28Q62 -34 59 -34Q56 -34 51 -29L40 -18Q36 -14 36 -11Q36 -8 42 -1L103 63ZM166 76Q211 31 278 31Q348 31 393 79T438 222Q438 293 412 337L166 76Z"  />
<glyph unicode="&#xF9;" horiz-adv-x="556" d="M98 360Q98 366 97 370T90 376T74 380T44 383Q39 383 37 387T35 402Q35 409 38 411T51 419L132 453Q149 461 154 462T162 463Q166 463 169 455T173 441Q173 436 167 420T160 377V165Q160 123 170 99T195 63T226 47T253 43Q277 43 302 52T349 73T383 99T396 121V370Q396 378 394 381T382 385Q356 387 349 390T341 401Q341 413 342 417T346 423Q348 425 365 427T410 438Q417 440 427 444T446 453T463 460T471 463Q476 463 481 457T487 446Q487 440 483 435T473 423T463 408T458 387V97Q458 80 462 77T471 73Q479 73 491 80T507 87Q511 87 516 79T521 64Q521 56 500 43L433 2Q410 -13 406 -13Q399 -13 393 -4T386 11Q386 15 391 24T396 52V68Q380 53 362 39T324 13T282 -6T236 -13Q197 -13 171 3T129 42T105 93T98 144V360ZM175 629Q148 646 140 654T132 674Q132 692 142 701T167 711Q182 711 205 688L351 542H316L175 629Z"  />
<glyph unicode="&#xFA;" horiz-adv-x="556" d="M98 360Q98 366 97 370T90 376T74 380T44 383Q39 383 37 387T35 402Q35 409 38 411T51 419L132 453Q149 461 154 462T162 463Q166 463 169 455T173 441Q173 436 167 420T160 377V165Q160 123 170 99T195 63T226 47T253 43Q277 43 302 52T349 73T383 99T396 121V370Q396 378 394 381T382 385Q356 387 349 390T341 401Q341 413 342 417T346 423Q348 425 365 427T410 438Q417 440 427 444T446 453T463 460T471 463Q476 463 481 457T487 446Q487 440 483 435T473 423T463 408T458 387V97Q458 80 462 77T471 73Q479 73 491 80T507 87Q511 87 516 79T521 64Q521 56 500 43L433 2Q410 -13 406 -13Q399 -13 393 -4T386 11Q386 15 391 24T396 52V68Q380 53 362 39T324 13T282 -6T236 -13Q197 -13 171 3T129 42T105 93T98 144V360ZM351 688Q374 711 389 711Q403 711 413 702T424 674Q424 663 416 655T381 629L240 542H205L351 688Z"  />
<glyph unicode="&#xFB;" horiz-adv-x="556" d="M98 360Q98 366 97 370T90 376T74 380T44 383Q39 383 37 387T35 402Q35 409 38 411T51 419L132 453Q149 461 154 462T162 463Q166 463 169 455T173 441Q173 436 167 420T160 377V165Q160 123 170 99T195 63T226 47T253 43Q277 43 302 52T349 73T383 99T396 121V370Q396 378 394 381T382 385Q356 387 349 390T341 401Q341 413 342 417T346 423Q348 425 365 427T410 438Q417 440 427 444T446 453T463 460T471 463Q476 463 481 457T487 446Q487 440 483 435T473 423T463 408T458 387V97Q458 80 462 77T471 73Q479 73 491 80T507 87Q511 87 516 79T521 64Q521 56 500 43L433 2Q410 -13 406 -13Q399 -13 393 -4T386 11Q386 15 391 24T396 52V68Q380 53 362 39T324 13T282 -6T236 -13Q197 -13 171 3T129 42T105 93T98 144V360ZM428 544L426 542H395L278 647L161 542H130L128 544L250 711H306L428 544Z"  />
<glyph unicode="&#xFC;" horiz-adv-x="556" d="M98 360Q98 366 97 370T90 376T74 380T44 383Q39 383 37 387T35 402Q35 409 38 411T51 419L132 453Q149 461 154 462T162 463Q166 463 169 455T173 441Q173 436 167 420T160 377V165Q160 123 170 99T195 63T226 47T253 43Q277 43 302 52T349 73T383 99T396 121V370Q396 378 394 381T382 385Q356 387 349 390T341 401Q341 413 342 417T346 423Q348 425 365 427T410 438Q417 440 427 444T446 453T463 460T471 463Q476 463 481 457T487 446Q487 440 483 435T473 423T463 408T458 387V97Q458 80 462 77T471 73Q479 73 491 80T507 87Q511 87 516 79T521 64Q521 56 500 43L433 2Q410 -13 406 -13Q399 -13 393 -4T386 11Q386 15 391 24T396 52V68Q380 53 362 39T324 13T282 -6T236 -13Q197 -13 171 3T129 42T105 93T98 144V360ZM330 619Q330 637 344 651T376 665Q394 665 408 651T422 619Q422 601 408 587T376 573Q358 573 344 587T330 619ZM134 619Q134 637 147 651T180 665Q198 665 212 651T226 619Q226 601 212 587T180 573Q161 573 148 587T134 619Z"  />
<glyph unicode="&#xFD;" horiz-adv-x="556" d="M181 139Q142 215 117 265T75 347T45 394T17 419Q6 426 4 428T1 436Q1 442 4 449T17 457Q28 457 45 451T96 444Q128 444 146 450T175 457Q180 457 184 452T188 436Q188 431 183 428T164 419Q146 411 138 406T130 391Q130 386 132 378T141 356T158 320T186 264L284 64L396 278Q412 308 421 327T435 358T441 375T442 384Q442 395 434 401T397 419Q383 424 383 437Q383 442 387 449T400 457Q403 457 412 455T432 451T455 446T475 444Q498 444 514 450T547 457Q557 457 557 436Q557 431 553 428T538 419Q533 416 524 407T502 375Q493 359 471 318T420 223T357 106T291 -14Q244 -100 208 -149T144 -225T93 -258T49 -265Q34 -265 27 -255T20 -206Q20 -199 25 -195T52 -191Q77 -191 94 -187T126 -172T156 -140T195 -85Q209 -65 222 -43T249 5L181 139ZM351 688Q374 711 389 711Q403 711 413 702T424 674Q424 663 416 655T381 629L240 542H205L351 688Z"  />
<glyph unicode="&#xFE;" horiz-adv-x="556" d="M94 650Q94 662 92 666T82 670Q57 671 51 671T40 674Q34 676 34 687Q34 694 36 698T46 706Q105 730 133 743T167 756Q172 756 175 748T179 735Q179 729 176 725T168 717T160 705T156 685V353H158Q173 374 192 393T235 426T285 448T339 457Q385 457 416 441T468 397T497 335T506 264Q506 213 491 163T448 74T377 11T280 -13Q251 -13 219 -5T156 26V-181Q156 -201 161 -206T187 -214Q207 -216 211 -218T215 -235Q215 -242 213 -245T196 -252L105 -273Q94 -276 89 -277T79 -278Q74 -278 70 -272T66 -260Q66 -255 68 -251T82 -239Q89 -234 91 -225T94 -194V650ZM156 155Q156 118 168 93T199 53T239 32T277 25Q304 25 332 38T384 78T423 146T438 245Q438 317 405 359T313 401Q285 401 257 388T207 356T170 315T156 276V155Z"  />
<glyph unicode="&#xFF;" horiz-adv-x="556" d="M181 139Q142 215 117 265T75 347T45 394T17 419Q6 426 4 428T1 436Q1 442 4 449T17 457Q28 457 45 451T96 444Q128 444 146 450T175 457Q180 457 184 452T188 436Q188 431 183 428T164 419Q146 411 138 406T130 391Q130 386 132 378T141 356T158 320T186 264L284 64L396 278Q412 308 421 327T435 358T441 375T442 384Q442 395 434 401T397 419Q383 424 383 437Q383 442 387 449T400 457Q403 457 412 455T432 451T455 446T475 444Q498 444 514 450T547 457Q557 457 557 436Q557 431 553 428T538 419Q533 416 524 407T502 375Q493 359 471 318T420 223T357 106T291 -14Q244 -100 208 -149T144 -225T93 -258T49 -265Q34 -265 27 -255T20 -206Q20 -199 25 -195T52 -191Q77 -191 94 -187T126 -172T156 -140T195 -85Q209 -65 222 -43T249 5L181 139ZM330 619Q330 637 344 651T376 665Q394 665 408 651T422 619Q422 601 408 587T376 573Q358 573 344 587T330 619ZM134 619Q134 637 147 651T180 665Q198 665 212 651T226 619Q226 601 212 587T180 573Q161 573 148 587T134 619Z"  />
<glyph unicode="&#x131;" horiz-adv-x="278" d="M108 356Q108 373 102 377T70 383Q51 385 47 388T43 402Q43 409 46 411T59 419L146 457Q153 460 156 461T165 463Q172 463 176 457T180 444Q180 439 175 430T170 395V95Q170 74 172 63T181 44T201 33T237 25Q246 23 249 20T252 10Q252 -4 248 -8T237 -13Q231 -13 220 -11T196 -7T167 -2T139 0Q125 0 111 -2T83 -6T58 -11T41 -13Q34 -13 30 -9T26 10Q26 16 29 19T41 25Q63 29 76 33T97 44T106 62T108 95V356Z"  />
<glyph unicode="&#x152;" horiz-adv-x="1148" d="M134 351Q134 283 154 227T211 129T301 66T423 43Q490 43 544 65T635 129T692 226T712 351Q712 419 692 475T635 573T544 636T423 659Q355 659 302 637T211 573T154 476T134 351ZM781 130Q781 106 783 89T799 60T838 43T913 37H938Q972 37 993 40T1026 51T1044 69T1056 97Q1065 123 1070 128T1084 134Q1094 134 1099 128T1104 115Q1104 111 1100 96T1091 62T1081 23T1073 -13Q1054 -12 1019 -10T942 -6T856 -2T776 0Q741 0 714 -6T675 -13Q669 -13 664 -9T658 9Q658 14 660 19T671 25Q694 33 703 42T713 77V131H711Q665 68 591 28T421 -13Q342 -13 277 14T165 91T92 207T66 353Q66 430 92 496T166 611T279 687T421 715Q473 715 517 704T598 674T662 629T711 574H713V638Q713 653 709 661T685 677Q677 680 675 684T672 695Q672 703 675 709T687 715Q701 715 718 713T755 709Q775 706 795 704T836 702Q870 702 898 703T950 705Q996 708 1007 708Q1019 708 1019 688Q1019 659 1022 644T1026 615Q1026 602 1022 596T1002 589Q997 589 994 595T988 609T984 626T980 641Q975 652 965 658T925 664H781V378H954Q979 378 989 383T1001 414Q1003 439 1024 439Q1029 439 1034 436T1039 422Q1039 410 1036 390T1033 353Q1033 336 1036 316T1039 284Q1039 273 1034 270T1024 267Q1003 267 1001 292Q999 317 989 322T954 328H781V130Z"  />
<glyph unicode="&#x153;" horiz-adv-x="870" d="M499 234V216Q499 183 508 152T535 96T581 58T649 43Q694 43 728 62T789 109Q794 114 796 114Q800 114 806 105Q812 96 813 93T815 88Q815 86 814 84T806 74Q775 36 730 12T621 -13Q591 -13 567 -5T524 16T492 45T470 78Q438 33 389 10T283 -13Q237 -13 196 2T123 46T74 120T55 222Q55 280 73 324T123 397T195 442T283 457Q354 457 401 428T475 358H477Q505 403 548 430T653 457Q681 457 708 445T757 410T792 359T805 296Q805 286 794 284L499 234ZM123 222Q123 127 168 79T283 31Q353 31 398 79T443 222Q443 317 398 365T283 413Q213 413 168 365T123 222ZM700 307Q713 309 722 315T731 331Q731 345 725 360T706 389T677 410T639 419Q610 419 587 406T546 371T518 324T504 270L700 307Z"  />
<glyph unicode="&#x160;" horiz-adv-x="520" d="M79 528Q79 558 88 591T122 651T189 697T298 715Q333 715 368 711T438 702V602Q438 582 435 575T423 568Q413 568 409 575T394 610Q389 622 384 633T369 655T340 671T291 677Q219 677 183 640T147 537Q147 505 160 483T194 444T244 412T302 381Q335 364 364 347T414 307T449 254T462 182Q462 151 449 117T409 54T340 6T241 -13Q200 -13 154 -7T67 8L62 76Q61 87 60 102T58 127Q58 156 79 156Q87 156 91 153T98 140Q109 82 140 57T238 31Q281 31 310 43T358 75T385 119T394 170Q394 194 389 213T368 252T323 290T246 333Q199 356 167 376T116 417T88 465T79 528ZM128 924L130 926H161L278 821L395 926H426L428 924L306 757H250L128 924Z"  />
<glyph unicode="&#x161;" horiz-adv-x="407" d="M49 87Q48 93 48 97T47 107Q47 124 56 130T72 136Q89 136 95 123T103 74Q104 50 131 38T196 25Q209 25 225 28T256 41T281 67T291 109Q291 139 274 156T230 185T173 206T116 230T73 266T55 327Q55 358 67 382T100 423T150 448T213 457Q234 457 255 456T292 453T318 449T328 443Q329 424 330 401T331 367Q331 344 327 335T311 325Q304 325 299 327T291 336T286 357T281 396Q280 405 260 412T217 419Q186 419 166 411T133 390T116 364T111 340Q111 315 129 301T174 275T232 254T290 229T335 190T353 128Q353 99 345 74T317 29T264 -1T182 -13Q168 -13 151 -12T117 -9T87 -6T70 -3Q61 -2 60 9L49 87ZM54 709L56 711H87L204 606L321 711H352L354 709L232 542H176L54 709Z"  />
<glyph unicode="&#x178;" horiz-adv-x="667" d="M301 280L75 629Q68 640 63 647T50 659T34 668T11 677Q1 680 -1 683T-4 699Q-4 707 -1 711T14 715Q34 715 52 709T100 702Q110 702 123 704T148 708T171 713T189 715Q199 715 201 712T203 693Q203 683 200 681T186 677Q160 672 151 668T142 655Q142 650 147 641T171 603L345 333L518 617Q529 636 533 642T537 654Q537 662 523 666T483 677Q472 680 472 694Q472 708 475 711T485 715Q501 715 524 709T573 702Q582 702 595 704T620 708T643 713T658 715Q664 715 667 713T671 694Q671 683 666 681T654 677Q634 674 618 666T592 643L369 280V105Q369 83 373 69T385 47T408 34T443 25Q454 23 456 20T459 3Q459 -9 455 -11T443 -13Q428 -13 397 -7T335 0Q305 0 274 -6T227 -13Q220 -13 216 -11T211 3Q211 16 213 19T227 25Q248 29 262 34T284 47T297 69T301 105V280ZM386 826Q386 844 400 858T432 872Q450 872 464 858T478 826Q478 808 464 794T432 780Q414 780 400 794T386 826ZM190 826Q190 844 203 858T236 872Q254 872 268 858T282 826Q282 808 268 794T236 780Q217 780 204 794T190 826Z"  />
<glyph unicode="&#x17D;" horiz-adv-x="668" d="M489 652H110Q88 652 74 649T50 642T36 634T29 627Q23 618 18 618Q14 618 14 625Q14 627 16 637L26 705Q28 715 32 715Q37 715 41 713T57 709Q69 706 92 704T160 702H579Q584 702 588 702T592 699Q592 698 584 687L119 50H553Q585 50 600 55T627 69Q635 74 638 77T644 80Q647 80 647 76Q647 73 647 70T645 62L632 -6Q631 -13 628 -13Q626 -13 622 -11T609 -6Q601 -4 586 -2T545 0H27Q17 0 17 4Q17 6 18 9T24 19L489 652ZM154 924L156 926H187L304 821L421 926H452L454 924L332 757H276L154 924Z"  />
<glyph unicode="&#x17E;" horiz-adv-x="520" d="M368 388H191Q154 388 129 384T87 376T62 368T53 364Q45 364 45 371Q45 372 46 380T50 400T54 422T59 443Q61 450 68 450Q85 450 118 447Q134 446 153 445T194 444H333Q348 444 365 445T400 447Q417 449 430 449T449 450Q457 450 460 443T463 427Q463 418 436 388L133 56H342Q385 56 413 59T459 66T484 73T493 76Q500 76 500 70Q500 65 498 53T493 28T486 4T476 -6Q473 -6 469 -5T454 -3Q443 -2 426 -1T376 0H164Q133 0 115 0T85 -3Q74 -4 69 -5T59 -6Q54 -6 47 -2T40 17Q40 24 43 29T54 42L368 388ZM110 709L112 711H143L260 606L377 711H408L410 709L288 542H232L110 709Z"  />
<glyph unicode="&#x192;" horiz-adv-x="520" d="M201 296H93Q88 296 85 298T81 307V326Q81 340 93 340H209L236 470Q248 526 264 571T304 648T360 697T434 715Q466 715 488 705T510 668Q510 654 501 644T477 633Q464 633 456 638T440 649T422 660T396 665Q370 665 349 640T314 551L272 340H401Q414 340 414 332Q414 327 414 323T412 314L411 306Q410 296 396 296H264Q257 257 250 221T235 143T216 50T190 -71Q181 -110 165 -146T126 -210T72 -254T2 -271Q-19 -271 -33 -265T-55 -252T-67 -237T-70 -225Q-70 -212 -62 -200T-34 -188Q-20 -188 -11 -193T7 -204T23 -216T43 -221Q58 -221 70 -215T93 -190T114 -136T136 -43L201 296Z"  />
<glyph unicode="&#x2C6;" horiz-adv-x="278" d="M289 553L287 551H256L139 656L22 551H-9L-11 553L111 720H167L289 553Z"  />
<glyph unicode="&#x2C7;" horiz-adv-x="278" d="M-11 718L-9 720H22L139 615L256 720H287L289 718L167 551H111L-11 718Z"  />
<glyph unicode="&#x2DA;" horiz-adv-x="278" d="M42 638Q42 679 70 707T139 735Q180 735 208 707T236 638Q236 597 208 569T139 541Q98 541 70 569T42 638ZM68 638Q68 609 89 588T139 567Q168 567 189 588T210 638Q210 667 189 688T139 709Q110 709 89 688T68 638Z"  />
<glyph unicode="&#x2DC;" horiz-adv-x="278" d="M-23 577Q-16 618 11 647T83 676Q101 676 119 668T155 649Q171 641 186 634T217 627Q237 627 251 642T273 679H301Q296 660 288 642T266 609T235 586T195 577Q175 577 157 584T122 601Q105 609 89 616T58 624Q37 624 23 611T3 577H-23Z"  />
<glyph unicode="&#x2013;" horiz-adv-x="500" d="M0 263H500V213H0V263Z"  />
<glyph unicode="&#x2014;" horiz-adv-x="1000" d="M0 263H1000V213H0V263Z"  />
<glyph unicode="&#x2018;" horiz-adv-x="260" d="M196 715Q207 715 207 712Q207 711 193 690T160 640T128 581T113 533Q113 525 116 515T140 505Q151 505 157 507T168 511Q161 489 157 463T151 413Q139 415 127 416T101 417Q76 417 53 413Q55 459 64 500T88 577T122 648T165 715H196Z"  />
<glyph unicode="&#x2019;" horiz-adv-x="260" d="M64 413Q53 413 53 416Q53 417 67 438T100 488T132 547T147 595Q147 603 144 613T120 623Q109 623 103 621T92 617Q96 629 98 642T103 666Q108 692 109 715Q121 713 133 712T159 711Q184 711 207 715Q205 668 196 628T172 551T138 480T95 413H64Z"  />
<glyph unicode="&#x201A;" horiz-adv-x="260" d="M64 -210Q53 -210 53 -207Q53 -206 67 -185T100 -135T132 -76T147 -28Q147 -20 144 -10T120 0Q109 0 103 -2T92 -6Q99 16 103 42T109 92Q121 90 133 89T159 88Q184 88 207 92Q205 45 196 5T172 -72T138 -143T95 -210H64Z"  />
<glyph unicode="&#x201C;" horiz-adv-x="408" d="M344 715Q355 715 355 712Q355 711 341 690T308 640T276 581T261 533Q261 525 264 515T288 505Q299 505 305 507T316 511Q309 489 305 463T299 413Q287 415 275 416T249 417Q224 417 201 413Q203 459 212 500T236 577T270 648T313 715H344ZM196 715Q207 715 207 712Q207 711 193 690T160 640T128 581T113 533Q113 525 116 515T140 505Q151 505 157 507T168 511Q161 489 157 463T151 413Q139 415 127 416T101 417Q76 417 53 413Q55 459 64 500T88 577T122 648T165 715H196Z"  />
<glyph unicode="&#x201D;" horiz-adv-x="408" d="M64 413Q53 413 53 416Q53 417 67 438T100 488T132 547T147 595Q147 603 144 613T120 623Q109 623 103 621T92 617Q99 639 103 665T109 715Q121 713 133 712T159 711Q184 711 207 715Q205 668 196 628T172 551T138 480T95 413H64ZM212 413Q201 413 201 416Q201 417 215 438T248 488T280 547T295 595Q295 603 292 613T268 623Q257 623 251 621T240 617Q247 639 251 665T257 715Q269 713 281 712T307 711Q332 711 355 715Q353 668 344 628T320 551T286 480T243 413H212Z"  />
<glyph unicode="&#x201E;" horiz-adv-x="408" d="M64 -210Q53 -210 53 -207Q53 -206 67 -185T100 -135T132 -76T147 -28Q147 -20 144 -10T120 0Q109 0 103 -2T92 -6Q99 16 103 42T109 92Q121 90 133 89T159 88Q184 88 207 92Q205 45 196 5T172 -72T138 -143T95 -210H64ZM212 -210Q201 -210 201 -207Q201 -206 215 -185T248 -135T280 -76T295 -28Q295 -20 292 -10T268 0Q257 0 251 -2T240 -6Q247 16 251 42T257 92Q269 90 281 89T307 88Q332 88 355 92Q353 45 344 5T320 -72T286 -143T243 -210H212Z"  />
<glyph unicode="&#x2020;" horiz-adv-x="520" d="M244 401L159 388Q151 387 139 385T115 381T90 378T71 376Q54 376 47 389T40 416Q40 430 47 443T71 456Q78 456 90 455T114 451T139 447T159 444L244 430L226 601Q224 618 222 636T220 672Q220 690 231 702T260 715Q277 715 288 703T300 672Q300 655 298 637T294 601L276 430L361 444Q369 445 381 447T405 451T429 454T449 456Q466 456 473 443T480 416Q480 402 473 389T449 376Q441 376 430 377T406 381T381 385T361 388L276 401L294 17Q296 -17 298 -51T300 -120Q300 -141 291 -156T260 -171Q238 -171 229 -156T220 -120Q220 -86 222 -52T226 17L244 401Z"  />
<glyph unicode="&#x2021;" horiz-adv-x="520" d="M245 75L173 65Q166 64 154 62T129 58T105 55T87 53Q67 53 54 59T40 90Q40 110 49 118T78 127Q94 127 118 123T159 116L245 102L231 272L245 441L173 431Q166 430 154 428T129 424T105 421T87 419Q67 419 54 425T40 456Q40 476 49 484T78 493Q94 493 118 489T159 482L245 468L232 578Q231 586 229 599T225 627T222 655T220 674Q220 691 230 703T260 715Q280 715 290 703T300 674Q300 668 299 655T295 628T291 600T288 578L275 468L361 482Q378 485 402 489T442 493Q461 493 470 485T480 456Q480 432 467 426T433 419Q427 419 416 420T392 424T367 428T347 431L275 441L289 272L275 102L361 116Q378 119 402 123T442 127Q461 127 470 119T480 90Q479 66 467 60T433 53Q427 53 416 54T392 58T367 62T347 65L275 75L288 -34Q289 -42 291 -55T295 -83T298 -111T300 -130Q300 -147 290 -159T260 -171Q240 -171 230 -159T220 -130Q220 -124 221 -111T225 -84T229 -56T232 -34L245 75Z"  />
<glyph unicode="&#x2022;" horiz-adv-x="501" d="M75 351Q75 387 88 419T126 475T182 512T250 526Q286 526 318 513T374 475T412 419T426 351Q426 315 412 283T374 227T318 189T250 175Q214 175 182 189T126 227T89 283T75 351Z"  />
<glyph unicode="&#x2026;" horiz-adv-x="1000" d="M115 39Q115 61 130 76T167 91Q189 91 204 76T219 39Q219 17 204 2T167 -13Q145 -13 130 2T115 39ZM448 39Q448 61 463 76T500 91Q522 91 537 76T552 39Q552 17 537 2T500 -13Q478 -13 463 2T448 39ZM781 39Q781 61 796 76T833 91Q855 91 870 76T885 39Q885 17 870 2T833 -13Q811 -13 796 2T781 39Z"  />
<glyph unicode="&#x2030;" horiz-adv-x="1000" d="M744 148Q744 82 761 48T821 13Q842 13 857 26T881 59T894 103T898 148Q898 194 890 220T869 261T844 279T821 283Q812 283 799 279T774 261T753 220T744 148ZM676 148Q676 183 688 212T721 263T767 297T821 309Q893 309 929 265T966 148Q966 140 961 114T941 60T897 9T821 -13Q791 -13 765 -3T719 27T688 77T676 148ZM34 554Q34 589 46 618T79 669T125 703T179 715Q251 715 287 671T324 554Q324 546 319 520T299 466T255 415T179 393Q149 393 123 403T77 433T46 483T34 554ZM102 554Q102 488 119 454T179 419Q200 419 215 432T239 465T252 509T256 554Q256 600 248 626T227 667T202 685T179 689Q170 689 157 685T132 667T111 626T102 554ZM340 148Q340 183 352 212T385 263T431 297T485 309Q557 309 593 265T630 148Q630 140 625 114T605 60T561 9T485 -13Q455 -13 429 -3T383 27T352 77T340 148ZM408 148Q408 82 425 48T485 13Q506 13 521 26T545 59T558 103T562 148Q562 194 554 220T533 261T508 279T485 283Q476 283 463 279T438 261T417 220T408 148ZM541 728H582L127 -26H86L541 728Z"  />
<glyph unicode="&#x2039;" horiz-adv-x="278" d="M57 235L166 392H215L109 235L215 84H166L57 235Z"  />
<glyph unicode="&#x203A;" horiz-adv-x="278" d="M169 235L63 392H112L221 235L112 84H63L169 235Z"  />
<glyph unicode="&#x20AC;" horiz-adv-x="520" d="M457 7Q444 2 433 -2T408 -8T372 -11T318 -12Q217 -12 157 64T86 286H19L32 319H83Q82 326 82 337T82 355Q82 361 82 370T83 386H19L32 420H85Q91 490 108 544T153 637T222 695T318 715Q346 715 367 713T406 707T441 700T476 696L482 584Q482 578 477 574T464 569Q445 569 442 587Q437 637 411 657T332 678Q291 678 261 660T210 608T176 527T158 420H423L411 386H157Q156 379 156 371T156 354V319H384L371 286H158Q166 161 213 92T332 23Q370 23 397 38T435 95Q441 121 446 128T462 136Q472 136 478 132T485 121Q485 116 483 102T475 65L457 7Z"  />
<glyph unicode="&#x2122;" horiz-adv-x="990" d="M129 327Q147 329 157 331T172 338T178 348T179 366V695H127Q95 695 81 675T60 626H40V715H374V626H354Q348 655 334 675T287 695H235V367Q235 355 236 349T242 338T257 332T285 327V307H129V327ZM436 327Q468 331 478 344T488 389V644Q488 648 484 656T472 673T451 688T421 695V715H530L691 390L858 715H950V695Q919 693 906 679T893 637V384Q893 364 893 354T898 338T913 332T943 327V307H788V327Q807 330 817 331T832 338T836 353T837 384V625H835L679 304H670L516 623H514V389Q514 357 524 344T566 327V307H436V327Z"  />

</font>
</defs>
</svg>
